<svg width="24" height="24" viewBox="0 0 24 24" fill="none" xmlns="http://www.w3.org/2000/svg">
<path d="M12 22C12.6193 22.0008 13.2235 21.8086 13.7285 21.4502C14.2335 21.0917 14.6143 20.5849 14.818 20H9.182C9.38566 20.5849 9.76648 21.0917 10.2715 21.4502C10.7765 21.8086 11.3807 22.0008 12 22ZM19 14.586V10C19 6.783 16.815 4.073 13.855 3.258C13.562 2.52 12.846 2 12 2C11.154 2 10.438 2.52 10.145 3.258C7.185 4.074 5 6.783 5 10V14.586L3.293 16.293C3.10545 16.4805 3.00006 16.7348 3 17V18C3 18.2652 3.10536 18.5196 3.29289 18.7071C3.48043 18.8946 3.73478 19 4 19H20C20.2652 19 20.5196 18.8946 20.7071 18.7071C20.8946 18.5196 21 18.2652 21 18V17C20.9999 16.7348 20.8946 16.4805 20.707 16.293L19 14.586Z" fill="#545451"/>
<path d="M12.168 19.6406C12.2113 19.6521 12.2479 19.6716 12.2773 19.6934L12.3477 19.7598L12.3965 19.8223L12.4199 19.8496H12.4492C12.4729 19.8492 12.4975 19.8469 12.5215 19.8438L12.5723 19.8379L12.6211 19.8301C12.6564 19.8254 12.692 19.825 12.7266 19.8281L12.8301 19.8496L12.8438 19.8535L12.8867 19.8145C12.9456 19.7616 13.0304 19.7162 13.1289 19.7168L13.2324 19.7344L13.2812 19.752L13.2871 19.7539L13.3008 19.748L13.3496 19.7266L13.4492 19.6973C13.4833 19.6931 13.5187 19.6956 13.5547 19.7031C13.5895 19.7104 13.6212 19.7215 13.6484 19.7363L13.7188 19.7852L13.7461 19.8086H13.75L13.8242 19.7832C13.8997 19.766 13.9786 19.7728 14.0527 19.8047L14.1035 19.8262L14.1426 19.8438L14.1777 19.8398L14.2285 19.8359C14.2367 19.8351 14.2468 19.8314 14.2598 19.8262L14.3105 19.8066L14.3594 19.7852C14.3801 19.7767 14.4025 19.7658 14.4258 19.752L14.4766 19.7227L14.5254 19.6934C14.5415 19.6838 14.5654 19.6699 14.5938 19.6602C14.6168 19.6523 14.6764 19.6353 14.748 19.6523C14.8424 19.6749 14.9072 19.7454 14.9336 19.8242C14.9536 19.8845 14.947 19.9368 14.9434 19.959L14.9375 19.998L14.9316 20.0391V20.0664L14.9375 20.123L14.9453 20.1777C14.955 20.2673 14.9365 20.3626 14.8789 20.4453L14.8496 20.4863L14.8223 20.5273C14.7849 20.581 14.7378 20.626 14.6855 20.6621H14.6816L14.6895 20.709C14.7056 20.8141 14.684 20.9545 14.5586 21.0469L14.5156 21.0781L14.4746 21.1094C14.4127 21.155 14.3432 21.1814 14.2734 21.1953H14.2695V21.2031C14.2566 21.3029 14.2047 21.4127 14.0898 21.4766L14.0449 21.502L14 21.5254C13.9647 21.5449 13.9292 21.5636 13.8926 21.5801L13.8457 21.6016L13.8379 21.6035L13.8281 21.627L13.8027 21.6797C13.7607 21.7696 13.6852 21.8493 13.5742 21.8828L13.5254 21.8965L13.5098 21.9004L13.4941 21.9258L13.4609 21.9766C13.4092 22.0534 13.3313 22.1174 13.2285 22.1426L13.127 22.166C13.0207 22.192 12.9227 22.1684 12.8457 22.1309L12.7832 22.0996L12.7207 22.0703L12.6973 22.0742L12.6699 22.0762L12.6406 22.1016L12.5957 22.1348C12.5459 22.1735 12.4798 22.203 12.4023 22.2051C12.3274 22.2069 12.2641 22.183 12.2168 22.1543L12.2129 22.1523C12.1998 22.1776 12.1831 22.2044 12.1582 22.2266C12.1107 22.2685 12.0585 22.2823 12.0234 22.2871C11.9634 22.2953 11.9159 22.2799 11.9023 22.2754C11.8665 22.2635 11.833 22.2454 11.8145 22.2344L11.7266 22.1816H11.6445C11.5644 22.1806 11.4893 22.1569 11.4238 22.1172L11.4043 22.1035L11.3555 22.1289C11.2565 22.1756 11.1242 22.1866 11.0059 22.1055L10.9199 22.0469C10.9122 22.0415 10.9053 22.0385 10.9004 22.0371L10.8535 22.0234L10.8047 22.0098C10.7599 21.9969 10.716 21.9809 10.6738 21.9609L10.584 21.918C10.5713 21.912 10.5562 21.9062 10.5391 21.9023L10.4375 21.8789C10.4009 21.8707 10.3634 21.8632 10.3262 21.8535L10.2207 21.8262C10.0815 21.7901 10.0025 21.6826 9.97266 21.5742L9.95898 21.5273L9.93945 21.5234C9.8286 21.4954 9.73822 21.4193 9.69336 21.3105L9.67383 21.2617L9.65234 21.2109C9.64888 21.2025 9.6455 21.1984 9.64453 21.1973L9.57812 21.123C9.53462 21.0756 9.50007 21.0218 9.47656 20.9629L9.45703 20.916L9.43945 20.8672C9.43223 20.8492 9.42271 20.834 9.41406 20.8203L9.38867 20.7793L9.36719 20.7441L9.32031 20.7129L9.27344 20.6836C9.2189 20.6483 9.17045 20.6029 9.13086 20.5488L9.09961 20.5078L9.07031 20.4668C9.01361 20.3894 8.9899 20.2999 8.99414 20.2109L8.99805 20.1543L9 20.0996C9.00076 20.084 9.00373 20.0323 9.02344 19.9824C9.02954 19.9671 9.04069 19.9387 9.06445 19.9102C9.0895 19.8802 9.13854 19.8384 9.21289 19.8242C9.23227 19.8205 9.25033 19.8239 9.26758 19.8242L9.29297 19.8027L9.39062 19.7383C9.42652 19.72 9.46669 19.7052 9.50977 19.6973L9.55859 19.6875L9.60938 19.6797H9.75195L9.87891 19.7285L9.92773 19.7559L9.97852 19.7852C9.99114 19.7924 9.9994 19.7959 10.0039 19.7969L10.0273 19.8008L10.0352 19.7949L10.0859 19.75L10.1484 19.7012C10.2189 19.6579 10.3111 19.6314 10.416 19.6582L10.4668 19.6719L10.5156 19.6836C10.5526 19.6931 10.5901 19.7036 10.627 19.7148L10.6777 19.7305L10.7188 19.7422L10.7598 19.7363L10.8086 19.7266C10.8659 19.716 10.9243 19.714 10.9824 19.7207L11.084 19.7324C11.1286 19.7377 11.1696 19.7506 11.207 19.7676L11.3086 19.8301L11.3594 19.8691L11.3633 19.8711L11.3867 19.8672C11.388 19.8663 11.3912 19.8641 11.3945 19.8613L11.4434 19.8203L11.4941 19.7793L11.5625 19.7324C11.6125 19.7058 11.6709 19.6897 11.7344 19.6914L11.834 19.709L11.8652 19.7188L11.9121 19.6875L12.0273 19.6367C12.0706 19.6275 12.1183 19.6275 12.168 19.6406ZM11.1797 21.7578L11.2051 21.8125L11.2461 21.7539L11.2207 21.6992L11.1797 21.7578ZM11.2461 21.7539L11.2051 21.8125L11.1797 21.7578L11.2207 21.6992L11.2461 21.7539ZM10.373 20.1641L10.3223 20.2109C10.2511 20.2759 10.1398 20.3345 10.0039 20.3066L9.95312 20.2969L9.9043 20.2852C9.84221 20.2723 9.78367 20.2492 9.73047 20.2188L9.67969 20.1895L9.6582 20.1777L9.64844 20.1797L9.61328 20.1855L9.56445 20.2285L9.5332 20.2539C9.53399 20.255 9.53751 20.2589 9.54492 20.2637L9.5918 20.293L9.63867 20.3242C9.69536 20.361 9.74626 20.4092 9.78516 20.4707L9.8125 20.5117L9.83789 20.5527C9.86369 20.5937 9.88631 20.6385 9.9043 20.6836L9.92188 20.7305L9.94141 20.7773C9.94294 20.7812 9.9442 20.7838 9.94531 20.7852L9.97852 20.8223L10.0137 20.8594C10.0574 20.9072 10.0895 20.9619 10.1133 21.0195L10.127 21.0547L10.1699 21.0664C10.2737 21.0927 10.3461 21.1575 10.3887 21.2363L10.4219 21.3184L10.4336 21.3633L10.4512 21.3691C10.4836 21.3775 10.5155 21.3855 10.5469 21.3926L10.5977 21.4043L10.6484 21.4141C10.6992 21.4255 10.7497 21.4426 10.7969 21.4648L10.8418 21.4863L10.8887 21.5078C10.9064 21.5162 10.9245 21.5239 10.9434 21.5293L10.9902 21.543L11.0391 21.5566C11.0981 21.5736 11.1533 21.6006 11.2031 21.6348L11.2148 21.6426L11.2559 21.623L11.332 21.5957C11.4132 21.576 11.5057 21.5816 11.5938 21.6348L11.6387 21.6621L11.6699 21.6816H11.75C11.8179 21.6825 11.8798 21.7014 11.9355 21.7285L11.9844 21.6895C12.031 21.6516 12.0953 21.6188 12.1738 21.6133C12.2132 21.6105 12.2499 21.6157 12.2832 21.625L12.3711 21.6641L12.3789 21.668C12.4393 21.6218 12.5138 21.5907 12.5977 21.582L12.6465 21.5762L12.6953 21.5723L12.8281 21.5801C12.8694 21.5895 12.908 21.6048 12.9414 21.6211L13.002 21.6504L13.043 21.6699L13.0586 21.668L13.0664 21.6641L13.0801 21.6484L13.1133 21.5977L13.2051 21.5C13.2413 21.4717 13.2837 21.4482 13.332 21.4336L13.3711 21.4199L13.375 21.416L13.4004 21.3613L13.4766 21.25C13.5088 21.2163 13.5486 21.1872 13.5957 21.166L13.6406 21.1445L13.6875 21.125C13.7115 21.1142 13.7344 21.1009 13.7578 21.0879L13.7812 21.0742L13.7891 21.0156L13.8145 20.9219C13.8278 20.8905 13.8466 20.8591 13.873 20.8301C13.9275 20.7709 13.9962 20.7405 14.0566 20.7285L14.1152 20.7168L14.1758 20.7051C14.185 20.7032 14.1836 20.7027 14.1777 20.707L14.1816 20.7031L14.1738 20.6523C14.158 20.5491 14.1813 20.4182 14.293 20.3281C14.2885 20.3287 14.2838 20.3316 14.2793 20.332L14.2305 20.3379L14.1797 20.3438C14.1004 20.3519 14.0242 20.3365 13.9551 20.3066L13.9062 20.2852L13.9082 20.2871L13.8574 20.3086C13.7967 20.3363 13.7267 20.3487 13.6543 20.334C13.585 20.3196 13.5298 20.2844 13.4902 20.25L13.4609 20.2227L13.457 20.2266C13.3695 20.2662 13.2713 20.2735 13.1758 20.2422L13.1641 20.2383L13.1211 20.2773C13.0433 20.347 12.9206 20.4019 12.7793 20.3574L12.7285 20.3418L12.6816 20.3262L12.6367 20.334L12.5859 20.3398C12.5437 20.3454 12.5014 20.3489 12.459 20.3496H12.4082L12.3574 20.3516C12.2133 20.3536 12.1143 20.2645 12.0605 20.1992L12.0527 20.1895C11.9725 20.2313 11.8765 20.2503 11.7754 20.2168L11.7559 20.209L11.7148 20.2461C11.6596 20.2922 11.5911 20.3325 11.5117 20.3516L11.4629 20.3633L11.4121 20.375C11.2872 20.4049 11.1773 20.3618 11.0996 20.3008L11.0488 20.2617L11.0039 20.2246L10.9746 20.2227L10.9258 20.2168C10.9174 20.2158 10.9075 20.2171 10.8984 20.2188L10.8496 20.2285L10.7988 20.2363C10.7255 20.2498 10.6521 20.2458 10.582 20.2246L10.4805 20.1934C10.451 20.1844 10.4219 20.1755 10.3926 20.168L10.373 20.1621V20.1641ZM12.1465 1.70898L12.2441 1.74219L12.293 1.76953L12.3008 1.77344L12.3691 1.75391C12.435 1.73579 12.5045 1.72946 12.5742 1.73828L12.627 1.74609L12.6797 1.75195C12.7921 1.76644 12.8692 1.83013 12.918 1.90039L12.957 1.9707L12.9727 2.01172H12.9785L13.0781 2.02734C13.1128 2.03779 13.1471 2.05488 13.1797 2.08008C13.2314 2.12015 13.2601 2.17071 13.2793 2.2168H13.2949L13.3965 2.21289C13.4356 2.21754 13.479 2.23004 13.5215 2.25586C13.5685 2.28449 13.6005 2.32257 13.623 2.36133L13.6641 2.47656L13.668 2.50586L13.6914 2.51367C13.7742 2.53949 13.8539 2.59012 13.9102 2.67188L13.9395 2.71484L13.9707 2.75781C13.9901 2.7862 14.0095 2.815 14.0293 2.84375L14.0586 2.88867L14.0879 2.93164C14.116 2.97245 14.1348 3.01536 14.1465 3.05859C14.1766 3.05858 14.2073 3.0638 14.2383 3.07227L14.3223 3.10742L14.3672 3.13281L14.3848 3.14258L14.416 3.14062L14.4727 3.13477L14.5586 3.13672C14.6146 3.14426 14.6667 3.16484 14.7129 3.19727L14.7773 3.25391L14.8145 3.29492H14.8652C14.941 3.29437 15.0151 3.31411 15.0781 3.35547L15.1367 3.4043L15.1738 3.44141L15.2129 3.47852C15.2242 3.48968 15.2346 3.49838 15.2441 3.50391L15.3301 3.55469C15.3706 3.57821 15.4057 3.60644 15.4336 3.63867L15.502 3.74414L15.5273 3.79883L15.5488 3.84766L15.5566 3.85352L15.5879 3.8457L15.6602 3.82422C15.698 3.8128 15.7402 3.80317 15.7852 3.80078L15.9277 3.81836L16.0293 3.84961C16.1733 3.89395 16.2283 4.00761 16.248 4.09961L16.2578 4.18164L16.2598 4.26562V4.28516L16.2773 4.2832L16.3516 4.26953L16.5098 4.26758C16.5679 4.2788 16.6284 4.30542 16.6816 4.35742L16.7539 4.42969C16.7954 4.47039 16.8309 4.51638 16.8594 4.56641L16.8848 4.61133L16.9121 4.6582C16.943 4.71255 16.962 4.771 16.9746 4.83008L16.9824 4.83203C17.0435 4.83647 17.1038 4.84797 17.1621 4.86719L17.2715 4.90234C17.3474 4.9274 17.4172 4.98233 17.457 5.06641C17.4925 5.14129 17.493 5.21588 17.4863 5.26758L17.4766 5.34375L17.4707 5.37305L17.4902 5.39258C17.5079 5.41012 17.527 5.4268 17.5469 5.44336L17.625 5.50977C17.6311 5.51483 17.6416 5.52193 17.6582 5.5293L17.7109 5.55078L17.7637 5.57422C17.8497 5.61237 17.9139 5.67967 17.9473 5.76367L17.9707 5.85156L17.9746 5.89453L18.0117 5.91602C18.0718 5.94906 18.1275 6.00156 18.1582 6.07617C18.1873 6.14691 18.1848 6.21619 18.1758 6.26953L18.1699 6.30664L18.1738 6.31055C18.2086 6.33398 18.2423 6.35915 18.2754 6.38477L18.3613 6.45117C18.3888 6.47244 18.4148 6.49675 18.4375 6.52344L18.498 6.61133L18.5449 6.70117C18.5596 6.72929 18.5745 6.75731 18.5898 6.78516L18.6133 6.83008L18.6387 6.875C18.6534 6.90167 18.6679 6.92863 18.6836 6.95508L18.7109 7L18.7363 7.04297C18.7958 7.14305 18.7911 7.24841 18.7676 7.33398C18.86 7.37946 18.9622 7.47173 18.9707 7.625L18.9746 7.67773V7.7168L18.998 7.75391L19.0254 7.79688C19.1192 7.94658 19.0615 8.09688 19.0078 8.17773L18.9902 8.20117C19.0211 8.23722 19.0501 8.27992 19.0645 8.33398C19.0821 8.40043 19.0768 8.46435 19.0605 8.51953L19.0508 8.55078L19.0742 8.57812C19.117 8.62718 19.1515 8.6947 19.1562 8.77539C19.1608 8.85333 19.1356 8.92022 19.1074 8.96875L19.0938 8.98828L19.0977 8.99219C19.1523 9.06365 19.1862 9.1542 19.1797 9.25586L19.1777 9.30664L19.1738 9.35742C19.1727 9.37497 19.1737 9.39181 19.1758 9.4082L19.1816 9.45703L19.1875 9.50781C19.1889 9.51834 19.1916 9.53075 19.1973 9.54492L19.2363 9.64258C19.2628 9.7088 19.2751 9.78027 19.2695 9.85352L19.2656 9.9043L19.2617 9.93359L19.2832 9.97266L19.3086 10.0234C19.3391 10.084 19.3524 10.1562 19.3379 10.2324C19.3239 10.3053 19.2876 10.3623 19.252 10.4023L19.209 10.4531L19.1641 10.502C19.1525 10.515 19.1548 10.5158 19.1582 10.5039L19.1445 10.5547L19.1426 10.5605L19.1738 10.623C19.1896 10.6541 19.2037 10.6864 19.2129 10.7207L19.2285 10.8281L19.2305 10.8789V10.9297C19.2308 10.9308 19.2332 10.9329 19.2344 10.9355L19.2559 10.9844L19.2773 11.0352C19.3047 11.0971 19.3149 11.168 19.2988 11.2402C19.2835 11.3091 19.2475 11.3633 19.2129 11.4023L19.207 11.4062C19.2407 11.4592 19.2667 11.5272 19.2598 11.6074C19.2525 11.6901 19.2154 11.7549 19.1777 11.7988L19.1699 11.8066C19.198 11.8505 19.2232 11.8971 19.2422 11.9453L19.2617 11.9941L19.2812 12.0449C19.303 12.1004 19.3164 12.1599 19.3203 12.2207L19.3242 12.2695L19.3281 12.3203C19.3316 12.3744 19.3282 12.4292 19.3184 12.4824L19.3086 12.5312L19.2988 12.582C19.2848 12.6572 19.253 12.7245 19.2129 12.7812L19.1777 12.8301L19.1543 12.8613L19.1562 12.8789V12.9043L19.1836 12.9473L19.2168 12.9961C19.2649 13.0678 19.2975 13.1595 19.2871 13.2617L19.2812 13.3105L19.2773 13.3613C19.2679 13.454 19.2262 13.5312 19.1777 13.5918L19.1367 13.6426L19.1094 13.6758V13.7402C19.1093 13.7447 19.1086 13.7514 19.1113 13.7598L19.1289 13.8086L19.1445 13.8594C19.1409 13.8483 19.139 13.851 19.1523 13.8652L19.1992 13.9141L19.2461 13.9648C19.3063 14.029 19.3644 14.1261 19.3574 14.25L19.3535 14.3008L19.3516 14.3496C19.3506 14.3668 19.3445 14.3837 19.3418 14.4004C19.3539 14.4143 19.3665 14.4268 19.375 14.4414C19.4063 14.4955 19.4127 14.5512 19.4141 14.5918C19.474 14.5967 19.5429 14.6138 19.6035 14.6582L19.6758 14.7324L19.7344 14.8145C19.7599 14.8497 19.7851 14.8855 19.8066 14.9238L19.832 14.9707L19.8574 15.0156C19.8939 15.0808 19.9124 15.1508 19.9199 15.2188L19.9258 15.2832L19.9297 15.3184L19.9355 15.3242L19.9727 15.3574C20.0009 15.3838 20.0282 15.4112 20.0547 15.4395L20.0742 15.4609L20.1074 15.459L20.1855 15.4512C20.2375 15.4467 20.3127 15.4489 20.3867 15.4883C20.4702 15.5328 20.5204 15.6078 20.541 15.6855L20.5566 15.7422L20.5645 15.7773L20.582 15.793L20.6211 15.8262C20.6835 15.8799 20.7186 15.9482 20.7402 16.0176H20.7715L20.8672 16.0234C20.9021 16.0304 20.94 16.0437 20.9766 16.0664C21.0591 16.1178 21.1026 16.1978 21.1172 16.2754L21.1289 16.334L21.1387 16.3926C21.1489 16.4472 21.1538 16.5033 21.1523 16.5586V16.6113L21.1504 16.666C21.1494 16.7059 21.1473 16.7449 21.1445 16.7812L21.1367 16.875C21.1364 16.8795 21.1373 16.885 21.1387 16.8906L21.1621 16.9844C21.1822 17.0648 21.1762 17.145 21.1523 17.2188L21.1211 17.3203C21.1168 17.3337 21.1138 17.3451 21.1133 17.3555L21.1113 17.3906L21.1836 17.4629C21.2349 17.5125 21.2841 17.5729 21.3145 17.6465L21.334 17.6973L21.3555 17.748C21.3886 17.829 21.3951 17.9163 21.375 18.002L21.3633 18.0547L21.3516 18.1055C21.3256 18.216 21.2546 18.2946 21.1816 18.3457L21.166 18.3555L21.1699 18.3652C21.19 18.4211 21.2134 18.5334 21.1406 18.6406C21.0732 18.7395 20.9703 18.7645 20.9199 18.7715L20.8691 18.7773C20.8569 18.8268 20.8412 18.8762 20.8203 18.9238L20.7949 18.9805L20.7715 19.0391C20.743 19.1041 20.6814 19.1847 20.5723 19.2148C20.4745 19.2417 20.3898 19.2123 20.3418 19.1895L20.3379 19.1875V19.1895C20.3072 19.2364 20.235 19.3215 20.1094 19.334C19.9843 19.3462 19.8964 19.2774 19.8574 19.2383L19.8066 19.1855L19.7676 19.1465H19.7617L19.7559 19.1445L19.7324 19.1641L19.6816 19.2031C19.6319 19.242 19.577 19.276 19.5156 19.2988L19.4648 19.3164L19.416 19.3359C19.2583 19.3945 19.1255 19.32 19.0508 19.2441L19.0332 19.2266C18.9868 19.2499 18.9337 19.2689 18.873 19.2676C18.8043 19.2659 18.7431 19.2427 18.6953 19.2129L18.6562 19.1875L18.627 19.2012C18.6107 19.2081 18.5915 19.2178 18.5703 19.2324L18.5215 19.2676L18.4707 19.3027C18.3989 19.3524 18.3059 19.3863 18.2012 19.375L18.1523 19.3691L18.1016 19.3633C18.0088 19.3533 17.939 19.3058 17.8848 19.2578C17.8441 19.2955 17.7865 19.3394 17.7031 19.3477C17.5946 19.3583 17.5125 19.3087 17.4629 19.2637C17.419 19.2941 17.3625 19.322 17.293 19.3262C17.2111 19.331 17.1404 19.303 17.0879 19.2676L17.0391 19.2344L17.0039 19.2109L16.9883 19.2129L16.9375 19.2148C16.8703 19.2173 16.8062 19.2047 16.7461 19.1816L16.7148 19.2188C16.6552 19.2855 16.5469 19.369 16.3984 19.3516L16.3496 19.3457L16.2988 19.3398C16.2063 19.3289 16.1301 19.2854 16.0703 19.2363L16.0195 19.1953L16.0098 19.1875L15.9766 19.1953C15.9637 19.1978 15.9486 19.2013 15.9316 19.209L15.8809 19.2324L15.832 19.2559C15.7873 19.2762 15.7403 19.2919 15.6934 19.3047L15.6445 19.3184L15.5938 19.332C15.553 19.3431 15.512 19.3524 15.4707 19.3594L15.4199 19.3672L15.3691 19.377C15.2625 19.3946 15.1656 19.3645 15.0898 19.3145L15.041 19.2812L14.9902 19.248C14.9605 19.2284 14.9317 19.2087 14.9023 19.1914L14.8984 19.1895L14.8828 19.2031C14.8356 19.2401 14.7838 19.2726 14.7285 19.2969L14.6797 19.3184L14.6289 19.3398C14.5101 19.3919 14.3872 19.3733 14.291 19.3105L14.2461 19.2793L14.2148 19.293C14.1497 19.3171 14.0796 19.3281 14.0078 19.3223L13.959 19.3184L13.9082 19.3145C13.8991 19.3137 13.8893 19.3142 13.8789 19.3164L13.8301 19.3262L13.7793 19.3359C13.6144 19.3703 13.4964 19.273 13.4375 19.2031L13.4199 19.1816C13.4116 19.1875 13.4025 19.1946 13.3926 19.2031L13.3418 19.2461L13.293 19.2891C13.2519 19.3247 13.1932 19.3607 13.1191 19.373C13.0418 19.3859 12.9693 19.3695 12.9102 19.3379L12.8613 19.3105L12.8496 19.3047L12.8477 19.3066L12.7988 19.3203C12.676 19.3559 12.5627 19.3204 12.4805 19.2598L12.4297 19.2227L12.4219 19.2168L12.3848 19.2266C12.3563 19.2331 12.3275 19.2397 12.2988 19.248L12.248 19.2637L12.1973 19.2773C12.1648 19.2868 12.132 19.2969 12.0996 19.3066L12.0508 19.3203L12 19.3359C11.832 19.3862 11.7046 19.2919 11.6406 19.2188L11.5898 19.1621L11.5762 19.1465L11.5605 19.1504C11.5309 19.1544 11.5004 19.1589 11.4707 19.1641L11.4219 19.1719L11.3711 19.1816C11.3872 19.1788 11.3915 19.1729 11.3828 19.1797L11.332 19.2188L11.2832 19.2578C11.2314 19.2984 11.1541 19.3345 11.0605 19.3281C10.9703 19.3217 10.9029 19.2784 10.8594 19.2383L10.8477 19.2266C10.8039 19.2525 10.7589 19.2762 10.7109 19.293L10.6602 19.3105L10.6113 19.3281C10.5442 19.3516 10.4713 19.3601 10.3984 19.3516L10.3496 19.3457L10.2988 19.3398C10.2583 19.3351 10.2179 19.3286 10.1777 19.3203L10.127 19.3086L10.0781 19.2988C10.0128 19.2853 9.9527 19.2597 9.89844 19.2266L9.89648 19.2246L9.88281 19.2363C9.83892 19.2707 9.77903 19.3027 9.70508 19.3105C9.6288 19.3186 9.55921 19.2973 9.50391 19.2656L9.47461 19.25L9.44727 19.2656C9.37487 19.3048 9.29013 19.3252 9.19922 19.3145L9.14844 19.3086L9.09961 19.3027C9.03047 19.2945 8.96588 19.272 8.9082 19.2402L8.85742 19.2129L8.80859 19.1855C8.79622 19.1787 8.78724 19.1766 8.7832 19.1758L8.76172 19.1699L8.75586 19.1777L8.70703 19.2285C8.6649 19.2712 8.59132 19.325 8.49023 19.3301C8.38687 19.335 8.30778 19.2878 8.25977 19.2441L8.21094 19.1973L8.18555 19.1758L8.13867 19.1777C8.09701 19.1795 8.05532 19.1802 8.01367 19.1777L7.96289 19.1738L7.94141 19.1719L7.91016 19.1934L7.86133 19.2246C7.77156 19.2804 7.65834 19.3019 7.54492 19.2617L7.49414 19.2441L7.4668 19.2324L7.44336 19.2402L7.39453 19.2539C7.34009 19.2688 7.28343 19.2777 7.22656 19.2773L7.17773 19.2754H7.12695C7.11006 19.2753 7.09196 19.2779 7.07422 19.2812L7.02539 19.291L6.97461 19.2988C6.89211 19.3144 6.81102 19.305 6.73633 19.2754L6.69336 19.2578L6.64648 19.2852C6.55863 19.3324 6.45512 19.348 6.35156 19.3145L6.30078 19.2969L6.25 19.2812C6.2113 19.2686 6.17303 19.2539 6.13477 19.2383L6.08398 19.2188L6.04297 19.2012L6.00977 19.207L5.95898 19.2129C5.95769 19.2135 5.95536 19.2135 5.95312 19.2148L5.9043 19.2441L5.85352 19.2734C5.78872 19.311 5.71367 19.3352 5.63086 19.3359L5.58008 19.3379H5.5293C5.44578 19.3383 5.37014 19.3129 5.30469 19.2754L5.26367 19.252L5.23047 19.2676C5.17335 19.2931 5.11136 19.3114 5.04688 19.3164L4.99805 19.3203L4.94727 19.3223C4.82322 19.3317 4.73154 19.2714 4.66992 19.2129C4.63365 19.2418 4.58861 19.2729 4.5293 19.2852C4.44446 19.3025 4.36491 19.2822 4.30273 19.2461L4.25195 19.2168L4.20312 19.1875C4.19526 19.1829 4.19538 19.1849 4.20117 19.1855L4.15039 19.1797L4.125 19.1758L4.0918 19.1953L4.04102 19.2207C3.97038 19.2574 3.89056 19.2764 3.80664 19.2715L3.75391 19.2695L3.70117 19.2656C3.58401 19.2588 3.48815 19.2003 3.42578 19.1152L3.39258 19.0684H3.38867L3.33008 19.0645C3.25257 19.0592 3.17726 19.0365 3.10938 18.9961L3.06055 18.9648L3.00977 18.9355C2.89985 18.8698 2.84204 18.7602 2.83594 18.6426L2.83203 18.582L2.83008 18.5195C2.82847 18.4889 2.82415 18.4639 2.82031 18.4453L2.81055 18.3965L2.80078 18.3457C2.79589 18.3221 2.78895 18.2986 2.78125 18.2754L2.76562 18.2266L2.74805 18.1777C2.73654 18.1431 2.72544 18.1079 2.71484 18.0723L2.69922 18.0215L2.68555 17.9707C2.67129 17.9227 2.66116 17.8739 2.65625 17.8242L2.65039 17.7734L2.64648 17.7227C2.64066 17.6621 2.64465 17.6018 2.6582 17.543L2.66992 17.4922L2.68164 17.4434C2.68452 17.4309 2.68589 17.4191 2.68555 17.4082L2.68359 17.3574L2.68164 17.3086C2.68119 17.2954 2.67793 17.2808 2.67383 17.2656L2.64648 17.1641C2.6227 17.0759 2.63143 16.9881 2.66211 16.9082L2.70117 16.8027C2.72578 16.739 2.76301 16.6812 2.80859 16.6309L2.8457 16.5898L2.88281 16.5469C2.89452 16.534 2.89934 16.5257 2.90039 16.5234L2.91992 16.4805L2.94141 16.4375C2.9432 16.4334 2.94646 16.4237 2.94922 16.4062L2.95898 16.3496L2.9668 16.293C2.97599 16.2341 2.99261 16.1758 3.01758 16.1211L3.04102 16.0723L3.0625 16.0234C3.09809 15.9456 3.15551 15.8802 3.23242 15.8359L3.32227 15.7852L3.45117 15.7363C3.47085 15.7325 3.49071 15.7339 3.50977 15.7324C3.50926 15.6728 3.51879 15.5878 3.58594 15.5156C3.65423 15.4424 3.73896 15.4281 3.80078 15.4258C3.8099 15.3296 3.85491 15.2135 3.98438 15.1504L4.03125 15.127L4.08008 15.1035C4.11422 15.0869 4.14855 15.0702 4.18359 15.0547L4.20312 15.0449L4.21094 14.998L4.25781 14.8535C4.28419 14.8073 4.32302 14.7658 4.375 14.7324L4.41797 14.7031L4.46094 14.6758L4.5918 14.623C4.62675 14.6153 4.66102 14.6138 4.69336 14.6133C4.7047 14.5337 4.73873 14.4603 4.79492 14.4004C4.77398 14.3674 4.75335 14.3289 4.74414 14.2832C4.72993 14.2118 4.74052 14.1423 4.76758 14.082L4.79102 14.0312L4.79492 14.0195L4.79297 14.0098L4.77734 13.9609C4.76688 13.928 4.75674 13.8943 4.74609 13.8613L4.72852 13.8105L4.71289 13.7617C4.7038 13.7336 4.69291 13.7043 4.68164 13.6758L4.66211 13.627L4.64258 13.5762C4.59977 13.4676 4.6131 13.3555 4.66602 13.2617L4.69336 13.2109L4.67773 13.1719C4.63664 13.0602 4.65622 12.9467 4.71094 12.8555L4.74023 12.8066L4.76953 12.7559C4.77914 12.7398 4.78466 12.7276 4.78711 12.7188L4.79688 12.6797L4.79492 12.6777L4.75977 12.627C4.71339 12.5603 4.68007 12.477 4.68164 12.3809V12.3301L4.68359 12.2793L4.71289 12.1387C4.73037 12.0967 4.75352 12.0592 4.7793 12.0273L4.82031 11.9766L4.83398 11.957L4.83008 11.916C4.82431 11.8692 4.8223 11.8205 4.82422 11.7734V11.7266L4.80273 11.7031L4.75781 11.6523C4.69479 11.5825 4.63837 11.4751 4.66016 11.3438L4.66797 11.293L4.67773 11.2441C4.68346 11.2099 4.68907 11.1749 4.69531 11.1406L4.70508 11.0898L4.71289 11.0391C4.71868 11.0073 4.72522 10.9751 4.73047 10.9434L4.73828 10.8945L4.74609 10.8438C4.75048 10.8172 4.75372 10.7901 4.75586 10.7637L4.75977 10.7148V10.6895L4.74414 10.6602L4.71484 10.6094C4.68283 10.554 4.66175 10.4851 4.66992 10.4082C4.678 10.3332 4.71125 10.2723 4.74609 10.2285L4.78516 10.1797L4.82617 10.1289C4.83994 10.1115 4.84508 10.0983 4.84766 10.0918L4.86719 10.043L4.8418 9.99414C4.81558 9.9399 4.7977 9.88152 4.78906 9.82031L4.78125 9.76953L4.77539 9.71875C4.77359 9.70635 4.76864 9.69165 4.76172 9.67383L4.74219 9.62109L4.72266 9.57031C4.69228 9.49212 4.68343 9.40573 4.70508 9.31836L4.7168 9.26758L4.72852 9.21875C4.72934 9.21544 4.73104 9.21209 4.73047 9.20703L4.72461 9.1543L4.71875 9.10352C4.70833 9.01458 4.727 8.92915 4.76953 8.85352L4.79492 8.80664L4.82227 8.75977C4.85379 8.70371 4.89397 8.65441 4.93945 8.61133L4.95312 8.5957L4.95117 8.58594C4.93205 8.53281 4.9186 8.47614 4.91211 8.41992L4.9043 8.36719L4.89844 8.31445C4.88407 8.18997 4.93475 8.08189 5.01562 8.00781L5.06055 7.96875L5.0957 7.93359L5.10547 7.9043L5.11914 7.85742C5.1239 7.84159 5.12902 7.82494 5.13086 7.80664L5.13477 7.75586L5.14062 7.70508C5.14081 7.70323 5.14058 7.69449 5.13672 7.67773L5.12305 7.61719L5.10938 7.55859C5.0902 7.47681 5.10088 7.37675 5.16992 7.29297C5.22819 7.22246 5.30405 7.19305 5.35352 7.17969L5.43359 7.1582L5.43945 7.15625C5.44455 7.12598 5.45004 7.09523 5.45508 7.06445L5.46289 7.01367L5.47266 6.96289L5.50195 6.85742C5.51652 6.8232 5.53546 6.79008 5.55859 6.75977L5.58398 6.72656L5.58203 6.70898L5.57031 6.64453C5.55968 6.5818 5.56346 6.49872 5.61133 6.41992C5.65867 6.3423 5.72995 6.30122 5.78711 6.28125L5.84766 6.25977L5.91016 6.23828L5.92969 6.21484L5.93945 6.20117L5.94141 6.17188L5.94531 6.11523L5.96875 5.99609C5.98214 5.95653 6.00038 5.91691 6.02734 5.88086L6.05859 5.8418L6.08789 5.80078C6.09329 5.79349 6.09911 5.78498 6.10352 5.77344L6.12109 5.72461L6.14062 5.67578L6.21094 5.55859C6.2402 5.52464 6.27508 5.49549 6.31445 5.47266L6.34961 5.45117L6.35938 5.39453L6.38086 5.31055C6.41388 5.2292 6.47729 5.1617 6.56641 5.12305L6.61719 5.10156L6.66797 5.07812C6.70036 5.06407 6.73281 5.05128 6.76367 5.03711L6.8125 5.01367L6.86133 4.99219C6.87383 4.98643 6.88118 4.97938 6.88672 4.97461L6.92578 4.94336L6.96289 4.91016C7.00571 4.87299 7.05274 4.84232 7.10352 4.81836L7.15039 4.79492L7.19727 4.77344C7.20231 4.77106 7.20476 4.76987 7.20508 4.76953L7.23828 4.73438L7.24414 4.72656L7.25 4.67578L7.25586 4.60547L7.26953 4.52539C7.29301 4.44288 7.34711 4.35568 7.45312 4.30664L7.5 4.28516L7.52344 4.27344L7.54102 4.24805L7.56836 4.20117L7.63867 4.10938C7.66645 4.08201 7.69871 4.05871 7.73438 4.03906L7.7793 4.01367L7.82422 3.99023C7.85822 3.97159 7.89271 3.9522 7.92773 3.93555L7.97461 3.91406L8.01953 3.89258C8.02371 3.89059 8.02883 3.88722 8.0332 3.88281L8.10547 3.81055C8.14002 3.77572 8.17667 3.74293 8.2168 3.71484L8.25977 3.68555L8.30078 3.65625C8.34696 3.624 8.39821 3.59898 8.45117 3.58008L8.49805 3.5625L8.54688 3.54492C8.6074 3.52335 8.67006 3.51433 8.73242 3.51367H8.78906L8.8457 3.51172C8.86067 3.51155 8.86993 3.50945 8.875 3.50781L8.91406 3.49414L8.92383 3.47461L8.95117 3.41406L9.0293 3.30664C9.06561 3.274 9.113 3.24706 9.17383 3.23633C9.25149 3.2228 9.31803 3.24383 9.36523 3.26562C9.38467 3.23103 9.41195 3.1947 9.45117 3.16406C9.52421 3.10705 9.61169 3.08951 9.69141 3.10156L9.74609 3.11133L9.80273 3.11914C9.82974 3.12322 9.85455 3.12472 9.87695 3.125L9.92969 3.12695H9.93945L9.96094 3.10938L9.96484 3.10547L9.9668 3.05273C9.9689 2.98903 9.98906 2.92089 10.0352 2.86133C10.076 2.8087 10.1268 2.77579 10.1738 2.75586L10.1719 2.74219C10.1589 2.6525 10.1671 2.53949 10.2422 2.44141L10.2734 2.39844L10.3066 2.35742L10.3867 2.28125C10.4589 2.23366 10.5403 2.22344 10.6074 2.22656C10.6145 2.17103 10.6352 2.08479 10.7129 2.01953C10.8118 1.93648 10.9254 1.94688 10.9883 1.96289L11.125 1.99805C11.1413 2.00222 11.1539 2.0029 11.1621 2.00391L11.1895 1.9375L11.2324 1.85742C11.2518 1.82863 11.2767 1.79824 11.3105 1.77344C11.3881 1.71685 11.4793 1.70477 11.5605 1.72266L11.6172 1.73438L11.6719 1.74805C11.7292 1.76077 11.7854 1.78053 11.8379 1.80664L11.8438 1.81055L11.8652 1.79102L11.9375 1.74219C11.9659 1.72727 11.9984 1.71536 12.0352 1.70898C12.0736 1.70243 12.1115 1.70268 12.1465 1.70898ZM18.1992 18.9121L18.2012 18.8906L18.1914 18.9004L18.1992 18.9121ZM18.1992 18.9121L18.1914 18.9004L18.2012 18.8906L18.1992 18.9121ZM12.502 2.23633L12.3926 2.26758C12.2985 2.29343 12.2003 2.28401 12.1113 2.23828L12.0957 2.25391C12.0536 2.29036 11.995 2.32593 11.9219 2.33789C11.8465 2.35019 11.7764 2.33335 11.7188 2.30469L11.666 2.2793L11.6152 2.25391C11.6118 2.2522 11.6069 2.2515 11.6035 2.25L11.5996 2.26562C11.5669 2.35043 11.479 2.4955 11.2949 2.50195L11.2422 2.50391L11.1914 2.50586C11.1536 2.50709 11.117 2.49598 11.0801 2.49023C11.0691 2.54644 11.0462 2.6163 10.9824 2.67188C10.8958 2.74719 10.7939 2.75261 10.7285 2.74414L10.6738 2.73633L10.6758 2.74023L10.6855 2.8125C10.6936 2.86859 10.6929 2.94397 10.6543 3.01953C10.6132 3.09991 10.5462 3.14874 10.4805 3.17383L10.4609 3.17969C10.457 3.2928 10.4056 3.38837 10.3262 3.45508L10.2812 3.49219L10.2363 3.53125C10.1668 3.58951 10.077 3.62823 9.97461 3.62695L9.92383 3.625H9.87109C9.83548 3.62455 9.79963 3.61951 9.76367 3.61523L9.75586 3.64258C9.73458 3.70214 9.67865 3.8046 9.55273 3.8418C9.44566 3.8732 9.35668 3.83271 9.30664 3.80469C9.2658 3.86468 9.21177 3.92484 9.125 3.95312L9.07617 3.96875L9.0293 3.98438C8.97072 4.00328 8.90936 4.01115 8.84961 4.01172L8.79492 4.01367H8.73828C8.72604 4.01379 8.71847 4.01629 8.71484 4.01758L8.66602 4.0332L8.61914 4.05078C8.60794 4.05478 8.5971 4.06003 8.58789 4.06641L8.54492 4.0957L8.50391 4.125C8.4888 4.13557 8.47478 4.14821 8.46094 4.16211L8.38672 4.23633C8.34252 4.28076 8.29135 4.31665 8.23438 4.34375L8.18945 4.36523L8.06445 4.42773L8.01953 4.45312L7.99023 4.4668L7.96875 4.50391L7.94141 4.55078C7.8986 4.62235 7.83657 4.68009 7.75781 4.7168L7.74609 4.7207L7.74219 4.78711C7.73545 4.86685 7.70896 4.96549 7.63281 5.04492L7.56641 5.11523C7.52138 5.16221 7.46763 5.19953 7.41016 5.22656L7.31641 5.26953C7.30545 5.27471 7.29771 5.28138 7.29102 5.28711L7.25195 5.32031L7.21484 5.35156C7.17076 5.38987 7.12234 5.42133 7.07031 5.44531L7.02148 5.46875L6.9707 5.49023C6.93677 5.50581 6.90244 5.52181 6.86719 5.53711L6.83984 5.54688L6.83594 5.58594C6.81995 5.69188 6.76163 5.79158 6.6582 5.85156L6.61133 5.87891L6.59375 5.88672L6.58984 5.90234L6.57031 5.95117C6.55 6.00444 6.52274 6.05547 6.48828 6.10156L6.45898 6.14062L6.44336 6.1582L6.44141 6.20117L6.4375 6.25781C6.43277 6.34221 6.40441 6.42889 6.3418 6.50195L6.31055 6.53906L6.27734 6.57812C6.22182 6.64273 6.15124 6.6803 6.08398 6.70508C6.09532 6.79253 6.08592 6.89485 6.01758 6.98438L5.98633 7.02344L5.96094 7.05469L5.95703 7.09375L5.94922 7.14648C5.94363 7.18057 5.9373 7.21454 5.93164 7.24805L5.92383 7.29688L5.91406 7.34766C5.88329 7.52998 5.72676 7.597 5.64453 7.61914L5.63281 7.62109C5.63891 7.66439 5.64314 7.70875 5.63867 7.75391L5.62695 7.85547C5.62201 7.9049 5.61391 7.95441 5.59961 8.00195L5.58398 8.04883L5.57031 8.09766C5.54539 8.17994 5.49722 8.24588 5.44141 8.29688L5.4043 8.33008L5.4082 8.36328C5.40991 8.37806 5.41268 8.39591 5.41992 8.41602L5.44141 8.4707L5.46094 8.52539C5.48166 8.58298 5.48924 8.65239 5.4707 8.72461C5.45238 8.79557 5.41233 8.84962 5.37109 8.88867L5.32812 8.93164L5.2832 8.97461C5.26936 8.98774 5.26159 8.99729 5.25781 9.00391L5.23047 9.05078L5.2168 9.07227L5.2207 9.09766L5.22656 9.14844C5.23404 9.21222 5.23043 9.27703 5.21484 9.33984L5.20312 9.38867L5.19531 9.41016L5.20898 9.44141L5.22852 9.49219C5.24823 9.54294 5.26193 9.59614 5.26953 9.65039L5.27734 9.70117L5.2832 9.75C5.28394 9.75526 5.28736 9.76367 5.29297 9.77539L5.31641 9.82617L5.3418 9.875C5.38715 9.96877 5.39287 10.0755 5.35352 10.1758L5.33203 10.2266L5.3125 10.2773C5.28883 10.3369 5.2555 10.3907 5.2168 10.4395L5.20312 10.4551L5.20508 10.459C5.24595 10.5295 5.27109 10.6136 5.26367 10.7051L5.25977 10.7539L5.25391 10.8047C5.25064 10.845 5.24685 10.8857 5.24023 10.9258L5.23242 10.9746L5.22266 11.0254C5.21696 11.0599 5.21136 11.0944 5.20508 11.1289L5.19727 11.1797L5.1875 11.2285C5.18165 11.2606 5.17528 11.2941 5.16992 11.3262L5.16406 11.3555L5.17383 11.3672L5.2207 11.418C5.27874 11.4826 5.33294 11.5771 5.32812 11.6953L5.32422 11.7441L5.32227 11.7949C5.32148 11.8144 5.32376 11.8338 5.32617 11.8535L5.33203 11.9043L5.33789 11.9531C5.35247 12.0713 5.30724 12.1716 5.25 12.2422L5.20898 12.293L5.18164 12.3242V12.3574L5.20508 12.3906L5.24023 12.4414C5.29751 12.5236 5.32889 12.6324 5.29688 12.75L5.26953 12.8516C5.25368 12.9091 5.22933 12.9635 5.19922 13.0137L5.16992 13.0605L5.18555 13.0977C5.2253 13.2056 5.20987 13.3166 5.1582 13.4082L5.13086 13.4531L5.14844 13.4922C5.16355 13.5304 5.177 13.5689 5.18945 13.6074L5.20508 13.6582L5.2207 13.707C5.23159 13.7407 5.2432 13.7749 5.25391 13.8086L5.26953 13.8594L5.28516 13.9082C5.31527 14.0029 5.30845 14.1008 5.26953 14.1875L5.26562 14.1934L5.29102 14.2227C5.32916 14.2674 5.37808 14.3469 5.36914 14.4531C5.36001 14.5605 5.29706 14.6319 5.25 14.6699L5.19922 14.7109L5.18555 14.7207V14.7441L5.18164 14.8125C5.17818 14.8788 5.15445 14.97 5.07422 15.0391C4.99719 15.1051 4.90826 15.1168 4.84961 15.1152L4.77734 15.1133L4.70703 15.1113L4.69727 15.1172V15.127L4.68945 15.1895C4.67451 15.2995 4.61114 15.4125 4.48438 15.4688L4.38672 15.5117C4.35855 15.5242 4.33006 15.5356 4.30273 15.5488L4.30469 15.6094C4.30716 15.6724 4.29528 15.7787 4.20508 15.8594C4.14501 15.913 4.07635 15.9253 4.02148 15.9297C4.02041 15.9854 4.01103 16.0574 3.95703 16.123C3.87712 16.2201 3.76793 16.2348 3.70312 16.2324L3.62891 16.2305L3.55664 16.2285H3.55469L3.52734 16.2441L3.50391 16.2559L3.49414 16.2812L3.47266 16.3301C3.46792 16.3406 3.46348 16.3532 3.46094 16.3691L3.45312 16.4258L3.44336 16.4824C3.43456 16.5388 3.41969 16.5965 3.39453 16.6504L3.37305 16.6934L3.35352 16.7363C3.32776 16.7914 3.29282 16.8398 3.25391 16.8828L3.2168 16.9258L3.17773 16.9668C3.17292 16.9721 3.17005 16.9772 3.16797 16.9824L3.14844 17.0352L3.13672 17.0645L3.14258 17.084L3.15625 17.1328C3.17023 17.1841 3.17981 17.2377 3.18164 17.291V17.3398L3.18359 17.3906C3.1855 17.4461 3.18032 17.5009 3.16797 17.5547L3.14453 17.6562C3.143 17.6633 3.14399 17.6702 3.14453 17.6758L3.14844 17.7246L3.1543 17.7754C3.15595 17.7919 3.15853 17.8095 3.16406 17.8281L3.17969 17.8789L3.19336 17.9297C3.20258 17.9607 3.21274 17.9916 3.22266 18.0215L3.23828 18.0703L3.25586 18.1191C3.26945 18.1602 3.28029 18.2019 3.28906 18.2441L3.30078 18.2949L3.31055 18.3457C3.32037 18.3934 3.32548 18.4432 3.32812 18.4941L3.33008 18.5449L3.36133 18.5645L3.36523 18.5664L3.36328 18.5645L3.42383 18.5684L3.48242 18.5723C3.56579 18.578 3.64313 18.6097 3.70508 18.6641L3.76172 18.7246L3.79297 18.7695L3.82031 18.7715L3.86133 18.752L3.91211 18.7246C3.98369 18.6874 4.06693 18.6677 4.15625 18.6777L4.20703 18.6836L4.25586 18.6895C4.32127 18.6969 4.38117 18.7189 4.43555 18.748L4.45312 18.7324L4.54688 18.666C4.5865 18.6472 4.63421 18.6343 4.68945 18.6367C4.7434 18.6393 4.78917 18.6567 4.82617 18.6777L4.91211 18.7461L4.96289 18.8008L4.97852 18.8184L5.00977 18.8164C5.01217 18.8162 5.01728 18.816 5.02539 18.8125L5.07617 18.7891L5.12695 18.7676L5.21094 18.7402C5.26731 18.7302 5.32372 18.7354 5.37695 18.752L5.45312 18.7852L5.50391 18.8145L5.54492 18.8379H5.57617L5.61133 18.8359L5.65234 18.8125L5.70312 18.7832C5.76123 18.7495 5.82732 18.7257 5.89844 18.7168L5.94727 18.709L5.99805 18.7031L6.11328 18.7051C6.15098 18.7104 6.18763 18.7201 6.22266 18.7344L6.27344 18.7539L6.32227 18.7754C6.35019 18.7868 6.37877 18.7977 6.40625 18.8066L6.45312 18.8203L6.45898 18.8184L6.50977 18.791L6.58398 18.7617C6.65946 18.7394 6.7409 18.7401 6.82031 18.7715L6.87109 18.791L6.90234 18.8027L6.93164 18.7988L6.98242 18.7891C7.03078 18.7799 7.07972 18.7752 7.12891 18.7754H7.17969L7.23047 18.7773C7.23991 18.7773 7.25004 18.7746 7.26172 18.7715L7.36328 18.7441L7.48828 18.7305C7.53001 18.7321 7.57134 18.7398 7.61133 18.7539L7.64844 18.7656L7.69727 18.7383L7.81055 18.6875C7.85202 18.6758 7.89643 18.6691 7.94336 18.6719L7.99414 18.6758L8.04297 18.6777C8.06765 18.6792 8.09253 18.6788 8.11719 18.6777L8.16797 18.6758L8.2168 18.6738C8.31978 18.6693 8.40214 18.7131 8.46484 18.7617C8.53235 18.6993 8.63922 18.6395 8.77344 18.6641L8.82422 18.6738L8.87305 18.6836C8.93553 18.6951 8.99504 18.7165 9.04883 18.7461L9.09961 18.7754L9.14844 18.8027C9.15706 18.8075 9.16047 18.8069 9.1582 18.8066L9.20898 18.8125L9.22852 18.8145L9.25977 18.7988L9.30859 18.7715L9.39453 18.7383C9.45225 18.7239 9.51141 18.7245 9.56836 18.7402L9.65234 18.7754L9.65625 18.7773L9.67383 18.7637C9.71865 18.7286 9.78094 18.696 9.85742 18.6895C9.93538 18.6829 10.0045 18.7053 10.0586 18.7383L10.1094 18.7695L10.1582 18.8008C10.1705 18.8083 10.1785 18.8103 10.1797 18.8105L10.2285 18.8203L10.2793 18.8301C10.3055 18.8355 10.3315 18.8407 10.3574 18.8438L10.4082 18.8496L10.4473 18.8535L10.4961 18.8379L10.5469 18.8203C10.5615 18.8151 10.5783 18.8068 10.5977 18.7949L10.6484 18.7637L10.6973 18.7344L10.7969 18.6934C10.8338 18.6848 10.8738 18.683 10.916 18.6895C10.9927 18.7013 11.051 18.7391 11.0918 18.7754C11.1462 18.7358 11.2102 18.7026 11.2852 18.6895L11.3359 18.6797L11.3848 18.6719C11.4214 18.6655 11.4594 18.6592 11.4961 18.6543L11.5449 18.6484L11.5957 18.6406L11.7012 18.6445C11.7667 18.6571 11.8213 18.688 11.8633 18.7227L11.916 18.7754L11.9609 18.8262C11.9935 18.8164 12.026 18.8063 12.0586 18.7969L12.1094 18.7832L12.1582 18.7676C12.1957 18.7567 12.2338 18.747 12.2715 18.7383L12.373 18.7148L12.459 18.707C12.4867 18.7076 12.5136 18.7103 12.5391 18.7168L12.6777 18.7832L12.7266 18.8203L12.7598 18.8125L12.834 18.7988C12.9081 18.7929 12.9796 18.8087 13.043 18.8418L13.0645 18.8262C13.1097 18.7869 13.1583 18.7505 13.2109 18.7227L13.2617 18.6973L13.3125 18.6699L13.4277 18.6348C13.4694 18.6305 13.5132 18.6342 13.5566 18.6484C13.5951 18.6611 13.6273 18.6807 13.6543 18.7012L13.7188 18.7637L13.7695 18.8223L13.7734 18.8262H13.7773C13.8337 18.8144 13.8916 18.8117 13.9492 18.8164L13.998 18.8203L14.041 18.8223L14.0918 18.8047L14.1406 18.7871L14.2285 18.7656C14.2861 18.7596 14.3417 18.7694 14.3926 18.7891L14.4648 18.8262L14.502 18.8477L14.5273 18.8379C14.5386 18.8329 14.5548 18.8238 14.5742 18.8086L14.625 18.7695L14.6738 18.7305C14.718 18.6958 14.7786 18.6637 14.8535 18.6562C14.892 18.6525 14.9292 18.6558 14.9629 18.6641L15.0547 18.7031L15.1562 18.7617C15.1929 18.7833 15.2293 18.8061 15.2656 18.8301L15.3164 18.8633L15.334 18.875H15.3379L15.3867 18.8672C15.4117 18.863 15.4374 18.8566 15.4629 18.8496L15.5117 18.8359L15.5625 18.8223C15.5821 18.8169 15.6032 18.8106 15.625 18.8008L15.6758 18.7773L15.7246 18.7539C15.7743 18.7314 15.8271 18.7156 15.8809 18.7051L15.9297 18.6953L15.9805 18.6855L16.0703 18.6797C16.157 18.6853 16.2315 18.7219 16.2871 18.7676L16.3379 18.8086L16.3789 18.8438L16.3926 18.8301L16.4414 18.7734C16.4752 18.7357 16.5261 18.6924 16.5957 18.668C16.6718 18.6412 16.752 18.6439 16.8242 18.6738L16.875 18.6953L16.9199 18.7148H16.9688L17.0195 18.7129L17.1543 18.7305C17.1945 18.7433 17.2306 18.7633 17.2637 18.7852L17.2734 18.7793L17.3691 18.7266C17.4068 18.713 17.4504 18.7054 17.498 18.709C17.5649 18.7142 17.6172 18.7422 17.6582 18.7715C17.7003 18.7294 17.7702 18.6777 17.8691 18.6738C17.9274 18.6716 17.9773 18.6862 18.0176 18.707L18.1113 18.7793L18.1602 18.832L18.1953 18.8691L18.2051 18.8711H18.2109L18.2363 18.8555L18.2871 18.8223C18.3323 18.791 18.3796 18.7637 18.4297 18.7422L18.4805 18.7207L18.5293 18.6992L18.6172 18.6738C18.6751 18.665 18.7322 18.6709 18.7852 18.6895L18.8613 18.7266L18.8828 18.7402L18.9043 18.7285L19.0098 18.6895C19.0483 18.6826 19.0902 18.6839 19.1328 18.6934C19.1718 18.7021 19.2057 18.7167 19.2344 18.7344L19.3066 18.793L19.3418 18.8281C19.3473 18.826 19.3592 18.8229 19.375 18.8105L19.4238 18.7715L19.4746 18.7324L19.5938 18.6641C19.6395 18.6477 19.6907 18.6406 19.7461 18.6445L19.7969 18.6465L19.8457 18.6504C19.9293 18.6563 19.9955 18.6943 20.0488 18.7344C20.0837 18.6997 20.1281 18.6669 20.1875 18.6504C20.2615 18.63 20.3289 18.6433 20.3828 18.6621C20.3835 18.6595 20.3861 18.6567 20.3867 18.6543L20.3984 18.6016L20.4121 18.5488L20.4551 18.4453C20.4754 18.4142 20.5019 18.3865 20.5332 18.3633C20.5657 18.3392 20.6003 18.3232 20.6328 18.3125C20.6301 18.2733 20.636 18.2308 20.6504 18.1875C20.6774 18.1068 20.7307 18.0509 20.7812 18.0156L20.8379 17.9766L20.873 17.9492L20.877 17.9395L20.8809 17.9121L20.8711 17.8867L20.8516 17.8379L20.7852 17.7715L20.7344 17.7227C20.6713 17.6616 20.6026 17.562 20.6094 17.4297L20.6113 17.3789L20.6133 17.3301C20.6162 17.2742 20.6275 17.2188 20.6445 17.166L20.6602 17.1152L20.6699 17.0801L20.666 17.0586L20.6543 17.0117C20.6401 16.9549 20.6342 16.8967 20.6387 16.8379L20.6426 16.791L20.6465 16.7422C20.6485 16.7156 20.6495 16.6863 20.6504 16.6543L20.6523 16.5996V16.5449C20.6525 16.5376 20.651 16.5298 20.6504 16.5215L20.6387 16.5234C20.5858 16.5257 20.5115 16.519 20.4395 16.4766C20.3589 16.4291 20.3113 16.3546 20.293 16.2773L20.2793 16.2207L20.2695 16.1836L20.2559 16.1719L20.2188 16.1406C20.1598 16.0899 20.1246 16.0249 20.1016 15.959L20.0742 15.9629C19.989 15.9702 19.8566 15.961 19.7578 15.8555L19.7246 15.8184L19.6895 15.7812C19.6707 15.7612 19.651 15.7414 19.6309 15.7227L19.5938 15.6895L19.5586 15.6543C19.4793 15.5802 19.4448 15.4852 19.4355 15.4004L19.4297 15.3379L19.4219 15.2734C19.4211 15.2666 19.4206 15.2622 19.4199 15.2598L19.3691 15.1699C19.3568 15.1479 19.3441 15.1267 19.3301 15.1074L19.3184 15.0898L19.3066 15.0918L19.2324 15.0957C19.1699 15.0977 19.0681 15.0836 18.9883 14.998C18.9252 14.9303 18.9102 14.8517 18.9082 14.793C18.8627 14.7694 18.8164 14.7343 18.7891 14.6738C18.7549 14.598 18.7672 14.5295 18.7734 14.502C18.7808 14.4697 18.7922 14.4432 18.8008 14.4258L18.8262 14.375L18.8496 14.3242L18.8516 14.3223L18.8535 14.2793L18.834 14.2578L18.7871 14.207C18.7379 14.1547 18.6929 14.0895 18.668 14.0117L18.6523 13.9629L18.6367 13.9121C18.6181 13.8539 18.6082 13.7926 18.6094 13.7305V13.6816L18.6113 13.6309L18.6406 13.4902C18.658 13.4484 18.6814 13.4108 18.707 13.3789L18.748 13.3301L18.7793 13.2871L18.7832 13.2598V13.248L18.7676 13.2246L18.7344 13.1758C18.6912 13.1115 18.661 13.0324 18.6582 12.9434L18.6562 12.8945L18.6543 12.8438C18.6512 12.7449 18.6866 12.6593 18.7344 12.5918L18.7695 12.541L18.8047 12.4922C18.8115 12.4825 18.8083 12.4816 18.8066 12.4902L18.8164 12.4414L18.8262 12.3906C18.8286 12.3774 18.8289 12.3639 18.8281 12.3516L18.8242 12.3027L18.8223 12.252C18.8219 12.2465 18.8204 12.2388 18.8164 12.2285L18.7969 12.1777L18.7754 12.127C18.7692 12.1113 18.7613 12.0925 18.748 12.0723L18.7148 12.0234L18.6816 11.9727C18.6456 11.9175 18.6203 11.8437 18.6289 11.7598C18.6374 11.679 18.6737 11.6156 18.7109 11.5723L18.7148 11.5664C18.6809 11.5127 18.656 11.4425 18.6641 11.3613C18.6725 11.2779 18.7118 11.213 18.75 11.1699L18.7754 11.1387V11.1367C18.749 11.0767 18.7324 11.0117 18.7305 10.9434V10.8926L18.7285 10.8496L18.7031 10.7988L18.6777 10.75C18.6347 10.6654 18.6203 10.5658 18.6484 10.4668L18.6641 10.418L18.6777 10.3672C18.7001 10.2888 18.7433 10.2235 18.791 10.1699L18.8086 10.1465C18.7744 10.0778 18.7573 9.99893 18.7637 9.91602L18.7676 9.86523L18.7715 9.82422L18.7734 9.82812L18.7539 9.7793L18.7344 9.73047C18.714 9.67946 18.6985 9.62531 18.6914 9.57031L18.6797 9.47266C18.6733 9.42345 18.6705 9.37373 18.6738 9.32422L18.6777 9.27344V9.26562L18.666 9.25L18.6309 9.20508C18.5919 9.15395 18.5644 9.08782 18.5625 9.01172C18.5616 8.97492 18.5672 8.94097 18.5762 8.91016L18.6172 8.81445C18.5405 8.72285 18.514 8.60368 18.5488 8.48633L18.5527 8.4668L18.5371 8.45117C18.4807 8.39569 18.4404 8.31587 18.4414 8.22266C18.4423 8.13945 18.4767 8.07314 18.5059 8.0293L18.5449 7.96875C18.5055 7.90426 18.4827 7.83312 18.4785 7.75781L18.4766 7.74805L18.4219 7.72266C18.3673 7.69692 18.2992 7.64839 18.2598 7.5625C18.2193 7.47448 18.2276 7.38864 18.248 7.32617L18.2695 7.26367L18.2734 7.24414L18.2539 7.21094C18.2353 7.17955 18.2167 7.14701 18.1992 7.11523L18.1758 7.07227L18.1504 7.02734C18.1334 6.99646 18.1179 6.9648 18.1016 6.93359L18.0781 6.88867L18.0566 6.84766L18.0117 6.8125L17.9688 6.7793C17.9445 6.76055 17.9201 6.74183 17.8945 6.72461L17.8477 6.69531L17.8027 6.66406C17.7465 6.62621 17.7008 6.57011 17.6758 6.5C17.6523 6.43353 17.6534 6.36983 17.6621 6.31836L17.6641 6.29297C17.5653 6.23521 17.5025 6.14025 17.4883 6.02734L17.4824 5.99805L17.4551 5.98633C17.4019 5.96272 17.3524 5.9306 17.3066 5.89258L17.2676 5.86133L17.2285 5.82812C17.197 5.80191 17.1655 5.77474 17.1367 5.74609L17.0664 5.67578C16.9636 5.57295 16.9598 5.43996 16.9707 5.35547L16.9727 5.33594C16.9646 5.33464 16.9552 5.33274 16.9453 5.33203L16.8809 5.32617L16.8164 5.32227C16.7581 5.31806 16.6848 5.29928 16.6211 5.24609C16.5558 5.19145 16.5243 5.12014 16.5117 5.05664L16.5 4.99609L16.4883 4.9375C16.4849 4.92042 16.479 4.91061 16.4766 4.90625L16.4512 4.85938L16.4238 4.8125C16.4175 4.80155 16.4108 4.79359 16.4043 4.78711L16.3867 4.76953L16.3672 4.77344L16.293 4.78711C16.2119 4.80202 16.092 4.80592 15.9863 4.72852L15.9453 4.69922L15.9062 4.66992C15.7849 4.58048 15.7658 4.44096 15.7637 4.36133L15.7617 4.31445L15.7324 4.32422L15.6602 4.3457C15.5787 4.37036 15.4509 4.38714 15.334 4.30664L15.293 4.2793L15.252 4.25C15.1814 4.20107 15.1332 4.13497 15.1016 4.06836L15.0762 4.01367L15.0547 3.9707L15.0371 3.96094L14.9922 3.93555C14.9443 3.90766 14.9004 3.87447 14.8613 3.83594L14.8242 3.79688L14.8223 3.79492H14.7598C14.6493 3.79573 14.5501 3.75051 14.4785 3.66992L14.4512 3.63867L14.4102 3.64258C14.3258 3.65106 14.2395 3.63607 14.1602 3.58984L14.1309 3.57227L14.125 3.57617L14.0664 3.59961C14.0226 3.61663 13.8976 3.65344 13.7812 3.56641C13.6739 3.48564 13.6666 3.36466 13.666 3.32422L13.6641 3.25586V3.19727L13.6465 3.17188L13.6172 3.12695C13.5972 3.0979 13.5763 3.06973 13.5566 3.04102L13.5273 2.99805L13.5156 2.98242L13.4863 2.97266L13.4277 2.95508C13.3706 2.93722 13.312 2.90459 13.2656 2.84961C13.2349 2.813 13.2157 2.77178 13.2031 2.73242C13.1504 2.73777 13.0822 2.73788 13.0137 2.70312C12.9285 2.65957 12.8782 2.58542 12.8555 2.51562L12.8535 2.50977C12.789 2.50711 12.7239 2.48961 12.668 2.44727C12.6108 2.4038 12.5757 2.34876 12.5547 2.30078L12.5273 2.23633L12.5098 2.23438C12.5086 2.23437 12.5061 2.23519 12.502 2.23633ZM3.91406 15.5488L3.90625 15.623L3.98438 15.6211L3.99219 15.5469L3.91406 15.5488ZM3.98438 15.6211L3.90625 15.623L3.91406 15.5488L3.99219 15.5469L3.98438 15.6211ZM18.7656 8.76953L18.7148 8.8125L18.7695 8.84375L18.8203 8.79883L18.7656 8.76953ZM18.8203 8.79883L18.7695 8.84375L18.7148 8.8125L18.7656 8.76953L18.8203 8.79883ZM13.9297 3.25L13.9551 3.31836H14.0234L13.998 3.25H13.9297ZM14.0234 3.31836H13.9551L13.9297 3.25H13.998L14.0234 3.31836Z" fill="#545451"/>
</svg>
