<svg width="24" height="24" viewBox="0 0 24 24" fill="none" xmlns="http://www.w3.org/2000/svg">
<path d="M9.43789 6.06722C10.5782 4.02241 11.1479 3 12.0002 3C12.8525 3 13.4222 4.02241 14.5625 6.06722L14.8577 6.59642C15.1817 7.17783 15.3437 7.46853 15.5957 7.66023C15.8477 7.85193 16.1627 7.92303 16.7927 8.06523L17.3651 8.19483C19.5792 8.69614 20.6853 8.94634 20.949 9.79324C21.2118 10.6392 20.4576 11.5222 18.9483 13.2871L18.5576 13.7434C18.1292 14.2447 17.9141 14.4958 17.8178 14.8054C17.7215 15.1159 17.7539 15.4507 17.8187 16.1194L17.8781 16.7287C18.1058 19.084 18.2201 20.2612 17.5307 20.7841C16.8413 21.307 15.8045 20.83 13.7327 19.876L13.1954 19.6294C12.6068 19.3576 12.3125 19.2226 12.0002 19.2226C11.6879 19.2226 11.3936 19.3576 10.805 19.6294L10.2686 19.876C8.19588 20.83 7.15908 21.307 6.47057 20.785C5.78027 20.2612 5.89457 19.084 6.12227 16.7287L6.18167 16.1203C6.24647 15.4507 6.27887 15.1159 6.18167 14.8063C6.08627 14.4958 5.87117 14.2447 5.44277 13.7443L5.05216 13.2871C3.54285 11.5231 2.78865 10.6401 3.05145 9.79324C3.31425 8.94634 4.42216 8.69524 6.63617 8.19483L7.20858 8.06523C7.83768 7.92303 8.15178 7.85193 8.40469 7.66023C8.65759 7.46853 8.81869 7.17783 9.14269 6.59642L9.43789 6.06722Z" fill="#FFA600"/>
<path d="M9.39734 5.73463L9.84404 5.68017L9.39734 5.73463ZM9.47063 5.56909L9.71047 5.94985L9.47063 5.56909ZM9.55744 5.51441L9.3176 5.13365L9.55744 5.51441ZM9.64425 5.45973L9.40441 5.07897L9.64425 5.45973ZM9.77223 5.32482L10.1726 5.53027L9.77223 5.32482ZM9.85457 5.16435L9.45421 4.9589L9.85457 5.16435ZM10.0139 5.0488L10.1428 5.47995L10.0139 5.0488ZM10.2502 4.97817L10.1213 4.54702L10.2502 4.97817ZM10.3572 4.83197L10.805 4.78719L10.3572 4.83197ZM10.335 4.6102L9.88726 4.65499L10.335 4.6102ZM10.3975 4.43998L10.68 4.79034L10.3975 4.43998ZM10.5448 4.32131L10.2624 3.97095L10.5448 4.32131ZM10.6506 4.17578L10.2291 4.01816L10.6506 4.17578ZM10.7151 4.00338L11.1366 4.161L10.7151 4.00338ZM10.8423 3.8802L11.0056 4.29954L10.8423 3.8802ZM10.9373 3.84321L10.774 3.42388L10.9373 3.84321ZM11.0323 3.80623L10.869 3.38689L11.0323 3.80623ZM11.173 3.69779L10.794 3.45523L11.173 3.69779ZM11.2645 3.55488L11.6435 3.79743L11.2645 3.55488ZM11.3244 3.3479L11.772 3.39498V3.39498L11.3244 3.3479ZM11.353 3.07685L10.9054 3.02977V3.02977L11.353 3.07685ZM11.483 2.97801L11.6189 2.54903L11.483 2.97801ZM11.7145 3.05138L11.5786 3.48036L11.7145 3.05138ZM11.908 3.11839L12.0715 2.69914L11.908 3.11839ZM11.9858 3.14872L11.8223 3.56796L11.9858 3.14872ZM12.0636 3.17905L12.2271 2.7598L12.0636 3.17905ZM12.2333 3.19264L12.3139 3.63536L12.2333 3.19264ZM12.4172 3.15916L12.3366 2.71643L12.4172 3.15916ZM12.6124 3.16128L12.6933 2.71861L12.6124 3.16128ZM12.7156 3.18015L12.6347 3.62282L12.7156 3.18015ZM12.8189 3.19902L12.738 3.64169L12.8189 3.19902ZM12.9269 3.33892L13.3765 3.32116L12.9269 3.33892ZM12.9364 3.581L12.4868 3.59875L12.9364 3.581ZM13.0134 3.86505L12.6019 4.04722L13.0134 3.86505ZM13.2106 4.05094L13.2916 3.60828L13.2106 4.05094ZM13.4607 4.09669L13.5417 3.65403L13.4607 4.09669ZM13.5982 4.21839L14.0447 4.162L13.5982 4.21839ZM13.6107 4.31721L13.1643 4.3736L13.6107 4.31721ZM13.6232 4.41604L13.1767 4.47243L13.6232 4.41604ZM13.6433 4.61453L13.1947 4.649L13.6433 4.61453ZM13.6587 4.81385L14.1073 4.77938V4.77938L13.6587 4.81385ZM13.7688 4.95787L13.5902 5.37089L13.7688 4.95787ZM13.9739 5.04657L14.1526 4.63354L13.9739 5.04657ZM14.1004 5.1808L13.6656 5.2967L14.1004 5.1808ZM14.1244 5.27069L13.6895 5.38659L14.1244 5.27069ZM14.1483 5.36058L14.5832 5.24469L14.1483 5.36058ZM14.1935 5.54174L14.6318 5.43992L14.1935 5.54174ZM14.2359 5.72426L13.7976 5.82608L14.2359 5.72426ZM14.2912 5.89964L13.8743 6.06891L14.2912 5.89964ZM14.3254 5.98377L14.7423 5.8145L14.3254 5.98377ZM14.3595 6.06789L13.9426 6.23716L14.3595 6.06789ZM14.4277 6.23614L14.0105 6.4048L14.4277 6.23614ZM14.4957 6.40439L14.9129 6.23573L14.4957 6.40439ZM14.6477 6.52582L14.7834 6.09676L14.6477 6.52582ZM14.7656 6.56312L14.9013 6.13406L14.7656 6.56312ZM14.8836 6.60042L15.0193 6.17136L14.8836 6.60042ZM15.0275 6.72621L15.4593 6.59963L15.0275 6.72621ZM15.0534 6.8147L14.6216 6.94128L15.0534 6.8147ZM15.0794 6.90318L14.6475 7.02977L15.0794 6.90318ZM15.1961 7.03793L15.4004 6.63694L15.1961 7.03793ZM15.2869 7.08418L15.4912 6.6832L15.2869 7.08418ZM15.3777 7.13043L15.1735 7.53142L15.3777 7.13043ZM15.483 7.27319L15.038 7.33998L15.483 7.27319ZM15.6235 7.55975L15.6371 8.00955L15.6235 7.55975ZM15.7206 7.55683L15.7071 7.10703L15.7206 7.55683ZM15.8177 7.55391L15.8041 7.10411L15.8177 7.55391ZM15.9694 7.6468L16.3602 7.42378L15.9694 7.6468ZM16.0787 7.83842L15.6879 8.06143L16.0787 7.83842ZM16.2231 7.94713L16.159 8.39255L16.2231 7.94713ZM16.4025 7.97293L16.3385 8.41835L16.4025 7.97293ZM16.5654 8.07032L16.2253 8.36495L16.5654 8.07032ZM16.6386 8.1548L16.9787 7.86017L16.6386 8.1548ZM16.7118 8.23929L17.0519 7.94466L16.7118 8.23929ZM16.8943 8.24857L17.1493 8.6193L16.8943 8.24857ZM17.1129 8.09815L16.8578 7.72742L17.1129 8.09815ZM17.3072 8.05537L17.1469 8.47585L17.3072 8.05537ZM17.3923 8.0878L17.2319 8.50827L17.3923 8.0878ZM17.4773 8.12022L17.6376 7.69975L17.4773 8.12022ZM17.6307 8.2577L17.2536 8.50326L17.6307 8.2577ZM17.6992 8.36275L18.0762 8.11718L17.6992 8.36275ZM17.7676 8.46779L18.1447 8.22223L17.7676 8.46779ZM17.9504 8.47773L18.238 8.82379L17.9504 8.47773ZM18.0648 8.38261L17.7772 8.03655L18.0648 8.38261ZM18.37 8.26122L18.6714 7.92708L18.37 8.26122ZM18.4463 8.33006L18.1449 8.66419L18.4463 8.33006ZM18.5226 8.39889L18.824 8.06476L18.5226 8.39889ZM18.6893 8.47786L18.7394 8.03066L18.6893 8.47786ZM18.7797 8.488L18.8298 8.04079L18.7797 8.488ZM18.87 8.49813L18.8199 8.94533L18.87 8.49813ZM19.0464 8.53619L19.1854 8.10818L19.0464 8.53619ZM19.1324 8.56411L18.9935 8.99212L19.1324 8.56411ZM19.2185 8.59204L19.3574 8.16403L19.2185 8.59204ZM19.393 8.64043L19.2917 9.07888L19.393 8.64043ZM19.5702 8.68137L19.4689 9.11982L19.5702 8.68137ZM19.7448 8.73248L19.5939 9.15641L19.7448 8.73248ZM19.917 8.79377L20.0679 8.36984L19.917 8.79377ZM20.0591 8.91237L20.4385 8.6704L20.0591 8.91237ZM20.1152 9.00033L19.7358 9.2423L20.1152 9.00033ZM20.1713 9.08828L20.5507 8.84631L20.1713 9.08828ZM20.3293 9.18427L20.3647 8.73566L20.3293 9.18427ZM20.5332 9.20033L20.5685 8.75172L20.5332 9.20033ZM20.7041 9.27536L21.0176 8.95256L20.7041 9.27536ZM20.842 9.40936L20.5285 9.73215L20.842 9.40936ZM20.8888 9.58106L21.329 9.67439L20.8888 9.58106ZM20.8666 9.68576L20.4264 9.59243L20.8666 9.68576ZM20.8444 9.79047L21.2846 9.8838L20.8444 9.79047ZM20.8177 9.97196L21.267 9.99797L20.8177 9.97196ZM20.8133 10.0487L20.364 10.0227L20.8133 10.0487ZM20.8088 10.1255L20.3596 10.0995L20.8088 10.1255ZM20.78 10.2757L20.353 10.1335L20.78 10.2757ZM20.7311 10.4224L21.1581 10.5645L20.7311 10.4224ZM20.713 10.5899L21.162 10.5599L20.713 10.5899ZM20.7193 10.6841L20.2703 10.7141L20.7193 10.6841ZM20.6671 10.9362L20.3516 10.6153L20.6671 10.9362ZM20.6023 10.9999L20.9177 11.3209L20.6023 10.9999ZM20.5375 11.0636L20.8529 11.3845L20.5375 11.0636ZM20.4634 11.2286L20.0153 11.1875L20.4634 11.2286ZM20.4448 11.4314L19.9967 11.3903L20.4448 11.4314ZM20.3501 11.5808L20.5711 11.9728L20.3501 11.5808ZM20.1794 11.6771L19.9585 11.285L20.1794 11.6771ZM20.0591 11.8118L20.4765 11.9801L20.0591 11.8118ZM19.9893 11.9851L19.5719 11.8168L19.9893 11.9851ZM19.8449 12.2148L20.2023 12.4882L19.8449 12.2148ZM19.7902 12.2863L19.4328 12.0129L19.7902 12.2863ZM19.6724 12.4224L19.3506 12.1078L19.6724 12.4224ZM19.5462 12.5514L19.868 12.866L19.5462 12.5514ZM19.4057 12.668L19.6568 13.0414L19.4057 12.668ZM19.2507 12.7722L18.9996 12.3988L19.2507 12.7722ZM19.1313 12.9068L18.7302 12.7026L19.1313 12.9068ZM19.0473 13.0717L19.4483 13.2758L19.0473 13.0717ZM18.9048 13.1868L18.7658 12.7588L18.9048 13.1868ZM18.8042 13.2194L18.6653 12.7914L18.8042 13.2194ZM18.7037 13.2521L18.8426 13.6801L18.7037 13.2521ZM18.602 13.4022L19.052 13.4065L18.602 13.4022ZM18.6009 13.5197L18.1509 13.5155V13.5155L18.6009 13.5197ZM18.5998 13.6373L19.0498 13.6415L18.5998 13.6373ZM18.5768 13.8538L18.1374 13.7565L18.5768 13.8538ZM18.5329 14.0519L18.9722 14.1492L18.5329 14.0519ZM18.4085 14.1825L18.276 13.7524L18.4085 14.1825ZM18.2035 14.2456L18.0711 13.8155L18.2035 14.2456ZM18.0116 14.721L17.5624 14.6943L18.0116 14.721ZM17.872 15.0428L17.632 14.6621L17.872 15.0428ZM17.6215 15.2007L17.8615 15.5814L17.6215 15.2007ZM17.5562 15.37L17.1811 15.6186L17.5562 15.37ZM17.6759 15.5507L18.051 15.3021L17.6759 15.5507ZM17.693 15.7358L18.1029 15.9214L17.693 15.7358ZM17.6501 15.8306L18.0601 16.0161L17.6501 15.8306ZM17.6072 15.9253L17.1972 15.7398L17.6072 15.9253ZM17.5956 16.1075L17.1719 16.2589L17.5956 16.1075ZM17.6269 16.195L18.0506 16.0436L17.6269 16.195ZM17.6581 16.2824L17.2344 16.4339L17.6581 16.2824ZM17.7289 16.4565L18.1383 16.2698L17.7289 16.4565ZM17.7684 16.5431L17.3589 16.7298L17.7684 16.5431ZM17.8078 16.6296L17.3984 16.8164L17.8078 16.6296ZM17.8623 16.8054L18.3061 16.7307L17.8623 16.8054ZM17.8774 16.8946L17.4336 16.9693L17.8774 16.8946ZM17.8924 16.9837L17.4486 17.0585L17.8924 16.9837ZM17.7616 17.3575L17.3611 17.1523L17.7616 17.3575ZM17.7623 17.5381L17.3724 17.7627L17.7623 17.5381ZM17.8116 17.6237L18.2015 17.3991L17.8116 17.6237ZM17.861 17.7094L17.4711 17.934L17.861 17.7094ZM17.9584 17.8814L17.5652 18.1003L17.9584 17.8814ZM18.0546 18.0543L17.6614 18.2731L18.0546 18.0543ZM18.1056 18.2311L17.6558 18.2455L18.1056 18.2311ZM18.1085 18.3215L17.6587 18.336L18.1085 18.3215ZM18.1114 18.4119L18.5612 18.3975L18.1114 18.4119ZM18.1461 18.5919L17.722 18.7424L18.1461 18.5919ZM18.1778 18.6814L18.6019 18.5309L18.1778 18.6814ZM18.2096 18.7709L18.6337 18.6204L18.2096 18.7709ZM18.252 18.9524L17.805 19.0043L18.252 18.9524ZM18.2734 19.1365L18.7204 19.0847L18.2734 19.1365ZM18.1919 19.3156L17.8829 18.9885L18.1919 19.3156ZM18.0997 19.4027L18.4087 19.7298L18.0997 19.4027ZM18.0075 19.4897L17.6985 19.1626L18.0075 19.4897ZM17.9826 19.6774L18.3567 19.4274L17.9826 19.6774ZM18.0498 19.7781L18.424 19.528L18.0498 19.7781ZM18.1171 19.8787L17.743 20.1287L18.1171 19.8787ZM18.1002 20.0519L18.3942 20.3926L18.1002 20.0519ZM17.932 20.197L17.6381 19.8563L17.932 20.197ZM17.8674 20.3936L17.4229 20.4636L17.8674 20.3936ZM17.887 20.5176L18.3315 20.4477L17.887 20.5176ZM17.9065 20.6416L17.4619 20.7116L17.9065 20.6416ZM17.7782 20.7373L17.6934 21.1792L17.7782 20.7373ZM17.6304 20.7089L17.5456 21.1509L17.6304 20.7089ZM17.4826 20.6806L17.5675 20.2386L17.4826 20.6806ZM17.2845 20.7483L16.886 20.5392L17.2845 20.7483ZM17.1837 20.9404L17.5822 21.1495L17.1837 20.9404ZM17.0404 21.0242L17.0993 20.5781L17.0404 21.0242ZM16.8547 20.9997L16.7958 21.4459L16.8547 20.9997ZM16.6854 20.9179L16.9883 20.5851L16.6854 20.9179ZM16.5325 20.7787L16.2296 21.1115L16.5325 20.7787ZM16.3553 20.7495L16.188 20.3317L16.3553 20.7495ZM16.2546 20.7899L16.4219 21.2076L16.2546 20.7899ZM16.1538 20.8302L15.9865 20.4125L16.1538 20.8302ZM15.9556 20.8744L15.9379 20.4247L15.9556 20.8744ZM15.7608 20.8821L15.7785 21.3317L15.7608 20.8821ZM15.586 20.8335L15.8384 20.4609L15.586 20.8335ZM15.4313 20.7287L15.6837 20.3561L15.4313 20.7287ZM15.3033 20.5659L14.8942 20.7535L15.3033 20.5659ZM15.2526 20.4554L14.8436 20.643L15.2526 20.4554ZM15.2019 20.3449L15.611 20.1573L15.2019 20.3449ZM15.0242 20.3004L15.2317 20.6997L15.0242 20.3004ZM14.7701 20.4325L14.5626 20.0332L14.7701 20.4325ZM14.5726 20.4352L14.2717 20.7699L14.5726 20.4352ZM14.5021 20.3719L14.8029 20.0372L14.5021 20.3719ZM14.4316 20.3085L14.1308 20.6432L14.4316 20.3085ZM14.3021 20.1579L14.6748 19.9057L14.3021 20.1579ZM14.184 19.9833L13.8113 20.2355L14.184 19.9833ZM14.0113 19.9274L14.1311 20.3612L14.0113 19.9274ZM13.784 19.9902L13.6642 19.5564L13.784 19.9902ZM13.5886 19.9839L13.4001 20.3925L13.5886 19.9839ZM13.507 19.9462L13.6955 19.5376L13.507 19.9462ZM13.4253 19.9085L13.2367 20.3171L13.4253 19.9085ZM13.2855 19.7816L12.9085 20.0274L13.2855 19.7816ZM13.1692 19.6034L13.5461 19.3576L13.1692 19.6034ZM13.0202 19.4968L13.1052 19.0549L13.0202 19.4968ZM12.8383 19.4618L12.7533 19.9037L12.8383 19.4618ZM12.6469 19.4635L12.5625 19.0215L12.6469 19.4635ZM12.446 19.5019L12.5304 19.9439L12.446 19.5019ZM12.2776 19.4214L12.6494 19.168L12.2776 19.4214ZM12.1418 19.2222L11.7699 19.4757L12.1418 19.2222ZM11.9987 19.2194L12.3541 19.4954L11.9987 19.2194ZM11.9235 19.3163L11.568 19.0403L11.9235 19.3163ZM11.8483 19.4131L11.4928 19.1372L11.8483 19.4131ZM11.6936 19.5284L11.795 19.9668L11.6936 19.5284ZM11.6141 19.5467L11.7155 19.9852L11.6141 19.5467ZM11.5346 19.5651L11.4332 19.1267L11.5346 19.5651ZM11.3336 19.5286L11.519 19.1186L11.3336 19.5286ZM11.0906 19.4186L10.9051 19.8286L11.0906 19.4186ZM10.895 19.4185L10.6274 19.0567L10.895 19.4185ZM10.7469 19.5281L11.0145 19.8899L10.7469 19.5281ZM10.6188 19.6808L11.0128 19.8982L10.6188 19.6808ZM10.5647 19.7788L10.1707 19.5614L10.5647 19.7788ZM10.5107 19.8767L10.1167 19.6593L10.5107 19.8767ZM10.2294 19.9116L10.3497 19.478L10.2294 19.9116ZM10.1158 19.88L9.99547 20.3137L10.1158 19.88ZM9.93481 19.9175L10.2569 20.2318L9.93481 19.9175ZM9.80013 20.0556L9.47805 19.7413L9.80013 20.0556ZM9.66225 20.1873L9.96116 20.5236L9.66225 20.1873ZM9.52115 20.3126L9.22224 19.9763L9.52115 20.3126ZM9.35807 20.389L9.29216 19.9439L9.35807 20.389ZM9.17301 20.4164L9.23892 20.8616L9.17301 20.4164ZM8.98342 20.4312L8.97862 19.9812L8.98342 20.4312ZM8.78931 20.4332L8.78451 19.9833L8.78931 20.4332ZM8.61022 20.4694L8.78746 20.8831L8.61022 20.4694ZM8.44613 20.5397L8.26888 20.1261L8.44613 20.5397ZM8.30834 20.6872L8.7114 20.8873L8.30834 20.6872ZM8.25259 20.7995L7.84952 20.5994L8.25259 20.7995ZM8.19684 20.9118L7.79377 20.7117L8.19684 20.9118ZM8.02495 20.9483L7.77911 21.3252L8.02495 20.9483ZM7.9088 20.8726L8.15464 20.4956L7.9088 20.8726ZM7.79265 20.7968L7.54681 21.1737L7.79265 20.7968ZM7.60652 20.836L7.22217 20.6019L7.60652 20.836ZM7.53655 20.9509L7.9209 21.1849L7.53655 20.9509ZM7.46657 21.0658L7.85092 21.2999L7.46657 21.0658ZM7.29772 21.1661L7.36386 20.721L7.29772 21.1661ZM7.1 21.1367L7.03386 21.5818L7.1 21.1367ZM6.90338 21.0986L7.00809 20.661L6.90338 21.0986ZM6.70787 21.0518L6.60316 21.4895L6.70787 21.0518ZM6.55613 20.9406L6.93954 20.705L6.55613 20.9406ZM6.44815 20.7649L6.83156 20.5293L6.44815 20.7649ZM6.31493 20.6213L6.05602 20.9893L6.31493 20.6213ZM6.15646 20.5098L6.41537 20.1417L6.15646 20.5098ZM6.06771 20.3589L6.51548 20.3142L6.06771 20.3589ZM6.0582 20.2638L6.50597 20.219L6.0582 20.2638ZM6.04869 20.1687L5.60092 20.2135L6.04869 20.1687ZM6.06236 19.981L5.62581 19.8717L6.06236 19.981ZM6.10872 19.7956L5.67217 19.6864L6.10872 19.7956ZM6.14339 19.6159L5.69725 19.5571L6.14339 19.6159ZM6.15488 19.5289L5.70874 19.47L6.15488 19.5289ZM6.16636 19.4418L6.6125 19.5007L6.16636 19.4418ZM6.13615 19.2668L6.54277 19.074L6.13615 19.2668ZM6.05274 19.0909L5.64612 19.2836L6.05274 19.0909ZM6.0611 18.9158L6.45123 19.1401L6.0611 18.9158ZM6.11117 18.8287L6.5013 19.053L6.11117 18.8287ZM6.16123 18.7416L5.7711 18.5174L6.16123 18.7416ZM6.18478 18.5636L5.75275 18.6895L6.18478 18.5636ZM6.13174 18.3816L6.56377 18.2557L6.13174 18.3816ZM6.05565 18.1965L6.45373 17.9867L6.05565 18.1965ZM6.00608 18.1025L5.608 18.3124L6.00608 18.1025ZM5.95651 18.0085L6.35459 17.7986L5.95651 18.0085ZM5.90113 17.8233L5.45204 17.852L5.90113 17.8233ZM5.89531 17.7322L6.3444 17.7035L5.89531 17.7322ZM5.88949 17.6411L6.33858 17.6124L5.88949 17.6411ZM5.89631 17.4608L6.34187 17.5239L5.89631 17.4608ZM5.90895 17.3715L6.35451 17.4346L5.90895 17.3715ZM5.92159 17.2823L5.47603 17.2192L5.92159 17.2823ZM5.95532 17.1047L6.39303 17.2091L5.95532 17.1047ZM5.97642 17.0163L5.53871 16.9118L5.97642 17.0163ZM5.99751 16.9279L6.43522 17.0324L5.99751 16.9279ZM6.09269 16.7561L5.75618 16.4573L6.09269 16.7561ZM6.24084 16.5892L5.90434 16.2905L6.24084 16.5892ZM6.28961 16.4129L6.72379 16.2946L6.28961 16.4129ZM6.23899 16.2271L5.80482 16.3454L6.23899 16.2271ZM6.27479 16.0492L5.90936 15.7866L6.27479 16.0492ZM6.3359 15.9641L6.70133 16.2267L6.3359 15.9641ZM6.38669 15.6982L6.74754 15.4293L6.38669 15.6982ZM6.31526 15.6023L5.9544 15.8712L6.31526 15.6023ZM6.24382 15.5064L6.60468 15.2376L6.24382 15.5064ZM6.13893 15.3267L5.72095 15.4934L6.13893 15.3267ZM6.10546 15.2428L6.52344 15.076L6.10546 15.2428ZM6.07199 15.1589L5.65401 15.3256L6.07199 15.1589ZM6.0987 14.969L5.70744 14.7467L6.0987 14.969ZM6.21906 14.7572L6.61032 14.9795L6.21906 14.7572ZM6.1747 14.6056L6.35504 14.1933L6.1747 14.6056ZM6.07016 14.5598L6.25049 14.1475L6.07016 14.5598ZM5.96562 14.5141L5.78528 14.9264L5.96562 14.5141ZM5.84379 14.3696L5.40052 14.4471L5.84379 14.3696ZM5.8265 14.2708L6.26977 14.1932L5.8265 14.2708ZM5.80921 14.172L5.36594 14.2495L5.80921 14.172ZM5.76401 13.9783L5.3323 14.1053L5.76401 13.9783ZM5.73609 13.8834L5.30438 14.0104L5.73609 13.8834ZM5.70818 13.7885L6.13988 13.6615L5.70818 13.7885ZM5.57741 13.6631L5.44944 14.0945L5.57741 13.6631ZM5.24244 13.4757L4.80864 13.5954L5.24244 13.4757ZM5.18957 13.284L5.62337 13.1644L5.18957 13.284ZM5.09234 13.1302L5.37769 12.7822L5.09234 13.1302ZM4.95075 13.014L4.6654 13.362L4.95075 13.014ZM4.77437 12.9276L4.65743 13.3621L4.77437 12.9276ZM4.56318 12.8707L4.68012 12.4362L4.56318 12.8707ZM4.48628 12.583L4.93355 12.6325L4.48628 12.583ZM4.50062 12.4533L4.05334 12.4039L4.50062 12.4533ZM4.20287 12.2324L4.07653 12.6643L4.20287 12.2324ZM4.00727 12.1593L4.19713 11.7513L4.00727 12.1593ZM3.91569 12.1167L4.10556 11.7087L3.91569 12.1167ZM3.82411 12.0741L3.63425 12.4821L3.82411 12.0741ZM3.68064 11.9561L3.31004 12.2114L3.68064 11.9561ZM3.62875 11.8808L3.25815 12.136L3.62875 11.8808ZM3.57685 11.8054L3.94745 11.5502L3.57685 11.8054ZM3.52992 11.6158L3.08034 11.5963L3.52992 11.6158ZM3.51821 11.1868L3.08818 11.3193L3.51821 11.1868ZM3.49163 11.1005L3.0616 11.2331L3.49163 11.1005ZM3.46505 11.0143L3.03502 11.1469L3.46505 11.0143ZM3.33524 10.8794L3.14331 11.2864L3.33524 10.8794ZM3.23201 10.8307L3.04008 11.2377L3.23201 10.8307ZM3.12878 10.782L3.32072 10.375L3.12878 10.782ZM3.03361 10.6358L2.58514 10.5987L3.03361 10.6358ZM2.92783 10.1541L3.29854 9.89903L2.92783 10.1541ZM2.86283 10.0597L2.49212 10.3148L2.86283 10.0597ZM2.86946 9.88284L2.52984 9.58761L2.86946 9.88284ZM3.17956 9.60123L3.02645 9.17807L3.17956 9.60123ZM3.2748 9.56676L3.42792 9.98992L3.2748 9.56676ZM3.4833 9.38462L3.03889 9.31391L3.4833 9.38462ZM3.51933 9.15819L3.07492 9.08748L3.51933 9.15819ZM3.97804 8.90097L4.00128 8.45157L3.97804 8.90097ZM4.17576 8.9112L4.15253 9.3606L4.17576 8.9112ZM4.35028 8.86087L4.61625 9.22386L4.35028 8.86087ZM4.50161 8.74999L4.23564 8.387L4.50161 8.74999ZM4.64785 8.61121L4.99126 8.90202L4.64785 8.61121ZM4.78901 8.44452L4.4456 8.15371L4.78901 8.44452ZM4.97112 8.43092L4.73254 8.81247L4.97112 8.43092ZM5.19419 8.57041L4.95561 8.95196L5.19419 8.57041ZM5.37404 8.54009L5.0024 8.28635L5.37404 8.54009ZM5.68242 8.28654L5.86731 7.87628L5.68242 8.28654ZM5.78585 8.33315L5.60095 8.74342L5.78585 8.33315ZM5.88927 8.37977L5.70438 8.79003L5.88927 8.37977ZM6.0714 8.3669L5.80008 8.00789L6.0714 8.3669ZM6.22881 8.24793L6.50013 8.60694L6.22881 8.24793ZM6.40464 8.20895L6.49757 7.76865L6.40464 8.20895ZM6.50178 8.22946L6.40886 8.66976L6.50178 8.22946ZM6.59892 8.24996L6.50599 8.69026L6.59892 8.24996ZM6.77779 8.22388L6.55499 7.83291L6.77779 8.22388ZM6.94126 8.13073L7.16406 8.5217L6.94126 8.13073ZM7.09757 8.00643L7.42226 8.31801L7.09757 8.00643ZM7.17214 7.92872L6.84745 7.61714L7.17214 7.92872ZM7.24672 7.851L7.57141 8.16258L7.24672 7.851ZM7.41961 7.80129L7.54288 7.3685L7.41961 7.80129ZM7.61622 7.85729L7.49295 8.29008L7.61622 7.85729ZM7.81746 7.90833L7.71917 8.34747L7.81746 7.90833ZM8.02332 7.95441L7.92503 8.39354L8.02332 7.95441ZM8.17512 7.87721L8.57961 8.07441L8.17512 7.87721ZM8.22398 7.77697L7.81949 7.57976L8.22398 7.77697ZM8.27285 7.67673L8.67734 7.87394L8.27285 7.67673ZM8.41379 7.54545L8.5576 7.97185L8.41379 7.54545ZM8.59792 7.48334L8.45411 7.05694L8.59792 7.48334ZM8.69331 7.34746L8.24353 7.3332L8.69331 7.34746ZM8.69995 7.13778L9.14973 7.15203L8.69995 7.13778ZM8.79897 6.98494L9.00075 7.38717L8.79897 6.98494ZM8.89467 6.93693L8.6929 6.5347L8.89467 6.93693ZM9.15941 6.7787L8.8683 6.43554L9.15941 6.7787ZM9.23276 6.71648L8.94165 6.37332L9.23276 6.71648ZM9.30611 6.65425L9.015 6.31109L9.30611 6.65425ZM9.30196 6.34269L9.73169 6.20913L9.30196 6.34269ZM9.26322 6.21802L8.83349 6.35158L9.26322 6.21802ZM9.27783 6.08682L9.33251 6.53348L9.27783 6.08682ZM9.33118 6.08028L9.27649 5.63362L9.33118 6.08028ZM9.38454 6.07375L9.43922 6.52042L9.38454 6.07375ZM9.42438 5.95636L8.97768 6.01082L9.42438 5.95636ZM9.41086 5.84549L9.85755 5.79103L9.84404 5.68017L9.39734 5.73463L8.95065 5.78909L8.96416 5.89995L9.41086 5.84549ZM9.39734 5.73463L9.84404 5.68017C9.84707 5.70507 9.84794 5.75777 9.82039 5.81999C9.79171 5.88477 9.74678 5.92698 9.71047 5.94985L9.47063 5.56909L9.23079 5.18833C9.13661 5.24765 9.05054 5.33568 8.99743 5.45564C8.94545 5.57305 8.9386 5.69028 8.95065 5.78909L9.39734 5.73463ZM9.47063 5.56909L9.71047 5.94985L9.79728 5.89517L9.55744 5.51441L9.3176 5.13365L9.23079 5.18833L9.47063 5.56909ZM9.55744 5.51441L9.79728 5.89517L9.88409 5.84049L9.64425 5.45973L9.40441 5.07897L9.3176 5.13365L9.55744 5.51441ZM9.64425 5.45973L9.88409 5.84049C10.0006 5.76708 10.1035 5.66497 10.1726 5.53027L9.77223 5.32482L9.37186 5.11937C9.37828 5.10685 9.38596 5.09657 9.39317 5.08896C9.40015 5.08161 9.40485 5.07869 9.40441 5.07897L9.64425 5.45973ZM9.77223 5.32482L10.1726 5.53027L10.2138 5.45003L9.8134 5.24458L9.41304 5.03913L9.37186 5.11937L9.77223 5.32482ZM9.8134 5.24458L10.2138 5.45003L10.2549 5.3698L9.85457 5.16435L9.45421 4.9589L9.41304 5.03913L9.8134 5.24458ZM9.85457 5.16435L10.2549 5.3698C10.2335 5.41155 10.2046 5.44122 10.1792 5.45962C10.1558 5.47656 10.1402 5.48073 10.1428 5.47995L10.0139 5.0488L9.88501 4.61765C9.73324 4.66301 9.55577 4.76099 9.45421 4.9589L9.85457 5.16435ZM10.0139 5.0488L10.1428 5.47995L10.2609 5.44464L10.132 5.01349L10.0031 4.58233L9.88501 4.61765L10.0139 5.0488ZM10.132 5.01349L10.2609 5.44464L10.379 5.40933L10.2502 4.97817L10.1213 4.54702L10.0031 4.58233L10.132 5.01349ZM10.2502 4.97817L10.379 5.40933C10.4789 5.37947 10.6056 5.31754 10.6991 5.18981C10.7967 5.05648 10.8171 4.90805 10.805 4.78719L10.3572 4.83197L9.90944 4.87676C9.90475 4.82983 9.91096 4.74273 9.97291 4.65812C10.0308 4.57913 10.1002 4.55334 10.1213 4.54702L10.2502 4.97817ZM10.3572 4.83197L10.805 4.78719L10.7939 4.6763L10.3461 4.72109L9.89835 4.76588L9.90944 4.87676L10.3572 4.83197ZM10.3461 4.72109L10.7939 4.6763L10.7828 4.56541L10.335 4.6102L9.88726 4.65499L9.89835 4.76588L10.3461 4.72109ZM10.335 4.6102L10.7828 4.56541C10.7843 4.58095 10.7853 4.61891 10.7675 4.66735C10.7486 4.71889 10.7161 4.76123 10.68 4.79034L10.3975 4.43998L10.1151 4.08962C9.92519 4.24274 9.86787 4.46121 9.88726 4.65499L10.335 4.6102ZM10.3975 4.43998L10.68 4.79034L10.7536 4.73101L10.4712 4.38065L10.1888 4.03029L10.1151 4.08962L10.3975 4.43998ZM10.4712 4.38065L10.7536 4.73101L10.8272 4.67167L10.5448 4.32131L10.2624 3.97095L10.1888 4.03029L10.4712 4.38065ZM10.5448 4.32131L10.8272 4.67167C10.9372 4.58295 11.0216 4.46855 11.0721 4.3334L10.6506 4.17578L10.2291 4.01816C10.2323 4.00964 10.2373 3.99999 10.2441 3.99058C10.2509 3.98122 10.2576 3.97476 10.2624 3.97095L10.5448 4.32131ZM10.6506 4.17578L11.0721 4.3334L11.1043 4.2472L10.6829 4.08958L10.2614 3.93196L10.2291 4.01816L10.6506 4.17578ZM10.6829 4.08958L11.1043 4.2472L11.1366 4.161L10.7151 4.00338L10.2936 3.84577L10.2614 3.93196L10.6829 4.08958ZM10.7151 4.00338L11.1366 4.161C11.1249 4.19233 11.1047 4.22498 11.076 4.25278C11.0482 4.27973 11.0214 4.29339 11.0056 4.29954L10.8423 3.8802L10.679 3.46086C10.5107 3.52642 10.3651 3.65456 10.2936 3.84577L10.7151 4.00338ZM10.8423 3.8802L11.0056 4.29954L11.1006 4.26255L10.9373 3.84321L10.774 3.42388L10.679 3.46086L10.8423 3.8802ZM10.9373 3.84321L11.1006 4.26255L11.1956 4.22556L11.0323 3.80623L10.869 3.38689L10.774 3.42388L10.9373 3.84321ZM11.0323 3.80623L11.1956 4.22556C11.3294 4.17347 11.4605 4.08341 11.552 3.94034L11.173 3.69779L10.794 3.45523C10.808 3.43333 10.8246 3.41627 10.8403 3.40418C10.8554 3.39257 10.8665 3.38787 10.869 3.38689L11.0323 3.80623ZM11.173 3.69779L11.552 3.94034L11.5978 3.86889L11.2187 3.62633L10.8397 3.38378L10.794 3.45523L11.173 3.69779ZM11.2187 3.62633L11.5978 3.86889L11.6435 3.79743L11.2645 3.55488L10.8854 3.31233L10.8397 3.38378L11.2187 3.62633ZM11.2645 3.55488L11.6435 3.79743C11.7278 3.66564 11.7591 3.51733 11.772 3.39498L11.3244 3.3479L10.8769 3.30082C10.8756 3.31311 10.8742 3.32265 10.8729 3.32974C10.8715 3.33686 10.8705 3.34084 10.8701 3.34215C10.8697 3.34349 10.8702 3.34131 10.8724 3.33641C10.8745 3.33151 10.8786 3.32305 10.8854 3.31233L11.2645 3.55488ZM11.3244 3.3479L11.772 3.39498L11.7862 3.25946L11.3387 3.21238L10.8912 3.16529L10.8769 3.30082L11.3244 3.3479ZM11.3387 3.21238L11.7862 3.25946L11.8005 3.12394L11.353 3.07685L10.9054 3.02977L10.8912 3.16529L11.3387 3.21238ZM11.353 3.07685L11.8005 3.12394C11.7997 3.13143 11.7962 3.15935 11.78 3.19713C11.763 3.23679 11.7289 3.29401 11.6649 3.34262C11.521 3.452 11.3765 3.41632 11.347 3.40699L11.483 2.97801L11.6189 2.54903C11.5123 2.51524 11.3075 2.48381 11.1203 2.62614C10.9507 2.755 10.9149 2.93989 10.9054 3.02977L11.353 3.07685ZM11.483 2.97801L11.347 3.40699L11.4628 3.44367L11.5987 3.01469L11.7347 2.58571L11.6189 2.54903L11.483 2.97801ZM11.5987 3.01469L11.4628 3.44367L11.5786 3.48036L11.7145 3.05138L11.8504 2.62239L11.7347 2.58571L11.5987 3.01469ZM11.7145 3.05138L11.5786 3.48036C11.6502 3.50306 11.7048 3.52215 11.7445 3.53763L11.908 3.11839L12.0715 2.69914C12.0076 2.67419 11.9331 2.6486 11.8504 2.62239L11.7145 3.05138ZM11.908 3.11839L11.7445 3.53763L11.8223 3.56796L11.9858 3.14872L12.1493 2.72947L12.0715 2.69914L11.908 3.11839ZM11.9858 3.14872L11.8223 3.56796L11.9 3.59829L12.0636 3.17905L12.2271 2.7598L12.1493 2.72947L11.9858 3.14872ZM12.0636 3.17905L11.9 3.59829C12.0385 3.65231 12.1807 3.6596 12.3139 3.63536L12.2333 3.19264L12.1527 2.74991C12.1567 2.74917 12.1665 2.7479 12.1808 2.74904C12.1953 2.75021 12.2113 2.75365 12.2271 2.7598L12.0636 3.17905ZM12.2333 3.19264L12.3139 3.63536L12.4058 3.61862L12.3252 3.1759L12.2447 2.73317L12.1527 2.74991L12.2333 3.19264ZM12.3252 3.1759L12.4058 3.61862L12.4978 3.60188L12.4172 3.15916L12.3366 2.71643L12.2447 2.73317L12.3252 3.1759ZM12.4172 3.15916L12.4978 3.60188C12.4996 3.60156 12.5096 3.59994 12.5315 3.60395L12.6124 3.16128L12.6933 2.71861C12.5776 2.69747 12.4575 2.69443 12.3366 2.71643L12.4172 3.15916ZM12.6124 3.16128L12.5315 3.60395L12.6347 3.62282L12.7156 3.18015L12.7965 2.73748L12.6933 2.71861L12.6124 3.16128ZM12.7156 3.18015L12.6347 3.62282L12.738 3.64169L12.8189 3.19902L12.8998 2.75634L12.7965 2.73748L12.7156 3.18015ZM12.8189 3.19902L12.738 3.64169C12.6847 3.63195 12.6035 3.59907 12.5413 3.51842C12.4845 3.44486 12.478 3.37587 12.4772 3.35668L12.9269 3.33892L13.3765 3.32116C13.3726 3.22127 13.3465 3.08862 13.2537 2.96843C13.1554 2.84115 13.0218 2.77865 12.8998 2.75634L12.8189 3.19902ZM12.9269 3.33892L12.4772 3.35668L12.482 3.47771L12.9317 3.45996L13.3813 3.4422L13.3765 3.32116L12.9269 3.33892ZM12.9317 3.45996L12.482 3.47771L12.4868 3.59875L12.9364 3.581L13.3861 3.56324L13.3813 3.4422L12.9317 3.45996ZM12.9364 3.581L12.4868 3.59875C12.4915 3.71709 12.5121 3.84448 12.5658 3.96571L12.9773 3.78354L13.3888 3.60137C13.3919 3.60837 13.3915 3.60981 13.3902 3.60316C13.3888 3.59648 13.3869 3.58362 13.3861 3.56324L12.9364 3.581ZM12.9773 3.78354L12.5658 3.96571L12.6019 4.04722L13.0134 3.86505L13.4249 3.68288L13.3888 3.60137L12.9773 3.78354ZM13.0134 3.86505L12.6019 4.04722L12.638 4.12872L13.0495 3.94656L13.4609 3.76439L13.4249 3.68288L13.0134 3.86505ZM13.0495 3.94656L12.638 4.12872C12.7455 4.37162 12.967 4.46384 13.1296 4.4936L13.2106 4.05094L13.2916 3.60828C13.2918 3.60832 13.2978 3.60941 13.308 3.61312C13.3182 3.61686 13.3339 3.62372 13.3525 3.63572C13.3931 3.66207 13.4348 3.70536 13.4609 3.76439L13.0495 3.94656ZM13.2106 4.05094L13.1296 4.4936L13.2547 4.51647L13.3357 4.07381L13.4166 3.63115L13.2916 3.60828L13.2106 4.05094ZM13.3357 4.07381L13.2547 4.51647L13.3797 4.53935L13.4607 4.09669L13.5417 3.65403L13.4166 3.63115L13.3357 4.07381ZM13.4607 4.09669L13.3797 4.53935C13.3704 4.53765 13.3172 4.52666 13.2594 4.47556C13.1933 4.41703 13.1601 4.34032 13.1518 4.27477L13.5982 4.21839L14.0447 4.162C14.0281 4.03057 13.9678 3.90064 13.8558 3.80154C13.7522 3.70987 13.6343 3.67098 13.5417 3.65403L13.4607 4.09669ZM13.5982 4.21839L13.1518 4.27477L13.1643 4.3736L13.6107 4.31721L14.0572 4.26083L14.0447 4.162L13.5982 4.21839ZM13.6107 4.31721L13.1643 4.3736L13.1767 4.47243L13.6232 4.41604L14.0697 4.35965L14.0572 4.26083L13.6107 4.31721ZM13.6232 4.41604L13.1767 4.47243C13.1841 4.531 13.1901 4.58986 13.1947 4.649L13.6433 4.61453L14.092 4.58006C14.0864 4.50632 14.0789 4.43285 14.0697 4.35965L13.6232 4.41604ZM13.6433 4.61453L13.1947 4.649L13.2023 4.74866L13.651 4.71419L14.0997 4.67972L14.092 4.58006L13.6433 4.61453ZM13.651 4.71419L13.2023 4.74866L13.21 4.84833L13.6587 4.81385L14.1073 4.77938L14.0997 4.67972L13.651 4.71419ZM13.6587 4.81385L13.21 4.84833C13.2185 4.95913 13.256 5.07299 13.3326 5.17315C13.4074 5.2708 13.5017 5.33262 13.5902 5.37089L13.7688 4.95787L13.9475 4.54484C13.9676 4.55355 14.0094 4.57658 14.0474 4.62623C14.0873 4.67839 14.1039 4.73502 14.1073 4.77938L13.6587 4.81385ZM13.7688 4.95787L13.5902 5.37089L13.6927 5.41524L13.8714 5.00222L14.05 4.58919L13.9475 4.54484L13.7688 4.95787ZM13.8714 5.00222L13.6927 5.41524L13.7953 5.45959L13.9739 5.04657L14.1526 4.63354L14.05 4.58919L13.8714 5.00222ZM13.9739 5.04657L13.7953 5.45959C13.7849 5.45509 13.7581 5.44148 13.7293 5.41091C13.6987 5.37845 13.6767 5.33823 13.6656 5.2967L14.1004 5.1808L14.5352 5.06491C14.4766 4.84482 14.319 4.70553 14.1526 4.63354L13.9739 5.04657ZM14.1004 5.1808L13.6656 5.2967L13.6895 5.38659L14.1244 5.27069L14.5592 5.1548L14.5352 5.06491L14.1004 5.1808ZM14.1244 5.27069L13.6895 5.38659L13.7135 5.47648L14.1483 5.36058L14.5832 5.24469L14.5592 5.1548L14.1244 5.27069ZM14.1483 5.36058L13.7135 5.47648C13.7282 5.5317 13.7421 5.58739 13.7552 5.64355L14.1935 5.54174L14.6318 5.43992C14.6166 5.3744 14.6004 5.30932 14.5832 5.24469L14.1483 5.36058ZM14.1935 5.54174L13.7552 5.64355L13.7764 5.73481L14.2147 5.633L14.653 5.53118L14.6318 5.43992L14.1935 5.54174ZM14.2147 5.633L13.7764 5.73481L13.7976 5.82608L14.2359 5.72426L14.6742 5.62244L14.653 5.53118L14.2147 5.633ZM14.2359 5.72426L13.7976 5.82608C13.8169 5.9092 13.8423 5.99026 13.8743 6.06891L14.2912 5.89964L14.7082 5.73038C14.6946 5.69687 14.6832 5.66101 14.6742 5.62244L14.2359 5.72426ZM14.2912 5.89964L13.8743 6.06891L13.9084 6.15303L14.3254 5.98377L14.7423 5.8145L14.7082 5.73038L14.2912 5.89964ZM14.3254 5.98377L13.9084 6.15303L13.9426 6.23716L14.3595 6.06789L14.7765 5.89862L14.7423 5.8145L14.3254 5.98377ZM14.3595 6.06789L13.9426 6.23716C13.9653 6.29304 13.9879 6.34892 14.0105 6.4048L14.4277 6.23614L14.8449 6.06747C14.8221 6.01119 14.7993 5.9549 14.7765 5.89862L14.3595 6.06789ZM14.4277 6.23614L14.0105 6.4048L14.0445 6.48893L14.4617 6.32026L14.8789 6.1516L14.8449 6.06747L14.4277 6.23614ZM14.4617 6.32026L14.0445 6.48893L14.0785 6.57305L14.4957 6.40439L14.9129 6.23573L14.8789 6.1516L14.4617 6.32026ZM14.4957 6.40439L14.0785 6.57305C14.1681 6.79458 14.3546 6.90509 14.512 6.95488L14.6477 6.52582L14.7834 6.09676C14.7837 6.09687 14.7887 6.09846 14.7969 6.10262C14.8052 6.10681 14.8175 6.11395 14.8316 6.12525C14.8622 6.14968 14.8932 6.18698 14.9129 6.23573L14.4957 6.40439ZM14.6477 6.52582L14.512 6.95488L14.63 6.99218L14.7656 6.56312L14.9013 6.13406L14.7834 6.09676L14.6477 6.52582ZM14.7656 6.56312L14.63 6.99218L14.7479 7.02948L14.8836 6.60042L15.0193 6.17136L14.9013 6.13406L14.7656 6.56312ZM14.8836 6.60042L14.7479 7.02948C14.7448 7.02849 14.7167 7.01931 14.6824 6.98932C14.6443 6.95606 14.612 6.9086 14.5957 6.85279L15.0275 6.72621L15.4593 6.59963C15.3861 6.34987 15.1869 6.22438 15.0193 6.17136L14.8836 6.60042ZM15.0275 6.72621L14.5957 6.85279L14.6216 6.94128L15.0534 6.8147L15.4853 6.68811L15.4593 6.59963L15.0275 6.72621ZM15.0534 6.8147L14.6216 6.94128L14.6475 7.02977L15.0794 6.90318L15.5112 6.7766L15.4853 6.68811L15.0534 6.8147ZM15.0794 6.90318L14.6475 7.02977C14.7035 7.22084 14.8338 7.35839 14.9919 7.43891L15.1961 7.03793L15.4004 6.63694C15.4145 6.64412 15.438 6.6592 15.4616 6.68643C15.4859 6.71447 15.5023 6.74632 15.5112 6.7766L15.0794 6.90318ZM15.1961 7.03793L14.9919 7.43891L15.0827 7.48516L15.2869 7.08418L15.4912 6.6832L15.4004 6.63694L15.1961 7.03793ZM15.2869 7.08418L15.0827 7.48516L15.1735 7.53142L15.3777 7.13043L15.582 6.72945L15.4912 6.6832L15.2869 7.08418ZM15.3777 7.13043L15.1735 7.53142C15.1508 7.51984 15.1171 7.49671 15.0873 7.45637C15.0571 7.41539 15.043 7.37294 15.038 7.33998L15.483 7.27319L15.928 7.20639C15.8957 6.99093 15.7652 6.8228 15.582 6.72945L15.3777 7.13043ZM15.483 7.27319L15.038 7.33998L15.0525 7.43648L15.4975 7.36968L15.9425 7.30289L15.928 7.20639L15.483 7.27319ZM15.4975 7.36968L15.0525 7.43648L15.067 7.53298L15.512 7.46618L15.957 7.39938L15.9425 7.30289L15.4975 7.36968ZM15.512 7.46618L15.067 7.53298C15.0825 7.63628 15.1302 7.77541 15.2579 7.88257C15.386 7.99001 15.5318 8.01272 15.6371 8.00955L15.6235 7.55975L15.61 7.10995C15.6506 7.10873 15.7455 7.11682 15.8363 7.19307C15.9269 7.26904 15.9512 7.36041 15.957 7.39938L15.512 7.46618ZM15.6235 7.55975L15.6371 8.00955L15.7341 8.00663L15.7206 7.55683L15.7071 7.10703L15.61 7.10995L15.6235 7.55975ZM15.7206 7.55683L15.7341 8.00663L15.8312 8.00371L15.8177 7.55391L15.8041 7.10411L15.7071 7.10703L15.7206 7.55683ZM15.8177 7.55391L15.8312 8.00371C15.7844 8.00512 15.7253 7.99386 15.6692 7.95946C15.616 7.92692 15.589 7.88814 15.5785 7.86981L15.9694 7.6468L16.3602 7.42378C16.3133 7.34157 16.2428 7.25538 16.1391 7.19188C16.0323 7.12652 15.9156 7.10075 15.8041 7.10411L15.8177 7.55391ZM15.9694 7.6468L15.5785 7.86981L15.6332 7.96562L16.024 7.74261L16.4149 7.51959L16.3602 7.42378L15.9694 7.6468ZM16.024 7.74261L15.6332 7.96562L15.6879 8.06143L16.0787 7.83842L16.4696 7.6154L16.4149 7.51959L16.024 7.74261ZM16.0787 7.83842L15.6879 8.06143C15.7765 8.21679 15.9318 8.35986 16.159 8.39255L16.2231 7.94713L16.2872 7.50171C16.332 7.50816 16.3762 7.5264 16.4128 7.55401C16.4472 7.57991 16.464 7.60559 16.4696 7.6154L16.0787 7.83842ZM16.2231 7.94713L16.159 8.39255L16.2488 8.40545L16.3128 7.96003L16.3769 7.51461L16.2872 7.50171L16.2231 7.94713ZM16.3128 7.96003L16.2488 8.40545L16.3385 8.41835L16.4025 7.97293L16.4666 7.52751L16.3769 7.51461L16.3128 7.96003ZM16.4025 7.97293L16.3385 8.41835C16.3066 8.41377 16.2787 8.40286 16.2572 8.38997C16.2367 8.37774 16.2268 8.36667 16.2253 8.36495L16.5654 8.07032L16.9056 7.77569C16.8031 7.65735 16.6569 7.55489 16.4666 7.52751L16.4025 7.97293ZM16.5654 8.07032L16.2253 8.36495L16.2985 8.44943L16.6386 8.1548L16.9787 7.86017L16.9056 7.77569L16.5654 8.07032ZM16.6386 8.1548L16.2985 8.44943L16.3716 8.53392L16.7118 8.23929L17.0519 7.94466L16.9787 7.86017L16.6386 8.1548ZM16.7118 8.23929L16.3716 8.53392C16.4571 8.63257 16.5918 8.72415 16.7711 8.73327C16.9362 8.74166 17.067 8.67596 17.1493 8.6193L16.8943 8.24857L16.6392 7.87784C16.6487 7.87131 16.7127 7.82913 16.8168 7.83443C16.9354 7.84045 17.0153 7.90232 17.0519 7.94466L16.7118 8.23929ZM16.8943 8.24857L17.1493 8.6193L17.2586 8.54409L17.0036 8.17336L16.7485 7.80263L16.6392 7.87784L16.8943 8.24857ZM17.0036 8.17336L17.2586 8.54409L17.368 8.46888L17.1129 8.09815L16.8578 7.72742L16.7485 7.80263L17.0036 8.17336ZM17.1129 8.09815L17.368 8.46888C17.3716 8.46637 17.3527 8.48058 17.3129 8.48934C17.2679 8.49924 17.2082 8.49921 17.1469 8.47585L17.3072 8.05537L17.4676 7.6349C17.2167 7.53926 16.9932 7.6343 16.8578 7.72742L17.1129 8.09815ZM17.3072 8.05537L17.1469 8.47585L17.2319 8.50827L17.3923 8.0878L17.5526 7.66733L17.4676 7.6349L17.3072 8.05537ZM17.3923 8.0878L17.2319 8.50827L17.317 8.5407L17.4773 8.12022L17.6376 7.69975L17.5526 7.66733L17.3923 8.0878ZM17.4773 8.12022L17.317 8.5407C17.2567 8.51772 17.2408 8.48354 17.2536 8.50326L17.6307 8.2577L18.0078 8.01213C17.9295 7.89179 17.8113 7.76596 17.6376 7.69975L17.4773 8.12022ZM17.6307 8.2577L17.2536 8.50326L17.3221 8.60831L17.6992 8.36275L18.0762 8.11718L18.0078 8.01213L17.6307 8.2577ZM17.6992 8.36275L17.3221 8.60831L17.3905 8.71336L17.7676 8.46779L18.1447 8.22223L18.0762 8.11718L17.6992 8.36275ZM17.7676 8.46779L17.3905 8.71336C17.4604 8.82074 17.6004 8.96004 17.8231 8.97214C18.0196 8.98282 18.1642 8.88515 18.238 8.82379L17.9504 8.47773L17.6627 8.13167C17.6663 8.12872 17.6839 8.11443 17.7155 8.10057C17.7484 8.08616 17.8027 8.0697 17.8719 8.07346C18.0336 8.08225 18.1203 8.18488 18.1447 8.22223L17.7676 8.46779ZM17.9504 8.47773L18.238 8.82379L18.3525 8.72867L18.0648 8.38261L17.7772 8.03655L17.6627 8.13167L17.9504 8.47773ZM18.0648 8.38261L18.3525 8.72867L18.4669 8.63356L18.1792 8.2875L17.8916 7.94144L17.7772 8.03655L18.0648 8.38261ZM18.1792 8.2875L18.4669 8.63356C18.4667 8.63375 18.4645 8.63553 18.4604 8.63832C18.4563 8.6411 18.4497 8.64532 18.4404 8.65009C18.4224 8.65937 18.3902 8.67301 18.3456 8.67916C18.2988 8.68561 18.2451 8.68278 18.1906 8.66509C18.1369 8.64767 18.0963 8.62039 18.0686 8.59536L18.37 8.26122L18.6714 7.92708C18.555 7.82207 18.3958 7.76373 18.2227 7.78758C18.0739 7.80808 17.9619 7.88301 17.8916 7.94144L18.1792 8.2875ZM18.37 8.26122L18.0686 8.59536L18.1449 8.66419L18.4463 8.33006L18.7477 7.99592L18.6714 7.92708L18.37 8.26122ZM18.4463 8.33006L18.1449 8.66419L18.2212 8.73303L18.5226 8.39889L18.824 8.06476L18.7477 7.99592L18.4463 8.33006ZM18.5226 8.39889L18.2212 8.73303C18.3325 8.83342 18.4735 8.90649 18.6391 8.92506L18.6893 8.47786L18.7394 8.03066C18.7594 8.0329 18.7786 8.03855 18.7951 8.04638C18.8111 8.05398 18.8206 8.06167 18.824 8.06476L18.5226 8.39889ZM18.6893 8.47786L18.6391 8.92506L18.7295 8.9352L18.7797 8.488L18.8298 8.04079L18.7394 8.03066L18.6893 8.47786ZM18.7797 8.488L18.7295 8.9352L18.8199 8.94533L18.87 8.49813L18.9202 8.05093L18.8298 8.04079L18.7797 8.488ZM18.87 8.49813L18.8199 8.94533C18.8502 8.94872 18.8792 8.95501 18.9075 8.96419L19.0464 8.53619L19.1854 8.10818C19.099 8.08013 19.0104 8.06105 18.9202 8.05093L18.87 8.49813ZM19.0464 8.53619L18.9075 8.96419L18.9935 8.99212L19.1324 8.56411L19.2714 8.13611L19.1854 8.10818L19.0464 8.53619ZM19.1324 8.56411L18.9935 8.99212L19.0795 9.02005L19.2185 8.59204L19.3574 8.16403L19.2714 8.13611L19.1324 8.56411ZM19.2185 8.59204L19.0795 9.02005C19.1493 9.04271 19.22 9.06232 19.2917 9.07888L19.393 8.64043L19.4944 8.20198C19.4479 8.19126 19.4023 8.17861 19.3574 8.16403L19.2185 8.59204ZM19.393 8.64043L19.2917 9.07888L19.3803 9.09935L19.4816 8.6609L19.5829 8.22245L19.4944 8.20198L19.393 8.64043ZM19.4816 8.6609L19.3803 9.09935L19.4689 9.11982L19.5702 8.68137L19.6715 8.24292L19.5829 8.22245L19.4816 8.6609ZM19.5702 8.68137L19.4689 9.11982C19.511 9.12956 19.5527 9.14174 19.5939 9.15641L19.7448 8.73248L19.8958 8.30855C19.8222 8.28236 19.7474 8.26047 19.6715 8.24292L19.5702 8.68137ZM19.7448 8.73248L19.5939 9.15641L19.68 9.18706L19.8309 8.76312L19.9818 8.33919L19.8958 8.30855L19.7448 8.73248ZM19.8309 8.76312L19.68 9.18706L19.766 9.2177L19.917 8.79377L20.0679 8.36984L19.9818 8.33919L19.8309 8.76312ZM19.917 8.79377L19.766 9.2177C19.744 9.20985 19.7238 9.19808 19.7073 9.18428C19.6912 9.17092 19.6828 9.15914 19.6797 9.15434L20.0591 8.91237L20.4385 8.6704C20.3553 8.53995 20.2327 8.42851 20.0679 8.36984L19.917 8.79377ZM20.0591 8.91237L19.6797 9.15434L19.7358 9.2423L20.1152 9.00033L20.4946 8.75835L20.4385 8.6704L20.0591 8.91237ZM20.1152 9.00033L19.7358 9.2423L19.7919 9.33026L20.1713 9.08828L20.5507 8.84631L20.4946 8.75835L20.1152 9.00033ZM20.1713 9.08828L19.7919 9.33026C19.9034 9.50507 20.0819 9.61618 20.294 9.63289L20.3293 9.18427L20.3647 8.73566C20.3933 8.73792 20.4325 8.74737 20.4725 8.77166C20.5122 8.79578 20.5372 8.82508 20.5507 8.84631L20.1713 9.08828ZM20.3293 9.18427L20.294 9.63289L20.3959 9.64092L20.4312 9.1923L20.4666 8.74369L20.3647 8.73566L20.3293 9.18427ZM20.4312 9.1923L20.3959 9.64092L20.4978 9.64895L20.5332 9.20033L20.5685 8.75172L20.4666 8.74369L20.4312 9.1923ZM20.5332 9.20033L20.4978 9.64895C20.4863 9.64804 20.4678 9.64474 20.4459 9.63515C20.4237 9.6254 20.4049 9.6121 20.3905 9.59816L20.7041 9.27536L21.0176 8.95256C20.8914 8.82999 20.7339 8.76475 20.5685 8.75172L20.5332 9.20033ZM20.7041 9.27536L20.3905 9.59816L20.4595 9.66516L20.773 9.34236L21.0866 9.01956L21.0176 8.95256L20.7041 9.27536ZM20.773 9.34236L20.4595 9.66516L20.5285 9.73215L20.842 9.40936L21.1555 9.08656L21.0866 9.01956L20.773 9.34236ZM20.842 9.40936L20.5285 9.73215C20.4985 9.70303 20.4691 9.65943 20.454 9.60407C20.4395 9.55097 20.4441 9.50877 20.4486 9.48773L20.8888 9.58106L21.329 9.67439C21.3716 9.47365 21.3266 9.25268 21.1555 9.08656L20.842 9.40936ZM20.8888 9.58106L20.4486 9.48773L20.4264 9.59243L20.8666 9.68576L21.3068 9.77909L21.329 9.67439L20.8888 9.58106ZM20.8666 9.68576L20.4264 9.59243L20.4042 9.69713L20.8444 9.79047L21.2846 9.8838L21.3068 9.77909L20.8666 9.68576ZM20.8444 9.79047L20.4042 9.69713C20.3863 9.78123 20.3732 9.86528 20.3685 9.94594L20.8177 9.97196L21.267 9.99797C21.2682 9.97625 21.2728 9.93931 21.2846 9.8838L20.8444 9.79047ZM20.8177 9.97196L20.3685 9.94594L20.364 10.0227L20.8133 10.0487L21.2625 10.0748L21.267 9.99797L20.8177 9.97196ZM20.8133 10.0487L20.364 10.0227L20.3596 10.0995L20.8088 10.1255L21.2581 10.1515L21.2625 10.0748L20.8133 10.0487ZM20.8088 10.1255L20.3596 10.0995C20.3589 10.111 20.3569 10.1219 20.353 10.1335L20.78 10.2757L21.2069 10.4179C21.2357 10.3316 21.2528 10.2425 21.2581 10.1515L20.8088 10.1255ZM20.78 10.2757L20.353 10.1335L20.3286 10.2068L20.7555 10.349L21.1825 10.4912L21.2069 10.4179L20.78 10.2757ZM20.7555 10.349L20.3286 10.2068L20.3042 10.2802L20.7311 10.4224L21.1581 10.5645L21.1825 10.4912L20.7555 10.349ZM20.7311 10.4224L20.3042 10.2802C20.2658 10.3953 20.2567 10.5114 20.264 10.6199L20.713 10.5899L21.162 10.5599C21.1608 10.5429 21.1638 10.5472 21.1581 10.5645L20.7311 10.4224ZM20.713 10.5899L20.264 10.6199L20.2703 10.7141L20.7193 10.6841L21.1683 10.6541L21.162 10.5599L20.713 10.5899ZM20.7193 10.6841L20.2703 10.7141L20.2766 10.8083L20.7256 10.7783L21.1746 10.7483L21.1683 10.6541L20.7193 10.6841ZM20.7256 10.7783L20.2766 10.8083C20.275 10.7841 20.2773 10.7486 20.2921 10.7086C20.3071 10.668 20.3298 10.6367 20.3516 10.6153L20.6671 10.9362L20.9825 11.2572C21.1234 11.1187 21.1871 10.9361 21.1746 10.7483L20.7256 10.7783ZM20.6671 10.9362L20.3516 10.6153L20.2868 10.679L20.6023 10.9999L20.9177 11.3209L20.9825 11.2572L20.6671 10.9362ZM20.6023 10.9999L20.2868 10.679L20.222 10.7427L20.5375 11.0636L20.8529 11.3845L20.9177 11.3209L20.6023 10.9999ZM20.5375 11.0636L20.222 10.7427C20.0937 10.8688 20.0299 11.0275 20.0153 11.1875L20.4634 11.2286L20.9115 11.2697C20.9106 11.2793 20.9075 11.2979 20.8971 11.321C20.8864 11.3448 20.8711 11.3667 20.8529 11.3845L20.5375 11.0636ZM20.4634 11.2286L20.0153 11.1875L20.006 11.2889L20.4541 11.33L20.9022 11.3711L20.9115 11.2697L20.4634 11.2286ZM20.4541 11.33L20.006 11.2889L19.9967 11.3903L20.4448 11.4314L20.8929 11.4724L20.9022 11.3711L20.4541 11.33ZM20.4448 11.4314L19.9967 11.3903C19.9991 11.3638 20.0086 11.3225 20.0363 11.2786C20.0644 11.2342 20.1 11.2053 20.1292 11.1888L20.3501 11.5808L20.5711 11.9728C20.7626 11.8649 20.8739 11.6804 20.8929 11.4724L20.4448 11.4314ZM20.3501 11.5808L20.1292 11.1888L20.0438 11.2369L20.2648 11.6289L20.4857 12.021L20.5711 11.9728L20.3501 11.5808ZM20.2648 11.6289L20.0438 11.2369L19.9585 11.285L20.1794 11.6771L20.4004 12.0691L20.4857 12.021L20.2648 11.6289ZM20.1794 11.6771L19.9585 11.285C19.8173 11.3646 19.7052 11.4862 19.6418 11.6436L20.0591 11.8118L20.4765 11.9801C20.4694 11.9977 20.4581 12.0168 20.4424 12.0345C20.4268 12.0519 20.4113 12.0629 20.4004 12.0691L20.1794 11.6771ZM20.0591 11.8118L19.6418 11.6436L19.6068 11.7302L20.0242 11.8985L20.4416 12.0667L20.4765 11.9801L20.0591 11.8118ZM20.0242 11.8985L19.6068 11.7302L19.5719 11.8168L19.9893 11.9851L20.4066 12.1533L20.4416 12.0667L20.0242 11.8985ZM19.9893 11.9851L19.5719 11.8168C19.5632 11.8384 19.5532 11.8555 19.5422 11.8698L19.8996 12.1433L20.257 12.4167C20.319 12.3356 20.3688 12.2473 20.4066 12.1533L19.9893 11.9851ZM19.8996 12.1433L19.5422 11.8698L19.4875 11.9414L19.8449 12.2148L20.2023 12.4882L20.257 12.4167L19.8996 12.1433ZM19.8449 12.2148L19.4875 11.9414L19.4328 12.0129L19.7902 12.2863L20.1476 12.5598L20.2023 12.4882L19.8449 12.2148ZM19.7902 12.2863L19.4328 12.0129C19.4073 12.0461 19.38 12.0777 19.3506 12.1078L19.6724 12.4224L19.9941 12.737C20.0489 12.681 20.1 12.6219 20.1476 12.5598L19.7902 12.2863ZM19.6724 12.4224L19.3506 12.1078L19.2875 12.1723L19.6093 12.4869L19.9311 12.8015L19.9941 12.737L19.6724 12.4224ZM19.6093 12.4869L19.2875 12.1723L19.2244 12.2368L19.5462 12.5514L19.868 12.866L19.9311 12.8015L19.6093 12.4869ZM19.5462 12.5514L19.2244 12.2368C19.2046 12.2571 19.1816 12.2764 19.1546 12.2946L19.4057 12.668L19.6568 13.0414C19.7331 12.9901 19.8037 12.9317 19.868 12.866L19.5462 12.5514ZM19.4057 12.668L19.1546 12.2946L19.0771 12.3467L19.3282 12.7201L19.5793 13.0935L19.6568 13.0414L19.4057 12.668ZM19.3282 12.7201L19.0771 12.3467L18.9996 12.3988L19.2507 12.7722L19.5018 13.1456L19.5793 13.0935L19.3282 12.7201ZM19.2507 12.7722L18.9996 12.3988C18.885 12.4759 18.7933 12.5787 18.7302 12.7026L19.1313 12.9068L19.5323 13.1109C19.5294 13.1166 19.5249 13.1236 19.5186 13.1307C19.5124 13.1377 19.5063 13.1426 19.5018 13.1456L19.2507 12.7722ZM19.1313 12.9068L18.7302 12.7026L18.6882 12.7851L19.0893 12.9892L19.4903 13.1934L19.5323 13.1109L19.1313 12.9068ZM19.0893 12.9892L18.6882 12.7851L18.6463 12.8675L19.0473 13.0717L19.4483 13.2758L19.4903 13.1934L19.0893 12.9892ZM19.0473 13.0717L18.6463 12.8675C18.6607 12.8392 18.682 12.8126 18.708 12.7916C18.733 12.7713 18.755 12.7623 18.7658 12.7588L18.9048 13.1868L19.0437 13.6148C19.2068 13.5619 19.3583 13.4527 19.4483 13.2758L19.0473 13.0717ZM18.9048 13.1868L18.7658 12.7588L18.6653 12.7914L18.8042 13.2194L18.9432 13.6474L19.0437 13.6148L18.9048 13.1868ZM18.8042 13.2194L18.6653 12.7914L18.5647 12.824L18.7037 13.2521L18.8426 13.6801L18.9432 13.6474L18.8042 13.2194ZM18.7037 13.2521L18.5647 12.824C18.4524 12.8605 18.3375 12.9324 18.2554 13.0536C18.176 13.1708 18.153 13.2962 18.152 13.398L18.602 13.4022L19.052 13.4065C19.0518 13.4299 19.0461 13.4911 19.0006 13.5582C18.9524 13.6294 18.8879 13.6654 18.8426 13.6801L18.7037 13.2521ZM18.602 13.4022L18.152 13.398L18.1509 13.5155L18.6009 13.5197L19.0509 13.524L19.052 13.4065L18.602 13.4022ZM18.6009 13.5197L18.1509 13.5155L18.1498 13.633L18.5998 13.6373L19.0498 13.6415L19.0509 13.524L18.6009 13.5197ZM18.5998 13.6373L18.1498 13.633C18.1493 13.6849 18.1443 13.7254 18.1374 13.7565L18.5768 13.8538L19.0161 13.9511C19.0385 13.8502 19.0488 13.7464 19.0498 13.6415L18.5998 13.6373ZM18.5768 13.8538L18.1374 13.7565L18.1155 13.8555L18.5548 13.9528L18.9942 14.0502L19.0161 13.9511L18.5768 13.8538ZM18.5548 13.9528L18.1155 13.8555L18.0935 13.9546L18.5329 14.0519L18.9722 14.1492L18.9942 14.0502L18.5548 13.9528ZM18.5329 14.0519L18.0935 13.9546C18.1017 13.9178 18.1224 13.8684 18.165 13.8236C18.2067 13.7799 18.2505 13.7603 18.276 13.7524L18.4085 14.1825L18.5409 14.6125C18.753 14.5472 18.9202 14.3841 18.9722 14.1492L18.5329 14.0519ZM18.4085 14.1825L18.276 13.7524L18.1736 13.7839L18.306 14.214L18.4384 14.6441L18.5409 14.6125L18.4085 14.1825ZM18.306 14.214L18.1736 13.7839L18.0711 13.8155L18.2035 14.2456L18.3359 14.6757L18.4384 14.6441L18.306 14.214ZM18.2035 14.2456L18.0711 13.8155C17.8774 13.8751 17.6982 14.023 17.6416 14.2657L18.0799 14.3679L18.5181 14.47C18.5073 14.5162 18.4818 14.5683 18.4378 14.6119C18.3961 14.6531 18.3551 14.6697 18.3359 14.6757L18.2035 14.2456ZM18.0799 14.3679L17.6416 14.2657L17.6205 14.3564L18.0587 14.4586L18.497 14.5607L18.5181 14.47L18.0799 14.3679ZM18.0587 14.4586L17.6205 14.3564L17.5993 14.4472L18.0376 14.5493L18.4758 14.6514L18.497 14.5607L18.0587 14.4586ZM18.0376 14.5493L17.5993 14.4472C17.5803 14.5289 17.5673 14.6115 17.5624 14.6943L18.0116 14.721L18.4608 14.7476C18.4623 14.7225 18.4667 14.6907 18.4758 14.6514L18.0376 14.5493ZM18.0116 14.721L17.5624 14.6943L17.5576 14.7752L18.0068 14.8019L18.456 14.8286L18.4608 14.7476L18.0116 14.721ZM18.0068 14.8019L17.5576 14.7752L17.5528 14.8562L18.002 14.8829L18.4512 14.9096L18.456 14.8286L18.0068 14.8019ZM18.002 14.8829L17.5528 14.8562C17.5581 14.7664 17.5963 14.706 17.618 14.6794C17.6374 14.6555 17.6488 14.6515 17.632 14.6621L17.872 15.0428L18.112 15.4235C18.2212 15.3546 18.4343 15.1938 18.4512 14.9096L18.002 14.8829ZM17.872 15.0428L17.632 14.6621L17.5068 14.7411L17.7467 15.1217L17.9867 15.5024L18.112 15.4235L17.872 15.0428ZM17.7467 15.1217L17.5068 14.7411L17.3815 14.82L17.6215 15.2007L17.8615 15.5814L17.9867 15.5024L17.7467 15.1217ZM17.6215 15.2007L17.3815 14.82C17.3053 14.8681 17.1844 14.9608 17.1227 15.1205C17.0487 15.3123 17.0984 15.4939 17.1811 15.6186L17.5562 15.37L17.9313 15.1214C17.9493 15.1486 17.9728 15.1941 17.9824 15.2564C17.9926 15.3217 17.9846 15.387 17.9624 15.4445C17.9415 15.4987 17.9126 15.5343 17.8942 15.5534C17.8761 15.5722 17.8625 15.5807 17.8615 15.5814L17.6215 15.2007ZM17.5562 15.37L17.1811 15.6186L17.2409 15.709L17.6161 15.4604L17.9912 15.2118L17.9313 15.1214L17.5562 15.37ZM17.6161 15.4604L17.2409 15.709L17.3008 15.7993L17.6759 15.5507L18.051 15.3021L17.9912 15.2118L17.6161 15.4604ZM17.6759 15.5507L17.3008 15.7993C17.2866 15.7778 17.2671 15.7381 17.262 15.6834C17.2569 15.6278 17.269 15.5811 17.283 15.5503L17.693 15.7358L18.1029 15.9214C18.1986 15.71 18.1721 15.4848 18.051 15.3021L17.6759 15.5507ZM17.693 15.7358L17.283 15.5503L17.2401 15.6451L17.6501 15.8306L18.0601 16.0161L18.1029 15.9214L17.693 15.7358ZM17.6501 15.8306L17.2401 15.6451L17.1972 15.7398L17.6072 15.9253L18.0172 16.1108L18.0601 16.0161L17.6501 15.8306ZM17.6072 15.9253L17.1972 15.7398C17.1268 15.8954 17.1069 16.0773 17.1719 16.2589L17.5956 16.1075L18.0194 15.9561C18.0292 15.9836 18.034 16.015 18.032 16.0468C18.03 16.0777 18.0222 16.0997 18.0172 16.1108L17.6072 15.9253ZM17.5956 16.1075L17.1719 16.2589L17.2031 16.3464L17.6269 16.195L18.0506 16.0436L18.0194 15.9561L17.5956 16.1075ZM17.6269 16.195L17.2031 16.3464L17.2344 16.4339L17.6581 16.2824L18.0819 16.131L18.0506 16.0436L17.6269 16.195ZM17.6581 16.2824L17.2344 16.4339C17.2596 16.5044 17.288 16.5742 17.3194 16.6432L17.7289 16.4565L18.1383 16.2698C18.1171 16.2233 18.0983 16.1771 18.0819 16.131L17.6581 16.2824ZM17.7289 16.4565L17.3194 16.6432L17.3589 16.7298L17.7684 16.5431L18.1778 16.3563L18.1383 16.2698L17.7289 16.4565ZM17.7684 16.5431L17.3589 16.7298L17.3984 16.8164L17.8078 16.6296L18.2173 16.4429L18.1778 16.3563L17.7684 16.5431ZM17.8078 16.6296L17.3984 16.8164C17.4093 16.8403 17.4154 16.8613 17.4186 16.8801L17.8623 16.8054L18.3061 16.7307C18.2892 16.6306 18.259 16.5344 18.2173 16.4429L17.8078 16.6296ZM17.8623 16.8054L17.4186 16.8801L17.4336 16.9693L17.8774 16.8946L18.3211 16.8198L18.3061 16.7307L17.8623 16.8054ZM17.8774 16.8946L17.4336 16.9693L17.4486 17.0585L17.8924 16.9837L18.3361 16.909L18.3211 16.8198L17.8774 16.8946ZM17.8924 16.9837L17.4486 17.0585C17.4447 17.0349 17.4454 17.0124 17.4488 16.9935C17.4521 16.9753 17.4572 16.9648 17.4583 16.9626L17.8588 17.1678L18.2593 17.373C18.3277 17.2395 18.365 17.0803 18.3361 16.909L17.8924 16.9837ZM17.8588 17.1678L17.4583 16.9626L17.4097 17.0575L17.8102 17.2627L18.2107 17.4679L18.2593 17.373L17.8588 17.1678ZM17.8102 17.2627L17.4097 17.0575L17.3611 17.1523L17.7616 17.3575L18.162 17.5628L18.2107 17.4679L17.8102 17.2627ZM17.7616 17.3575L17.3611 17.1523C17.2656 17.3387 17.2564 17.5615 17.3724 17.7627L17.7623 17.5381L18.1522 17.3134C18.171 17.346 18.1872 17.3928 18.1874 17.4483C18.1876 17.5021 18.1727 17.5419 18.162 17.5628L17.7616 17.3575ZM17.7623 17.5381L17.3724 17.7627L17.4217 17.8484L17.8116 17.6237L18.2015 17.3991L18.1522 17.3134L17.7623 17.5381ZM17.8116 17.6237L17.4217 17.8484L17.4711 17.934L17.861 17.7094L18.2509 17.4847L18.2015 17.3991L17.8116 17.6237ZM17.861 17.7094L17.4711 17.934C17.5029 17.9892 17.5342 18.0446 17.5652 18.1003L17.9584 17.8814L18.3516 17.6626C18.3185 17.6031 18.2849 17.5438 18.2509 17.4847L17.861 17.7094ZM17.9584 17.8814L17.5652 18.1003L17.6133 18.1867L18.0065 17.9678L18.3997 17.749L18.3516 17.6626L17.9584 17.8814ZM18.0065 17.9678L17.6133 18.1867L17.6614 18.2731L18.0546 18.0543L18.4478 17.8354L18.3997 17.749L18.0065 17.9678ZM18.0546 18.0543L17.6614 18.2731C17.662 18.2743 17.6606 18.272 17.659 18.2663C17.6573 18.2606 17.6561 18.2533 17.6558 18.2455L18.1056 18.2311L18.5554 18.2166C18.5509 18.0782 18.5114 17.9497 18.4478 17.8354L18.0546 18.0543ZM18.1056 18.2311L17.6558 18.2455L17.6587 18.336L18.1085 18.3215L18.5583 18.3071L18.5554 18.2166L18.1056 18.2311ZM18.1085 18.3215L17.6587 18.336L17.6616 18.4264L18.1114 18.4119L18.5612 18.3975L18.5583 18.3071L18.1085 18.3215ZM18.1114 18.4119L17.6616 18.4264C17.6651 18.5353 17.686 18.6411 17.722 18.7424L18.1461 18.5919L18.5701 18.4414C18.5637 18.4233 18.5615 18.4091 18.5612 18.3975L18.1114 18.4119ZM18.1461 18.5919L17.722 18.7424L17.7537 18.8319L18.1778 18.6814L18.6019 18.5309L18.5701 18.4414L18.1461 18.5919ZM18.1778 18.6814L17.7537 18.8319L17.7855 18.9213L18.2096 18.7709L18.6337 18.6204L18.6019 18.5309L18.1778 18.6814ZM18.2096 18.7709L17.7855 18.9213C17.7956 18.9499 17.8019 18.9774 17.805 19.0043L18.252 18.9524L18.699 18.9005C18.6879 18.8047 18.6659 18.7112 18.6337 18.6204L18.2096 18.7709ZM18.252 18.9524L17.805 19.0043L17.8157 19.0963L18.2627 19.0445L18.7097 18.9926L18.699 18.9005L18.252 18.9524ZM18.2627 19.0445L17.8157 19.0963L17.8264 19.1884L18.2734 19.1365L18.7204 19.0847L18.7097 18.9926L18.2627 19.0445ZM18.2734 19.1365L17.8264 19.1884C17.8199 19.1327 17.8306 19.0808 17.8487 19.041C17.857 19.0227 17.8657 19.0095 17.872 19.0012C17.8781 18.993 17.8824 18.9889 17.8829 18.9885L18.1919 19.3156L18.5009 19.6428C18.6247 19.5258 18.7494 19.3348 18.7204 19.0847L18.2734 19.1365ZM18.1919 19.3156L17.8829 18.9885L17.7907 19.0755L18.0997 19.4027L18.4087 19.7298L18.5009 19.6428L18.1919 19.3156ZM18.0997 19.4027L17.7907 19.0755L17.6985 19.1626L18.0075 19.4897L18.3165 19.8169L18.4087 19.7298L18.0997 19.4027ZM18.0075 19.4897L17.6985 19.1626C17.6182 19.2385 17.5309 19.3572 17.5091 19.521C17.4869 19.6881 17.5427 19.8291 17.6085 19.9275L17.9826 19.6774L18.3567 19.4274C18.3777 19.4587 18.4152 19.5348 18.4013 19.6394C18.3879 19.7406 18.3354 19.7991 18.3165 19.8169L18.0075 19.4897ZM17.9826 19.6774L17.6085 19.9275L17.6757 20.0281L18.0498 19.7781L18.424 19.528L18.3567 19.4274L17.9826 19.6774ZM18.0498 19.7781L17.6757 20.0281L17.743 20.1287L18.1171 19.8787L18.4912 19.6286L18.424 19.528L18.0498 19.7781ZM18.1171 19.8787L17.743 20.1287C17.73 20.1093 17.6881 20.0373 17.6986 19.9287C17.7099 19.813 17.772 19.7408 17.8063 19.7111L18.1002 20.0519L18.3942 20.3926C18.4846 20.3146 18.5775 20.1893 18.5944 20.0159C18.6106 19.8496 18.5491 19.7152 18.4912 19.6286L18.1171 19.8787ZM18.1002 20.0519L17.8063 19.7111L17.7222 19.7837L18.0161 20.1244L18.3101 20.4652L18.3942 20.3926L18.1002 20.0519ZM18.0161 20.1244L17.7222 19.7837L17.6381 19.8563L17.932 20.197L18.226 20.5377L18.3101 20.4652L18.0161 20.1244ZM17.932 20.197L17.6381 19.8563C17.447 20.0211 17.3894 20.2509 17.4229 20.4636L17.8674 20.3936L18.312 20.3236C18.3142 20.3379 18.3171 20.3749 18.3013 20.4229C18.2847 20.4735 18.2551 20.5126 18.226 20.5377L17.932 20.197ZM17.8674 20.3936L17.4229 20.4636L17.4424 20.5876L17.887 20.5176L18.3315 20.4477L18.312 20.3236L17.8674 20.3936ZM17.887 20.5176L17.4424 20.5876L17.4619 20.7116L17.9065 20.6416L18.351 20.5717L18.3315 20.4477L17.887 20.5176ZM17.9065 20.6416L17.4619 20.7116C17.4585 20.6898 17.4364 20.5002 17.6151 20.3668C17.6894 20.3114 17.7621 20.2974 17.8005 20.2938C17.8383 20.2904 17.8619 20.2951 17.863 20.2954L17.7782 20.7373L17.6934 21.1792C17.7677 21.1935 17.971 21.2242 18.1532 21.0883C18.3747 20.9231 18.3674 20.6761 18.351 20.5717L17.9065 20.6416ZM17.7782 20.7373L17.863 20.2954L17.7152 20.267L17.6304 20.7089L17.5456 21.1509L17.6934 21.1792L17.7782 20.7373ZM17.6304 20.7089L17.7152 20.267L17.5675 20.2386L17.4826 20.6806L17.3978 21.1225L17.5456 21.1509L17.6304 20.7089ZM17.4826 20.6806L17.5675 20.2386C17.4729 20.2205 17.3463 20.2122 17.2137 20.2575C17.0675 20.3075 16.9541 20.4093 16.886 20.5392L17.2845 20.7483L17.683 20.9573C17.6484 21.0232 17.5849 21.0818 17.5047 21.1092C17.4705 21.1208 17.4424 21.1237 17.4248 21.1241C17.4076 21.1244 17.3979 21.1225 17.3978 21.1225L17.4826 20.6806ZM17.2845 20.7483L16.886 20.5392L16.8356 20.6353L17.2341 20.8443L17.6326 21.0534L17.683 20.9573L17.2845 20.7483ZM17.2341 20.8443L16.8356 20.6353L16.7852 20.7314L17.1837 20.9404L17.5822 21.1495L17.6326 21.0534L17.2341 20.8443ZM17.1837 20.9404L16.7852 20.7314C16.7957 20.7112 16.8274 20.6608 16.8954 20.621C16.9688 20.578 17.0445 20.5709 17.0993 20.5781L17.0404 21.0242L16.9816 21.4704C17.0982 21.4858 17.2287 21.4687 17.3499 21.3978C17.4657 21.3301 17.538 21.2336 17.5822 21.1495L17.1837 20.9404ZM17.0404 21.0242L17.0993 20.5781L17.0064 20.5658L16.9476 21.012L16.8887 21.4581L16.9816 21.4704L17.0404 21.0242ZM16.9476 21.012L17.0064 20.5658L16.9136 20.5536L16.8547 20.9997L16.7958 21.4459L16.8887 21.4581L16.9476 21.012ZM16.8547 20.9997L16.9136 20.5536C16.9303 20.5558 16.947 20.5608 16.9618 20.568C16.9762 20.575 16.9849 20.582 16.9883 20.5851L16.6854 20.9179L16.3825 21.2507C16.494 21.3522 16.6335 21.4245 16.7958 21.4459L16.8547 20.9997ZM16.6854 20.9179L16.9883 20.5851L16.9119 20.5155L16.609 20.8483L16.306 21.1811L16.3825 21.2507L16.6854 20.9179ZM16.609 20.8483L16.9119 20.5155L16.8355 20.446L16.5325 20.7787L16.2296 21.1115L16.306 21.1811L16.609 20.8483ZM16.5325 20.7787L16.8355 20.446C16.7557 20.3734 16.6509 20.3137 16.5233 20.2926C16.3972 20.2718 16.2819 20.2941 16.188 20.3317L16.3553 20.7495L16.5226 21.1672C16.4959 21.1779 16.4438 21.1917 16.3768 21.1806C16.3082 21.1693 16.2584 21.1377 16.2296 21.1115L16.5325 20.7787ZM16.3553 20.7495L16.188 20.3317L16.0873 20.3721L16.2546 20.7899L16.4219 21.2076L16.5226 21.1672L16.3553 20.7495ZM16.2546 20.7899L16.0873 20.3721L15.9865 20.4125L16.1538 20.8302L16.3211 21.248L16.4219 21.2076L16.2546 20.7899ZM16.1538 20.8302L15.9865 20.4125C15.9617 20.4224 15.9461 20.4244 15.9379 20.4247L15.9556 20.8744L15.9733 21.324C16.0951 21.3193 16.2116 21.2918 16.3211 21.248L16.1538 20.8302ZM15.9556 20.8744L15.9379 20.4247L15.8405 20.4286L15.8582 20.8782L15.8759 21.3279L15.9733 21.324L15.9556 20.8744ZM15.8582 20.8782L15.8405 20.4286L15.7431 20.4324L15.7608 20.8821L15.7785 21.3317L15.8759 21.3279L15.8582 20.8782ZM15.7608 20.8821L15.7431 20.4324C15.7537 20.432 15.7698 20.433 15.7888 20.4383C15.8081 20.4436 15.825 20.4519 15.8384 20.4609L15.586 20.8335L15.3337 21.2061C15.4684 21.2973 15.6221 21.3379 15.7785 21.3317L15.7608 20.8821ZM15.586 20.8335L15.8384 20.4609L15.761 20.4085L15.5087 20.7811L15.2563 21.1537L15.3337 21.2061L15.586 20.8335ZM15.5087 20.7811L15.761 20.4085L15.6837 20.3561L15.4313 20.7287L15.179 21.1013L15.2563 21.1537L15.5087 20.7811ZM15.4313 20.7287L15.6837 20.3561C15.7179 20.3793 15.7219 20.3991 15.7123 20.3782L15.3033 20.5659L14.8942 20.7535C14.9522 20.8799 15.0416 21.0083 15.179 21.1013L15.4313 20.7287ZM15.3033 20.5659L15.7123 20.3782L15.6616 20.2678L15.2526 20.4554L14.8436 20.643L14.8942 20.7535L15.3033 20.5659ZM15.2526 20.4554L15.6616 20.2678L15.611 20.1573L15.2019 20.3449L14.7929 20.5325L14.8436 20.643L15.2526 20.4554ZM15.2019 20.3449L15.611 20.1573C15.5571 20.0398 15.444 19.8926 15.2414 19.842C15.0592 19.7964 14.9041 19.8557 14.8167 19.9011L15.0242 20.3004L15.2317 20.6997C15.229 20.7011 15.1459 20.7458 15.023 20.7151C14.8796 20.6792 14.813 20.5763 14.7929 20.5325L15.2019 20.3449ZM15.0242 20.3004L14.8167 19.9011L14.6896 19.9671L14.8971 20.3665L15.1046 20.7658L15.2317 20.6997L15.0242 20.3004ZM14.8971 20.3665L14.6896 19.9671L14.5626 20.0332L14.7701 20.4325L14.9776 20.8318L15.1046 20.7658L14.8971 20.3665ZM14.7701 20.4325L14.5626 20.0332C14.5565 20.0363 14.5894 20.0171 14.651 20.0162C14.726 20.0152 14.8088 20.0425 14.8734 20.1005L14.5726 20.4352L14.2717 20.7699C14.5263 20.9987 14.8261 20.9105 14.9776 20.8318L14.7701 20.4325ZM14.5726 20.4352L14.8734 20.1005L14.8029 20.0372L14.5021 20.3719L14.2013 20.7065L14.2717 20.7699L14.5726 20.4352ZM14.5021 20.3719L14.8029 20.0372L14.7325 19.9739L14.4316 20.3085L14.1308 20.6432L14.2013 20.7065L14.5021 20.3719ZM14.4316 20.3085L14.7325 19.9739C14.7156 19.9587 14.696 19.937 14.6748 19.9057L14.3021 20.1579L13.9294 20.4101C13.987 20.4952 14.0538 20.5739 14.1308 20.6432L14.4316 20.3085ZM14.3021 20.1579L14.6748 19.9057L14.6158 19.8184L14.2431 20.0706L13.8704 20.3228L13.9294 20.4101L14.3021 20.1579ZM14.2431 20.0706L14.6158 19.8184L14.5567 19.7311L14.184 19.9833L13.8113 20.2355L13.8704 20.3228L14.2431 20.0706ZM14.184 19.9833L14.5567 19.7311C14.4902 19.6329 14.389 19.5426 14.2499 19.4975C14.1156 19.4541 13.9891 19.4667 13.8915 19.4936L14.0113 19.9274L14.1311 20.3612C14.1092 20.3672 14.0493 20.3786 13.9727 20.3538C13.8911 20.3274 13.8384 20.2755 13.8113 20.2355L14.184 19.9833ZM14.0113 19.9274L13.8915 19.4936L13.7778 19.525L13.8976 19.9588L14.0174 20.3925L14.1311 20.3612L14.0113 19.9274ZM13.8976 19.9588L13.7778 19.525L13.6642 19.5564L13.784 19.9902L13.9038 20.4239L14.0174 20.3925L13.8976 19.9588ZM13.784 19.9902L13.6642 19.5564C13.6587 19.5579 13.7085 19.5436 13.7772 19.5753L13.5886 19.9839L13.4001 20.3925C13.5777 20.4744 13.7578 20.4642 13.9038 20.4239L13.784 19.9902ZM13.5886 19.9839L13.7772 19.5753L13.6955 19.5376L13.507 19.9462L13.3184 20.3548L13.4001 20.3925L13.5886 19.9839ZM13.507 19.9462L13.6955 19.5376L13.6138 19.4999L13.4253 19.9085L13.2367 20.3171L13.3184 20.3548L13.507 19.9462ZM13.4253 19.9085L13.6138 19.4999C13.6301 19.5074 13.6429 19.5165 13.6518 19.5246C13.6604 19.5324 13.6634 19.5373 13.6624 19.5358L13.2855 19.7816L12.9085 20.0274C12.9849 20.1446 13.0923 20.2504 13.2367 20.3171L13.4253 19.9085ZM13.2855 19.7816L13.6624 19.5358L13.6043 19.4467L13.2273 19.6925L12.8504 19.9383L12.9085 20.0274L13.2855 19.7816ZM13.2273 19.6925L13.6043 19.4467L13.5461 19.3576L13.1692 19.6034L12.7923 19.8492L12.8504 19.9383L13.2273 19.6925ZM13.1692 19.6034L13.5461 19.3576C13.4516 19.2125 13.3039 19.0931 13.1052 19.0549L13.0202 19.4968L12.9351 19.9387C12.9024 19.9324 12.8696 19.9185 12.8411 19.8982C12.8137 19.8786 12.7986 19.8589 12.7923 19.8492L13.1692 19.6034ZM13.0202 19.4968L13.1052 19.0549L13.0143 19.0374L12.9292 19.4793L12.8442 19.9212L12.9351 19.9387L13.0202 19.4968ZM12.9292 19.4793L13.0143 19.0374L12.9234 19.0199L12.8383 19.4618L12.7533 19.9037L12.8442 19.9212L12.9292 19.4793ZM12.8383 19.4618L12.9234 19.0199C12.8012 18.9964 12.6796 18.9991 12.5625 19.0215L12.6469 19.4635L12.7314 19.9055C12.7401 19.9038 12.7459 19.9034 12.749 19.9034C12.752 19.9034 12.7533 19.9037 12.7533 19.9037L12.8383 19.4618ZM12.6469 19.4635L12.5625 19.0215L12.462 19.0406L12.5464 19.4827L12.6309 19.9247L12.7314 19.9055L12.6469 19.4635ZM12.5464 19.4827L12.462 19.0406L12.3615 19.0598L12.446 19.5019L12.5304 19.9439L12.6309 19.9247L12.5464 19.4827ZM12.446 19.5019L12.3615 19.0598C12.4127 19.0501 12.4807 19.0533 12.5476 19.0853C12.6093 19.1147 12.6401 19.1542 12.6494 19.168L12.2776 19.4214L11.9058 19.6749C11.9604 19.755 12.0419 19.8411 12.1597 19.8974C12.2828 19.9562 12.4122 19.9664 12.5304 19.9439L12.446 19.5019ZM12.2776 19.4214L12.6494 19.168L12.5815 19.0683L12.2097 19.3218L11.8379 19.5753L11.9058 19.6749L12.2776 19.4214ZM12.2097 19.3218L12.5815 19.0683L12.5136 18.9687L12.1418 19.2222L11.7699 19.4757L11.8379 19.5753L12.2097 19.3218ZM12.1418 19.2222L12.5136 18.9687C12.4648 18.8972 12.3272 18.7265 12.0808 18.7218C11.8386 18.7171 11.6945 18.8774 11.6432 18.9435L11.9987 19.2194L12.3541 19.4954C12.3529 19.4969 12.2578 19.6254 12.0633 19.6216C11.8645 19.6178 11.7734 19.4808 11.7699 19.4757L12.1418 19.2222ZM11.9987 19.2194L11.6432 18.9435L11.568 19.0403L11.9235 19.3163L12.2789 19.5922L12.3541 19.4954L11.9987 19.2194ZM11.9235 19.3163L11.568 19.0403L11.4928 19.1372L11.8483 19.4131L12.2037 19.6891L12.2789 19.5922L11.9235 19.3163ZM11.8483 19.4131L11.4928 19.1372C11.4863 19.1456 11.489 19.14 11.5032 19.1295C11.5183 19.1182 11.5481 19.1001 11.5922 19.0899L11.6936 19.5284L11.795 19.9668C11.9886 19.922 12.1207 19.796 12.2037 19.6891L11.8483 19.4131ZM11.6936 19.5284L11.5922 19.0899L11.5127 19.1083L11.6141 19.5467L11.7155 19.9852L11.795 19.9668L11.6936 19.5284ZM11.6141 19.5467L11.5127 19.1083L11.4332 19.1267L11.5346 19.5651L11.6359 20.0036L11.7155 19.9852L11.6141 19.5467ZM11.5346 19.5651L11.4332 19.1267C11.4794 19.116 11.513 19.1202 11.5251 19.1224C11.5368 19.1246 11.5356 19.1261 11.519 19.1186L11.3336 19.5286L11.1481 19.9386C11.2666 19.9922 11.4427 20.0482 11.6359 20.0036L11.5346 19.5651ZM11.3336 19.5286L11.519 19.1186L11.3976 19.0636L11.2121 19.4736L11.0266 19.8836L11.1481 19.9386L11.3336 19.5286ZM11.2121 19.4736L11.3976 19.0636L11.2761 19.0087L11.0906 19.4186L10.9051 19.8286L11.0266 19.8836L11.2121 19.4736ZM11.0906 19.4186L11.2761 19.0087C11.1202 18.9381 10.8622 18.8831 10.6274 19.0567L10.895 19.4185L11.1627 19.7803C11.1049 19.823 11.0382 19.8412 10.9806 19.8411C10.9549 19.8411 10.9353 19.8375 10.9233 19.8345C10.9172 19.833 10.9126 19.8315 10.9097 19.8304C10.9068 19.8294 10.9053 19.8287 10.9051 19.8286L11.0906 19.4186ZM10.895 19.4185L10.6274 19.0567L10.5534 19.1115L10.821 19.4733L11.0886 19.8351L11.1627 19.7803L10.895 19.4185ZM10.821 19.4733L10.5534 19.1115L10.4793 19.1663L10.7469 19.5281L11.0145 19.8899L11.0886 19.8351L10.821 19.4733ZM10.7469 19.5281L10.4793 19.1663C10.368 19.2486 10.2855 19.3534 10.2248 19.4634L10.6188 19.6808L11.0128 19.8982C11.0241 19.8777 11.027 19.8806 11.0145 19.8899L10.7469 19.5281ZM10.6188 19.6808L10.2248 19.4634L10.1707 19.5614L10.5647 19.7788L10.9587 19.9961L11.0128 19.8982L10.6188 19.6808ZM10.5647 19.7788L10.1707 19.5614L10.1167 19.6593L10.5107 19.8767L10.9047 20.0941L10.9587 19.9961L10.5647 19.7788ZM10.5107 19.8767L10.1167 19.6593C10.1366 19.6231 10.1853 19.5598 10.2761 19.5239C10.3638 19.4891 10.4359 19.5019 10.4634 19.5095L10.343 19.9431L10.2227 20.3767C10.326 20.4054 10.4638 20.4175 10.6075 20.3606C10.7542 20.3026 10.8487 20.1955 10.9047 20.0941L10.5107 19.8767ZM10.343 19.9431L10.4634 19.5095L10.3497 19.478L10.2294 19.9116L10.1091 20.3452L10.2227 20.3767L10.343 19.9431ZM10.2294 19.9116L10.3497 19.478L10.2361 19.4464L10.1158 19.88L9.99547 20.3137L10.1091 20.3452L10.2294 19.9116ZM10.1158 19.88L10.2361 19.4464C10.0439 19.3931 9.79967 19.4117 9.61273 19.6033L9.93481 19.9175L10.2569 20.2318C10.2196 20.27 10.1666 20.3015 10.105 20.3143C10.0484 20.326 10.008 20.3172 9.99547 20.3137L10.1158 19.88ZM9.93481 19.9175L9.61273 19.6033L9.54539 19.6723L9.86747 19.9865L10.1896 20.3008L10.2569 20.2318L9.93481 19.9175ZM9.86747 19.9865L9.54539 19.6723L9.47805 19.7413L9.80013 20.0556L10.1222 20.3698L10.1896 20.3008L9.86747 19.9865ZM9.80013 20.0556L9.47805 19.7413C9.44046 19.7798 9.40221 19.8163 9.36333 19.8509L9.66225 20.1873L9.96116 20.5236C10.0163 20.4746 10.07 20.4233 10.1222 20.3698L9.80013 20.0556ZM9.66225 20.1873L9.36333 19.8509L9.29279 19.9136L9.5917 20.2499L9.89061 20.5863L9.96116 20.5236L9.66225 20.1873ZM9.5917 20.2499L9.29279 19.9136L9.22224 19.9763L9.52115 20.3126L9.82007 20.649L9.89061 20.5863L9.5917 20.2499ZM9.52115 20.3126L9.22224 19.9763C9.22955 19.9698 9.2403 19.9621 9.25422 19.9556C9.26817 19.949 9.28143 19.9455 9.29216 19.9439L9.35807 20.389L9.42398 20.8342C9.57308 20.8121 9.70822 20.7484 9.82007 20.649L9.52115 20.3126ZM9.35807 20.389L9.29216 19.9439L9.19963 19.9576L9.26554 20.4027L9.33145 20.8479L9.42398 20.8342L9.35807 20.389ZM9.26554 20.4027L9.19963 19.9576L9.10709 19.9713L9.17301 20.4164L9.23892 20.8616L9.33145 20.8479L9.26554 20.4027ZM9.17301 20.4164L9.10709 19.9713C9.06639 19.9773 9.02363 19.9807 8.97862 19.9812L8.98342 20.4312L8.98822 20.8811C9.07262 20.8802 9.15625 20.8738 9.23892 20.8616L9.17301 20.4164ZM8.98342 20.4312L8.97862 19.9812L8.88156 19.9822L8.88637 20.4322L8.89117 20.8822L8.98822 20.8811L8.98342 20.4312ZM8.88637 20.4322L8.88156 19.9822L8.78451 19.9833L8.78931 20.4332L8.79412 20.8832L8.89117 20.8822L8.88637 20.4322ZM8.78931 20.4332L8.78451 19.9833C8.66571 19.9845 8.54679 20.007 8.43297 20.0558L8.61022 20.4694L8.78746 20.8831C8.7858 20.8838 8.78482 20.884 8.78515 20.8839C8.78557 20.8838 8.78834 20.8833 8.79412 20.8832L8.78931 20.4332ZM8.61022 20.4694L8.43297 20.0558L8.35092 20.091L8.52817 20.5046L8.70542 20.9182L8.78746 20.8831L8.61022 20.4694ZM8.52817 20.5046L8.35092 20.091L8.26888 20.1261L8.44613 20.5397L8.62337 20.9534L8.70542 20.9182L8.52817 20.5046ZM8.44613 20.5397L8.26888 20.1261C8.08268 20.2059 7.97092 20.3549 7.90527 20.4871L8.30834 20.6872L8.7114 20.8873C8.72008 20.8698 8.70018 20.9205 8.62337 20.9534L8.44613 20.5397ZM8.30834 20.6872L7.90527 20.4871L7.84952 20.5994L8.25259 20.7995L8.65566 20.9996L8.7114 20.8873L8.30834 20.6872ZM8.25259 20.7995L7.84952 20.5994L7.79377 20.7117L8.19684 20.9118L8.59991 21.1119L8.65566 20.9996L8.25259 20.7995ZM8.19684 20.9118L7.79377 20.7117C7.80899 20.681 7.8763 20.5701 8.03244 20.5369C8.17319 20.507 8.26541 20.5679 8.27079 20.5714L8.02495 20.9483L7.77911 21.3252C7.86192 21.3793 8.02151 21.4593 8.21955 21.4172C8.43299 21.3719 8.54753 21.2174 8.59991 21.1119L8.19684 20.9118ZM8.02495 20.9483L8.27079 20.5714L8.15464 20.4956L7.9088 20.8726L7.66296 21.2495L7.77911 21.3252L8.02495 20.9483ZM7.9088 20.8726L8.15464 20.4956L8.0385 20.4199L7.79265 20.7968L7.54681 21.1737L7.66296 21.2495L7.9088 20.8726ZM7.79265 20.7968L8.0385 20.4199C7.94558 20.3593 7.78754 20.2879 7.59537 20.3284C7.39948 20.3696 7.28273 20.5025 7.22217 20.6019L7.60652 20.836L7.99088 21.07C7.97698 21.0928 7.91457 21.1809 7.78072 21.2091C7.65059 21.2365 7.56229 21.1838 7.54681 21.1737L7.79265 20.7968ZM7.60652 20.836L7.22217 20.6019L7.15219 20.7169L7.53655 20.9509L7.9209 21.1849L7.99088 21.07L7.60652 20.836ZM7.53655 20.9509L7.15219 20.7169L7.08221 20.8318L7.46657 21.0658L7.85092 21.2999L7.9209 21.1849L7.53655 20.9509ZM7.46657 21.0658L7.08221 20.8318C7.08366 20.8294 7.10544 20.7936 7.15964 20.7614C7.22223 20.7243 7.29645 20.7109 7.36386 20.721L7.29772 21.1661L7.23158 21.6112C7.3649 21.631 7.50022 21.6059 7.61909 21.5353C7.72957 21.4697 7.80282 21.3789 7.85092 21.2999L7.46657 21.0658ZM7.29772 21.1661L7.36386 20.721L7.265 20.7063L7.19886 21.1514L7.13272 21.5965L7.23158 21.6112L7.29772 21.1661ZM7.19886 21.1514L7.265 20.7063L7.16614 20.6916L7.1 21.1367L7.03386 21.5818L7.13272 21.5965L7.19886 21.1514ZM7.1 21.1367L7.16614 20.6916C7.11326 20.6837 7.06059 20.6735 7.00809 20.661L6.90338 21.0986L6.79867 21.5363C6.87651 21.5549 6.95492 21.5701 7.03386 21.5818L7.1 21.1367ZM6.90338 21.0986L7.00809 20.661L6.91033 20.6376L6.80562 21.0752L6.70092 21.5129L6.79867 21.5363L6.90338 21.0986ZM6.80562 21.0752L6.91033 20.6376L6.81258 20.6142L6.70787 21.0518L6.60316 21.4895L6.70092 21.5129L6.80562 21.0752ZM6.70787 21.0518L6.81258 20.6142C6.83418 20.6194 6.8609 20.6302 6.88713 20.6494C6.91316 20.6685 6.92998 20.6895 6.93954 20.705L6.55613 20.9406L6.17271 21.1762C6.26934 21.3334 6.41865 21.4454 6.60316 21.4895L6.70787 21.0518ZM6.55613 20.9406L6.93954 20.705L6.88555 20.6171L6.50214 20.8527L6.11873 21.0883L6.17271 21.1762L6.55613 20.9406ZM6.50214 20.8527L6.88555 20.6171L6.83156 20.5293L6.44815 20.7649L6.06474 21.0004L6.11873 21.0883L6.50214 20.8527ZM6.44815 20.7649L6.83156 20.5293C6.76561 20.4219 6.67992 20.3278 6.57384 20.2532L6.31493 20.6213L6.05602 20.9893C6.05637 20.9896 6.05694 20.99 6.05795 20.9911C6.05901 20.9922 6.06141 20.995 6.06474 21.0004L6.44815 20.7649ZM6.31493 20.6213L6.57384 20.2532L6.49461 20.1975L6.23569 20.5655L5.97678 20.9336L6.05602 20.9893L6.31493 20.6213ZM6.23569 20.5655L6.49461 20.1975L6.41537 20.1417L6.15646 20.5098L5.89755 20.8778L5.97678 20.9336L6.23569 20.5655ZM6.15646 20.5098L6.41537 20.1417C6.43576 20.1561 6.46145 20.1802 6.48251 20.216C6.50367 20.252 6.51278 20.2872 6.51548 20.3142L6.06771 20.3589L5.61994 20.4037C5.63949 20.5992 5.73947 20.7666 5.89755 20.8778L6.15646 20.5098ZM6.06771 20.3589L6.51548 20.3142L6.50597 20.219L6.0582 20.2638L5.61043 20.3086L5.61994 20.4037L6.06771 20.3589ZM6.0582 20.2638L6.50597 20.219L6.49646 20.1239L6.04869 20.1687L5.60092 20.2135L5.61043 20.3086L6.0582 20.2638ZM6.04869 20.1687L6.49646 20.1239C6.49528 20.1121 6.49605 20.1016 6.49891 20.0902L6.06236 19.981L5.62581 19.8717C5.59776 19.9839 5.58943 20.0985 5.60092 20.2135L6.04869 20.1687ZM6.06236 19.981L6.49891 20.0902L6.52209 19.9975L6.08554 19.8883L5.64899 19.7791L5.62581 19.8717L6.06236 19.981ZM6.08554 19.8883L6.52209 19.9975L6.54527 19.9048L6.10872 19.7956L5.67217 19.6864L5.64899 19.7791L6.08554 19.8883ZM6.10872 19.7956L6.54527 19.9048C6.56451 19.8279 6.57944 19.7512 6.58952 19.6748L6.14339 19.6159L5.69725 19.5571C5.69201 19.5967 5.68383 19.6398 5.67217 19.6864L6.10872 19.7956ZM6.14339 19.6159L6.58952 19.6748L6.60101 19.5878L6.15488 19.5289L5.70874 19.47L5.69725 19.5571L6.14339 19.6159ZM6.15488 19.5289L6.60101 19.5878L6.6125 19.5007L6.16636 19.4418L5.72023 19.383L5.70874 19.47L6.15488 19.5289ZM6.16636 19.4418L6.6125 19.5007C6.63271 19.3475 6.60352 19.2022 6.54277 19.074L6.13615 19.2668L5.72952 19.4596C5.7276 19.4555 5.72365 19.4458 5.72111 19.4311C5.71851 19.416 5.71805 19.3995 5.72023 19.383L6.16636 19.4418ZM6.13615 19.2668L6.54277 19.074L6.50107 18.9861L6.09444 19.1788L5.68782 19.3716L5.72952 19.4596L6.13615 19.2668ZM6.09444 19.1788L6.50107 18.9861L6.45937 18.8981L6.05274 19.0909L5.64612 19.2836L5.68782 19.3716L6.09444 19.1788ZM6.05274 19.0909L6.45937 18.8981C6.47356 18.928 6.48598 18.972 6.48347 19.0246C6.48099 19.0766 6.46491 19.1163 6.45123 19.1401L6.0611 18.9158L5.67097 18.6915C5.56685 18.8726 5.55276 19.0867 5.64612 19.2836L6.05274 19.0909ZM6.0611 18.9158L6.45123 19.1401L6.5013 19.053L6.11117 18.8287L5.72104 18.6044L5.67097 18.6915L6.0611 18.9158ZM6.11117 18.8287L6.5013 19.053L6.55136 18.9659L6.16123 18.7416L5.7711 18.5174L5.72104 18.6044L6.11117 18.8287ZM6.16123 18.7416L6.55136 18.9659C6.64169 18.8088 6.67098 18.6235 6.61681 18.4376L6.18478 18.5636L5.75275 18.6895C5.74509 18.6632 5.74132 18.6302 5.74603 18.5946C5.75067 18.5595 5.76198 18.5332 5.7711 18.5174L6.16123 18.7416ZM6.18478 18.5636L6.61681 18.4376L6.59029 18.3466L6.15826 18.4726L5.72623 18.5985L5.75275 18.6895L6.18478 18.5636ZM6.15826 18.4726L6.59029 18.3466L6.56377 18.2557L6.13174 18.3816L5.69971 18.5075L5.72623 18.5985L6.15826 18.4726ZM6.13174 18.3816L6.56377 18.2557C6.53667 18.1627 6.49921 18.073 6.45373 17.9867L6.05565 18.1965L5.65757 18.4064C5.67818 18.4455 5.69145 18.4791 5.69971 18.5075L6.13174 18.3816ZM6.05565 18.1965L6.45373 17.9867L6.40416 17.8927L6.00608 18.1025L5.608 18.3124L5.65757 18.4064L6.05565 18.1965ZM6.00608 18.1025L6.40416 17.8927L6.35459 17.7986L5.95651 18.0085L5.55843 18.2183L5.608 18.3124L6.00608 18.1025ZM5.95651 18.0085L6.35459 17.7986C6.35034 17.7906 6.34909 17.7865 6.34901 17.7862C6.34897 17.7861 6.34986 17.7891 6.35021 17.7947L5.90113 17.8233L5.45204 17.852C5.46057 17.9856 5.50062 18.1087 5.55843 18.2183L5.95651 18.0085ZM5.90113 17.8233L6.35021 17.7947L6.3444 17.7035L5.89531 17.7322L5.44622 17.7609L5.45204 17.852L5.90113 17.8233ZM5.89531 17.7322L6.3444 17.7035L6.33858 17.6124L5.88949 17.6411L5.4404 17.6698L5.44622 17.7609L5.89531 17.7322ZM5.88949 17.6411L6.33858 17.6124C6.33663 17.5819 6.3378 17.5526 6.34187 17.5239L5.89631 17.4608L5.45076 17.3977C5.43797 17.4879 5.43459 17.5788 5.4404 17.6698L5.88949 17.6411ZM5.89631 17.4608L6.34187 17.5239L6.35451 17.4346L5.90895 17.3715L5.4634 17.3084L5.45076 17.3977L5.89631 17.4608ZM5.90895 17.3715L6.35451 17.4346L6.36715 17.3454L5.92159 17.2823L5.47603 17.2192L5.4634 17.3084L5.90895 17.3715ZM5.92159 17.2823L6.36715 17.3454C6.37359 17.2999 6.3822 17.2545 6.39303 17.2091L5.95532 17.1047L5.51762 17.0002C5.50032 17.0727 5.48645 17.1457 5.47603 17.2192L5.92159 17.2823ZM5.95532 17.1047L6.39303 17.2091L6.41413 17.1208L5.97642 17.0163L5.53871 16.9118L5.51762 17.0002L5.95532 17.1047ZM5.97642 17.0163L6.41413 17.1208L6.43522 17.0324L5.99751 16.9279L5.55981 16.8234L5.53871 16.9118L5.97642 17.0163ZM5.99751 16.9279L6.43522 17.0324C6.43205 17.0457 6.42781 17.0546 6.4255 17.0588C6.42334 17.0627 6.42354 17.0612 6.42919 17.0549L6.09269 16.7561L5.75618 16.4573C5.66865 16.5559 5.59458 16.6778 5.55981 16.8234L5.99751 16.9279ZM6.09269 16.7561L6.42919 17.0549L6.50327 16.9714L6.16677 16.6727L5.83026 16.3739L5.75618 16.4573L6.09269 16.7561ZM6.16677 16.6727L6.50327 16.9714L6.57735 16.888L6.24084 16.5892L5.90434 16.2905L5.83026 16.3739L6.16677 16.6727ZM6.24084 16.5892L6.57735 16.888C6.70894 16.7398 6.78748 16.5284 6.72379 16.2946L6.28961 16.4129L5.85544 16.5312C5.84378 16.4884 5.84178 16.4362 5.85636 16.3835C5.87014 16.3337 5.89326 16.3029 5.90434 16.2905L6.24084 16.5892ZM6.28961 16.4129L6.72379 16.2946L6.69848 16.2017L6.2643 16.32L5.83013 16.4383L5.85544 16.5312L6.28961 16.4129ZM6.2643 16.32L6.69848 16.2017L6.67317 16.1088L6.23899 16.2271L5.80482 16.3454L5.83013 16.4383L6.2643 16.32ZM6.23899 16.2271L6.67317 16.1088C6.68198 16.1412 6.68513 16.1818 6.67645 16.2249C6.66801 16.2669 6.65145 16.2962 6.64022 16.3118L6.27479 16.0492L5.90936 15.7866C5.79739 15.9424 5.74888 16.1401 5.80482 16.3454L6.23899 16.2271ZM6.27479 16.0492L6.64022 16.3118L6.70133 16.2267L6.3359 15.9641L5.97047 15.7015L5.90936 15.7866L6.27479 16.0492ZM6.3359 15.9641L6.70133 16.2267L6.76244 16.1417L6.39701 15.8791L6.03158 15.6165L5.97047 15.7015L6.3359 15.9641ZM6.39701 15.8791L6.76244 16.1417C6.83309 16.0434 6.88273 15.9144 6.87425 15.7657C6.86614 15.6235 6.80747 15.5098 6.74754 15.4293L6.38669 15.6982L6.02583 15.967C6.01352 15.9505 5.98038 15.8989 5.97571 15.817C5.97067 15.7286 6.00167 15.6581 6.03158 15.6165L6.39701 15.8791ZM6.38669 15.6982L6.74754 15.4293L6.67611 15.3335L6.31526 15.6023L5.9544 15.8712L6.02583 15.967L6.38669 15.6982ZM6.31526 15.6023L6.67611 15.3335L6.60468 15.2376L6.24382 15.5064L5.88297 15.7753L5.9544 15.8712L6.31526 15.6023ZM6.24382 15.5064L6.60468 15.2376C6.57341 15.1956 6.56089 15.1699 6.5569 15.1599L6.13893 15.3267L5.72095 15.4934C5.76158 15.5953 5.819 15.6894 5.88297 15.7753L6.24382 15.5064ZM6.13893 15.3267L6.5569 15.1599L6.52344 15.076L6.10546 15.2428L5.68748 15.4095L5.72095 15.4934L6.13893 15.3267ZM6.10546 15.2428L6.52344 15.076L6.48997 14.9921L6.07199 15.1589L5.65401 15.3256L5.68748 15.4095L6.10546 15.2428ZM6.07199 15.1589L6.48997 14.9921C6.50962 15.0414 6.51332 15.0911 6.50755 15.1321C6.50227 15.1696 6.49063 15.1901 6.48996 15.1913L6.0987 14.969L5.70744 14.7467C5.62491 14.892 5.56479 15.1019 5.65401 15.3256L6.07199 15.1589ZM6.0987 14.969L6.48996 15.1913L6.55014 15.0854L6.15888 14.8631L5.76762 14.6408L5.70744 14.7467L6.0987 14.969ZM6.15888 14.8631L6.55014 15.0854L6.61032 14.9795L6.21906 14.7572L5.8278 14.5349L5.76762 14.6408L6.15888 14.8631ZM6.21906 14.7572L6.61032 14.9795C6.65853 14.8947 6.72627 14.7325 6.66996 14.54C6.61086 14.338 6.45594 14.2374 6.35504 14.1933L6.1747 14.6056L5.99436 15.0178C5.96315 15.0042 5.85047 14.9441 5.80616 14.7927C5.76464 14.6508 5.81971 14.5491 5.8278 14.5349L6.21906 14.7572ZM6.1747 14.6056L6.35504 14.1933L6.25049 14.1475L6.07016 14.5598L5.88982 14.9721L5.99436 15.0178L6.1747 14.6056ZM6.07016 14.5598L6.25049 14.1475L6.14595 14.1018L5.96562 14.5141L5.78528 14.9264L5.88982 14.9721L6.07016 14.5598ZM5.96562 14.5141L6.14595 14.1018C6.16141 14.1086 6.1945 14.1266 6.22696 14.1651C6.26108 14.2056 6.27998 14.2516 6.28706 14.292L5.84379 14.3696L5.40052 14.4471C5.44196 14.684 5.5996 14.8452 5.78528 14.9264L5.96562 14.5141ZM5.84379 14.3696L6.28706 14.292L6.26977 14.1932L5.8265 14.2708L5.38323 14.3483L5.40052 14.4471L5.84379 14.3696ZM5.8265 14.2708L6.26977 14.1932L6.25248 14.0944L5.80921 14.172L5.36594 14.2495L5.38323 14.3483L5.8265 14.2708ZM5.80921 14.172L6.25248 14.0944C6.23808 14.0121 6.21917 13.931 6.19571 13.8513L5.76401 13.9783L5.3323 14.1053C5.34606 14.152 5.35729 14.2001 5.36594 14.2495L5.80921 14.172ZM5.76401 13.9783L6.19571 13.8513L6.1678 13.7564L5.73609 13.8834L5.30438 14.0104L5.3323 14.1053L5.76401 13.9783ZM5.73609 13.8834L6.1678 13.7564L6.13988 13.6615L5.70818 13.7885L5.27647 13.9155L5.30438 14.0104L5.73609 13.8834ZM5.70818 13.7885L6.13988 13.6615C6.07403 13.4376 5.90552 13.291 5.70539 13.2317L5.57741 13.6631L5.44944 14.0945C5.42756 14.088 5.38879 14.0716 5.35006 14.0345C5.31009 13.9962 5.28722 13.952 5.27647 13.9155L5.70818 13.7885ZM5.57741 13.6631L5.70539 13.2317L5.60254 13.2012L5.47457 13.6326L5.34659 14.064L5.44944 14.0945L5.57741 13.6631ZM5.47457 13.6326L5.60254 13.2012L5.4997 13.1707L5.37172 13.6021L5.24375 14.0335L5.34659 14.064L5.47457 13.6326ZM5.37172 13.6021L5.4997 13.1707C5.52251 13.1774 5.56275 13.1946 5.60251 13.2334C5.64348 13.2735 5.66606 13.3192 5.67624 13.3561L5.24244 13.4757L4.80864 13.5954C4.87134 13.8227 5.0404 13.9732 5.24375 14.0335L5.37172 13.6021ZM5.24244 13.4757L5.67624 13.3561L5.64981 13.2602L5.21601 13.3799L4.7822 13.4995L4.80864 13.5954L5.24244 13.4757ZM5.21601 13.3799L5.64981 13.2602L5.62337 13.1644L5.18957 13.284L4.75577 13.4037L4.7822 13.4995L5.21601 13.3799ZM5.18957 13.284L5.62337 13.1644C5.58327 13.019 5.503 12.8849 5.37769 12.7822L5.09234 13.1302L4.80699 13.4781C4.79356 13.4671 4.78129 13.4533 4.77161 13.438C4.76212 13.423 4.75764 13.4105 4.75577 13.4037L5.18957 13.284ZM5.09234 13.1302L5.37769 12.7822L5.3069 12.7241L5.02155 13.0721L4.7362 13.4201L4.80699 13.4781L5.09234 13.1302ZM5.02155 13.0721L5.3069 12.7241L5.2361 12.6661L4.95075 13.014L4.6654 13.362L4.7362 13.4201L5.02155 13.0721ZM4.95075 13.014L5.2361 12.6661C5.1309 12.5798 5.01155 12.5254 4.89131 12.493L4.77437 12.9276L4.65743 13.3621C4.67798 13.3676 4.67621 13.3709 4.6654 13.362L4.95075 13.014ZM4.77437 12.9276L4.89131 12.493L4.78571 12.4646L4.66878 12.8992L4.55184 13.3337L4.65743 13.3621L4.77437 12.9276ZM4.66878 12.8992L4.78571 12.4646L4.68012 12.4362L4.56318 12.8707L4.44625 13.3053L4.55184 13.3337L4.66878 12.8992ZM4.56318 12.8707L4.68012 12.4362C4.73561 12.4511 4.82138 12.4952 4.87731 12.5921C4.92667 12.6776 4.9206 12.7496 4.91921 12.7621L4.47193 12.7127L4.02466 12.6632C4.01371 12.7622 4.01806 12.9038 4.09784 13.042C4.18419 13.1916 4.32036 13.2714 4.44625 13.3053L4.56318 12.8707ZM4.47193 12.7127L4.91921 12.7621L4.93355 12.6325L4.48628 12.583L4.039 12.5335L4.02466 12.6632L4.47193 12.7127ZM4.48628 12.583L4.93355 12.6325L4.94789 12.5028L4.50062 12.4533L4.05334 12.4039L4.039 12.5335L4.48628 12.583ZM4.50062 12.4533L4.94789 12.5028C4.95879 12.4042 4.95447 12.2651 4.87796 12.1285C4.79513 11.9807 4.66304 11.8981 4.53727 11.8613L4.41093 12.2932L4.28459 12.7251C4.22817 12.7086 4.1457 12.6629 4.09277 12.5684C4.04615 12.4852 4.052 12.416 4.05334 12.4039L4.50062 12.4533ZM4.41093 12.2932L4.53727 11.8613L4.43324 11.8309L4.3069 12.2628L4.18056 12.6947L4.28459 12.7251L4.41093 12.2932ZM4.3069 12.2628L4.43324 11.8309L4.32921 11.8005L4.20287 12.2324L4.07653 12.6643L4.18056 12.6947L4.3069 12.2628ZM4.20287 12.2324L4.32921 11.8005C4.28004 11.7861 4.23621 11.7695 4.19713 11.7513L4.00727 12.1593L3.8174 12.5673C3.90042 12.6059 3.987 12.6381 4.07653 12.6643L4.20287 12.2324ZM4.00727 12.1593L4.19713 11.7513L4.10556 11.7087L3.91569 12.1167L3.72582 12.5247L3.8174 12.5673L4.00727 12.1593ZM3.91569 12.1167L4.10556 11.7087L4.01398 11.6661L3.82411 12.0741L3.63425 12.4821L3.72582 12.5247L3.91569 12.1167ZM3.82411 12.0741L4.01398 11.6661C4.01486 11.6665 4.02042 11.6693 4.02825 11.6757C4.03628 11.6823 4.04436 11.6909 4.05124 11.7009L3.68064 11.9561L3.31004 12.2114C3.39482 12.3345 3.50819 12.4234 3.63425 12.4821L3.82411 12.0741ZM3.68064 11.9561L4.05124 11.7009L3.99935 11.6255L3.62875 11.8808L3.25815 12.136L3.31004 12.2114L3.68064 11.9561ZM3.62875 11.8808L3.99935 11.6255L3.94745 11.5502L3.57685 11.8054L3.20625 12.0607L3.25815 12.136L3.62875 11.8808ZM3.57685 11.8054L3.94745 11.5502C3.96294 11.5727 3.97168 11.5948 3.97599 11.6122C3.98008 11.6288 3.9794 11.6376 3.9795 11.6353L3.52992 11.6158L3.08034 11.5963C3.07387 11.7454 3.10354 11.9116 3.20625 12.0607L3.57685 11.8054ZM3.52992 11.6158L3.9795 11.6353L3.98446 11.521L3.53488 11.5015L3.0853 11.482L3.08034 11.5963L3.52992 11.6158ZM3.53488 11.5015L3.98446 11.521L3.98941 11.4068L3.53983 11.3873L3.09025 11.3678L3.0853 11.482L3.53488 11.5015ZM3.53983 11.3873L3.98941 11.4068C3.99438 11.2923 3.98458 11.1721 3.94825 11.0542L3.51821 11.1868L3.08818 11.3193C3.08729 11.3164 3.0919 11.3299 3.09025 11.3678L3.53983 11.3873ZM3.51821 11.1868L3.94825 11.0542L3.92167 10.968L3.49163 11.1005L3.0616 11.2331L3.08818 11.3193L3.51821 11.1868ZM3.49163 11.1005L3.92167 10.968L3.89509 10.8818L3.46505 11.0143L3.03502 11.1469L3.0616 11.2331L3.49163 11.1005ZM3.46505 11.0143L3.89509 10.8818C3.83073 10.673 3.67805 10.5435 3.52718 10.4724L3.33524 10.8794L3.14331 11.2864C3.13873 11.2843 3.11869 11.2741 3.09505 11.2495C3.06976 11.2232 3.04768 11.188 3.03502 11.1469L3.46505 11.0143ZM3.33524 10.8794L3.52718 10.4724L3.42395 10.4237L3.23201 10.8307L3.04008 11.2377L3.14331 11.2864L3.33524 10.8794ZM3.23201 10.8307L3.42395 10.4237L3.32072 10.375L3.12878 10.782L2.93684 11.1891L3.04008 11.2377L3.23201 10.8307ZM3.12878 10.782L3.32072 10.375C3.33906 10.3837 3.38884 10.4116 3.43057 10.4757C3.47575 10.5452 3.48656 10.6187 3.48209 10.6729L3.03361 10.6358L2.58514 10.5987C2.57529 10.7179 2.59927 10.8484 2.67618 10.9666C2.74962 11.0794 2.84967 11.148 2.93684 11.1891L3.12878 10.782ZM3.03361 10.6358L3.48209 10.6729L3.49015 10.5753L3.04168 10.5382L2.59321 10.5011L2.58514 10.5987L3.03361 10.6358ZM3.04168 10.5382L3.49015 10.5753L3.49822 10.4777L3.04975 10.4406L2.60128 10.4035L2.59321 10.5011L3.04168 10.5382ZM3.04975 10.4406L3.49822 10.4777C3.51357 10.2921 3.45517 10.1266 3.36353 9.99348L2.99282 10.2486L2.62211 10.5037C2.62079 10.5018 2.61384 10.4911 2.60811 10.4717C2.60211 10.4515 2.59927 10.4279 2.60128 10.4035L3.04975 10.4406ZM2.99282 10.2486L3.36353 9.99348L3.29854 9.89903L2.92783 10.1541L2.55712 10.4092L2.62211 10.5037L2.99282 10.2486ZM2.92783 10.1541L3.29854 9.89903L3.23355 9.80458L2.86283 10.0597L2.49212 10.3148L2.55712 10.4092L2.92783 10.1541ZM2.86283 10.0597L3.23355 9.80458C3.25051 9.82923 3.28515 9.89256 3.28168 9.98509C3.27811 10.0805 3.23638 10.1467 3.20907 10.1781L2.86946 9.88284L2.52984 9.58761C2.45479 9.67395 2.38809 9.79706 2.38231 9.9514C2.37663 10.1029 2.43183 10.2272 2.49212 10.3148L2.86283 10.0597ZM2.86946 9.88284L3.20907 10.1781L3.28069 10.0957L2.94108 9.80046L2.60146 9.50522L2.52984 9.58761L2.86946 9.88284ZM2.94108 9.80046L3.28069 10.0957L3.35231 10.0133L3.0127 9.71807L2.67308 9.42284L2.60146 9.50522L2.94108 9.80046ZM3.0127 9.71807L3.35231 10.0133C3.35383 10.0116 3.35266 10.0133 3.34835 10.0163C3.34389 10.0194 3.33839 10.0223 3.33267 10.0244L3.17956 9.60123L3.02645 9.17807C2.88535 9.22913 2.76707 9.31472 2.67308 9.42284L3.0127 9.71807ZM3.17956 9.60123L3.33267 10.0244L3.42792 9.98992L3.2748 9.56676L3.12169 9.14361L3.02645 9.17807L3.17956 9.60123ZM3.2748 9.56676L3.42792 9.98992L3.52316 9.95545L3.37005 9.5323L3.21693 9.10915L3.12169 9.14361L3.2748 9.56676ZM3.37005 9.5323L3.52316 9.95545C3.7638 9.86838 3.89409 9.66669 3.92772 9.45533L3.4833 9.38462L3.03889 9.31391C3.04195 9.29466 3.05282 9.25135 3.0889 9.2043C3.12697 9.15466 3.17526 9.12423 3.21693 9.10915L3.37005 9.5323ZM3.4833 9.38462L3.92772 9.45533L3.94573 9.34211L3.50132 9.2714L3.0569 9.2007L3.03889 9.31391L3.4833 9.38462ZM3.50132 9.2714L3.94573 9.34211L3.96374 9.2289L3.51933 9.15819L3.07492 9.08748L3.0569 9.2007L3.50132 9.2714ZM3.51933 9.15819L3.96374 9.2289C3.96184 9.24086 3.95412 9.27658 3.92502 9.31891C3.89356 9.36467 3.84963 9.39971 3.80272 9.42017L3.6228 9.00769L3.44289 8.59522C3.21177 8.69604 3.10468 8.9004 3.07492 9.08748L3.51933 9.15819ZM3.6228 9.00769L3.80272 9.42017L3.88818 9.38289L3.70826 8.97042L3.52835 8.55795L3.44289 8.59522L3.6228 9.00769ZM3.70826 8.97042L3.88818 9.38289L3.97364 9.34561L3.79372 8.93314L3.61381 8.52067L3.52835 8.55795L3.70826 8.97042ZM3.79372 8.93314L3.97364 9.34561C3.96918 9.34756 3.96434 9.34899 3.95989 9.34976C3.95555 9.35052 3.95356 9.35031 3.95481 9.35038L3.97804 8.90097L4.00128 8.45157C3.87012 8.44479 3.73865 8.46621 3.61381 8.52067L3.79372 8.93314ZM3.97804 8.90097L3.95481 9.35038L4.05367 9.35549L4.0769 8.90609L4.10014 8.45668L4.00128 8.45157L3.97804 8.90097ZM4.0769 8.90609L4.05367 9.35549L4.15253 9.3606L4.17576 8.9112L4.199 8.46179L4.10014 8.45668L4.0769 8.90609ZM4.17576 8.9112L4.15253 9.3606C4.31573 9.36904 4.47737 9.32562 4.61625 9.22386L4.35028 8.86087L4.08432 8.49788C4.10033 8.48615 4.12075 8.47553 4.14413 8.46879C4.1672 8.46214 4.18652 8.46115 4.199 8.46179L4.17576 8.9112ZM4.35028 8.86087L4.61625 9.22386L4.69191 9.16842L4.42595 8.80543L4.15998 8.44244L4.08432 8.49788L4.35028 8.86087ZM4.42595 8.80543L4.69191 9.16842L4.76758 9.11299L4.50161 8.74999L4.23564 8.387L4.15998 8.44244L4.42595 8.80543ZM4.50161 8.74999L4.76758 9.11299C4.8508 9.05201 4.92497 8.98031 4.99126 8.90202L4.64785 8.61121L4.30444 8.3204C4.27663 8.35324 4.25331 8.37406 4.23564 8.387L4.50161 8.74999ZM4.64785 8.61121L4.99126 8.90202L5.06184 8.81868L4.71843 8.52787L4.37502 8.23705L4.30444 8.3204L4.64785 8.61121ZM4.71843 8.52787L5.06184 8.81868L5.13242 8.73534L4.78901 8.44452L4.4456 8.15371L4.37502 8.23705L4.71843 8.52787ZM4.78901 8.44452L5.13242 8.73534C5.09441 8.78022 5.01645 8.83976 4.90334 8.84821C4.80432 8.8556 4.74212 8.81847 4.73254 8.81247L4.97112 8.43092L5.2097 8.04937C5.12576 7.99689 4.99604 7.93877 4.83631 7.9507C4.6625 7.96368 4.53066 8.05326 4.4456 8.15371L4.78901 8.44452ZM4.97112 8.43092L4.73254 8.81247L4.84407 8.88222L5.08266 8.50067L5.32124 8.11912L5.2097 8.04937L4.97112 8.43092ZM5.08266 8.50067L4.84407 8.88222L4.95561 8.95196L5.19419 8.57041L5.43277 8.18886L5.32124 8.11912L5.08266 8.50067ZM5.19419 8.57041L4.95561 8.95196C5.0454 9.0081 5.19168 9.07145 5.36971 9.04144C5.55617 9.01002 5.6775 8.8937 5.74568 8.79384L5.37404 8.54009L5.0024 8.28635C5.02504 8.25319 5.09361 8.17528 5.22013 8.15396C5.3382 8.13406 5.41734 8.17921 5.43277 8.18886L5.19419 8.57041ZM5.37404 8.54009L5.74568 8.79384L5.81399 8.69379L5.44236 8.44004L5.07072 8.18629L5.0024 8.28635L5.37404 8.54009ZM5.44236 8.44004L5.81399 8.69379L5.88231 8.59373L5.51067 8.33998L5.13903 8.08624L5.07072 8.18629L5.44236 8.44004ZM5.51067 8.33998L5.88231 8.59373C5.86765 8.6152 5.81861 8.67605 5.72147 8.70628C5.6198 8.73792 5.5362 8.71423 5.49752 8.69681L5.68242 8.28654L5.86731 7.87628C5.75969 7.82777 5.61298 7.79746 5.45406 7.84692C5.29967 7.89496 5.19923 7.99807 5.13903 8.08624L5.51067 8.33998ZM5.68242 8.28654L5.49752 8.69681L5.60095 8.74342L5.78585 8.33315L5.97074 7.92289L5.86731 7.87628L5.68242 8.28654ZM5.78585 8.33315L5.60095 8.74342L5.70438 8.79003L5.88927 8.37977L6.07417 7.9695L5.97074 7.92289L5.78585 8.33315ZM5.88927 8.37977L5.70438 8.79003C5.89614 8.87645 6.1368 8.88154 6.34273 8.7259L6.0714 8.3669L5.80008 8.00789C5.83748 7.97962 5.89124 7.95546 5.9548 7.95097C6.01466 7.94674 6.05697 7.96175 6.07417 7.9695L5.88927 8.37977ZM6.0714 8.3669L6.34273 8.7259L6.42143 8.66642L6.15011 8.30742L5.87878 7.94841L5.80008 8.00789L6.0714 8.3669ZM6.15011 8.30742L6.42143 8.66642L6.50013 8.60694L6.22881 8.24793L5.95748 7.88893L5.87878 7.94841L6.15011 8.30742ZM6.22881 8.24793L6.50013 8.60694C6.4798 8.62231 6.44909 8.63901 6.40951 8.64779C6.37001 8.65654 6.33564 8.65431 6.31172 8.64926L6.40464 8.20895L6.49757 7.76865C6.30628 7.72828 6.11463 7.77016 5.95748 7.88893L6.22881 8.24793ZM6.40464 8.20895L6.31172 8.64926L6.40886 8.66976L6.50178 8.22946L6.59471 7.78915L6.49757 7.76865L6.40464 8.20895ZM6.50178 8.22946L6.40886 8.66976L6.50599 8.69026L6.59892 8.24996L6.69185 7.80965L6.59471 7.78915L6.50178 8.22946ZM6.59892 8.24996L6.50599 8.69026C6.67198 8.72529 6.84482 8.70363 7.00059 8.61486L6.77779 8.22388L6.55499 7.83291C6.5745 7.82179 6.59928 7.81248 6.62729 7.80839C6.6549 7.80437 6.67742 7.80661 6.69185 7.80965L6.59892 8.24996ZM6.77779 8.22388L7.00059 8.61486L7.08233 8.56828L6.85952 8.1773L6.63672 7.78633L6.55499 7.83291L6.77779 8.22388ZM6.85952 8.1773L7.08233 8.56828L7.16406 8.5217L6.94126 8.13073L6.71845 7.73975L6.63672 7.78633L6.85952 8.1773ZM6.94126 8.13073L7.16406 8.5217C7.26114 8.46638 7.34682 8.39662 7.42226 8.31801L7.09757 8.00643L6.77288 7.69486C6.74887 7.71987 6.73035 7.73297 6.71845 7.73975L6.94126 8.13073ZM7.09757 8.00643L7.42226 8.31801L7.49683 8.24029L7.17214 7.92872L6.84745 7.61714L6.77288 7.69486L7.09757 8.00643ZM7.17214 7.92872L7.49683 8.24029L7.57141 8.16258L7.24672 7.851L6.92203 7.53943L6.84745 7.61714L7.17214 7.92872ZM7.24672 7.851L7.57141 8.16258C7.5522 8.1826 7.51285 8.21458 7.45159 8.23219C7.3889 8.25022 7.33319 8.24458 7.29633 8.23408L7.41961 7.80129L7.54288 7.3685C7.44048 7.33933 7.32319 7.33264 7.20287 7.36724C7.08399 7.40142 6.99096 7.46759 6.92203 7.53943L7.24672 7.851ZM7.41961 7.80129L7.29633 8.23408L7.39464 8.26208L7.51791 7.82929L7.64119 7.3965L7.54288 7.3685L7.41961 7.80129ZM7.51791 7.82929L7.39464 8.26208L7.49295 8.29008L7.61622 7.85729L7.7395 7.4245L7.64119 7.3965L7.51791 7.82929ZM7.61622 7.85729L7.49295 8.29008C7.56701 8.31118 7.64243 8.33029 7.71917 8.34747L7.81746 7.90833L7.91575 7.46919C7.85525 7.45565 7.79651 7.44074 7.7395 7.4245L7.61622 7.85729ZM7.81746 7.90833L7.71917 8.34747L7.8221 8.37051L7.92039 7.93137L8.01868 7.49223L7.91575 7.46919L7.81746 7.90833ZM7.92039 7.93137L7.8221 8.37051L7.92503 8.39354L8.02332 7.95441L8.1216 7.51527L8.01868 7.49223L7.92039 7.93137ZM8.02332 7.95441L7.92503 8.39354C8.03633 8.41846 8.17752 8.41853 8.31672 8.34774C8.45287 8.2785 8.53371 8.16855 8.57961 8.07441L8.17512 7.87721L7.77062 7.68C7.78394 7.65269 7.8232 7.58902 7.90874 7.54551C7.99734 7.50046 8.07892 7.50571 8.1216 7.51527L8.02332 7.95441ZM8.17512 7.87721L8.57961 8.07441L8.62848 7.97418L8.22398 7.77697L7.81949 7.57976L7.77062 7.68L8.17512 7.87721ZM8.22398 7.77697L8.62848 7.97418L8.67734 7.87394L8.27285 7.67673L7.86836 7.47953L7.81949 7.57976L8.22398 7.77697ZM8.27285 7.67673L8.67734 7.87394C8.6732 7.88245 8.66202 7.90185 8.63925 7.92306C8.61553 7.94517 8.58695 7.96195 8.5576 7.97185L8.41379 7.54545L8.26998 7.11904C8.07745 7.18397 7.94522 7.3219 7.86836 7.47953L8.27285 7.67673ZM8.41379 7.54545L8.5576 7.97185L8.64967 7.9408L8.50586 7.51439L8.36204 7.08799L8.26998 7.11904L8.41379 7.54545ZM8.50586 7.51439L8.64967 7.9408L8.74173 7.90975L8.59792 7.48334L8.45411 7.05694L8.36204 7.08799L8.50586 7.51439ZM8.59792 7.48334L8.74173 7.90975C8.84722 7.87417 8.9562 7.80624 9.03612 7.69239C9.11416 7.58121 9.13993 7.46127 9.14309 7.36171L8.69331 7.34746L8.24353 7.3332C8.24447 7.30353 8.25324 7.24118 8.29948 7.1753C8.34761 7.10675 8.41 7.07182 8.45411 7.05694L8.59792 7.48334ZM8.69331 7.34746L9.14309 7.36171L9.14641 7.25687L8.69663 7.24262L8.24686 7.22836L8.24353 7.3332L8.69331 7.34746ZM8.69663 7.24262L9.14641 7.25687L9.14973 7.15203L8.69995 7.13778L8.25018 7.12352L8.24686 7.22836L8.69663 7.24262ZM8.69995 7.13778L9.14973 7.15203C9.14864 7.18636 9.13854 7.23858 9.10404 7.29182C9.06986 7.34459 9.02776 7.37361 9.00075 7.38717L8.79897 6.98494L8.5972 6.5827C8.50639 6.62826 8.41589 6.69876 8.3487 6.80247C8.2812 6.90666 8.25348 7.0193 8.25018 7.12352L8.69995 7.13778ZM8.79897 6.98494L9.00075 7.38717L9.09644 7.33916L8.89467 6.93693L8.6929 6.5347L8.5972 6.5827L8.79897 6.98494ZM8.89467 6.93693L9.09644 7.33916L9.19214 7.29116L8.99036 6.88893L8.78859 6.4867L8.6929 6.5347L8.89467 6.93693ZM8.99036 6.88893L9.19214 7.29116C9.2844 7.24488 9.37142 7.18896 9.45052 7.12186L9.15941 6.7787L8.8683 6.43554C8.8496 6.45141 8.82392 6.46897 8.78859 6.4867L8.99036 6.88893ZM9.15941 6.7787L9.45052 7.12186L9.52387 7.05964L9.23276 6.71648L8.94165 6.37332L8.8683 6.43554L9.15941 6.7787ZM9.23276 6.71648L9.52387 7.05964L9.59721 6.99741L9.30611 6.65425L9.015 6.31109L8.94165 6.37332L9.23276 6.71648ZM9.30611 6.65425L9.59721 6.99741C9.69966 6.91051 9.76903 6.79274 9.79392 6.65834C9.81701 6.53363 9.79733 6.42034 9.77044 6.3338L9.34071 6.46736L8.91098 6.60092C8.90992 6.59749 8.8974 6.55691 8.90895 6.49449C8.9223 6.42239 8.96146 6.35651 9.015 6.31109L9.30611 6.65425ZM9.34071 6.46736L9.77044 6.3338L9.73169 6.20913L9.30196 6.34269L8.87224 6.47625L8.91098 6.60092L9.34071 6.46736ZM9.30196 6.34269L9.73169 6.20913L9.69294 6.08446L9.26322 6.21802L8.83349 6.35158L8.87224 6.47625L9.30196 6.34269ZM9.26322 6.21802L9.69294 6.08446C9.68394 6.05549 9.70305 6.09799 9.69473 6.17268C9.68991 6.216 9.67215 6.30286 9.60132 6.38709C9.52275 6.48052 9.41949 6.52284 9.33251 6.53348L9.27783 6.08682L9.22314 5.64015C9.11838 5.65298 9.00117 5.70239 8.91249 5.80784C8.83155 5.90409 8.80751 6.0079 8.80026 6.07309C8.78707 6.19151 8.81666 6.29743 8.83349 6.35158L9.26322 6.21802ZM9.27783 6.08682L9.33251 6.53348L9.38587 6.52695L9.33118 6.08028L9.27649 5.63362L9.22314 5.64015L9.27783 6.08682ZM9.33118 6.08028L9.38587 6.52695L9.43922 6.52042L9.38454 6.07375L9.32985 5.62708L9.27649 5.63362L9.33118 6.08028ZM9.38454 6.07375L9.43922 6.52042C9.52985 6.50932 9.62522 6.47221 9.70625 6.40008C9.78394 6.33092 9.82545 6.25016 9.84731 6.18575C9.8867 6.06968 9.87821 5.96044 9.87107 5.9019L9.42438 5.95636L8.97768 6.01082C8.97955 6.02619 8.96893 5.97346 8.99504 5.89652C9.01026 5.85168 9.04235 5.78614 9.10782 5.72785C9.17664 5.66659 9.257 5.636 9.32985 5.62708L9.38454 6.07375ZM9.42438 5.95636L9.87107 5.9019L9.85755 5.79103L9.41086 5.84549L8.96416 5.89995L8.97768 6.01082L9.42438 5.95636Z" fill="#FFA600"/>
</svg>
