<svg width="24" height="24" viewBox="0 0 24 24" fill="none" xmlns="http://www.w3.org/2000/svg">
<path d="M9.43792 6.06722C10.5782 4.02241 11.1479 3 12.0002 3C12.8525 3 13.4222 4.02241 14.5626 6.06722L14.8578 6.59642C15.1818 7.17783 15.3438 7.46853 15.5958 7.66023C15.8478 7.85193 16.1628 7.92303 16.7928 8.06523L17.3652 8.19483C19.5792 8.69614 20.6853 8.94634 20.949 9.79324C21.2118 10.6392 20.4576 11.5222 18.9483 13.2871L18.5577 13.7434C18.1293 14.2447 17.9142 14.4958 17.8179 14.8054C17.7216 15.1159 17.754 15.4507 17.8188 16.1194L17.8782 16.7287C18.1059 19.084 18.2202 20.2612 17.5308 20.7841C16.8414 21.307 15.8046 20.83 13.7327 19.876L13.1954 19.6294C12.6068 19.3576 12.3125 19.2226 12.0002 19.2226C11.6879 19.2226 11.3936 19.3576 10.805 19.6294L10.2686 19.876C8.19591 20.83 7.15911 21.307 6.4706 20.785C5.7803 20.2612 5.8946 19.084 6.1223 16.7287L6.1817 16.1203C6.2465 15.4507 6.2789 15.1159 6.1817 14.8063C6.0863 14.4958 5.8712 14.2447 5.4428 13.7443L5.05219 13.2871C3.54288 11.5231 2.78868 10.6401 3.05148 9.79324C3.31428 8.94634 4.42219 8.69524 6.6362 8.19483L7.20861 8.06523C7.83771 7.92303 8.15181 7.85193 8.40472 7.66023C8.65762 7.46853 8.81872 7.17783 9.14272 6.59642L9.43792 6.06722Z" fill="#EFEFEE"/>
<path d="M9.47144 5.87933L9.91445 5.95836L9.47144 5.87933ZM9.4882 5.78539L9.04519 5.70636L9.4882 5.78539ZM9.53117 5.60277L9.96271 5.73033L9.53117 5.60277ZM9.55738 5.5141L9.12583 5.38654L9.55738 5.5141ZM9.58359 5.42543L9.15204 5.29787L9.58359 5.42543ZM9.73103 5.30203L9.85495 5.73463L9.73103 5.30203ZM9.85227 5.2673L9.72835 4.8347L9.85227 5.2673ZM9.9735 5.23258L10.0974 5.66518L9.9735 5.23258ZM10.081 5.08592L9.63433 5.14082L10.081 5.08592ZM10.0535 4.86205L9.60682 4.91695L10.0535 4.86205ZM10.1385 4.70439L9.9496 4.29597L10.1385 4.70439ZM10.2374 4.65866L10.4263 5.06707L10.2374 4.65866ZM10.3362 4.61293L10.5252 5.02134L10.3362 4.61293ZM10.4547 4.36766L10.9025 4.41161L10.4547 4.36766ZM10.4644 4.2679L10.0166 4.22395L10.4644 4.2679ZM10.5795 4.13194L10.7258 4.5575L10.5795 4.13194ZM10.79 4.05958L10.6436 3.63402L10.79 4.05958ZM10.916 3.92857L10.4764 3.83226L10.916 3.92857ZM10.9575 3.73893L11.3971 3.83524L10.9575 3.73893ZM11.1126 3.52932L11.405 3.8714L11.1126 3.52932ZM11.1798 3.47192L10.8874 3.12983L11.1798 3.47192ZM11.3085 3.35152L11.6303 3.66615L11.3085 3.35152ZM11.3702 3.28851L11.0484 2.97388L11.3702 3.28851ZM11.4318 3.2255L11.7535 3.54013L11.4318 3.2255ZM11.5783 3.1473L11.4989 2.70434L11.5783 3.1473ZM11.748 3.11691L11.6686 2.67395L11.748 3.11691ZM11.9189 3.07734L11.7964 2.64435L11.9189 3.07734ZM12.0912 3.0286L12.2137 3.46159L12.0912 3.0286ZM12.2925 2.98146L12.3797 3.42292L12.2925 2.98146ZM12.5228 2.93592L12.4356 2.49446L12.5228 2.93592ZM12.6595 3.04374L12.2154 3.11665L12.6595 3.04374ZM12.7023 3.30491L13.1464 3.23199L12.7023 3.30491ZM12.782 3.49893L12.4503 3.80304L12.782 3.49893ZM12.9917 3.77179L12.5778 3.94853L12.9917 3.77179ZM13.0269 3.85436L13.4408 3.67763L13.0269 3.85436ZM13.0622 3.93693L13.4761 3.7602L13.0622 3.93693ZM13.2032 4.0552L13.0592 4.48154L13.2032 4.0552ZM13.4146 4.12659L13.5586 3.70025L13.4146 4.12659ZM13.543 4.25417L13.1062 4.36236L13.543 4.25417ZM13.5885 4.43793L14.0253 4.32975L13.5885 4.43793ZM13.6834 4.59147L13.3911 4.93357L13.6834 4.59147ZM13.7556 4.65313L13.4632 4.99523L13.7556 4.65313ZM13.8277 4.71478L14.1201 4.37268L13.8277 4.71478ZM13.8824 4.8903L14.3272 4.95857L13.8824 4.8903ZM13.8649 5.00417L13.4201 4.9359L13.8649 5.00417ZM13.9039 5.29311L13.6169 5.63968L13.9039 5.29311ZM13.9778 5.35433L14.2648 5.00776L13.9778 5.35433ZM14.0517 5.41555L13.7647 5.76212L14.0517 5.41555ZM14.1792 5.54989L13.8161 5.81578L14.1792 5.54989ZM14.2863 5.69615L14.6494 5.43026L14.2863 5.69615ZM14.3515 5.86598L13.9047 5.91969L14.3515 5.86598ZM14.5206 6.1843L14.6131 5.74391L14.5206 6.1843ZM14.6549 6.2125L14.5624 6.6529L14.6549 6.2125ZM14.7892 6.2407L14.8817 5.8003L14.7892 6.2407ZM14.8911 6.39008L15.3258 6.50632L14.8911 6.39008ZM14.9122 6.78965L14.7812 7.22017L14.9122 6.78965ZM15.2596 7.00708L15.7085 7.03837L15.2596 7.00708ZM15.2444 7.22592L14.7955 7.19463L15.2444 7.22592ZM15.2884 7.41433L14.9118 7.66063L15.2884 7.41433ZM15.5399 7.67107L15.4496 8.11193L15.5399 7.67107ZM15.7328 7.71055L15.823 7.26968L15.7328 7.71055ZM15.9215 7.72436L15.8927 7.27529L15.9215 7.72436ZM16.0138 7.71844L15.985 7.26936L16.0138 7.71844ZM16.1061 7.71252L16.1349 8.1616L16.1061 7.71252ZM16.2791 7.74525L16.0848 8.15114L16.2791 7.74525ZM16.3599 7.78391L16.5542 7.37802L16.3599 7.78391ZM16.4406 7.82257L16.6349 7.41668L16.4406 7.82257ZM16.5929 7.95202L16.2394 8.23051L16.5929 7.95202ZM16.736 8.1336L17.0894 7.85511L16.736 8.1336ZM16.8986 8.22968L16.9247 7.78043L16.8986 8.22968ZM17.0807 8.24025L17.0547 8.6895L17.0807 8.24025ZM17.2592 8.26761L17.149 8.70391L17.2592 8.26761ZM17.3466 8.28968L17.4568 7.85338L17.3466 8.28968ZM17.4339 8.31175L17.5441 7.87545L17.4339 8.31175ZM17.6192 8.30955L17.7275 8.74634L17.6192 8.30955ZM17.7171 8.28528L17.6089 7.84849L17.7171 8.28528ZM17.8151 8.26102L17.9233 8.69781L17.8151 8.26102ZM18.0091 8.22154L17.9388 7.77706L18.0091 8.22154ZM18.2014 8.19111L18.2718 8.63558L18.2014 8.19111ZM18.3878 8.18802L18.3279 8.63402L18.3878 8.18802ZM18.4781 8.20014L18.538 7.75414L18.4781 8.20014ZM18.7223 8.34003L18.3282 8.55718L18.7223 8.34003ZM18.786 8.45568L18.3919 8.67282L18.786 8.45568ZM18.8498 8.57133L19.2439 8.35419L18.8498 8.57133ZM18.9989 8.71246L18.8703 9.14369L18.9989 8.71246ZM19.1698 8.76343L19.2984 8.3322L19.1698 8.76343ZM19.3689 8.72939L19.5776 9.12807L19.3689 8.72939ZM19.4826 8.66988L19.6913 9.06855L19.4826 8.66988ZM19.5963 8.61037L19.3875 8.21169L19.5963 8.61037ZM19.7548 8.68706L20.1822 8.54619L19.7548 8.68706ZM19.7997 8.82326L19.3723 8.96413L19.7997 8.82326ZM19.8446 8.95946L20.272 8.8186L19.8446 8.95946ZM19.9888 9.08952L19.961 8.64038L19.9888 9.08952ZM20.1874 9.07723L20.2152 9.52637L20.1874 9.07723ZM20.3955 9.08028L20.3575 9.52868L20.3955 9.08028ZM20.6129 9.09868L20.6509 8.65028L20.6129 9.09868ZM20.7559 9.20825L20.33 9.35361L20.7559 9.20825ZM20.7902 9.30863L21.2161 9.16327L20.7902 9.30863ZM20.8244 9.409L21.2503 9.26364L20.8244 9.409ZM20.9366 9.58426L20.6248 9.90871L20.9366 9.58426ZM21.0145 9.65915L21.3264 9.3347L21.0145 9.65915ZM21.0925 9.73403L20.7806 10.0585L21.0925 9.73403ZM21.0935 9.90833L21.4495 10.1836L21.0935 9.90833ZM20.9397 10.1071L20.5838 9.83184L20.9397 10.1071ZM20.8937 10.3019L20.4656 10.4405L20.8937 10.3019ZM20.9555 10.4927L21.3836 10.3542L20.9555 10.4927ZM20.9064 10.6509L21.1842 11.0049L20.9064 10.6509ZM20.7465 10.7763L20.4687 10.4223L20.7465 10.7763ZM20.6591 10.9371L20.2104 10.903L20.6591 10.9371ZM20.6442 11.1333L21.0929 11.1674L20.6442 11.1333ZM20.5559 11.2848L20.3076 10.9095L20.5559 11.2848ZM20.3942 11.3917L20.6424 11.7671L20.3942 11.3917ZM20.3182 11.5612L20.7678 11.5423L20.3182 11.5612ZM20.3279 11.7931L19.8783 11.812L20.3279 11.7931ZM20.2256 11.9396L20.1025 11.5068L20.2256 11.9396ZM20.1184 11.9701L20.2416 12.4029L20.1184 11.9701ZM20.0112 12.0006L20.1344 12.4334L20.0112 12.0006ZM19.8834 12.1307L19.4427 12.0397L19.8834 12.1307ZM19.8629 12.2303L19.4222 12.1393L19.8629 12.2303ZM19.8423 12.3299L20.283 12.4209L19.8423 12.3299ZM19.7271 12.4676L19.5588 12.0503L19.7271 12.4676ZM19.5378 12.544L19.7061 12.9613L19.5378 12.544ZM19.4073 12.6696L19.8236 12.8405L19.4073 12.6696ZM19.3714 12.7571L18.9551 12.5862L19.3714 12.7571ZM19.3355 12.8445L19.7518 13.0154L19.3355 12.8445ZM19.2119 12.9754L19.012 12.5723L19.2119 12.9754ZM19.0366 13.0624L19.2366 13.4655L19.0366 13.0624ZM18.9147 13.1952L18.4945 13.034L18.9147 13.1952ZM18.8461 13.3739L19.2662 13.5352L18.8461 13.3739ZM18.747 13.5263L18.4331 13.2038L18.747 13.5263ZM18.6175 13.6524L18.3036 13.3299L18.6175 13.6524ZM18.4745 13.7673L18.723 14.1424L18.4745 13.7673ZM18.3962 13.8191L18.1476 13.444L18.3962 13.8191ZM18.2014 14.0087L18.6122 14.1922L18.2014 14.0087ZM18.1247 14.1802L17.7138 13.9968L18.1247 14.1802ZM18.0668 14.3584L18.507 14.4518L18.0668 14.3584ZM18.0276 14.5431L18.4678 14.6365L18.0276 14.5431ZM17.9481 14.7057L18.2904 14.9978L17.9481 14.7057ZM17.8282 14.8463L17.4858 14.5542L17.8282 14.8463ZM17.7419 15.0071L18.174 15.1327L17.7419 15.0071ZM17.6892 15.1884L17.2571 15.0628L17.6892 15.1884ZM17.7451 15.3645L17.4207 15.6764L17.7451 15.3645ZM17.9096 15.5356L18.234 15.2237L17.9096 15.5356ZM17.9339 15.7161L17.5497 15.4818L17.9339 15.7161ZM17.8179 15.9062L18.2021 16.1406L17.8179 15.9062ZM17.7884 16.0889L18.2164 15.95L17.7884 16.0889ZM17.8453 16.2643L17.4172 16.4032L17.8453 16.2643ZM17.8828 16.4415L18.3305 16.3961L17.8828 16.4415ZM17.9009 16.6206L17.4532 16.6659L17.9009 16.6206ZM17.8619 16.8054L17.4602 16.6026L17.8619 16.8054ZM17.8138 16.9006L17.4121 16.6978L17.8138 16.9006ZM17.7658 16.9958L18.1675 17.1986L17.7658 16.9958ZM17.8027 17.1734L17.4896 17.4967L17.8027 17.1734ZM17.9727 17.3381L18.2858 17.0148L17.9727 17.3381ZM18.0139 17.5147L18.4219 17.7045L18.0139 17.5147ZM17.9261 17.7032L17.5181 17.5134L17.9261 17.7032ZM17.9616 17.8814L18.2887 17.5723L17.9616 17.8814ZM18.1203 18.0493L17.7932 18.3584L18.1203 18.0493ZM18.1302 18.2284L17.7666 17.9632L18.1302 18.2284ZM18.0607 18.3236L17.6972 18.0583L18.0607 18.3236ZM17.9913 18.4187L18.3548 18.684L17.9913 18.4187ZM17.9609 18.6019L18.3723 18.4195L17.9609 18.6019ZM18.0389 18.7778L17.6275 18.9602L18.0389 18.7778ZM18.0878 18.9562L17.6406 19.0055L18.0878 18.9562ZM18.0978 19.0465L18.5451 18.9972L18.0978 19.0465ZM18.1078 19.1369L18.5551 19.0875L18.1078 19.1369ZM18.0623 19.3143L18.4418 19.556L18.0623 19.3143ZM17.9514 19.4883L18.3309 19.7301L17.9514 19.4883ZM17.8776 19.6592L18.3173 19.7553L17.8776 19.6592ZM17.841 19.8269L17.4014 19.7307L17.841 19.8269ZM17.8704 20.0169L18.2808 19.8323L17.8704 20.0169ZM17.9182 20.1231L17.5078 20.3077L17.9182 20.1231ZM17.966 20.2293L17.5556 20.4139L17.966 20.2293ZM17.9316 20.3949L17.6677 20.0304L17.9316 20.3949ZM17.7674 20.5138L17.5035 20.1493L17.7674 20.5138ZM17.6382 20.6576L18.0312 20.8769L17.6382 20.6576ZM17.544 20.8265L17.151 20.6073L17.544 20.8265ZM17.4021 20.9242L17.3399 20.4785L17.4021 20.9242ZM17.3074 20.9374L17.3696 21.3831L17.3074 20.9374ZM17.2126 20.9507L17.1503 20.505L17.2126 20.9507ZM17.0258 21.0275L17.2815 21.3978L17.0258 21.0275ZM16.9338 21.091L16.6781 20.7207L16.9338 21.091ZM16.8418 21.1546L17.0975 21.5248L16.8418 21.1546ZM16.6621 21.158L16.9167 20.7869L16.6621 21.158ZM16.4869 21.0378L16.2324 21.409L16.4869 21.0378ZM16.3199 20.9278L16.0802 21.3086L16.3199 20.9278ZM16.2405 20.8778L16.4802 20.497L16.2405 20.8778ZM16.1611 20.8278L16.4008 20.447L16.1611 20.8278ZM16.0008 20.7405L15.8123 21.1491L16.0008 20.7405ZM15.839 20.6658L15.6505 21.0745L15.839 20.6658ZM15.6481 20.6628L15.7817 21.0925L15.6481 20.6628ZM15.5379 20.697L15.4043 20.2673L15.5379 20.697ZM15.4278 20.7313L15.2942 20.3016L15.4278 20.7313ZM15.2592 20.672L15.6407 20.4333L15.2592 20.672ZM15.2007 20.5785L14.8192 20.8172L15.2007 20.5785ZM15.1422 20.485L15.5236 20.2462L15.1422 20.485ZM14.9762 20.4122L14.8908 19.9704L14.9762 20.4122ZM14.8687 20.433L14.7834 19.9911L14.8687 20.433ZM14.7612 20.4537L14.8465 20.8956L14.7612 20.4537ZM14.5848 20.408L14.8971 20.0841L14.5848 20.408ZM14.4469 20.275L14.1345 20.599L14.4469 20.275ZM13.9919 19.9696L13.9831 19.5196L13.9919 19.9696ZM13.8918 19.9715L13.9007 20.4214L13.8918 19.9715ZM13.7917 19.9735L13.8005 20.4234L13.7917 19.9735ZM13.6152 19.9262L13.3716 20.3046L13.6152 19.9262ZM13.4623 19.8278L13.7059 19.4495L13.4623 19.8278ZM13.2923 19.7666L13.2349 20.2129L13.2923 19.7666ZM13.1052 19.7425L13.0477 20.1888L13.1052 19.7425ZM12.9673 19.6087L12.5444 19.7624L12.9673 19.6087ZM12.9231 19.4869L13.3461 19.3333L12.9231 19.4869ZM12.8789 19.3652L13.3018 19.2115L12.8789 19.3652ZM12.7473 19.2065L12.9228 18.7921L12.7473 19.2065ZM12.5727 19.1326L12.3973 19.547L12.5727 19.1326ZM12.3775 19.1832L12.6611 19.5326L12.3775 19.1832ZM12.1616 19.3584L12.4452 19.7078L12.1616 19.3584ZM11.6346 19.3382L11.5678 19.7833L11.6346 19.3382ZM11.5353 19.3233L11.6021 18.8783L11.5353 19.3233ZM11.4359 19.3084L11.369 19.7534L11.4359 19.3084ZM11.2466 19.3153L11.3528 19.7526L11.2466 19.3153ZM11.0668 19.359L10.9606 18.9217L11.0668 19.359ZM10.9132 19.458L11.2601 19.7446L10.9132 19.458ZM10.7856 19.6123L11.1325 19.899L10.7856 19.6123ZM10.5657 19.7809L10.793 20.1693L10.5657 19.7809ZM10.4877 19.8265L10.2604 19.4381L10.4877 19.8265ZM10.3474 19.9525L10.7032 20.2281L10.3474 19.9525ZM10.2852 20.0328L9.92943 19.7573L10.2852 20.0328ZM10.223 20.1131L10.5787 20.3887L10.223 20.1131ZM10.0478 20.163L9.93078 20.5976L10.0478 20.163ZM9.82173 20.1022L9.93871 19.6677L9.82173 20.1022ZM9.65614 20.1742L9.25577 19.9688L9.65614 20.1742ZM9.55099 20.3791L9.15062 20.1737L9.55099 20.3791ZM9.40636 20.4971L9.48135 20.9409L9.40636 20.4971ZM9.22226 20.5283L9.14727 20.0845L9.22226 20.5283ZM9.03748 20.5566L8.97593 20.1108L9.03748 20.5566ZM8.94475 20.5694L9.00629 21.0152L8.94475 20.5694ZM8.85202 20.5822L8.91356 21.028L8.85202 20.5822ZM8.68089 20.643L8.4459 20.2593L8.68089 20.643ZM8.52408 20.739L8.28909 20.3553L8.52408 20.739ZM8.33149 20.7324L8.13708 21.1382L8.33149 20.7324ZM8.2173 20.6777L8.02289 21.0835L8.2173 20.6777ZM8.10311 20.623L8.29753 20.2171L8.10311 20.623ZM7.93079 20.6852L8.33375 20.8855L7.93079 20.6852ZM7.81452 20.9191L8.21748 21.1194L7.81452 20.9191ZM7.66139 21.0308L7.63656 21.4801L7.66139 21.0308ZM7.47141 21.0203L7.49623 20.571L7.47141 21.0203ZM7.28553 21.012L7.30079 20.5623L7.28553 21.012ZM7.10377 21.0058L7.0885 21.4556L7.10377 21.0058ZM6.92389 20.9835L7.01901 20.5437L6.92389 20.9835ZM6.7459 20.945L6.65077 21.3848L6.7459 20.945ZM6.55202 20.904L6.46076 21.3447L6.55202 20.904ZM6.34225 20.8606L6.43351 20.4199L6.34225 20.8606ZM6.20663 20.7379L5.77611 20.8688L6.20663 20.7379ZM6.1759 20.6368L6.60642 20.5059L6.1759 20.6368ZM6.14517 20.5358L6.57569 20.4049L6.14517 20.5358ZM6.09658 20.3443L6.53808 20.2572L6.09658 20.3443ZM6.07872 20.2537L6.52022 20.1666L6.07872 20.2537ZM6.06086 20.1632L5.61937 20.2503L6.06086 20.1632ZM5.99912 19.9876L6.39905 19.7813L5.99912 19.9876ZM5.91135 19.8174L5.51143 20.0238L5.91135 19.8174ZM5.86498 19.6403L6.31482 19.6282L5.86498 19.6403ZM5.86001 19.4563L6.30985 19.4441L5.86001 19.4563ZM5.84829 19.273L6.296 19.2277L5.84829 19.273ZM5.82982 19.0904L6.27754 19.0451L5.82982 19.0904ZM5.87544 18.9108L5.49316 18.6733L5.87544 18.9108ZM5.9303 18.8224L6.31258 19.0598L5.9303 18.8224ZM5.98515 18.7341L6.36743 18.9715L5.98515 18.7341ZM5.94512 18.1886L6.37917 18.0698L5.94512 18.1886ZM5.89454 18.0037L5.46049 18.1225L5.89454 18.0037ZM5.88688 17.8222L5.44545 17.7348L5.88688 17.8222ZM5.92215 17.6441L6.36358 17.7316L5.92215 17.6441ZM5.97319 17.4679L6.39342 17.6288L5.97319 17.4679ZM6.03999 17.2935L5.61976 17.1325L6.03999 17.2935ZM6.05473 17.0237L6.5024 16.978L6.05473 17.0237ZM6.0454 16.9325L5.59773 16.9783L6.0454 16.9325ZM6.04644 16.7516L5.59942 16.6999L6.04644 16.7516ZM6.06718 16.5723L6.5142 16.624L6.06718 16.5723ZM6.11648 16.396L6.52694 16.5805L6.11648 16.396ZM6.18202 16.0411L6.57808 15.8275L6.18202 16.0411ZM6.07951 15.851L5.68345 16.0647L6.07951 15.851ZM6.10774 15.6715L5.7799 15.3632L6.10774 15.6715ZM6.26671 15.5024L6.59454 15.8107L6.26671 15.5024ZM6.32855 15.3257L6.77055 15.2412L6.32855 15.3257ZM6.29329 15.1413L6.73528 15.0568L6.29329 15.1413ZM6.19353 14.9835L6.4744 14.632L6.19353 14.9835ZM6.1114 14.9179L5.83054 15.2695L6.1114 14.9179ZM5.91071 14.7175L6.30884 14.5078L5.91071 14.7175ZM5.87426 14.6484L6.2724 14.4386L5.87426 14.6484ZM5.83782 14.5792L5.43968 14.7889L5.83782 14.5792ZM5.76044 14.4325L5.36256 14.6428L5.76044 14.4325ZM5.71951 14.3551L5.32163 14.5653L5.71951 14.3551ZM5.67857 14.2776L6.07645 14.0674L5.67857 14.2776ZM5.55889 14.1499L5.31703 14.5294L5.55889 14.1499ZM5.40138 14.0495L5.64324 13.6701L5.40138 14.0495ZM5.26569 13.9296L4.91704 14.2141L5.26569 13.9296ZM5.20875 13.8598L5.55741 13.5753L5.20875 13.8598ZM5.15182 13.79L5.50047 13.5055L5.15182 13.79ZM5.1156 13.5841L4.67072 13.5164L5.1156 13.5841ZM5.15704 13.3119L5.60192 13.3796L5.15704 13.3119ZM5.10612 13.1184L4.82496 13.4698L5.10612 13.1184ZM4.96284 13.0037L5.24399 12.6524L4.96284 13.0037ZM4.81035 12.897L4.5758 13.2811L4.81035 12.897ZM4.72949 12.8477L4.96404 12.4636L4.72949 12.8477ZM4.64864 12.7983L4.88319 12.4142L4.64864 12.7983ZM4.50516 12.6839L4.18117 12.9962L4.50516 12.6839ZM4.44253 12.619L4.11854 12.9313L4.44253 12.619ZM4.3799 12.554L4.05591 12.8663L4.3799 12.554ZM4.25685 12.422L4.59107 12.1207L4.25685 12.422ZM4.19643 12.355L4.53065 12.0537L4.19643 12.355ZM4.13601 12.288L3.80179 12.5893L4.13601 12.288ZM4.04162 12.1329L3.62177 12.2948L4.04162 12.1329ZM4.00765 12.0448L3.58779 12.2068L4.00765 12.0448ZM3.97368 11.9567L4.39353 11.7948L3.97368 11.9567ZM3.84807 11.8251L3.65494 12.2316L3.84807 11.8251ZM3.75643 11.7816L3.5633 12.188L3.75643 11.7816ZM3.66479 11.738L3.85792 11.3316L3.66479 11.738ZM3.57965 11.58L3.13037 11.5546L3.57965 11.58ZM3.58614 11.4656L4.03542 11.4911L3.58614 11.4656ZM3.59264 11.3511L3.14336 11.3256L3.59264 11.3511ZM3.37966 11.1608L3.23259 11.5861L3.37966 11.1608ZM3.26992 11.1228L3.41699 10.6975L3.26992 11.1228ZM3.19532 10.9691L2.7647 10.8384L3.19532 10.9691ZM3.23046 10.8532L2.79984 10.7226L3.23046 10.8532ZM3.2656 10.7374L3.69622 10.8681L3.2656 10.7374ZM3.18294 10.5621L3.38577 10.1604L3.18294 10.5621ZM2.94732 10.4431L2.74449 10.8448L2.94732 10.4431ZM2.88401 10.2868L2.49184 10.0661L2.88401 10.2868ZM2.993 10.0931L3.38518 10.3138L2.993 10.0931ZM3.11312 9.93258L2.79974 9.60962L3.11312 9.93258ZM3.24434 9.80525L2.93097 9.48229L3.24434 9.80525ZM3.34397 9.67607L3.74336 9.8834L3.34397 9.67607ZM3.41199 9.54504L3.01259 9.3377L3.41199 9.54504ZM3.46559 9.36588L3.02213 9.28942L3.46559 9.36588ZM3.59573 8.95516L3.28104 8.63348L3.59573 8.95516ZM3.73844 8.81555L4.05312 9.13722L3.73844 8.81555ZM3.9171 8.7639L3.84204 9.2076L3.9171 8.7639ZM4.13173 8.80021L4.05667 9.24391L4.13173 8.80021ZM4.31271 8.75184L4.61429 9.08583L4.31271 8.75184ZM4.46004 8.61881L4.15845 8.28482L4.46004 8.61881ZM4.61713 8.51169L4.81403 8.91633L4.61713 8.51169ZM4.784 8.4305L4.5871 8.02586L4.784 8.4305ZM5.05663 8.39553L5.04324 8.84534L5.05663 8.39553ZM5.15123 8.39835L5.16463 7.94855L5.15123 8.39835ZM5.34082 8.41002L5.38259 7.96196L5.34082 8.41002ZM5.43581 8.41888L5.39404 8.86694L5.43581 8.41888ZM5.5308 8.42773L5.48903 8.87579L5.5308 8.42773ZM5.78917 8.3443L6.01049 8.73612L5.78917 8.3443ZM5.87086 8.29816L5.64954 7.90634L5.87086 8.29816ZM6.13017 8.22081L6.20803 8.66403L6.13017 8.22081ZM6.21899 8.20521L6.14113 7.762L6.21899 8.20521ZM6.40741 8.22102L6.54276 7.79186L6.40741 8.22102ZM6.60663 8.28386L6.47127 8.71302L6.60663 8.28386ZM6.80039 8.32356L6.76094 8.77183L6.80039 8.32356ZM6.89454 8.33184L6.8551 8.78011L6.89454 8.33184ZM6.9887 8.34013L7.02814 7.89185L6.9887 8.34013ZM7.15039 8.23932L7.533 8.4762L7.15039 8.23932ZM7.21792 8.13024L6.83531 7.89336L7.21792 8.13024ZM7.28546 8.02115L6.90285 7.78427L7.28546 8.02115ZM7.44646 7.91729L7.47161 7.46799L7.44646 7.91729ZM7.53992 7.92252L7.51476 8.37182L7.53992 7.92252ZM7.63338 7.92776L7.65853 7.47846L7.63338 7.92776ZM7.83454 7.96483L7.70697 8.39637L7.83454 7.96483ZM8.04995 8.0285L8.17752 7.59696L8.04995 8.0285ZM8.24019 7.99592L8.51707 8.35065L8.24019 7.99592ZM8.32272 7.9315L8.04584 7.57676L8.32272 7.9315ZM8.40526 7.86707L8.12837 7.51234L8.40526 7.86707ZM8.50619 7.69011L8.9503 7.76272L8.50619 7.69011ZM8.52459 7.57756L8.08049 7.50495L8.52459 7.57756ZM8.73274 7.25329L8.50729 6.86383L8.73274 7.25329ZM8.81841 7.20369L9.04386 7.59315L8.81841 7.20369ZM8.98994 7.09847L8.74527 6.7208L8.98994 7.09847ZM9.07581 7.04285L9.32048 7.42052L9.07581 7.04285ZM9.16167 6.98722L9.40634 7.3649L9.16167 6.98722ZM9.21056 6.80767L8.77935 6.93636L9.21056 6.80767ZM9.13659 6.55983L9.5678 6.43114L9.13659 6.55983ZM9.18352 6.37966L9.43406 6.75347L9.18352 6.37966ZM9.26744 6.32342L9.01691 5.94961L9.26744 6.32342ZM9.35136 6.26717L9.6019 6.64098L9.35136 6.26717ZM9.43726 6.10315L8.98734 6.09488L9.43726 6.10315ZM9.45468 5.97328L9.89769 6.0523L9.45468 5.97328ZM9.47144 5.87933L9.91445 5.95836L9.93121 5.86441L9.4882 5.78539L9.04519 5.70636L9.02843 5.80031L9.47144 5.87933ZM9.4882 5.78539L9.93121 5.86441C9.93955 5.81764 9.9501 5.77299 9.96271 5.73033L9.53117 5.60277L9.09962 5.47521C9.07728 5.55078 9.05919 5.62788 9.04519 5.70636L9.4882 5.78539ZM9.53117 5.60277L9.96271 5.73033L9.98892 5.64166L9.55738 5.5141L9.12583 5.38654L9.09962 5.47521L9.53117 5.60277ZM9.55738 5.5141L9.98892 5.64166L10.0151 5.55299L9.58359 5.42543L9.15204 5.29787L9.12583 5.38654L9.55738 5.5141ZM9.58359 5.42543L10.0151 5.55299C9.99771 5.61191 9.9629 5.66141 9.92237 5.69534C9.88616 5.72564 9.85702 5.73404 9.85495 5.73463L9.73103 5.30203L9.60712 4.86942C9.43802 4.91786 9.22823 5.04011 9.15204 5.29787L9.58359 5.42543ZM9.73103 5.30203L9.85495 5.73463L9.97618 5.69991L9.85227 5.2673L9.72835 4.8347L9.60712 4.86942L9.73103 5.30203ZM9.85227 5.2673L9.97618 5.69991L10.0974 5.66518L9.9735 5.23258L9.84958 4.79997L9.72835 4.8347L9.85227 5.2673ZM9.9735 5.23258L10.0974 5.66518C10.1973 5.63658 10.328 5.57555 10.424 5.44454C10.5249 5.30674 10.5427 5.15335 10.5276 5.03102L10.081 5.08592L9.63433 5.14082C9.62847 5.0931 9.63286 5.00146 9.69801 4.91255C9.75819 4.83044 9.83055 4.80542 9.84958 4.79997L9.9735 5.23258ZM10.081 5.08592L10.5276 5.03102L10.5139 4.91908L10.0672 4.97398L9.62058 5.02888L9.63433 5.14082L10.081 5.08592ZM10.0672 4.97398L10.5139 4.91908L10.5001 4.80715L10.0535 4.86205L9.60682 4.91695L9.62058 5.02888L10.0672 4.97398ZM10.0535 4.86205L10.5001 4.80715C10.5039 4.83833 10.5043 4.90546 10.4639 4.98038C10.4226 5.05682 10.3633 5.09624 10.3275 5.1128L10.1385 4.70439L9.9496 4.29597C9.8479 4.34302 9.74145 4.42396 9.67184 4.55295C9.60304 4.68043 9.59381 4.81115 9.60682 4.91695L10.0535 4.86205ZM10.1385 4.70439L10.3275 5.1128L10.4263 5.06707L10.2374 4.65866L10.0484 4.25025L9.9496 4.29597L10.1385 4.70439ZM10.2374 4.65866L10.4263 5.06707L10.5252 5.02134L10.3362 4.61293L10.1473 4.20452L10.0484 4.25025L10.2374 4.65866ZM10.3362 4.61293L10.5252 5.02134C10.7207 4.93088 10.869 4.75265 10.8927 4.51138L10.4449 4.46743L9.99701 4.42349C10.0009 4.38386 10.0162 4.33267 10.0522 4.28447C10.087 4.2379 10.1258 4.21444 10.1473 4.20452L10.3362 4.61293ZM10.4449 4.46743L10.8927 4.51138L10.9025 4.41161L10.4547 4.36766L10.0068 4.32372L9.99701 4.42349L10.4449 4.46743ZM10.4547 4.36766L10.9025 4.41161L10.9123 4.31184L10.4644 4.2679L10.0166 4.22395L10.0068 4.32372L10.4547 4.36766ZM10.4644 4.2679L10.9123 4.31184C10.9078 4.35763 10.8887 4.41902 10.8416 4.47469C10.7968 4.52766 10.7484 4.54972 10.7258 4.5575L10.5795 4.13194L10.4332 3.70639C10.3404 3.73829 10.2377 3.79507 10.1546 3.89336C10.0691 3.99435 10.0276 4.11165 10.0166 4.22395L10.4644 4.2679ZM10.5795 4.13194L10.7258 4.5575L10.831 4.52131L10.6847 4.09576L10.5384 3.67021L10.4332 3.70639L10.5795 4.13194ZM10.6847 4.09576L10.831 4.52131L10.9363 4.48513L10.79 4.05958L10.6436 3.63402L10.5384 3.67021L10.6847 4.09576ZM10.79 4.05958L10.9363 4.48513C11.1291 4.41882 11.3026 4.26638 11.3555 4.02489L10.916 3.92857L10.4764 3.83226C10.486 3.78847 10.5092 3.73891 10.5498 3.69677C10.5881 3.65688 10.6261 3.64004 10.6436 3.63402L10.79 4.05958ZM10.916 3.92857L11.3555 4.02489L11.3763 3.93006L10.9367 3.83375L10.4972 3.73744L10.4764 3.83226L10.916 3.92857ZM10.9367 3.83375L11.3763 3.93006L11.3971 3.83524L10.9575 3.73893L10.5179 3.64262L10.4972 3.73744L10.9367 3.83375ZM10.9575 3.73893L11.3971 3.83524C11.3951 3.84419 11.3903 3.85987 11.3796 3.87856C11.3685 3.89765 11.3541 3.91491 11.3378 3.9288L11.0455 3.58671L10.7531 3.24462C10.6264 3.35293 10.5506 3.49363 10.5179 3.64262L10.9575 3.73893ZM11.0455 3.58671L11.3378 3.9288L11.405 3.8714L11.1126 3.52932L10.8202 3.18723L10.7531 3.24462L11.0455 3.58671ZM11.1126 3.52932L11.405 3.8714L11.4721 3.81401L11.1798 3.47192L10.8874 3.12983L10.8202 3.18723L11.1126 3.52932ZM11.1798 3.47192L11.4721 3.81401C11.5271 3.76706 11.5798 3.71776 11.6303 3.66615L11.3085 3.35152L10.9868 3.03689C10.9551 3.06928 10.922 3.10026 10.8874 3.12983L11.1798 3.47192ZM11.3085 3.35152L11.6303 3.66615L11.6919 3.60314L11.3702 3.28851L11.0484 2.97388L10.9868 3.03689L11.3085 3.35152ZM11.3702 3.28851L11.6919 3.60314L11.7535 3.54013L11.4318 3.2255L11.1101 2.91087L11.0484 2.97388L11.3702 3.28851ZM11.4318 3.2255L11.7535 3.54013C11.7439 3.54999 11.7298 3.56147 11.7112 3.57141C11.6925 3.58139 11.6738 3.58734 11.6576 3.59025L11.5783 3.1473L11.4989 2.70434C11.348 2.73136 11.215 2.80351 11.1101 2.91087L11.4318 3.2255ZM11.5783 3.1473L11.6576 3.59025L11.7424 3.57506L11.6631 3.1321L11.5838 2.68914L11.4989 2.70434L11.5783 3.1473ZM11.6631 3.1321L11.7424 3.57506L11.8273 3.55987L11.748 3.11691L11.6686 2.67395L11.5838 2.68914L11.6631 3.1321ZM11.748 3.11691L11.8273 3.55987C11.8989 3.54704 11.9704 3.53047 12.0415 3.51034L11.9189 3.07734L11.7964 2.64435C11.7527 2.65672 11.7101 2.66653 11.6686 2.67395L11.748 3.11691ZM11.9189 3.07734L12.0415 3.51034L12.1276 3.48597L12.0051 3.05297L11.8825 2.61997L11.7964 2.64435L11.9189 3.07734ZM12.0051 3.05297L12.1276 3.48597L12.2137 3.46159L12.0912 3.0286L11.9686 2.5956L11.8825 2.61997L12.0051 3.05297ZM12.0912 3.0286L12.2137 3.46159C12.2566 3.44947 12.3114 3.43643 12.3797 3.42292L12.2925 2.98146L12.2052 2.53999C12.12 2.55684 12.0406 2.57523 11.9686 2.5956L12.0912 3.0286ZM12.2925 2.98146L12.3797 3.42292L12.4949 3.40015L12.4077 2.95869L12.3204 2.51723L12.2052 2.53999L12.2925 2.98146ZM12.4077 2.95869L12.4949 3.40015L12.6101 3.37738L12.5228 2.93592L12.4356 2.49446L12.3204 2.51723L12.4077 2.95869ZM12.5228 2.93592L12.6101 3.37738C12.567 3.3859 12.4491 3.39414 12.3358 3.30474C12.2343 3.2246 12.2173 3.12797 12.2154 3.11665L12.6595 3.04374L13.1035 2.97082C13.0874 2.87245 13.0405 2.71432 12.8934 2.59824C12.7345 2.4729 12.5555 2.47076 12.4356 2.49446L12.5228 2.93592ZM12.6595 3.04374L12.2154 3.11665L12.2369 3.24724L12.6809 3.17432L13.125 3.10141L13.1035 2.97082L12.6595 3.04374ZM12.6809 3.17432L12.2369 3.24724L12.2583 3.37782L12.7023 3.30491L13.1464 3.23199L13.125 3.10141L12.6809 3.17432ZM12.7023 3.30491L12.2583 3.37782C12.2797 3.50817 12.3285 3.67024 12.4503 3.80304L12.782 3.49893L13.1136 3.19481C13.137 3.22026 13.1467 3.24154 13.1493 3.2479C13.1518 3.25397 13.1494 3.25026 13.1464 3.23199L12.7023 3.30491ZM12.782 3.49893L12.4503 3.80304L12.5084 3.86647L12.8401 3.56236L13.1718 3.25825L13.1136 3.19481L12.782 3.49893ZM12.8401 3.56236L12.5084 3.86647L12.5666 3.9299L12.8983 3.62579L13.23 3.32168L13.1718 3.25825L12.8401 3.56236ZM12.8983 3.62579L12.5666 3.9299C12.5695 3.93308 12.5734 3.93823 12.5778 3.94853L12.9917 3.77179L13.4055 3.59506C13.3629 3.49526 13.3046 3.40308 13.23 3.32168L12.8983 3.62579ZM12.9917 3.77179L12.5778 3.94853L12.6131 4.0311L13.0269 3.85436L13.4408 3.67763L13.4055 3.59506L12.9917 3.77179ZM13.0269 3.85436L12.6131 4.0311L12.6484 4.11366L13.0622 3.93693L13.4761 3.7602L13.4408 3.67763L13.0269 3.85436ZM13.0622 3.93693L12.6484 4.11366C12.734 4.31418 12.8991 4.42746 13.0592 4.48154L13.2032 4.0552L13.3472 3.62885C13.354 3.63117 13.3768 3.63999 13.4043 3.66305C13.4336 3.68761 13.4593 3.72107 13.4761 3.7602L13.0622 3.93693ZM13.2032 4.0552L13.0592 4.48154L13.1649 4.51724L13.3089 4.0909L13.4529 3.66455L13.3472 3.62885L13.2032 4.0552ZM13.3089 4.0909L13.1649 4.51724L13.2706 4.55294L13.4146 4.12659L13.5586 3.70025L13.4529 3.66455L13.3089 4.0909ZM13.4146 4.12659L13.2706 4.55294C13.2555 4.54785 13.2198 4.53274 13.1824 4.49562C13.1426 4.45609 13.1175 4.4079 13.1062 4.36236L13.543 4.25417L13.9798 4.14599C13.9206 3.90709 13.7442 3.76297 13.5586 3.70025L13.4146 4.12659ZM13.543 4.25417L13.1062 4.36236L13.129 4.45424L13.5658 4.34605L14.0026 4.23787L13.9798 4.14599L13.543 4.25417ZM13.5658 4.34605L13.129 4.45424L13.1517 4.54612L13.5885 4.43793L14.0253 4.32975L14.0026 4.23787L13.5658 4.34605ZM13.5885 4.43793L13.1517 4.54612C13.1895 4.69876 13.2718 4.83165 13.3911 4.93357L13.6834 4.59147L13.9758 4.24936C13.9853 4.25751 13.9965 4.26959 14.0064 4.28564C14.0163 4.3017 14.0222 4.31725 14.0253 4.32975L13.5885 4.43793ZM13.6834 4.59147L13.3911 4.93357L13.4632 4.99523L13.7556 4.65313L14.0479 4.31102L13.9758 4.24936L13.6834 4.59147ZM13.7556 4.65313L13.4632 4.99523L13.5354 5.05689L13.8277 4.71478L14.1201 4.37268L14.0479 4.31102L13.7556 4.65313ZM13.8277 4.71478L13.5354 5.05689C13.4972 5.02423 13.4648 4.97778 13.4478 4.92333C13.4321 4.87283 13.4356 4.83503 13.4376 4.82203L13.8824 4.8903L14.3272 4.95857C14.3566 4.7669 14.3133 4.53777 14.1201 4.37268L13.8277 4.71478ZM13.8824 4.8903L13.4376 4.82203L13.4201 4.9359L13.8649 5.00417L14.3097 5.07244L14.3272 4.95857L13.8824 4.8903ZM13.8649 5.00417L13.4201 4.9359L13.4027 5.04976L13.8475 5.11803L14.2922 5.1863L14.3097 5.07244L13.8649 5.00417ZM13.8475 5.11803L13.4027 5.04976C13.3726 5.24534 13.4196 5.4763 13.6169 5.63968L13.9039 5.29311L14.1909 4.94654C14.2293 4.97828 14.2631 5.02467 14.2811 5.08067C14.2979 5.13272 14.2944 5.17217 14.2922 5.1863L13.8475 5.11803ZM13.9039 5.29311L13.6169 5.63968L13.6908 5.7009L13.9778 5.35433L14.2648 5.00776L14.1909 4.94654L13.9039 5.29311ZM13.9778 5.35433L13.6908 5.7009L13.7647 5.76212L14.0517 5.41555L14.3388 5.06898L14.2648 5.00776L13.9778 5.35433ZM14.0517 5.41555L13.7647 5.76212C13.7871 5.78066 13.8036 5.79866 13.8161 5.81578L14.1792 5.54989L14.5422 5.28401C14.4834 5.20362 14.4149 5.13206 14.3388 5.06898L14.0517 5.41555ZM14.1792 5.54989L13.8161 5.81578L13.8697 5.88891L14.2327 5.62302L14.5958 5.35713L14.5422 5.28401L14.1792 5.54989ZM14.2327 5.62302L13.8697 5.88891L13.9233 5.96203L14.2863 5.69615L14.6494 5.43026L14.5958 5.35713L14.2327 5.62302ZM14.2863 5.69615L13.9233 5.96203C13.9174 5.9541 13.9126 5.94523 13.9093 5.93641C13.9059 5.92775 13.9049 5.92167 13.9047 5.91969L14.3515 5.86598L14.7983 5.81227C14.782 5.67696 14.7341 5.546 14.6494 5.43026L14.2863 5.69615ZM14.3515 5.86598L13.9047 5.91969L13.9163 6.0164L14.3631 5.96269L14.8099 5.90898L14.7983 5.81227L14.3515 5.86598ZM14.3631 5.96269L13.9163 6.0164L13.928 6.11311L14.3747 6.0594L14.8215 6.00569L14.8099 5.90898L14.3631 5.96269ZM14.3747 6.0594L13.928 6.11311C13.9451 6.25554 14.013 6.38552 14.1244 6.48083C14.2254 6.56735 14.3392 6.60603 14.4282 6.6247L14.5206 6.1843L14.6131 5.74391C14.6148 5.74425 14.6253 5.74655 14.6415 5.75364C14.6579 5.76082 14.6827 5.77405 14.7097 5.79713C14.7724 5.85081 14.8122 5.92773 14.8215 6.00569L14.3747 6.0594ZM14.5206 6.1843L14.4282 6.6247L14.5624 6.6529L14.6549 6.2125L14.7474 5.7721L14.6131 5.74391L14.5206 6.1843ZM14.6549 6.2125L14.5624 6.6529L14.6967 6.68109L14.7892 6.2407L14.8817 5.8003L14.7474 5.7721L14.6549 6.2125ZM14.7892 6.2407L14.6967 6.68109C14.6853 6.6787 14.5855 6.65634 14.51 6.54568C14.4278 6.42516 14.447 6.30883 14.4563 6.27384L14.8911 6.39008L15.3258 6.50632C15.3568 6.39054 15.3697 6.20891 15.2536 6.0386C15.1442 5.87814 14.9826 5.82149 14.8817 5.8003L14.7892 6.2407ZM14.8911 6.39008L14.4563 6.27384L14.4239 6.39503L14.8587 6.51127L15.2934 6.62751L15.3258 6.50632L14.8911 6.39008ZM14.8587 6.51127L14.4239 6.39503L14.3915 6.51622L14.8263 6.63246L15.261 6.7487L15.2934 6.62751L14.8587 6.51127ZM14.8263 6.63246L14.3915 6.51622C14.3629 6.62326 14.348 6.78592 14.4367 6.94823C14.5262 7.11184 14.6728 7.18718 14.7812 7.22017L14.9122 6.78965L15.0432 6.35913C15.0727 6.36812 15.1656 6.40526 15.2264 6.51647C15.2865 6.62638 15.268 6.72245 15.261 6.7487L14.8263 6.63246ZM14.9122 6.78965L14.7812 7.22017L14.8996 7.25618L15.0306 6.82565L15.1615 6.39513L15.0432 6.35913L14.9122 6.78965ZM15.0306 6.82565L14.8996 7.25618L15.0179 7.29218L15.1489 6.86166L15.2799 6.43114L15.1615 6.39513L15.0306 6.82565ZM15.1489 6.86166L15.0179 7.29218C14.9984 7.28624 14.9336 7.26204 14.8777 7.18862C14.8173 7.10927 14.8073 7.02539 14.8107 6.97579L15.2596 7.00708L15.7085 7.03837C15.7171 6.91583 15.6911 6.77124 15.5938 6.64341C15.501 6.52152 15.3783 6.46107 15.2799 6.43114L15.1489 6.86166ZM15.2596 7.00708L14.8107 6.97579L14.8031 7.08521L15.252 7.1165L15.7009 7.14779L15.7085 7.03837L15.2596 7.00708ZM15.252 7.1165L14.8031 7.08521L14.7955 7.19463L15.2444 7.22592L15.6933 7.2572L15.7009 7.14779L15.252 7.1165ZM15.2444 7.22592L14.7955 7.19463C14.7847 7.34901 14.8152 7.51296 14.9118 7.66063L15.2884 7.41433L15.665 7.16803C15.6773 7.1868 15.6854 7.20682 15.6898 7.22531C15.6939 7.2431 15.6935 7.25472 15.6933 7.2572L15.2444 7.22592ZM15.2884 7.41433L14.9118 7.66063L14.9635 7.73963L15.3401 7.49333L15.7167 7.24703L15.665 7.16803L15.2884 7.41433ZM15.3401 7.49333L14.9635 7.73963L15.0151 7.81863L15.3917 7.57233L15.7683 7.32602L15.7167 7.24703L15.3401 7.49333ZM15.3917 7.57233L15.0151 7.81863C15.1184 7.97649 15.2734 8.07587 15.4496 8.11193L15.5399 7.67107L15.6301 7.2302C15.6488 7.23403 15.6757 7.24305 15.7042 7.26207C15.7331 7.28132 15.7544 7.30463 15.7683 7.32602L15.3917 7.57233ZM15.5399 7.67107L15.4496 8.11193L15.5461 8.13167L15.6363 7.69081L15.7265 7.24994L15.6301 7.2302L15.5399 7.67107ZM15.6363 7.69081L15.5461 8.13167L15.6426 8.15141L15.7328 7.71055L15.823 7.26968L15.7265 7.24994L15.6363 7.69081ZM15.7328 7.71055L15.6426 8.15141C15.7435 8.17207 15.8465 8.18011 15.9504 8.17344L15.9215 7.72436L15.8927 7.27529C15.8736 7.27652 15.8507 7.27535 15.823 7.26968L15.7328 7.71055ZM15.9215 7.72436L15.9504 8.17344L16.0426 8.16752L16.0138 7.71844L15.985 7.26936L15.8927 7.27529L15.9215 7.72436ZM16.0138 7.71844L16.0426 8.16752L16.1349 8.1616L16.1061 7.71252L16.0773 7.26344L15.985 7.26936L16.0138 7.71844ZM16.1061 7.71252L16.1349 8.1616C16.1299 8.16192 16.1219 8.1618 16.1118 8.1599C16.1017 8.15799 16.0925 8.1548 16.0848 8.15114L16.2791 7.74525L16.4734 7.33937C16.3478 7.27922 16.213 7.25473 16.0773 7.26344L16.1061 7.71252ZM16.2791 7.74525L16.0848 8.15114L16.1656 8.18979L16.3599 7.78391L16.5542 7.37802L16.4734 7.33937L16.2791 7.74525ZM16.3599 7.78391L16.1656 8.18979L16.2463 8.22845L16.4406 7.82257L16.6349 7.41668L16.5542 7.37802L16.3599 7.78391ZM16.4406 7.82257L16.2463 8.22845C16.2345 8.22279 16.2284 8.21778 16.2276 8.21712C16.227 8.21662 16.2313 8.22015 16.2394 8.23051L16.5929 7.95202L16.9464 7.67353C16.8681 7.57412 16.7662 7.47954 16.6349 7.41668L16.4406 7.82257ZM16.5929 7.95202L16.2394 8.23051L16.311 8.3213L16.6644 8.04281L17.0179 7.76432L16.9464 7.67353L16.5929 7.95202ZM16.6644 8.04281L16.311 8.3213L16.3825 8.41209L16.736 8.1336L17.0894 7.85511L17.0179 7.76432L16.6644 8.04281ZM16.736 8.1336L16.3825 8.41209C16.4871 8.54481 16.6505 8.66604 16.8725 8.67893L16.8986 8.22968L16.9247 7.78043C16.9684 7.78297 17.0089 7.79645 17.0413 7.81559C17.0715 7.83343 17.0863 7.85116 17.0894 7.85511L16.736 8.1336ZM16.8986 8.22968L16.8725 8.67893L16.9636 8.68421L16.9897 8.23497L17.0157 7.78572L16.9247 7.78043L16.8986 8.22968ZM16.9897 8.23497L16.9636 8.68421L17.0547 8.6895L17.0807 8.24025L17.1068 7.79101L17.0157 7.78572L16.9897 8.23497ZM17.0807 8.24025L17.0547 8.6895C17.0873 8.6914 17.1187 8.69625 17.149 8.70391L17.2592 8.26761L17.3694 7.83131C17.2832 7.80955 17.1956 7.79616 17.1068 7.79101L17.0807 8.24025ZM17.2592 8.26761L17.149 8.70391L17.2364 8.72598L17.3466 8.28968L17.4568 7.85338L17.3694 7.83131L17.2592 8.26761ZM17.3466 8.28968L17.2364 8.72598L17.3237 8.74805L17.4339 8.31175L17.5441 7.87545L17.4568 7.85338L17.3466 8.28968ZM17.4339 8.31175L17.3237 8.74805C17.4619 8.78294 17.5991 8.77814 17.7275 8.74634L17.6192 8.30955L17.511 7.87276C17.5091 7.87323 17.5119 7.87234 17.5186 7.87226C17.5256 7.87218 17.5344 7.873 17.5441 7.87545L17.4339 8.31175ZM17.6192 8.30955L17.7275 8.74634L17.8254 8.72207L17.7171 8.28528L17.6089 7.84849L17.511 7.87276L17.6192 8.30955ZM17.7171 8.28528L17.8254 8.72207L17.9233 8.69781L17.8151 8.26102L17.7068 7.82423L17.6089 7.84849L17.7171 8.28528ZM17.8151 8.26102L17.9233 8.69781C17.9765 8.68462 18.0286 8.67406 18.0795 8.66601L18.0091 8.22154L17.9388 7.77706C17.8615 7.78929 17.7842 7.80506 17.7068 7.82423L17.8151 8.26102ZM18.0091 8.22154L18.0795 8.66601L18.1756 8.6508L18.1053 8.20632L18.0349 7.76185L17.9388 7.77706L18.0091 8.22154ZM18.1053 8.20632L18.1756 8.6508L18.2718 8.63558L18.2014 8.19111L18.1311 7.74664L18.0349 7.76185L18.1053 8.20632ZM18.2014 8.19111L18.2718 8.63558C18.2957 8.63179 18.3139 8.63213 18.3279 8.63402L18.3878 8.18802L18.4477 7.74202C18.3414 7.72774 18.2353 7.73014 18.1311 7.74664L18.2014 8.19111ZM18.3878 8.18802L18.3279 8.63402L18.4182 8.64614L18.4781 8.20014L18.538 7.75414L18.4477 7.74202L18.3878 8.18802ZM18.4781 8.20014L18.4182 8.64614L18.5085 8.65826L18.5684 8.21226L18.6283 7.76626L18.538 7.75414L18.4781 8.20014ZM18.5684 8.21226L18.5085 8.65826C18.4467 8.64997 18.3973 8.62369 18.3646 8.59657C18.3355 8.57239 18.3259 8.55305 18.3282 8.55718L18.7223 8.34003L19.1165 8.12289C19.0378 7.98004 18.8856 7.80082 18.6283 7.76626L18.5684 8.21226ZM18.7223 8.34003L18.3282 8.55718L18.3919 8.67282L18.786 8.45568L19.1802 8.23854L19.1165 8.12289L18.7223 8.34003ZM18.786 8.45568L18.3919 8.67282L18.4556 8.78847L18.8498 8.57133L19.2439 8.35419L19.1802 8.23854L18.786 8.45568ZM18.8498 8.57133L18.4556 8.78847C18.5279 8.91972 18.6557 9.0797 18.8703 9.14369L18.9989 8.71246L19.1275 8.28123C19.2282 8.31124 19.2565 8.37714 19.2439 8.35419L18.8498 8.57133ZM18.9989 8.71246L18.8703 9.14369L18.9557 9.16918L19.0843 8.73794L19.213 8.30671L19.1275 8.28123L18.9989 8.71246ZM19.0843 8.73794L18.9557 9.16918L19.0412 9.19466L19.1698 8.76343L19.2984 8.3322L19.213 8.30671L19.0843 8.73794ZM19.1698 8.76343L19.0412 9.19466C19.2518 9.25746 19.4436 9.19824 19.5776 9.12807L19.3689 8.72939L19.1602 8.33072C19.1427 8.3399 19.2017 8.30337 19.2984 8.3322L19.1698 8.76343ZM19.3689 8.72939L19.5776 9.12807L19.6913 9.06855L19.4826 8.66988L19.2739 8.27121L19.1602 8.33072L19.3689 8.72939ZM19.4826 8.66988L19.6913 9.06855L19.805 9.00904L19.5963 8.61037L19.3875 8.21169L19.2739 8.27121L19.4826 8.66988ZM19.5963 8.61037L19.805 9.00904C19.7772 9.02356 19.6498 9.07889 19.4968 9.00489C19.3614 8.93939 19.3276 8.82847 19.3274 8.82792L19.7548 8.68706L20.1822 8.54619C20.1521 8.45484 20.077 8.28574 19.8887 8.19467C19.6828 8.09511 19.4911 8.1575 19.3875 8.21169L19.5963 8.61037ZM19.7548 8.68706L19.3274 8.82792L19.3723 8.96413L19.7997 8.82326L20.2271 8.68239L20.1822 8.54619L19.7548 8.68706ZM19.7997 8.82326L19.3723 8.96413L19.4172 9.10033L19.8446 8.95946L20.272 8.8186L20.2271 8.68239L19.7997 8.82326ZM19.8446 8.95946L19.4172 9.10033C19.4458 9.18705 19.4984 9.30102 19.6017 9.39425C19.7181 9.49916 19.8662 9.54798 20.0166 9.53866L19.9888 9.08952L19.961 8.64038C19.9976 8.63811 20.0419 8.64201 20.0888 8.6581C20.1358 8.67428 20.1747 8.69907 20.2045 8.72591C20.2332 8.7518 20.2503 8.77669 20.2595 8.79249C20.2686 8.80812 20.2719 8.81816 20.272 8.8186L19.8446 8.95946ZM19.9888 9.08952L20.0166 9.53866L20.1159 9.53252L20.0881 9.08337L20.0603 8.63423L19.961 8.64038L19.9888 9.08952ZM20.0881 9.08337L20.1159 9.53252L20.2152 9.52637L20.1874 9.07723L20.1596 8.62808L20.0603 8.63423L20.0881 9.08337ZM20.1874 9.07723L20.2152 9.52637C20.2576 9.52375 20.3049 9.52422 20.3575 9.52868L20.3955 9.08028L20.4334 8.63188C20.3411 8.62407 20.2497 8.62251 20.1596 8.62808L20.1874 9.07723ZM20.3955 9.08028L20.3575 9.52868L20.4663 9.53788L20.5042 9.08948L20.5422 8.64108L20.4334 8.63188L20.3955 9.08028ZM20.5042 9.08948L20.4663 9.53788L20.575 9.54708L20.6129 9.09868L20.6509 8.65028L20.5422 8.64108L20.5042 9.08948ZM20.6129 9.09868L20.575 9.54708C20.5438 9.54444 20.487 9.53204 20.4293 9.48786C20.3709 9.44306 20.3421 9.389 20.33 9.35361L20.7559 9.20825L21.1818 9.0629C21.1469 8.96059 21.0829 8.85482 20.9768 8.77349C20.8715 8.69279 20.7546 8.65905 20.6509 8.65028L20.6129 9.09868ZM20.7559 9.20825L20.33 9.35361L20.3643 9.45398L20.7902 9.30863L21.2161 9.16327L21.1818 9.0629L20.7559 9.20825ZM20.7902 9.30863L20.3643 9.45398L20.3986 9.55435L20.8244 9.409L21.2503 9.26364L21.2161 9.16327L20.7902 9.30863ZM20.8244 9.409L20.3986 9.55435C20.445 9.69054 20.5221 9.81002 20.6248 9.90871L20.9366 9.58426L21.2484 9.25981C21.247 9.25844 21.2475 9.25865 21.2486 9.26041C21.2491 9.26118 21.2496 9.26197 21.2499 9.26268C21.2502 9.26338 21.2504 9.26375 21.2503 9.26364L20.8244 9.409ZM20.9366 9.58426L20.6248 9.90871L20.7027 9.9836L21.0145 9.65915L21.3264 9.3347L21.2484 9.25981L20.9366 9.58426ZM21.0145 9.65915L20.7027 9.9836L20.7806 10.0585L21.0925 9.73403L21.4043 9.40958L21.3264 9.3347L21.0145 9.65915ZM21.0925 9.73403L20.7806 10.0585C20.7414 10.0208 20.6824 9.93808 20.6817 9.81775C20.681 9.71026 20.728 9.64534 20.7375 9.63303L21.0935 9.90833L21.4495 10.1836C21.5102 10.105 21.5827 9.97794 21.5817 9.81236C21.5806 9.63392 21.4955 9.49724 21.4043 9.40958L21.0925 9.73403ZM21.0935 9.90833L20.7375 9.63303L20.6607 9.73244L21.0166 10.0077L21.3726 10.283L21.4495 10.1836L21.0935 9.90833ZM21.0166 10.0077L20.6607 9.73244L20.5838 9.83184L20.9397 10.1071L21.2957 10.3824L21.3726 10.283L21.0166 10.0077ZM20.9397 10.1071L20.5838 9.83184C20.4676 9.9821 20.3876 10.1994 20.4656 10.4405L20.8937 10.3019L21.3219 10.1634C21.3369 10.2097 21.339 10.2613 21.3278 10.309C21.3174 10.3528 21.2996 10.3774 21.2957 10.3824L20.9397 10.1071ZM20.8937 10.3019L20.4656 10.4405L20.4965 10.5359L20.9246 10.3973L21.3527 10.2588L21.3219 10.1634L20.8937 10.3019ZM20.9246 10.3973L20.4965 10.5359L20.5273 10.6313L20.9555 10.4927L21.3836 10.3542L21.3527 10.2588L20.9246 10.3973ZM20.9555 10.4927L20.5273 10.6313C20.5152 10.5937 20.5041 10.5262 20.5289 10.4466C20.5534 10.3675 20.5999 10.3194 20.6286 10.2969L20.9064 10.6509L21.1842 11.0049C21.2662 10.9405 21.3475 10.8451 21.3884 10.7133C21.4295 10.581 21.4163 10.4553 21.3836 10.3542L20.9555 10.4927ZM20.9064 10.6509L20.6286 10.2969L20.5486 10.3596L20.8264 10.7136L21.1043 11.0676L21.1842 11.0049L20.9064 10.6509ZM20.8264 10.7136L20.5486 10.3596L20.4687 10.4223L20.7465 10.7763L21.0243 11.1303L21.1043 11.0676L20.8264 10.7136ZM20.7465 10.7763L20.4687 10.4223C20.3198 10.5391 20.2253 10.7071 20.2104 10.903L20.6591 10.9371L21.1078 10.9713C21.1058 10.9971 21.098 11.0297 21.08 11.0628C21.0622 11.0956 21.0406 11.1176 21.0243 11.1303L20.7465 10.7763ZM20.6591 10.9371L20.2104 10.903L20.2029 11.001L20.6516 11.0352L21.1003 11.0693L21.1078 10.9713L20.6591 10.9371ZM20.6516 11.0352L20.2029 11.001L20.1955 11.0991L20.6442 11.1333L21.0929 11.1674L21.1003 11.0693L20.6516 11.0352ZM20.6442 11.1333L20.1955 11.0991C20.1975 11.0722 20.2061 11.0339 20.2296 10.9936C20.2532 10.9531 20.283 10.9257 20.3076 10.9095L20.5559 11.2848L20.8041 11.6601C20.9759 11.5465 21.0775 11.369 21.0929 11.1674L20.6442 11.1333ZM20.5559 11.2848L20.3076 10.9095L20.2268 10.9629L20.475 11.3383L20.7233 11.7136L20.8041 11.6601L20.5559 11.2848ZM20.475 11.3383L20.2268 10.9629L20.1459 11.0164L20.3942 11.3917L20.6424 11.7671L20.7233 11.7136L20.475 11.3383ZM20.3942 11.3917L20.1459 11.0164C19.9326 11.1575 19.8603 11.3816 19.8686 11.58L20.3182 11.5612L20.7678 11.5423C20.7684 11.5564 20.7675 11.5955 20.7454 11.6449C20.7216 11.6981 20.6834 11.74 20.6424 11.7671L20.3942 11.3917ZM20.3182 11.5612L19.8686 11.58L19.8735 11.696L20.3231 11.6772L20.7727 11.6583L20.7678 11.5423L20.3182 11.5612ZM20.3231 11.6772L19.8735 11.696L19.8783 11.812L20.3279 11.7931L20.7775 11.7743L20.7727 11.6583L20.3231 11.6772ZM20.3279 11.7931L19.8783 11.812C19.8771 11.7817 19.8816 11.7078 19.9359 11.63C19.9917 11.5502 20.0639 11.5178 20.1025 11.5068L20.2256 11.9396L20.3488 12.3724C20.4588 12.3411 20.5838 12.2741 20.6737 12.1455C20.7621 12.0189 20.7821 11.8819 20.7775 11.7743L20.3279 11.7931ZM20.2256 11.9396L20.1025 11.5068L19.9952 11.5373L20.1184 11.9701L20.2416 12.4029L20.3488 12.3724L20.2256 11.9396ZM20.1184 11.9701L19.9952 11.5373L19.888 11.5678L20.0112 12.0006L20.1344 12.4334L20.2416 12.4029L20.1184 11.9701ZM20.0112 12.0006L19.888 11.5678C19.7939 11.5946 19.6915 11.6446 19.6046 11.7331C19.5158 11.8235 19.465 11.9319 19.4427 12.0397L19.8834 12.1307L20.3242 12.2217C20.3156 12.2631 20.2929 12.3167 20.2467 12.3637C20.2024 12.4088 20.1571 12.427 20.1344 12.4334L20.0112 12.0006ZM19.8834 12.1307L19.4427 12.0397L19.4222 12.1393L19.8629 12.2303L20.3036 12.3213L20.3242 12.2217L19.8834 12.1307ZM19.8629 12.2303L19.4222 12.1393L19.4016 12.2389L19.8423 12.3299L20.283 12.4209L20.3036 12.3213L19.8629 12.2303ZM19.8423 12.3299L19.4016 12.2389C19.4078 12.2091 19.4236 12.1667 19.458 12.1254C19.4925 12.0843 19.5312 12.0614 19.5588 12.0503L19.7271 12.4676L19.8954 12.885C20.0976 12.8035 20.2387 12.6354 20.283 12.4209L19.8423 12.3299ZM19.7271 12.4676L19.5588 12.0503L19.4642 12.0885L19.6325 12.5058L19.8008 12.9232L19.8954 12.885L19.7271 12.4676ZM19.6325 12.5058L19.4642 12.0885L19.3695 12.1266L19.5378 12.544L19.7061 12.9613L19.8008 12.9232L19.6325 12.5058ZM19.5378 12.544L19.3695 12.1266C19.2038 12.1934 19.0649 12.3187 18.991 12.4987L19.4073 12.6696L19.8236 12.8405C19.8129 12.8665 19.7951 12.8944 19.7699 12.9187C19.7452 12.9425 19.7213 12.9552 19.7061 12.9613L19.5378 12.544ZM19.4073 12.6696L18.991 12.4987L18.9551 12.5862L19.3714 12.7571L19.7877 12.9279L19.8236 12.8405L19.4073 12.6696ZM19.3714 12.7571L18.9551 12.5862L18.9192 12.6736L19.3355 12.8445L19.7518 13.0154L19.7877 12.9279L19.3714 12.7571ZM19.3355 12.8445L18.9192 12.6736C18.9271 12.6543 18.9402 12.6324 18.9594 12.6121C18.9784 12.592 18.9977 12.5794 19.012 12.5723L19.2119 12.9754L19.4119 13.3786C19.5645 13.3029 19.6848 13.1786 19.7518 13.0154L19.3355 12.8445ZM19.2119 12.9754L19.012 12.5723L18.9243 12.6158L19.1243 13.0189L19.3242 13.4221L19.4119 13.3786L19.2119 12.9754ZM19.1243 13.0189L18.9243 12.6158L18.8367 12.6593L19.0366 13.0624L19.2366 13.4655L19.3242 13.4221L19.1243 13.0189ZM19.0366 13.0624L18.8367 12.6593C18.6796 12.7372 18.5589 12.8664 18.4945 13.034L18.9147 13.1952L19.3348 13.3565C19.3272 13.3763 19.314 13.3996 19.2938 13.4217C19.2736 13.4436 19.2526 13.4576 19.2366 13.4655L19.0366 13.0624ZM18.9147 13.1952L18.4945 13.034L18.4602 13.1233L18.8804 13.2846L19.3005 13.4458L19.3348 13.3565L18.9147 13.1952ZM18.8804 13.2846L18.4602 13.1233L18.4259 13.2127L18.8461 13.3739L19.2662 13.5352L19.3005 13.4458L18.8804 13.2846ZM18.8461 13.3739L18.4259 13.2127C18.4252 13.2146 18.4253 13.2138 18.4269 13.2114C18.4285 13.209 18.4306 13.2063 18.4331 13.2038L18.747 13.5263L19.0609 13.8488C19.1534 13.7587 19.2214 13.6519 19.2662 13.5352L18.8461 13.3739ZM18.747 13.5263L18.4331 13.2038L18.3684 13.2669L18.6822 13.5893L18.9961 13.9118L19.0609 13.8488L18.747 13.5263ZM18.6822 13.5893L18.3684 13.2669L18.3036 13.3299L18.6175 13.6524L18.9314 13.9748L18.9961 13.9118L18.6822 13.5893ZM18.6175 13.6524L18.3036 13.3299C18.2813 13.3516 18.2556 13.3725 18.2259 13.3922L18.4745 13.7673L18.723 14.1424C18.7977 14.0929 18.8673 14.0371 18.9314 13.9748L18.6175 13.6524ZM18.4745 13.7673L18.2259 13.3922L18.1476 13.444L18.3962 13.8191L18.6448 14.1943L18.723 14.1424L18.4745 13.7673ZM18.3962 13.8191L18.1476 13.444L18.0693 13.4959L18.3179 13.871L18.5665 14.2461L18.6448 14.1943L18.3962 13.8191ZM18.3179 13.871L18.0693 13.4959C17.9459 13.5777 17.8508 13.6901 17.7905 13.8252L18.2014 14.0087L18.6122 14.1922C18.6084 14.2007 18.6022 14.2114 18.5931 14.2222C18.5839 14.233 18.5744 14.2409 18.5665 14.2461L18.3179 13.871ZM18.2014 14.0087L17.7905 13.8252L17.7521 13.911L18.163 14.0945L18.5739 14.2779L18.6122 14.1922L18.2014 14.0087ZM18.163 14.0945L17.7521 13.911L17.7138 13.9968L18.1247 14.1802L18.5356 14.3637L18.5739 14.2779L18.163 14.0945ZM18.1247 14.1802L17.7138 13.9968C17.6753 14.083 17.6462 14.1726 17.6266 14.265L18.0668 14.3584L18.507 14.4518C18.5136 14.421 18.5231 14.3919 18.5356 14.3637L18.1247 14.1802ZM18.0668 14.3584L17.6266 14.265L17.607 14.3573L18.0472 14.4507L18.4874 14.5442L18.507 14.4518L18.0668 14.3584ZM18.0472 14.4507L17.607 14.3573L17.5874 14.4497L18.0276 14.5431L18.4678 14.6365L18.4874 14.5442L18.0472 14.4507ZM18.0276 14.5431L17.5874 14.4497C17.5882 14.4459 17.5901 14.4397 17.5937 14.4322C17.5974 14.4247 17.6017 14.4184 17.6057 14.4137L17.9481 14.7057L18.2904 14.9978C18.3801 14.8926 18.4395 14.7697 18.4678 14.6365L18.0276 14.5431ZM17.9481 14.7057L17.6057 14.4137L17.5458 14.4839L17.8881 14.776L18.2305 15.0681L18.2904 14.9978L17.9481 14.7057ZM17.8881 14.776L17.5458 14.4839L17.4858 14.5542L17.8282 14.8463L18.1705 15.1383L18.2305 15.0681L17.8881 14.776ZM17.8282 14.8463L17.4858 14.5542C17.4036 14.6506 17.3447 14.7613 17.3098 14.8816L17.7419 15.0071L18.174 15.1327C18.1743 15.1317 18.1742 15.1325 18.1732 15.1343C18.1722 15.1362 18.1711 15.1376 18.1705 15.1383L17.8282 14.8463ZM17.7419 15.0071L17.3098 14.8816L17.2834 14.9722L17.7156 15.0978L18.1477 15.2233L18.174 15.1327L17.7419 15.0071ZM17.7156 15.0978L17.2834 14.9722L17.2571 15.0628L17.6892 15.1884L18.1214 15.3139L18.1477 15.2233L17.7156 15.0978ZM17.6892 15.1884L17.2571 15.0628C17.1826 15.3191 17.2878 15.5381 17.4207 15.6764L17.7451 15.3645L18.0695 15.0526C18.0768 15.0602 18.1023 15.0891 18.119 15.1416C18.1372 15.1991 18.1369 15.2604 18.1214 15.3139L17.6892 15.1884ZM17.7451 15.3645L17.4207 15.6764L17.503 15.7619L17.8274 15.45L18.1518 15.1381L18.0695 15.0526L17.7451 15.3645ZM17.8274 15.45L17.503 15.7619L17.5852 15.8474L17.9096 15.5356L18.234 15.2237L18.1518 15.1381L17.8274 15.45ZM17.9096 15.5356L17.5852 15.8474C17.5664 15.8278 17.5228 15.7732 17.5108 15.6834C17.4982 15.59 17.5276 15.518 17.5497 15.4818L17.9339 15.7161L18.318 15.9505C18.3788 15.8509 18.4234 15.7172 18.4028 15.5636C18.3826 15.4136 18.3077 15.3003 18.234 15.2237L17.9096 15.5356ZM17.9339 15.7161L17.5497 15.4818L17.4917 15.5768L17.8759 15.8112L18.26 16.0455L18.318 15.9505L17.9339 15.7161ZM17.8759 15.8112L17.4917 15.5768L17.4337 15.6719L17.8179 15.9062L18.2021 16.1406L18.26 16.0455L17.8759 15.8112ZM17.8179 15.9062L17.4337 15.6719C17.3423 15.8218 17.2925 16.0186 17.3603 16.2278L17.7884 16.0889L18.2164 15.95C18.2291 15.989 18.2322 16.0314 18.2258 16.0712C18.2197 16.1087 18.2071 16.1323 18.2021 16.1406L17.8179 15.9062ZM17.7884 16.0889L17.3603 16.2278L17.3888 16.3155L17.8168 16.1766L18.2449 16.0377L18.2164 15.95L17.7884 16.0889ZM17.8168 16.1766L17.3888 16.3155L17.4172 16.4032L17.8453 16.2643L18.2733 16.1254L18.2449 16.0377L17.8168 16.1766ZM17.8453 16.2643L17.4172 16.4032C17.4266 16.432 17.4323 16.4597 17.4351 16.4868L17.8828 16.4415L18.3305 16.3961C18.3212 16.3039 18.3019 16.2135 18.2733 16.1254L17.8453 16.2643ZM17.8828 16.4415L17.4351 16.4868L17.4441 16.5764L17.8919 16.531L18.3396 16.4857L18.3305 16.3961L17.8828 16.4415ZM17.8919 16.531L17.4441 16.5764L17.4532 16.6659L17.9009 16.6206L18.3486 16.5752L18.3396 16.4857L17.8919 16.531ZM17.9009 16.6206L17.4532 16.6659C17.4513 16.6473 17.4528 16.631 17.4554 16.6186C17.4579 16.6067 17.4609 16.6012 17.4602 16.6026L17.8619 16.8054L18.2636 17.0082C18.3271 16.8824 18.3648 16.7351 18.3486 16.5752L17.9009 16.6206ZM17.8619 16.8054L17.4602 16.6026L17.4121 16.6978L17.8138 16.9006L18.2156 17.1034L18.2636 17.0082L17.8619 16.8054ZM17.8138 16.9006L17.4121 16.6978L17.364 16.793L17.7658 16.9958L18.1675 17.1986L18.2156 17.1034L17.8138 16.9006ZM17.7658 16.9958L17.364 16.793C17.3106 16.899 17.28 17.0333 17.3104 17.1795C17.3397 17.3206 17.4161 17.4254 17.4896 17.4967L17.8027 17.1734L18.1158 16.8502C18.1326 16.8665 18.1745 16.9143 18.1915 16.9962C18.2096 17.0833 18.1889 17.1562 18.1675 17.1986L17.7658 16.9958ZM17.8027 17.1734L17.4896 17.4967L17.5746 17.579L17.8877 17.2558L18.2008 16.9325L18.1158 16.8502L17.8027 17.1734ZM17.8877 17.2558L17.5746 17.579L17.6596 17.6613L17.9727 17.3381L18.2858 17.0148L18.2008 16.9325L17.8877 17.2558ZM17.9727 17.3381L17.6596 17.6613C17.6445 17.6467 17.6052 17.6024 17.5872 17.5255C17.568 17.4429 17.5846 17.3706 17.6058 17.3249L18.0139 17.5147L18.4219 17.7045C18.4724 17.5959 18.4967 17.4627 18.4638 17.3213C18.4321 17.1855 18.3576 17.0844 18.2858 17.0148L17.9727 17.3381ZM18.0139 17.5147L17.6058 17.3249L17.562 17.4191L17.97 17.6089L18.378 17.7988L18.4219 17.7045L18.0139 17.5147ZM17.97 17.6089L17.562 17.4191L17.5181 17.5134L17.9261 17.7032L18.3341 17.893L18.378 17.7988L17.97 17.6089ZM17.9261 17.7032L17.5181 17.5134C17.4692 17.6185 17.4445 17.7461 17.4717 17.8827C17.4981 18.0153 17.5656 18.1175 17.6345 18.1905L17.9616 17.8814L18.2887 17.5723C18.3048 17.5894 18.3399 17.6339 18.3544 17.7071C18.3698 17.7843 18.3538 17.8508 18.3341 17.893L17.9261 17.7032ZM17.9616 17.8814L17.6345 18.1905L17.7139 18.2744L18.0409 17.9654L18.368 17.6563L18.2887 17.5723L17.9616 17.8814ZM18.0409 17.9654L17.7139 18.2744L17.7932 18.3584L18.1203 18.0493L18.4473 17.7402L18.368 17.6563L18.0409 17.9654ZM18.1203 18.0493L17.7932 18.3584C17.768 18.3318 17.7188 18.2648 17.7131 18.1609C17.7074 18.0584 17.7479 17.9888 17.7666 17.9632L18.1302 18.2284L18.4937 18.4936C18.5587 18.4046 18.6207 18.2734 18.6117 18.1112C18.6027 17.9476 18.5254 17.8228 18.4473 17.7402L18.1203 18.0493ZM18.1302 18.2284L17.7666 17.9632L17.6972 18.0583L18.0607 18.3236L18.4243 18.5888L18.4937 18.4936L18.1302 18.2284ZM18.0607 18.3236L17.6972 18.0583L17.6278 18.1535L17.9913 18.4187L18.3548 18.684L18.4243 18.5888L18.0607 18.3236ZM17.9913 18.4187L17.6278 18.1535C17.5116 18.3127 17.4428 18.5436 17.5495 18.7842L17.9609 18.6019L18.3723 18.4195C18.3935 18.4674 18.4028 18.5263 18.3929 18.5858C18.3838 18.6406 18.3622 18.6738 18.3548 18.684L17.9913 18.4187ZM17.9609 18.6019L17.5495 18.7842L17.5885 18.8722L17.9999 18.6898L18.4113 18.5075L18.3723 18.4195L17.9609 18.6019ZM17.9999 18.6898L17.5885 18.8722L17.6275 18.9602L18.0389 18.7778L18.4503 18.5955L18.4113 18.5075L17.9999 18.6898ZM18.0389 18.7778L17.6275 18.9602C17.6359 18.9791 17.6393 18.9938 17.6406 19.0055L18.0878 18.9562L18.5351 18.9068C18.5231 18.798 18.4939 18.6939 18.4503 18.5955L18.0389 18.7778ZM18.0878 18.9562L17.6406 19.0055L17.6505 19.0958L18.0978 19.0465L18.5451 18.9972L18.5351 18.9068L18.0878 18.9562ZM18.0978 19.0465L17.6505 19.0958L17.6605 19.1862L18.1078 19.1369L18.5551 19.0875L18.5451 18.9972L18.0978 19.0465ZM18.1078 19.1369L17.6605 19.1862C17.6578 19.162 17.6597 19.1372 17.6655 19.1146C17.6711 19.0927 17.6789 19.0785 17.6828 19.0725L18.0623 19.3143L18.4418 19.556C18.526 19.4239 18.5745 19.2633 18.5551 19.0875L18.1078 19.1369ZM18.0623 19.3143L17.6828 19.0725L17.6273 19.1595L18.0069 19.4013L18.3864 19.6431L18.4418 19.556L18.0623 19.3143ZM18.0069 19.4013L17.6273 19.1595L17.5719 19.2465L17.9514 19.4883L18.3309 19.7301L18.3864 19.6431L18.0069 19.4013ZM17.9514 19.4883L17.5719 19.2465C17.5121 19.3404 17.4636 19.4462 17.438 19.563L17.8776 19.6592L18.3173 19.7553C18.3161 19.7604 18.3168 19.7523 18.3309 19.7301L17.9514 19.4883ZM17.8776 19.6592L17.438 19.563L17.4197 19.6469L17.8593 19.743L18.2989 19.8391L18.3173 19.7553L17.8776 19.6592ZM17.8593 19.743L17.4197 19.6469L17.4014 19.7307L17.841 19.8269L18.2806 19.923L18.2989 19.8391L17.8593 19.743ZM17.841 19.8269L17.4014 19.7307C17.3623 19.9094 17.4025 20.0736 17.46 20.2015L17.8704 20.0169L18.2808 19.8323C18.2746 19.8185 18.2952 19.8561 18.2806 19.923L17.841 19.8269ZM17.8704 20.0169L17.46 20.2015L17.5078 20.3077L17.9182 20.1231L18.3286 19.9385L18.2808 19.8323L17.8704 20.0169ZM17.9182 20.1231L17.5078 20.3077L17.5556 20.4139L17.966 20.2293L18.3763 20.0447L18.3286 19.9385L17.9182 20.1231ZM17.966 20.2293L17.5556 20.4139C17.5469 20.3947 17.521 20.3269 17.5406 20.2325C17.562 20.1291 17.6232 20.0626 17.6677 20.0304L17.9316 20.3949L18.1955 20.7594C18.2948 20.6876 18.389 20.5737 18.4219 20.4151C18.4529 20.2654 18.4168 20.1347 18.3763 20.0447L17.966 20.2293ZM17.9316 20.3949L17.6677 20.0304L17.5856 20.0898L17.8495 20.4543L18.1134 20.8188L18.1955 20.7594L17.9316 20.3949ZM17.8495 20.4543L17.5856 20.0898L17.5035 20.1493L17.7674 20.5138L18.0313 20.8783L18.1134 20.8188L17.8495 20.4543ZM17.7674 20.5138L17.5035 20.1493C17.3983 20.2254 17.3101 20.3221 17.2453 20.4384L17.6382 20.6576L18.0312 20.8769C18.0306 20.878 18.0297 20.8792 18.0289 20.8801C18.0281 20.881 18.0286 20.8803 18.0313 20.8783L17.7674 20.5138ZM17.6382 20.6576L17.2453 20.4384L17.1982 20.5228L17.5911 20.7421L17.9841 20.9613L18.0312 20.8769L17.6382 20.6576ZM17.5911 20.7421L17.1982 20.5228L17.151 20.6073L17.544 20.8265L17.937 21.0458L17.9841 20.9613L17.5911 20.7421ZM17.544 20.8265L17.151 20.6073C17.1649 20.5825 17.1899 20.55 17.2298 20.5225C17.2699 20.4949 17.31 20.4827 17.3399 20.4785L17.4021 20.9242L17.4644 21.3699C17.6689 21.3413 17.8378 21.2237 17.937 21.0458L17.544 20.8265ZM17.4021 20.9242L17.3399 20.4785L17.2451 20.4918L17.3074 20.9374L17.3696 21.3831L17.4644 21.3699L17.4021 20.9242ZM17.3074 20.9374L17.2451 20.4918L17.1503 20.505L17.2126 20.9507L17.2749 21.3964L17.3696 21.3831L17.3074 20.9374ZM17.2126 20.9507L17.1503 20.505C17.0068 20.5251 16.8794 20.5817 16.7701 20.6572L17.0258 21.0275L17.2815 21.3978C17.2885 21.3929 17.2912 21.392 17.2896 21.3927C17.2877 21.3935 17.2826 21.3953 17.2749 21.3964L17.2126 20.9507ZM17.0258 21.0275L16.7701 20.6572L16.6781 20.7207L16.9338 21.091L17.1895 21.4613L17.2815 21.3978L17.0258 21.0275ZM16.9338 21.091L16.6781 20.7207L16.586 20.7843L16.8418 21.1546L17.0975 21.5248L17.1895 21.4613L16.9338 21.091ZM16.8418 21.1546L16.586 20.7843C16.6103 20.7675 16.6643 20.7388 16.7422 20.7373C16.8222 20.7357 16.883 20.7638 16.9167 20.7869L16.6621 21.158L16.4076 21.5291C16.4997 21.5923 16.6196 21.6398 16.7595 21.6371C16.8973 21.6345 17.0119 21.5839 17.0975 21.5248L16.8418 21.1546ZM16.6621 21.158L16.9167 20.7869L16.829 20.7268L16.5745 21.0979L16.32 21.469L16.4076 21.5291L16.6621 21.158ZM16.5745 21.0979L16.829 20.7268L16.7414 20.6667L16.4869 21.0378L16.2324 21.409L16.32 21.469L16.5745 21.0979ZM16.4869 21.0378L16.7414 20.6667C16.6788 20.6238 16.6182 20.5838 16.5596 20.5469L16.3199 20.9278L16.0802 21.3086C16.1275 21.3384 16.1782 21.3718 16.2324 21.409L16.4869 21.0378ZM16.3199 20.9278L16.5596 20.5469L16.4802 20.497L16.2405 20.8778L16.0007 21.2586L16.0802 21.3086L16.3199 20.9278ZM16.2405 20.8778L16.4802 20.497L16.4008 20.447L16.1611 20.8278L15.9213 21.2086L16.0007 21.2586L16.2405 20.8778ZM16.1611 20.8278L16.4008 20.447C16.3323 20.4038 16.2618 20.3653 16.1893 20.3319L16.0008 20.7405L15.8123 21.1491C15.8476 21.1654 15.884 21.1851 15.9213 21.2086L16.1611 20.8278ZM16.0008 20.7405L16.1893 20.3319L16.1084 20.2945L15.9199 20.7032L15.7314 21.1118L15.8123 21.1491L16.0008 20.7405ZM15.9199 20.7032L16.1084 20.2945L16.0276 20.2572L15.839 20.6658L15.6505 21.0745L15.7314 21.1118L15.9199 20.7032ZM15.839 20.6658L16.0276 20.2572C15.8456 20.1733 15.6619 20.1872 15.5144 20.2331L15.6481 20.6628L15.7817 21.0925C15.7816 21.0925 15.7783 21.0935 15.772 21.0945C15.7656 21.0956 15.756 21.0966 15.7436 21.0964C15.7174 21.0959 15.6845 21.0901 15.6505 21.0745L15.839 20.6658ZM15.6481 20.6628L15.5144 20.2331L15.4043 20.2673L15.5379 20.697L15.6716 21.1267L15.7817 21.0925L15.6481 20.6628ZM15.5379 20.697L15.4043 20.2673L15.2942 20.3016L15.4278 20.7313L15.5615 21.161L15.6716 21.1267L15.5379 20.697ZM15.4278 20.7313L15.2942 20.3016C15.323 20.2926 15.3932 20.2786 15.4798 20.309C15.5688 20.3403 15.6191 20.3988 15.6407 20.4333L15.2592 20.672L14.8778 20.9108C14.9384 21.0076 15.0362 21.1071 15.1814 21.1581C15.3242 21.2083 15.4593 21.1928 15.5615 21.161L15.4278 20.7313ZM15.2592 20.672L15.6407 20.4333L15.5821 20.3398L15.2007 20.5785L14.8192 20.8172L14.8778 20.9108L15.2592 20.672ZM15.2007 20.5785L15.5821 20.3398L15.5236 20.2462L15.1422 20.485L14.7607 20.7237L14.8192 20.8172L15.2007 20.5785ZM15.1422 20.485L15.5236 20.2462C15.4667 20.1553 15.3791 20.0636 15.252 20.0079C15.1247 19.9521 14.9973 19.9498 14.8908 19.9704L14.9762 20.4122L15.0615 20.8541C15.0266 20.8608 14.9628 20.8638 14.8907 20.8322C14.819 20.8008 14.7786 20.7524 14.7607 20.7237L15.1422 20.485ZM14.9762 20.4122L14.8908 19.9704L14.7834 19.9911L14.8687 20.433L14.954 20.8748L15.0615 20.8541L14.9762 20.4122ZM14.8687 20.433L14.7834 19.9911L14.6759 20.0119L14.7612 20.4537L14.8465 20.8956L14.954 20.8748L14.8687 20.433ZM14.7612 20.4537L14.6759 20.0119C14.6927 20.0086 14.7292 20.0049 14.7763 20.0171C14.8257 20.0299 14.8673 20.0553 14.8971 20.0841L14.5848 20.408L14.2724 20.732C14.4401 20.8937 14.6548 20.9326 14.8465 20.8956L14.7612 20.4537ZM14.5848 20.408L14.8971 20.0841L14.8281 20.0176L14.5158 20.3415L14.2035 20.6655L14.2724 20.732L14.5848 20.408ZM14.5158 20.3415L14.8281 20.0176L14.7592 19.9511L14.4469 20.275L14.1345 20.599L14.2035 20.6655L14.5158 20.3415ZM14.4469 20.275L14.7592 19.9511C14.7062 19.9 14.652 19.851 14.5965 19.8043L14.3064 20.1483L14.0164 20.4924C14.0562 20.5259 14.0956 20.5615 14.1345 20.599L14.4469 20.275ZM14.3064 20.1483L14.5965 19.8043L14.525 19.744L14.235 20.0881L13.9449 20.4321L14.0164 20.4924L14.3064 20.1483ZM14.235 20.0881L14.525 19.744L14.4536 19.6838L14.1635 20.0278L13.8735 20.3719L13.9449 20.4321L14.235 20.0881ZM14.1635 20.0278L14.4536 19.6838C14.3162 19.568 14.1506 19.5164 13.9831 19.5196L13.9919 19.9696L14.0008 20.4195C13.9874 20.4197 13.9659 20.418 13.9402 20.4092C13.914 20.4003 13.8912 20.3868 13.8735 20.3719L14.1635 20.0278ZM13.9919 19.9696L13.9831 19.5196L13.883 19.5216L13.8918 19.9715L13.9007 20.4214L14.0008 20.4195L13.9919 19.9696ZM13.8918 19.9715L13.883 19.5216L13.7829 19.5236L13.7917 19.9735L13.8005 20.4234L13.9007 20.4214L13.8918 19.9715ZM13.7917 19.9735L13.7829 19.5236C13.7877 19.5235 13.7988 19.5239 13.8139 19.528C13.8293 19.5321 13.8448 19.5389 13.8588 19.5479L13.6152 19.9262L13.3716 20.3046C13.5053 20.3907 13.6539 20.4263 13.8005 20.4234L13.7917 19.9735ZM13.6152 19.9262L13.8588 19.5479L13.7824 19.4987L13.5387 19.877L13.2951 20.2554L13.3716 20.3046L13.6152 19.9262ZM13.5387 19.877L13.7824 19.4987L13.7059 19.4495L13.4623 19.8278L13.2187 20.2062L13.2951 20.2554L13.5387 19.877ZM13.4623 19.8278L13.7059 19.4495C13.5966 19.3791 13.4759 19.3365 13.3498 19.3203L13.2923 19.7666L13.2349 20.2129C13.2351 20.2129 13.2328 20.2126 13.2291 20.2113C13.2253 20.2099 13.2216 20.2081 13.2187 20.2062L13.4623 19.8278ZM13.2923 19.7666L13.3498 19.3203L13.2562 19.3082L13.1987 19.7545L13.1413 20.2009L13.2349 20.2129L13.2923 19.7666ZM13.1987 19.7545L13.2562 19.3082L13.1626 19.2962L13.1052 19.7425L13.0477 20.1888L13.1413 20.2009L13.1987 19.7545ZM13.1052 19.7425L13.1626 19.2962C13.2297 19.3048 13.2919 19.336 13.3374 19.3801C13.3772 19.4188 13.3895 19.4529 13.3903 19.455L12.9673 19.6087L12.5444 19.7624C12.6067 19.9339 12.7571 20.1514 13.0477 20.1888L13.1052 19.7425ZM12.9673 19.6087L13.3903 19.455L13.3461 19.3333L12.9231 19.4869L12.5002 19.6406L12.5444 19.7624L12.9673 19.6087ZM12.9231 19.4869L13.3461 19.3333L13.3018 19.2115L12.8789 19.3652L12.4559 19.5188L12.5002 19.6406L12.9231 19.4869ZM12.8789 19.3652L13.3018 19.2115C13.2459 19.0574 13.1336 18.8813 12.9228 18.7921L12.7473 19.2065L12.5719 19.6209C12.529 19.6027 12.4974 19.5759 12.4774 19.5518C12.4591 19.5297 12.4545 19.5149 12.4559 19.5188L12.8789 19.3652ZM12.7473 19.2065L12.9228 18.7921L12.8355 18.7551L12.66 19.1695L12.4846 19.5839L12.5719 19.6209L12.7473 19.2065ZM12.66 19.1695L12.8355 18.7551L12.7482 18.7182L12.5727 19.1326L12.3973 19.547L12.4846 19.5839L12.66 19.1695ZM12.5727 19.1326L12.7482 18.7182C12.4708 18.6007 12.228 18.725 12.094 18.8338L12.3775 19.1832L12.6611 19.5326C12.6648 19.5296 12.642 19.5497 12.5933 19.5623C12.5365 19.5771 12.4654 19.5758 12.3973 19.547L12.5727 19.1326ZM12.3775 19.1832L12.094 18.8338L11.986 18.9214L12.2696 19.2708L12.5531 19.6202L12.6611 19.5326L12.3775 19.1832ZM12.2696 19.2708L11.986 18.9214L11.8781 19.009L12.1616 19.3584L12.4452 19.7078L12.5531 19.6202L12.2696 19.2708ZM12.1616 19.3584L11.8781 19.009C11.868 19.0171 11.8805 19.0043 11.9148 18.9926C11.9538 18.9792 12.0208 18.9678 12.0992 18.9906L11.9738 19.4228L11.8483 19.8549C12.1174 19.933 12.3357 19.7966 12.4452 19.7078L12.1616 19.3584ZM11.9738 19.4228L12.0992 18.9906L12.0193 18.9674L11.8938 19.3996L11.7684 19.8317L11.8483 19.8549L11.9738 19.4228ZM11.8938 19.3996L12.0193 18.9674L11.9394 18.9442L11.8139 19.3764L11.6885 19.8085L11.7684 19.8317L11.8938 19.3996ZM11.8139 19.3764L11.9394 18.9442C11.8634 18.9222 11.7836 18.9056 11.7015 18.8932L11.6346 19.3382L11.5678 19.7833C11.6181 19.7908 11.6579 19.7997 11.6885 19.8085L11.8139 19.3764ZM11.6346 19.3382L11.7015 18.8932L11.6021 18.8783L11.5353 19.3233L11.4684 19.7683L11.5678 19.7833L11.6346 19.3382ZM11.5353 19.3233L11.6021 18.8783L11.5028 18.8634L11.4359 19.3084L11.369 19.7534L11.4684 19.7683L11.5353 19.3233ZM11.4359 19.3084L11.5028 18.8634C11.3839 18.8455 11.2617 18.8485 11.1404 18.878L11.2466 19.3153L11.3528 19.7526C11.3529 19.7526 11.3529 19.7526 11.3529 19.7526C11.353 19.7525 11.3531 19.7525 11.3533 19.7525C11.3536 19.7525 11.3542 19.7524 11.3553 19.7523C11.3573 19.7523 11.3618 19.7523 11.369 19.7534L11.4359 19.3084ZM11.2466 19.3153L11.1404 18.878L11.0505 18.8998L11.1567 19.3371L11.263 19.7744L11.3528 19.7526L11.2466 19.3153ZM11.1567 19.3371L11.0505 18.8998L10.9606 18.9217L11.0668 19.359L11.1731 19.7962L11.263 19.7744L11.1567 19.3371ZM11.0668 19.359L10.9606 18.9217C10.7984 18.9611 10.6653 19.0515 10.5663 19.1713L10.9132 19.458L11.2601 19.7446C11.2547 19.7512 11.244 19.7621 11.2272 19.7729C11.2101 19.7839 11.1913 19.7918 11.1731 19.7962L11.0668 19.359ZM10.9132 19.458L10.5663 19.1713L10.5025 19.2485L10.8494 19.5352L11.1963 19.8218L11.2601 19.7446L10.9132 19.458ZM10.8494 19.5352L10.5025 19.2485L10.4387 19.3257L10.7856 19.6123L11.1325 19.899L11.1963 19.8218L10.8494 19.5352ZM10.7856 19.6123L10.4387 19.3257C10.4262 19.3408 10.4184 19.3457 10.4166 19.3468L10.6438 19.7352L10.871 20.1236C10.9732 20.0638 11.06 19.9868 11.1325 19.899L10.7856 19.6123ZM10.6438 19.7352L10.4166 19.3468L10.3385 19.3925L10.5657 19.7809L10.793 20.1693L10.871 20.1236L10.6438 19.7352ZM10.5657 19.7809L10.3385 19.3925L10.2604 19.4381L10.4877 19.8265L10.7149 20.2149L10.793 20.1693L10.5657 19.7809ZM10.4877 19.8265L10.2604 19.4381C10.153 19.501 10.064 19.5835 9.99164 19.6769L10.3474 19.9525L10.7032 20.2281C10.7086 20.221 10.7125 20.2173 10.7143 20.2157C10.716 20.2141 10.7162 20.2142 10.7149 20.2149L10.4877 19.8265ZM10.3474 19.9525L9.99164 19.6769L9.92943 19.7573L10.2852 20.0328L10.6409 20.3084L10.7032 20.2281L10.3474 19.9525ZM10.2852 20.0328L9.92943 19.7573L9.86722 19.8376L10.223 20.1131L10.5787 20.3887L10.6409 20.3084L10.2852 20.0328ZM10.223 20.1131L9.86722 19.8376C9.89815 19.7976 9.95119 19.7539 10.0248 19.733C10.0934 19.7134 10.1457 19.7234 10.1647 19.7285L10.0478 20.163L9.93078 20.5976C10.0252 20.623 10.1443 20.6347 10.2713 20.5986C10.4034 20.561 10.5063 20.4822 10.5787 20.3887L10.223 20.1131ZM10.0478 20.163L10.1647 19.7285L10.0517 19.6981L9.93474 20.1326L9.81776 20.5671L9.93078 20.5976L10.0478 20.163ZM9.93474 20.1326L10.0517 19.6981L9.93871 19.6677L9.82173 20.1022L9.70475 20.5367L9.81776 20.5671L9.93474 20.1326ZM9.82173 20.1022L9.93871 19.6677C9.83206 19.6389 9.69001 19.629 9.54432 19.6923C9.39765 19.7561 9.30744 19.8681 9.25577 19.9688L9.65614 20.1742L10.0565 20.3797C10.0399 20.412 9.9948 20.4778 9.90333 20.5176C9.81283 20.557 9.73606 20.5451 9.70475 20.5367L9.82173 20.1022ZM9.65614 20.1742L9.25577 19.9688L9.2032 20.0712L9.60356 20.2767L10.0039 20.4821L10.0565 20.3797L9.65614 20.1742ZM9.60356 20.2767L9.2032 20.0712L9.15062 20.1737L9.55099 20.3791L9.95135 20.5846L10.0039 20.4821L9.60356 20.2767ZM9.55099 20.3791L9.15062 20.1737C9.15498 20.1652 9.17021 20.1388 9.20404 20.1112C9.24038 20.0816 9.28518 20.0612 9.33137 20.0534L9.40636 20.4971L9.48135 20.9409C9.71551 20.9013 9.86837 20.7463 9.95135 20.5846L9.55099 20.3791ZM9.40636 20.4971L9.33137 20.0534L9.23932 20.069L9.31431 20.5127L9.3893 20.9564L9.48135 20.9409L9.40636 20.4971ZM9.31431 20.5127L9.23932 20.069L9.14727 20.0845L9.22226 20.5283L9.29725 20.972L9.3893 20.9564L9.31431 20.5127ZM9.22226 20.5283L9.14727 20.0845C9.09038 20.0942 9.03327 20.1029 8.97593 20.1108L9.03748 20.5566L9.09902 21.0024C9.16532 20.9932 9.23139 20.9831 9.29725 20.972L9.22226 20.5283ZM9.03748 20.5566L8.97593 20.1108L8.8832 20.1236L8.94475 20.5694L9.00629 21.0152L9.09902 21.0024L9.03748 20.5566ZM8.94475 20.5694L8.8832 20.1236L8.79047 20.1364L8.85202 20.5822L8.91356 21.028L9.00629 21.0152L8.94475 20.5694ZM8.85202 20.5822L8.79047 20.1364C8.66833 20.1533 8.55207 20.1942 8.4459 20.2593L8.68089 20.643L8.91588 21.0268C8.91588 21.0268 8.91582 21.0268 8.91568 21.0269C8.91555 21.027 8.91536 21.0271 8.91512 21.0272C8.91463 21.0274 8.91409 21.0277 8.91354 21.0279C8.9123 21.0283 8.91209 21.0282 8.91356 21.028L8.85202 20.5822ZM8.68089 20.643L8.4459 20.2593L8.36749 20.3073L8.60248 20.691L8.83747 21.0748L8.91588 21.0268L8.68089 20.643ZM8.60248 20.691L8.36749 20.3073L8.28909 20.3553L8.52408 20.739L8.75907 21.1228L8.83747 21.0748L8.60248 20.691ZM8.52408 20.739L8.28909 20.3553C8.34195 20.3229 8.40073 20.3099 8.45236 20.3116C8.49843 20.3132 8.52477 20.326 8.5259 20.3265L8.33149 20.7324L8.13708 21.1382C8.29367 21.2132 8.53055 21.2627 8.75907 21.1228L8.52408 20.739ZM8.33149 20.7324L8.5259 20.3265L8.41171 20.2718L8.2173 20.6777L8.02289 21.0835L8.13708 21.1382L8.33149 20.7324ZM8.2173 20.6777L8.41171 20.2718L8.29753 20.2171L8.10311 20.623L7.9087 21.0288L8.02289 21.0835L8.2173 20.6777ZM8.10311 20.623L8.29753 20.2171C8.19318 20.1671 8.02991 20.123 7.85004 20.1879C7.67344 20.2517 7.57679 20.3864 7.52782 20.4849L7.93079 20.6852L8.33375 20.8855C8.32354 20.9061 8.275 20.9913 8.15584 21.0344C8.03341 21.0786 7.93692 21.0423 7.9087 21.0288L8.10311 20.623ZM7.93079 20.6852L7.52782 20.4849L7.46969 20.6019L7.87265 20.8022L8.27562 21.0025L8.33375 20.8855L7.93079 20.6852ZM7.87265 20.8022L7.46969 20.6019L7.41155 20.7188L7.81452 20.9191L8.21748 21.1194L8.27562 21.0025L7.87265 20.8022ZM7.81452 20.9191L7.41155 20.7188C7.4128 20.7163 7.43129 20.6789 7.48196 20.642C7.54067 20.5991 7.61464 20.5776 7.68622 20.5815L7.66139 21.0308L7.63656 21.4801C7.94747 21.4973 8.13418 21.287 8.21748 21.1194L7.81452 20.9191ZM7.66139 21.0308L7.68622 20.5815L7.59122 20.5763L7.5664 21.0256L7.54157 21.4749L7.63656 21.4801L7.66139 21.0308ZM7.5664 21.0256L7.59122 20.5763L7.49623 20.571L7.47141 21.0203L7.44658 21.4696L7.54157 21.4749L7.5664 21.0256ZM7.47141 21.0203L7.49623 20.571C7.42987 20.5673 7.36472 20.5644 7.30079 20.5623L7.28553 21.012L7.27027 21.4617C7.32753 21.4637 7.38629 21.4663 7.44658 21.4696L7.47141 21.0203ZM7.28553 21.012L7.30079 20.5623L7.20991 20.5592L7.19465 21.0089L7.17939 21.4587L7.27027 21.4617L7.28553 21.012ZM7.19465 21.0089L7.20991 20.5592L7.11903 20.5561L7.10377 21.0058L7.0885 21.4556L7.17939 21.4587L7.19465 21.0089ZM7.10377 21.0058L7.11903 20.5561C7.08534 20.5549 7.0521 20.5508 7.01901 20.5437L6.92389 20.9835L6.82876 21.4233C6.91433 21.4418 7.00101 21.4526 7.0885 21.4556L7.10377 21.0058ZM6.92389 20.9835L7.01901 20.5437L6.93002 20.5244L6.83489 20.9642L6.73977 21.4041L6.82876 21.4233L6.92389 20.9835ZM6.83489 20.9642L6.93002 20.5244L6.84102 20.5052L6.7459 20.945L6.65077 21.3848L6.73977 21.4041L6.83489 20.9642ZM6.7459 20.945L6.84102 20.5052C6.78021 20.492 6.71427 20.4781 6.64328 20.4634L6.55202 20.904L6.46076 21.3447C6.52961 21.3589 6.59293 21.3723 6.65077 21.3848L6.7459 20.945ZM6.55202 20.904L6.64328 20.4634L6.53839 20.4417L6.44713 20.8823L6.35588 21.323L6.46076 21.3447L6.55202 20.904ZM6.44713 20.8823L6.53839 20.4417L6.43351 20.4199L6.34225 20.8606L6.25099 21.3012L6.35588 21.323L6.44713 20.8823ZM6.34225 20.8606L6.43351 20.4199C6.46348 20.4261 6.51152 20.4435 6.55787 20.4854C6.6045 20.5276 6.62741 20.5748 6.63715 20.6069L6.20663 20.7379L5.77611 20.8688C5.80635 20.9682 5.8621 21.0696 5.95394 21.1527C6.04549 21.2356 6.15109 21.2806 6.25099 21.3012L6.34225 20.8606ZM6.20663 20.7379L6.63715 20.6069L6.60642 20.5059L6.1759 20.6368L5.74538 20.7678L5.77611 20.8688L6.20663 20.7379ZM6.1759 20.6368L6.60642 20.5059L6.57569 20.4049L6.14517 20.5358L5.71465 20.6668L5.74538 20.7678L6.1759 20.6368ZM6.14517 20.5358L6.57569 20.4049C6.55898 20.3499 6.54668 20.3008 6.53808 20.2572L6.09658 20.3443L5.65509 20.4314C5.67029 20.5084 5.69038 20.587 5.71465 20.6668L6.14517 20.5358ZM6.09658 20.3443L6.53808 20.2572L6.52022 20.1666L6.07872 20.2537L5.63723 20.3408L5.65509 20.4314L6.09658 20.3443ZM6.07872 20.2537L6.52022 20.1666L6.50236 20.0761L6.06086 20.1632L5.61937 20.2503L5.63723 20.3408L6.07872 20.2537ZM6.06086 20.1632L6.50236 20.0761C6.48197 19.9727 6.44697 19.8742 6.39905 19.7813L5.99912 19.9876L5.5992 20.1939C5.60979 20.2144 5.61595 20.2329 5.61937 20.2503L6.06086 20.1632ZM5.99912 19.9876L6.39905 19.7813L6.35516 19.6962L5.95524 19.9025L5.55531 20.1088L5.5992 20.1939L5.99912 19.9876ZM5.95524 19.9025L6.35516 19.6962L6.31128 19.6111L5.91135 19.8174L5.51143 20.0238L5.55531 20.1088L5.95524 19.9025ZM5.91135 19.8174L6.31128 19.6111C6.31111 19.6108 6.31213 19.6128 6.31314 19.6166C6.31418 19.6206 6.31473 19.6247 6.31482 19.6282L5.86498 19.6403L5.41514 19.6525C5.4187 19.7842 5.45242 19.9094 5.51143 20.0238L5.91135 19.8174ZM5.86498 19.6403L6.31482 19.6282L6.31233 19.5362L5.86249 19.5483L5.41266 19.5605L5.41514 19.6525L5.86498 19.6403ZM5.86249 19.5483L6.31233 19.5362L6.30985 19.4441L5.86001 19.4563L5.41017 19.4685L5.41266 19.5605L5.86249 19.5483ZM5.86001 19.4563L6.30985 19.4441C6.30789 19.3718 6.30328 19.2996 6.296 19.2277L5.84829 19.273L5.40057 19.3183C5.40561 19.3681 5.40881 19.4181 5.41017 19.4685L5.86001 19.4563ZM5.84829 19.273L6.296 19.2277L6.28677 19.1364L5.83905 19.1817L5.39133 19.227L5.40057 19.3183L5.84829 19.273ZM5.83905 19.1817L6.28677 19.1364L6.27754 19.0451L5.82982 19.0904L5.3821 19.1357L5.39133 19.227L5.83905 19.1817ZM5.82982 19.0904L6.27754 19.0451C6.2798 19.0675 6.27797 19.0901 6.27276 19.1106C6.26771 19.1305 6.26085 19.1431 6.25772 19.1482L5.87544 18.9108L5.49316 18.6733C5.41149 18.8049 5.36463 18.9629 5.3821 19.1357L5.82982 19.0904ZM5.87544 18.9108L6.25772 19.1482L6.31258 19.0598L5.9303 18.8224L5.54802 18.585L5.49316 18.6733L5.87544 18.9108ZM5.9303 18.8224L6.31258 19.0598L6.36743 18.9715L5.98515 18.7341L5.60287 18.4967L5.54802 18.585L5.9303 18.8224ZM5.98515 18.7341L6.36743 18.9715C6.45588 18.8291 6.5 18.6556 6.46464 18.4702L6.02261 18.5546L5.58058 18.6389C5.5754 18.6118 5.5754 18.582 5.58143 18.5531C5.58728 18.5251 5.59707 18.506 5.60287 18.4967L5.98515 18.7341ZM6.02261 18.5546L6.46464 18.4702L6.44724 18.379L6.00521 18.4634L5.56318 18.5477L5.58058 18.6389L6.02261 18.5546ZM6.00521 18.4634L6.44724 18.379L6.42984 18.2879L5.98781 18.3722L5.54578 18.4565L5.56318 18.5477L6.00521 18.4634ZM5.98781 18.3722L6.42984 18.2879C6.41596 18.2151 6.39904 18.1424 6.37917 18.0698L5.94512 18.1886L5.51107 18.3073C5.52492 18.358 5.53646 18.4077 5.54578 18.4565L5.98781 18.3722ZM5.94512 18.1886L6.37917 18.0698L6.35388 17.9774L5.91983 18.0961L5.48578 18.2149L5.51107 18.3073L5.94512 18.1886ZM5.91983 18.0961L6.35388 17.9774L6.32859 17.885L5.89454 18.0037L5.46049 18.1225L5.48578 18.2149L5.91983 18.0961ZM5.89454 18.0037L6.32859 17.885C6.32858 17.8849 6.32936 17.8879 6.32958 17.8932C6.32981 17.8986 6.32937 17.9043 6.32831 17.9097L5.88688 17.8222L5.44545 17.7348C5.4194 17.8664 5.42629 17.9975 5.46049 18.1225L5.89454 18.0037ZM5.88688 17.8222L6.32831 17.9097L6.34595 17.8206L5.90452 17.7332L5.46309 17.6458L5.44545 17.7348L5.88688 17.8222ZM5.90452 17.7332L6.34595 17.8206L6.36358 17.7316L5.92215 17.6441L5.48072 17.5567L5.46309 17.6458L5.90452 17.7332ZM5.92215 17.6441L6.36358 17.7316C6.37023 17.698 6.38003 17.6638 6.39342 17.6288L5.97319 17.4679L5.55295 17.3069C5.52181 17.3883 5.49758 17.4716 5.48072 17.5567L5.92215 17.6441ZM5.97319 17.4679L6.39342 17.6288L6.42682 17.5416L6.00659 17.3807L5.58636 17.2197L5.55295 17.3069L5.97319 17.4679ZM6.00659 17.3807L6.42682 17.5416L6.46022 17.4544L6.03999 17.2935L5.61976 17.1325L5.58636 17.2197L6.00659 17.3807ZM6.03999 17.2935L6.46022 17.4544C6.50723 17.3317 6.52525 17.2015 6.51173 17.0692L6.06406 17.115L5.61639 17.1608C5.61597 17.1566 5.61593 17.1511 5.61674 17.1451C5.61755 17.1391 5.61891 17.1347 5.61976 17.1325L6.03999 17.2935ZM6.06406 17.115L6.51173 17.0692L6.5024 16.978L6.05473 17.0237L5.60706 17.0695L5.61639 17.1608L6.06406 17.115ZM6.05473 17.0237L6.5024 16.978L6.49307 16.8867L6.0454 16.9325L5.59773 16.9783L5.60706 17.0695L6.05473 17.0237ZM6.0454 16.9325L6.49307 16.8867C6.49011 16.8578 6.49035 16.8301 6.49346 16.8033L6.04644 16.7516L5.59942 16.6999C5.5887 16.7925 5.58825 16.8855 5.59773 16.9783L6.0454 16.9325ZM6.04644 16.7516L6.49346 16.8033L6.50383 16.7136L6.05681 16.6619L5.60979 16.6102L5.59942 16.6999L6.04644 16.7516ZM6.05681 16.6619L6.50383 16.7136L6.5142 16.624L6.06718 16.5723L5.62016 16.5206L5.60979 16.6102L6.05681 16.6619ZM6.06718 16.5723L6.5142 16.624C6.51554 16.6124 6.51892 16.5983 6.52694 16.5805L6.11648 16.396L5.70602 16.2115C5.66214 16.3092 5.63265 16.4126 5.62016 16.5206L6.06718 16.5723ZM6.11648 16.396L6.52694 16.5805L6.56587 16.4938L6.15541 16.3094L5.74495 16.1249L5.70602 16.2115L6.11648 16.396ZM6.15541 16.3094L6.56587 16.4938L6.6048 16.4072L6.19434 16.2227L5.78388 16.0383L5.74495 16.1249L6.15541 16.3094ZM6.19434 16.2227L6.6048 16.4072C6.69653 16.2031 6.66836 15.9949 6.57808 15.8275L6.18202 16.0411L5.78595 16.2547C5.77812 16.2402 5.76478 16.2091 5.76175 16.1645C5.75858 16.1178 5.76793 16.0738 5.78388 16.0383L6.19434 16.2227ZM6.18202 16.0411L6.57808 15.8275L6.52683 15.7324L6.13076 15.9461L5.7347 16.1597L5.78595 16.2547L6.18202 16.0411ZM6.13076 15.9461L6.52683 15.7324L6.47557 15.6374L6.07951 15.851L5.68345 16.0647L5.7347 16.1597L6.13076 15.9461ZM6.07951 15.851L6.47557 15.6374C6.49615 15.6756 6.5188 15.7439 6.50549 15.8285C6.4927 15.9098 6.45396 15.9602 6.43558 15.9798L6.10774 15.6715L5.7799 15.3632C5.70853 15.4391 5.63859 15.5476 5.6164 15.6888C5.59368 15.8333 5.6287 15.9632 5.68345 16.0647L6.07951 15.851ZM6.10774 15.6715L6.43558 15.9798L6.51506 15.8952L6.18722 15.587L5.85938 15.2787L5.7799 15.3632L6.10774 15.6715ZM6.18722 15.587L6.51506 15.8952L6.59454 15.8107L6.26671 15.5024L5.93887 15.1942L5.85938 15.2787L6.18722 15.587ZM6.26671 15.5024L6.59454 15.8107C6.72019 15.6771 6.81584 15.478 6.77055 15.2412L6.32855 15.3257L5.88656 15.4103C5.87758 15.3633 5.88121 15.3129 5.89717 15.2673C5.91199 15.225 5.93229 15.2012 5.93887 15.1942L6.26671 15.5024ZM6.32855 15.3257L6.77055 15.2412L6.75291 15.149L6.31092 15.2335L5.86893 15.3181L5.88656 15.4103L6.32855 15.3257ZM6.31092 15.2335L6.75291 15.149L6.73528 15.0568L6.29329 15.1413L5.8513 15.2259L5.86893 15.3181L6.31092 15.2335ZM6.29329 15.1413L6.73528 15.0568C6.70093 14.8772 6.60224 14.7341 6.4744 14.632L6.19353 14.9835L5.91266 15.3351C5.9058 15.3297 5.89244 15.3173 5.87917 15.2963C5.8655 15.2746 5.85595 15.2502 5.8513 15.2259L6.29329 15.1413ZM6.19353 14.9835L6.4744 14.632L6.39227 14.5663L6.1114 14.9179L5.83054 15.2695L5.91266 15.3351L6.19353 14.9835ZM6.1114 14.9179L6.39227 14.5663L6.31014 14.5007L6.02928 14.8523L5.74841 15.2039L5.83054 15.2695L6.1114 14.9179ZM6.02928 14.8523L6.31014 14.5007C6.29994 14.4926 6.29619 14.4883 6.29645 14.4886C6.29678 14.489 6.3022 14.4952 6.30884 14.5078L5.91071 14.7175L5.51257 14.9273C5.57388 15.0437 5.66098 15.1341 5.74841 15.2039L6.02928 14.8523ZM5.91071 14.7175L6.30884 14.5078L6.2724 14.4386L5.87426 14.6484L5.47612 14.8581L5.51257 14.9273L5.91071 14.7175ZM5.87426 14.6484L6.2724 14.4386L6.23595 14.3694L5.83782 14.5792L5.43968 14.7889L5.47612 14.8581L5.87426 14.6484ZM5.83782 14.5792L6.23595 14.3694C6.21156 14.3231 6.18568 14.2741 6.15832 14.2223L5.76044 14.4325L5.36256 14.6428C5.38977 14.6943 5.41548 14.743 5.43968 14.7889L5.83782 14.5792ZM5.76044 14.4325L6.15832 14.2223L6.11738 14.1448L5.71951 14.3551L5.32163 14.5653L5.36256 14.6428L5.76044 14.4325ZM5.71951 14.3551L6.11738 14.1448L6.07645 14.0674L5.67857 14.2776L5.28069 14.4878L5.32163 14.5653L5.71951 14.3551ZM5.67857 14.2776L6.07645 14.0674C6.0103 13.9422 5.91457 13.843 5.80075 13.7704L5.55889 14.1499L5.31703 14.5294C5.31371 14.5273 5.30732 14.5226 5.29989 14.5147C5.29236 14.5067 5.28577 14.4974 5.28069 14.4878L5.67857 14.2776ZM5.55889 14.1499L5.80075 13.7704L5.72199 13.7202L5.48013 14.0997L5.23827 14.4792L5.31703 14.5294L5.55889 14.1499ZM5.48013 14.0997L5.72199 13.7202L5.64324 13.6701L5.40138 14.0495L5.15952 14.429L5.23827 14.4792L5.48013 14.0997ZM5.40138 14.0495L5.64324 13.6701C5.62966 13.6614 5.62088 13.6531 5.61435 13.6451L5.26569 13.9296L4.91704 14.2141C4.98642 14.2991 5.0681 14.3707 5.15952 14.429L5.40138 14.0495ZM5.26569 13.9296L5.61435 13.6451L5.55741 13.5753L5.20875 13.8598L4.8601 14.1443L4.91704 14.2141L5.26569 13.9296ZM5.20875 13.8598L5.55741 13.5753L5.50047 13.5055L5.15182 13.79L4.80316 14.0745L4.8601 14.1443L5.20875 13.8598ZM5.15182 13.79L5.50047 13.5055C5.53748 13.5509 5.55236 13.5965 5.55749 13.6257C5.56213 13.652 5.55873 13.6633 5.56048 13.6518L5.1156 13.5841L4.67072 13.5164C4.64786 13.6666 4.65044 13.8874 4.80316 14.0745L5.15182 13.79ZM5.1156 13.5841L5.56048 13.6518L5.5812 13.5157L5.13632 13.448L4.69144 13.3803L4.67072 13.5164L5.1156 13.5841ZM5.13632 13.448L5.5812 13.5157L5.60192 13.3796L5.15704 13.3119L4.71216 13.2441L4.69144 13.3803L5.13632 13.448ZM5.15704 13.3119L5.60192 13.3796C5.62675 13.2164 5.61644 12.9504 5.38727 12.767L5.10612 13.1184L4.82496 13.4698C4.76653 13.423 4.73325 13.3623 4.71949 13.31C4.70761 13.2649 4.71308 13.2381 4.71216 13.2441L5.15704 13.3119ZM5.10612 13.1184L5.38727 12.767L5.31563 12.7097L5.03448 13.0611L4.75332 13.4124L4.82496 13.4698L5.10612 13.1184ZM5.03448 13.0611L5.31563 12.7097L5.24399 12.6524L4.96284 13.0037L4.68168 13.3551L4.75332 13.4124L5.03448 13.0611ZM4.96284 13.0037L5.24399 12.6524C5.18093 12.6019 5.11448 12.5555 5.04489 12.513L4.81035 12.897L4.5758 13.2811C4.61401 13.3044 4.64922 13.3291 4.68168 13.3551L4.96284 13.0037ZM4.81035 12.897L5.04489 12.513L4.96404 12.4636L4.72949 12.8477L4.49495 13.2317L4.5758 13.2811L4.81035 12.897ZM4.72949 12.8477L4.96404 12.4636L4.88319 12.4142L4.64864 12.7983L4.4141 13.1823L4.49495 13.2317L4.72949 12.8477ZM4.64864 12.7983L4.88319 12.4142C4.86041 12.4003 4.84298 12.386 4.82915 12.3716L4.50516 12.6839L4.18117 12.9962C4.25085 13.0685 4.32908 13.1304 4.4141 13.1823L4.64864 12.7983ZM4.50516 12.6839L4.82915 12.3716L4.76652 12.3067L4.44253 12.619L4.11854 12.9313L4.18117 12.9962L4.50516 12.6839ZM4.44253 12.619L4.76652 12.3067L4.70389 12.2417L4.3799 12.554L4.05591 12.8663L4.11854 12.9313L4.44253 12.619ZM4.3799 12.554L4.70389 12.2417C4.6656 12.202 4.628 12.1616 4.59107 12.1207L4.25685 12.422L3.92263 12.7233C3.96626 12.7717 4.01068 12.8194 4.05591 12.8663L4.3799 12.554ZM4.25685 12.422L4.59107 12.1207L4.53065 12.0537L4.19643 12.355L3.86221 12.6563L3.92263 12.7233L4.25685 12.422ZM4.19643 12.355L4.53065 12.0537L4.47023 11.9866L4.13601 12.288L3.80179 12.5893L3.86221 12.6563L4.19643 12.355ZM4.13601 12.288L4.47023 11.9866C4.46845 11.9847 4.46526 11.9807 4.46147 11.9709L4.04162 12.1329L3.62177 12.2948C3.66328 12.4024 3.723 12.5019 3.80179 12.5893L4.13601 12.288ZM4.04162 12.1329L4.46147 11.9709L4.4275 11.8829L4.00765 12.0448L3.58779 12.2068L3.62177 12.2948L4.04162 12.1329ZM4.00765 12.0448L4.4275 11.8829L4.39353 11.7948L3.97368 11.9567L3.55382 12.1187L3.58779 12.2068L4.00765 12.0448ZM3.97368 11.9567L4.39353 11.7948C4.32612 11.62 4.19784 11.4931 4.04119 11.4187L3.84807 11.8251L3.65494 12.2316C3.64157 12.2252 3.62086 12.2126 3.59975 12.1905C3.57821 12.1679 3.56301 12.1425 3.55382 12.1187L3.97368 11.9567ZM3.84807 11.8251L4.04119 11.4187L3.94955 11.3751L3.75643 11.7816L3.5633 12.188L3.65494 12.2316L3.84807 11.8251ZM3.75643 11.7816L3.94955 11.3751L3.85792 11.3316L3.66479 11.738L3.47167 12.1445L3.5633 12.188L3.75643 11.7816ZM3.66479 11.738L3.85792 11.3316C3.90206 11.3526 3.95678 11.3945 3.99383 11.4633C4.02866 11.5279 4.03019 11.5834 4.02893 11.6055L3.57965 11.58L3.13037 11.5546C3.12478 11.653 3.13834 11.773 3.20154 11.8903C3.26698 12.0117 3.36643 12.0945 3.47167 12.1445L3.66479 11.738ZM3.57965 11.58L4.02893 11.6055L4.03542 11.4911L3.58614 11.4656L3.13686 11.4401L3.13037 11.5546L3.57965 11.58ZM3.58614 11.4656L4.03542 11.4911L4.04192 11.3766L3.59264 11.3511L3.14336 11.3256L3.13686 11.4401L3.58614 11.4656ZM3.59264 11.3511L4.04192 11.3766C4.04828 11.2646 4.0276 11.1288 3.94264 11.0034C3.85806 10.8786 3.7406 10.8094 3.63646 10.7734L3.48939 11.1987L3.34233 11.624C3.31135 11.6133 3.24767 11.5822 3.19751 11.5082C3.14696 11.4336 3.14133 11.3614 3.14336 11.3256L3.59264 11.3511ZM3.48939 11.1987L3.63646 10.7734L3.52672 10.7355L3.37966 11.1608L3.23259 11.5861L3.34233 11.624L3.48939 11.1987ZM3.37966 11.1608L3.52672 10.7355L3.41699 10.6975L3.26992 11.1228L3.12285 11.5481L3.23259 11.5861L3.37966 11.1608ZM3.26992 11.1228L3.41699 10.6975C3.45174 10.7096 3.54507 10.7531 3.60128 10.869C3.65557 10.9809 3.63343 11.075 3.62594 11.0997L3.19532 10.9691L2.7647 10.8384C2.73378 10.9403 2.71236 11.0986 2.79152 11.2618C2.87259 11.4289 3.01493 11.5108 3.12285 11.5481L3.26992 11.1228ZM3.19532 10.9691L3.62594 11.0997L3.66108 10.9839L3.23046 10.8532L2.79984 10.7226L2.7647 10.8384L3.19532 10.9691ZM3.23046 10.8532L3.66108 10.9839L3.69622 10.8681L3.2656 10.7374L2.83498 10.6068L2.79984 10.7226L3.23046 10.8532ZM3.2656 10.7374L3.69622 10.8681C3.73193 10.7504 3.74191 10.5972 3.66953 10.4437C3.59982 10.2959 3.4825 10.2092 3.38577 10.1604L3.18294 10.5621L2.9801 10.9638C2.96192 10.9546 2.89764 10.917 2.85549 10.8276C2.81066 10.7325 2.82271 10.6472 2.83498 10.6068L3.2656 10.7374ZM3.18294 10.5621L3.38577 10.1604L3.26797 10.1009L3.06513 10.5026L2.86229 10.9043L2.9801 10.9638L3.18294 10.5621ZM3.06513 10.5026L3.26797 10.1009L3.15016 10.0414L2.94732 10.4431L2.74449 10.8448L2.86229 10.9043L3.06513 10.5026ZM2.94732 10.4431L3.15016 10.0414C3.15579 10.0443 3.2417 10.0869 3.28969 10.2054C3.34586 10.3441 3.30219 10.4613 3.27619 10.5075L2.88401 10.2868L2.49184 10.0661C2.42951 10.1769 2.37822 10.3524 2.45549 10.5432C2.52459 10.7138 2.66031 10.8023 2.74449 10.8448L2.94732 10.4431ZM2.88401 10.2868L3.27619 10.5075L3.33068 10.4106L2.93851 10.1899L2.54633 9.96926L2.49184 10.0661L2.88401 10.2868ZM2.93851 10.1899L3.33068 10.4106L3.38518 10.3138L2.993 10.0931L2.60083 9.87241L2.54633 9.96926L2.93851 10.1899ZM2.993 10.0931L3.38518 10.3138C3.40469 10.2791 3.41963 10.2622 3.42649 10.2555L3.11312 9.93258L2.79974 9.60962C2.71912 9.68786 2.65398 9.77796 2.60083 9.87241L2.993 10.0931ZM3.11312 9.93258L3.42649 10.2555L3.4921 10.1919L3.17873 9.86892L2.86536 9.54596L2.79974 9.60962L3.11312 9.93258ZM3.17873 9.86892L3.4921 10.1919L3.55771 10.1282L3.24434 9.80525L2.93097 9.48229L2.86536 9.54596L3.17873 9.86892ZM3.24434 9.80525L3.55771 10.1282C3.62822 10.0598 3.69383 9.97882 3.74336 9.8834L3.34397 9.67607L2.94457 9.46873C2.94876 9.46067 2.94796 9.46581 2.93097 9.48229L3.24434 9.80525ZM3.34397 9.67607L3.74336 9.8834L3.77737 9.81788L3.37798 9.61055L2.97858 9.40322L2.94457 9.46873L3.34397 9.67607ZM3.37798 9.61055L3.77737 9.81788L3.81138 9.75237L3.41199 9.54504L3.01259 9.3377L2.97858 9.40322L3.37798 9.61055ZM3.41199 9.54504L3.81138 9.75237C3.86387 9.65126 3.89202 9.54112 3.90905 9.44234L3.46559 9.36588L3.02213 9.28942C3.01798 9.31347 3.01402 9.32931 3.01127 9.3385C3.0084 9.34809 3.00802 9.34651 3.01259 9.3377L3.41199 9.54504ZM3.46559 9.36588L3.90905 9.44234L3.92864 9.3287L3.48518 9.25224L3.04172 9.17578L3.02213 9.28942L3.46559 9.36588ZM3.48518 9.25224L3.92864 9.3287L3.94824 9.21506L3.50478 9.1386L3.06132 9.06214L3.04172 9.17578L3.48518 9.25224ZM3.50478 9.1386L3.94824 9.21506C3.9483 9.21472 3.94692 9.22283 3.94048 9.2358C3.93378 9.24933 3.92368 9.26385 3.91041 9.27683L3.59573 8.95516L3.28104 8.63348C3.15571 8.75608 3.08787 8.90813 3.06132 9.06214L3.50478 9.1386ZM3.59573 8.95516L3.91041 9.27683L3.98177 9.20703L3.66708 8.88535L3.3524 8.56367L3.28104 8.63348L3.59573 8.95516ZM3.66708 8.88535L3.98177 9.20703L4.05312 9.13722L3.73844 8.81555L3.42375 8.49387L3.3524 8.56367L3.66708 8.88535ZM3.73844 8.81555L4.05312 9.13722C4.02778 9.16201 3.99058 9.1865 3.94375 9.20003C3.89837 9.21315 3.86165 9.21091 3.84204 9.2076L3.9171 8.7639L3.99216 8.3202C3.79359 8.28661 3.5846 8.33652 3.42375 8.49387L3.73844 8.81555ZM3.9171 8.7639L3.84204 9.2076L3.94935 9.22575L4.02442 8.78205L4.09948 8.33835L3.99216 8.3202L3.9171 8.7639ZM4.02442 8.78205L3.94935 9.22575L4.05667 9.24391L4.13173 8.80021L4.20679 8.35651L4.09948 8.33835L4.02442 8.78205ZM4.13173 8.80021L4.05667 9.24391C4.24893 9.27643 4.45224 9.23216 4.61429 9.08583L4.31271 8.75184L4.01112 8.41785C4.03626 8.39515 4.07159 8.3739 4.11445 8.36245C4.15597 8.35135 4.18915 8.35352 4.20679 8.35651L4.13173 8.80021ZM4.31271 8.75184L4.61429 9.08583L4.68796 9.01931L4.38637 8.68532L4.08479 8.35134L4.01112 8.41785L4.31271 8.75184ZM4.38637 8.68532L4.68796 9.01931L4.76162 8.9528L4.46004 8.61881L4.15845 8.28482L4.08479 8.35134L4.38637 8.68532ZM4.46004 8.61881L4.76162 8.9528C4.78151 8.93483 4.79901 8.92364 4.81403 8.91633L4.61713 8.51169L4.42024 8.10705C4.32402 8.15387 4.23678 8.21409 4.15845 8.28482L4.46004 8.61881ZM4.61713 8.51169L4.81403 8.91633L4.89746 8.87574L4.70057 8.47109L4.50367 8.06645L4.42024 8.10705L4.61713 8.51169ZM4.70057 8.47109L4.89746 8.87574L4.98089 8.83514L4.784 8.4305L4.5871 8.02586L4.50367 8.06645L4.70057 8.47109ZM4.784 8.4305L4.98089 8.83514C4.97643 8.83731 4.97047 8.8395 4.96363 8.84096C4.95684 8.8424 4.95152 8.84261 4.94864 8.84252L4.96203 8.39272L4.97542 7.94291C4.84116 7.93892 4.70949 7.9663 4.5871 8.02586L4.784 8.4305ZM4.96203 8.39272L4.94864 8.84252L5.04324 8.84534L5.05663 8.39553L5.07002 7.94573L4.97542 7.94291L4.96203 8.39272ZM5.05663 8.39553L5.04324 8.84534L5.13784 8.84816L5.15123 8.39835L5.16463 7.94855L5.07002 7.94573L5.05663 8.39553ZM5.15123 8.39835L5.13784 8.84816C5.19136 8.84975 5.24509 8.85305 5.29905 8.85808L5.34082 8.41002L5.38259 7.96196C5.3099 7.95519 5.23724 7.95071 5.16463 7.94855L5.15123 8.39835ZM5.34082 8.41002L5.29905 8.85808L5.39404 8.86694L5.43581 8.41888L5.47758 7.97082L5.38259 7.96196L5.34082 8.41002ZM5.43581 8.41888L5.39404 8.86694L5.48903 8.87579L5.5308 8.42773L5.57257 7.97967L5.47758 7.97082L5.43581 8.41888ZM5.5308 8.42773L5.48903 8.87579C5.64209 8.89006 5.79301 8.85897 5.9288 8.78226L5.70748 8.39045L5.48616 7.99863C5.49741 7.99227 5.51222 7.98619 5.52954 7.98254C5.54679 7.97889 5.56176 7.97867 5.57257 7.97967L5.5308 8.42773ZM5.70748 8.39045L5.9288 8.78226L6.01049 8.73612L5.78917 8.3443L5.56785 7.95249L5.48616 7.99863L5.70748 8.39045ZM5.78917 8.3443L6.01049 8.73612L6.09218 8.68997L5.87086 8.29816L5.64954 7.90634L5.56785 7.95249L5.78917 8.3443ZM5.87086 8.29816L6.09218 8.68997C6.10391 8.68335 6.11243 8.68082 6.11922 8.67963L6.04136 8.23641L5.9635 7.7932C5.85188 7.81281 5.74672 7.85145 5.64954 7.90634L5.87086 8.29816ZM6.04136 8.23641L6.11922 8.67963L6.20803 8.66403L6.13017 8.22081L6.05232 7.7776L5.9635 7.7932L6.04136 8.23641ZM6.13017 8.22081L6.20803 8.66403L6.29685 8.64843L6.21899 8.20521L6.14113 7.762L6.05232 7.7776L6.13017 8.22081ZM6.21899 8.20521L6.29685 8.64843C6.28653 8.65024 6.27815 8.65023 6.27286 8.64979C6.26783 8.64937 6.26734 8.6487 6.27206 8.65019L6.40741 8.22102L6.54276 7.79186C6.41839 7.75263 6.28201 7.73725 6.14113 7.762L6.21899 8.20521ZM6.40741 8.22102L6.27206 8.65019L6.37166 8.6816L6.50702 8.25244L6.64237 7.82328L6.54276 7.79186L6.40741 8.22102ZM6.50702 8.25244L6.37166 8.6816L6.47127 8.71302L6.60663 8.28386L6.74198 7.85469L6.64237 7.82328L6.50702 8.25244ZM6.60663 8.28386L6.47127 8.71302C6.56564 8.74278 6.66241 8.76316 6.76094 8.77183L6.80039 8.32356L6.83983 7.87528C6.81283 7.87291 6.78042 7.86682 6.74198 7.85469L6.60663 8.28386ZM6.80039 8.32356L6.76094 8.77183L6.8551 8.78011L6.89454 8.33184L6.93399 7.88357L6.83983 7.87528L6.80039 8.32356ZM6.89454 8.33184L6.8551 8.78011L6.94925 8.7884L6.9887 8.34013L7.02814 7.89185L6.93399 7.88357L6.89454 8.33184ZM6.9887 8.34013L6.94925 8.7884C7.24168 8.81413 7.43561 8.63351 7.533 8.4762L7.15039 8.23932L6.76777 8.00245C6.76965 7.99942 6.78969 7.96739 6.83813 7.9372C6.89332 7.90279 6.96144 7.88598 7.02814 7.89185L6.9887 8.34013ZM7.15039 8.23932L7.533 8.4762L7.60054 8.36711L7.21792 8.13024L6.83531 7.89336L6.76777 8.00245L7.15039 8.23932ZM7.21792 8.13024L7.60054 8.36711L7.66807 8.25802L7.28546 8.02115L6.90285 7.78427L6.83531 7.89336L7.21792 8.13024ZM7.28546 8.02115L7.66807 8.25802C7.66677 8.26013 7.64839 8.28978 7.60341 8.31879C7.55233 8.35175 7.48746 8.3703 7.4213 8.36659L7.44646 7.91729L7.47161 7.46799C7.18529 7.45197 6.99799 7.63059 6.90285 7.78427L7.28546 8.02115ZM7.44646 7.91729L7.4213 8.36659L7.51476 8.37182L7.53992 7.92252L7.56507 7.47322L7.47161 7.46799L7.44646 7.91729ZM7.53992 7.92252L7.51476 8.37182L7.60823 8.37706L7.63338 7.92776L7.65853 7.47846L7.56507 7.47322L7.53992 7.92252ZM7.63338 7.92776L7.60823 8.37706C7.62974 8.37826 7.66211 8.38311 7.70697 8.39637L7.83454 7.96483L7.96211 7.53328C7.86336 7.50409 7.76162 7.48423 7.65853 7.47846L7.63338 7.92776ZM7.83454 7.96483L7.70697 8.39637L7.81468 8.42821L7.94224 7.99666L8.06981 7.56512L7.96211 7.53328L7.83454 7.96483ZM7.94224 7.99666L7.81468 8.42821L7.92238 8.46004L8.04995 8.0285L8.17752 7.59696L8.06981 7.56512L7.94224 7.99666ZM8.04995 8.0285L7.92238 8.46004C8.12162 8.51894 8.33811 8.49034 8.51707 8.35065L8.24019 7.99592L7.9633 7.64118C7.9893 7.62089 8.02769 7.6009 8.07539 7.59273C8.12184 7.58477 8.15817 7.59124 8.17752 7.59696L8.04995 8.0285ZM8.24019 7.99592L8.51707 8.35065L8.59961 8.28623L8.32272 7.9315L8.04584 7.57676L7.9633 7.64118L8.24019 7.99592ZM8.32272 7.9315L8.59961 8.28623L8.68214 8.22181L8.40526 7.86707L8.12837 7.51234L8.04584 7.57676L8.32272 7.9315ZM8.40526 7.86707L8.68214 8.22181C8.83471 8.10272 8.92154 7.93863 8.9503 7.76272L8.50619 7.69011L8.06209 7.61749C8.06357 7.60841 8.06816 7.58994 8.08087 7.56767C8.09391 7.5448 8.11097 7.52592 8.12837 7.51234L8.40526 7.86707ZM8.50619 7.69011L8.9503 7.76272L8.9687 7.65018L8.52459 7.57756L8.08049 7.50495L8.06209 7.61749L8.50619 7.69011ZM8.52459 7.57756L8.9687 7.65018L8.9871 7.53763L8.543 7.46502L8.09889 7.3924L8.08049 7.50495L8.52459 7.57756ZM8.543 7.46502L8.9871 7.53763C8.98511 7.54982 8.97832 7.57794 8.95692 7.61129C8.93447 7.64626 8.9042 7.67399 8.87252 7.69233L8.64707 7.30288L8.42162 6.91342C8.22932 7.02474 8.12921 7.207 8.09889 7.3924L8.543 7.46502ZM8.64707 7.30288L8.87252 7.69233L8.95819 7.64274L8.73274 7.25329L8.50729 6.86383L8.42162 6.91342L8.64707 7.30288ZM8.73274 7.25329L8.95819 7.64274L9.04386 7.59315L8.81841 7.20369L8.59296 6.81424L8.50729 6.86383L8.73274 7.25329ZM8.81841 7.20369L9.04386 7.59315C9.10769 7.5562 9.17127 7.51718 9.23461 7.47615L8.98994 7.09847L8.74527 6.7208C8.69413 6.75393 8.64335 6.78506 8.59296 6.81424L8.81841 7.20369ZM8.98994 7.09847L9.23461 7.47615L9.32048 7.42052L9.07581 7.04285L8.83114 6.66517L8.74527 6.7208L8.98994 7.09847ZM9.07581 7.04285L9.32048 7.42052L9.40634 7.3649L9.16167 6.98722L8.917 6.60954L8.83114 6.66517L9.07581 7.04285ZM9.16167 6.98722L9.40634 7.3649C9.51791 7.29262 9.6108 7.18049 9.65102 7.03273C9.68822 6.89613 9.66912 6.77063 9.64176 6.67898L9.21056 6.80767L8.77935 6.93636C8.77665 6.92733 8.76173 6.87307 8.78263 6.79631C8.80656 6.7084 8.86268 6.64474 8.917 6.60954L9.16167 6.98722ZM9.21056 6.80767L9.64176 6.67898L9.60478 6.55506L9.17357 6.68375L8.74236 6.81244L8.77935 6.93636L9.21056 6.80767ZM9.17357 6.68375L9.60478 6.55506L9.5678 6.43114L9.13659 6.55983L8.70538 6.68852L8.74236 6.81244L9.17357 6.68375ZM9.13659 6.55983L9.5678 6.43114C9.57023 6.43929 9.58477 6.49154 9.5653 6.56627C9.54292 6.65216 9.48905 6.71662 9.43406 6.75347L9.18352 6.37966L8.93299 6.00585C8.82205 6.0802 8.73238 6.19344 8.69436 6.33938C8.65925 6.47417 8.67829 6.59776 8.70538 6.68852L9.13659 6.55983ZM9.18352 6.37966L9.43406 6.75347L9.51798 6.69723L9.26744 6.32342L9.01691 5.94961L8.93299 6.00585L9.18352 6.37966ZM9.26744 6.32342L9.51798 6.69723L9.6019 6.64098L9.35136 6.26717L9.10083 5.89336L9.01691 5.94961L9.26744 6.32342ZM9.35136 6.26717L9.6019 6.64098C9.64378 6.61291 9.69765 6.57298 9.74603 6.52026C9.78425 6.47861 9.88259 6.36156 9.88587 6.18327L9.43594 6.175L8.98602 6.16674C8.98751 6.08563 9.01195 6.02331 9.03176 5.98547C9.05138 5.94801 9.07213 5.9235 9.08291 5.91176C9.10309 5.88976 9.11489 5.88394 9.10083 5.89336L9.35136 6.26717ZM9.43594 6.175L9.88587 6.18327L9.88653 6.14734L9.4366 6.13907L8.98668 6.13081L8.98602 6.16674L9.43594 6.175ZM9.4366 6.13907L9.88653 6.14734L9.88719 6.11141L9.43726 6.10315L8.98734 6.09488L8.98668 6.13081L9.4366 6.13907ZM9.43726 6.10315L9.88719 6.11141C9.88703 6.12003 9.88654 6.12459 9.88667 6.12318C9.88675 6.12231 9.8871 6.11895 9.88796 6.11253C9.88971 6.09948 9.89278 6.07983 9.89769 6.0523L9.45468 5.97328L9.01167 5.89425C9.00098 5.95418 8.98852 6.0305 8.98734 6.09488L9.43726 6.10315ZM9.45468 5.97328L9.89769 6.0523L9.91445 5.95836L9.47144 5.87933L9.02843 5.80031L9.01167 5.89425L9.45468 5.97328Z" fill="#FF5C39"/>
</svg>
