<svg width="28" height="28" viewBox="0 0 28 28" fill="none" xmlns="http://www.w3.org/2000/svg">
<path d="M13.7076 19.0085C15.1221 19.0085 16.4787 18.4466 17.4789 17.4464C18.4791 16.4462 19.041 15.0896 19.041 13.6751C19.041 12.2606 18.4791 10.9041 17.4789 9.90389C16.4787 8.9037 15.1221 8.3418 13.7076 8.3418V19.0085Z" fill="#B4B4B3"/>
<path d="M13.8076 8.00013C13.9297 7.98899 14.016 8.05739 14.0451 8.08138L14.0972 8.12305L14.1306 8.15221H14.1514L14.2035 8.15638C14.2349 8.15795 14.2675 8.15815 14.2993 8.15846H14.3514L14.4056 8.16055C14.4617 8.16116 14.5177 8.16771 14.5722 8.18138L14.6243 8.19388L14.6743 8.20638C14.7341 8.22137 14.7904 8.24647 14.8431 8.27721L14.891 8.3043L14.9035 8.31263L14.9201 8.30846L14.9764 8.29805C14.9878 8.29605 15.0074 8.29161 15.0347 8.2793L15.1639 8.22096L15.2493 8.1918C15.3093 8.17894 15.3754 8.17871 15.441 8.20013L15.5389 8.25013L15.5868 8.28346L15.6326 8.3168C15.652 8.3307 15.6704 8.34309 15.6889 8.35221L15.7389 8.37513L15.7868 8.40013C15.7943 8.40381 15.8032 8.4067 15.8139 8.40846L15.9264 8.42513L16.0326 8.4543L16.1306 8.5043L16.1764 8.53346L16.2222 8.56471C16.2551 8.58603 16.2881 8.60712 16.3201 8.6293L16.366 8.66055L16.4097 8.6918C16.4492 8.71911 16.4866 8.74903 16.5222 8.78138L16.5639 8.81888L16.6056 8.8543C16.6543 8.89865 16.6939 8.95066 16.7264 9.00638L16.7556 9.05846L16.7868 9.11055L16.8222 9.13346L16.841 9.14596H16.8931L16.9597 9.14388C17.0403 9.1434 17.1258 9.15987 17.2056 9.2043L17.3014 9.25846C17.3939 9.31006 17.4469 9.38898 17.4743 9.46888L17.4951 9.54805L17.516 9.68555L17.5368 9.71263L17.5701 9.75221C17.5896 9.77662 17.6083 9.80205 17.6285 9.82513L17.6639 9.86471L17.6972 9.90221C17.7051 9.91116 17.7146 9.92115 17.7264 9.9293L17.7722 9.96055L17.816 9.98971C17.8478 10.0116 17.8803 10.0355 17.9118 10.0585L17.9993 10.121C18.0553 10.1618 18.1036 10.2137 18.141 10.273L18.1681 10.3168L18.1972 10.3626C18.2212 10.4006 18.244 10.4411 18.2639 10.4814L18.3097 10.5772C18.3267 10.6117 18.3439 10.6465 18.3597 10.6814L18.3826 10.7293L18.3993 10.7689L18.4389 10.8022L18.4826 10.8376C18.5358 10.8817 18.5819 10.936 18.616 10.998L18.641 11.0439L18.666 11.0918C18.6764 11.1107 18.6894 11.1296 18.7035 11.148L18.7368 11.1918L18.7701 11.2335C18.8585 11.3487 18.8573 11.4816 18.8264 11.5835L18.8201 11.6064L18.8826 11.6668C18.9385 11.7333 18.972 11.8192 18.9701 11.9168L18.9681 11.923L19.0264 11.9564C19.0976 11.9962 19.175 12.0652 19.2097 12.1668L19.2285 12.2793V12.3335L19.2306 12.3897C19.2309 12.4228 19.2308 12.4558 19.2326 12.4876L19.2368 12.5418L19.2389 12.596C19.2414 12.6396 19.2422 12.6835 19.241 12.7272L19.2389 12.7814V12.8376C19.2384 12.8566 19.2381 12.8746 19.241 12.8918L19.2514 12.9439L19.2597 12.996C19.2607 13.0015 19.2639 13.011 19.2701 13.023L19.2951 13.0751L19.3222 13.1251C19.3598 13.1976 19.3733 13.2841 19.3514 13.3689C19.3313 13.4459 19.2873 13.5028 19.2493 13.5418L19.1951 13.598L19.1681 13.6251L19.191 13.646L19.2493 13.7022C19.2975 13.7479 19.3466 13.8104 19.3743 13.8897L19.3951 13.9751L19.4014 14.0314L19.4076 14.0855C19.4241 14.2325 19.3472 14.3346 19.2743 14.398C19.31 14.4441 19.3517 14.5125 19.3514 14.6043C19.3506 14.7422 19.2656 14.8296 19.2056 14.871L19.1431 14.9126L19.1076 14.9355L19.1014 14.9772C19.1013 14.9787 19.1018 14.9812 19.1014 14.9835L19.1035 14.9772L19.1181 15.0376L19.1347 15.098C19.1663 15.2156 19.1457 15.3424 19.0597 15.4439L19.0222 15.4876L18.9826 15.5335C18.9586 15.5617 18.9349 15.5894 18.9118 15.6168L18.941 15.6793C18.9664 15.7334 18.9945 15.8226 18.966 15.9251C18.9346 16.0366 18.8537 16.103 18.7868 16.1355L18.7243 16.1647L18.6868 16.1814L18.6847 16.1918L18.6681 16.2251L18.6722 16.2897L18.6785 16.3543C18.6839 16.4263 18.6681 16.5131 18.6097 16.5897C18.5542 16.6625 18.4806 16.6976 18.4222 16.7147L18.3514 16.7355L18.3243 16.7418L18.3056 16.7835C18.2766 16.8406 18.2385 16.8925 18.1931 16.9376L18.1556 16.9751L18.116 17.0126C18.081 17.0472 18.0404 17.0739 17.9993 17.1001L18.0181 17.1751C18.0303 17.2278 18.0465 17.3399 17.9785 17.446C17.9004 17.567 17.7739 17.5909 17.7035 17.5918H17.6431C17.5929 17.7056 17.4994 17.7696 17.3972 17.796L17.3993 17.8189C17.4016 17.8758 17.3967 18.0068 17.2826 18.098C17.169 18.189 17.0393 18.1665 16.9847 18.1522L16.9264 18.1355C16.9011 18.1761 16.8762 18.2172 16.8431 18.2522L16.7681 18.3314C16.7408 18.3602 16.7132 18.3889 16.6847 18.4168L16.6451 18.4543L16.6056 18.4939C16.4947 18.6023 16.3528 18.6087 16.2472 18.5835L16.2076 18.573V18.5751C16.1408 18.6619 16.0431 18.7159 15.9306 18.7251L15.9118 18.7897C15.8941 18.8446 15.8519 18.9353 15.7556 18.9918C15.6485 19.0539 15.5386 19.038 15.4681 19.0105L15.4035 18.9835L15.3368 18.9585C15.3313 18.9563 15.328 18.9547 15.3264 18.9543L15.2847 18.9605H15.266L15.2472 18.9814L15.2035 19.021C15.1426 19.0774 15.0673 19.122 14.9785 19.1397L14.9243 19.1501L14.8722 19.1605C14.7843 19.1778 14.699 19.167 14.6222 19.1397L14.5639 19.1189L14.5514 19.1126V19.1147L14.5014 19.1376C14.4953 19.1404 14.4834 19.1475 14.466 19.1626L14.416 19.2064L14.366 19.248C14.3156 19.2919 14.2442 19.3331 14.1535 19.3376C14.0637 19.3421 13.9898 19.309 13.9368 19.273L13.8806 19.2355L13.8764 19.2314L13.8431 19.2439C13.825 19.2498 13.8093 19.2548 13.7972 19.2585C13.7917 19.2602 13.7852 19.2629 13.7785 19.2647C13.7752 19.2656 13.7687 19.2674 13.7618 19.2689C13.7584 19.2696 13.7522 19.2699 13.7451 19.271C13.74 19.2718 13.7239 19.2751 13.7035 19.2751H13.6951C13.6326 19.2749 13.5866 19.2521 13.5785 19.248C13.5633 19.2407 13.5509 19.2331 13.5451 19.2293C13.5331 19.2213 13.5234 19.2128 13.5181 19.2085C13.5062 19.1989 13.4922 19.1878 13.4806 19.1772L13.4493 19.148L13.4181 19.121C13.352 19.0612 13.3126 18.9731 13.316 18.8772C13.3191 18.7964 13.3519 18.7338 13.3764 18.696L13.4097 18.6418L13.4451 18.5876C13.4635 18.5592 13.4812 18.5314 13.4951 18.5043L13.5222 18.4522L13.5493 18.398C13.5572 18.3828 13.5616 18.3704 13.5639 18.3605L13.5576 18.3585L13.4889 18.3043C13.4203 18.2512 13.3299 18.1587 13.3118 18.021L13.3056 17.9689L13.2972 17.9147C13.2793 17.7771 13.3442 17.674 13.4076 17.6085C13.3752 17.5713 13.3409 17.5231 13.3264 17.4585C13.3013 17.346 13.3413 17.2481 13.391 17.1835L13.4222 17.1418L13.4139 17.123C13.3701 17.0102 13.3811 16.8935 13.4347 16.7939L13.4639 16.7397L13.4681 16.7335L13.4514 16.6793C13.4222 16.585 13.4271 16.4879 13.4618 16.398L13.4826 16.3439L13.5035 16.2918L13.5014 16.2376L13.4993 16.1855C13.4965 16.1199 13.5077 16.0556 13.5264 15.9939L13.4701 15.9501C13.4223 15.9091 13.3482 15.8241 13.3472 15.696C13.3465 15.5668 13.422 15.4814 13.4701 15.4397L13.5306 15.3855L13.5368 15.3793L13.5347 15.373C13.5276 15.3384 13.5212 15.3036 13.5139 15.2689L13.5014 15.2147L13.491 15.1626C13.4888 15.1523 13.4849 15.1376 13.4764 15.121L13.4493 15.0689L13.4222 15.0147C13.3933 14.9581 13.371 14.8977 13.3597 14.8335L13.3493 14.7793L13.341 14.7251C13.3285 14.6524 13.3313 14.5793 13.3493 14.5085L13.3639 14.4543L13.3764 14.4001C13.39 14.3472 13.4091 14.2956 13.4326 14.246L13.4576 14.1939L13.4826 14.1397C13.4873 14.1299 13.4888 14.124 13.4889 14.123L13.4931 14.0876L13.4722 14.0689L13.4201 14.0168C13.379 13.976 13.3314 13.913 13.3139 13.8272C13.2952 13.7347 13.3179 13.6495 13.3576 13.5835L13.3889 13.5293L13.4222 13.4751L13.4264 13.4272L13.4326 13.373L13.4597 13.2543C13.4736 13.2169 13.4932 13.1824 13.5139 13.1501L13.516 13.148L13.5056 13.1376C13.4463 13.062 13.3997 12.958 13.4139 12.8355L13.4201 12.7835L13.4264 12.7293C13.4328 12.6747 13.4443 12.621 13.4618 12.5689L13.466 12.5605L13.4243 12.5168C13.3722 12.4616 13.3136 12.3627 13.3347 12.2355C13.3539 12.1228 13.4271 12.0521 13.4722 12.0168C13.4294 11.9445 13.3979 11.8571 13.416 11.7543L13.4243 11.7001L13.4306 11.6668L13.416 11.6314L13.3951 11.5793C13.3605 11.4917 13.3544 11.3958 13.3806 11.3022L13.3951 11.248L13.3993 11.2335L13.391 11.2147L13.3681 11.1626C13.3328 11.0835 13.3266 10.9933 13.3576 10.9085C13.3854 10.8325 13.4352 10.7789 13.4764 10.7439L13.5389 10.6897L13.5618 10.671L13.5597 10.648C13.5562 10.6051 13.5533 10.5619 13.5535 10.5189V10.4647L13.5556 10.4251L13.5306 10.373L13.5035 10.3189C13.4895 10.2908 13.4733 10.2625 13.4556 10.2335L13.4222 10.1793L13.391 10.1251C13.3507 10.0592 13.3215 9.98317 13.316 9.89805L13.3118 9.84388L13.3097 9.78971C13.3013 9.65299 13.3761 9.56096 13.441 9.50013C13.4144 9.47012 13.3875 9.43377 13.3701 9.38763C13.3358 9.29612 13.3439 9.19949 13.3847 9.11888L13.4118 9.0668L13.4389 9.01263C13.4414 9.00769 13.4425 9.00415 13.4431 9.00221L13.4451 9.00013L13.4493 8.94596L13.4556 8.89388C13.4578 8.87175 13.4588 8.84919 13.4576 8.82721L13.4535 8.77513L13.4514 8.72096C13.4487 8.66801 13.4521 8.6151 13.4597 8.56263L13.466 8.50846L13.4743 8.4543C13.4825 8.39884 13.4973 8.344 13.5181 8.2918L13.5368 8.24388L13.5576 8.19388L13.6326 8.08138C13.6729 8.04216 13.7295 8.00742 13.8076 8.00013ZM13.7576 18.8064L13.7139 18.8543L13.7285 18.9001L13.7722 18.8522L13.7576 18.8064ZM13.7597 18.8668L13.7285 18.9001L13.7139 18.8543L13.7222 18.8439L13.7597 18.8668ZM13.7722 18.8522L13.7597 18.8668L13.7222 18.8439L13.7576 18.8064L13.7722 18.8522ZM13.9847 8.69388L13.9868 8.74596L13.9889 8.80013C13.9914 8.84921 13.9917 8.89912 13.9868 8.94805L13.9806 9.00013L13.9764 9.0543C13.9705 9.11224 13.9505 9.16544 13.9285 9.2168L13.9639 9.24596C14.0125 9.28485 14.1037 9.37714 14.0951 9.52305C14.0869 9.66055 13.9951 9.74159 13.9493 9.77513L13.8743 9.8293L13.8451 9.84805V9.85013L13.8785 9.90221L13.9097 9.9543C13.9352 9.99604 13.9593 10.0387 13.9806 10.0814L14.0076 10.1355L14.0347 10.1876C14.0687 10.256 14.0892 10.333 14.0889 10.4147L14.0868 10.4689V10.521C14.0867 10.5485 14.0887 10.5767 14.091 10.6043L14.0993 10.7126C14.1121 10.872 14.0179 10.9838 13.9472 11.0439L13.9076 11.0751C13.9396 11.1583 13.9497 11.249 13.9243 11.3397L13.9097 11.3918L13.9014 11.4126L13.9118 11.4355L13.9326 11.4897C13.9636 11.5681 13.975 11.653 13.9597 11.7397L13.9514 11.7793L13.9618 11.7939L14.0056 11.846C14.0573 11.9102 14.1 12.0117 14.0722 12.1293C14.0515 12.216 13.9978 12.2733 13.9556 12.3105C14.0114 12.3922 14.0462 12.5041 14.0035 12.6314L13.9868 12.6855L13.9681 12.7397C13.9619 12.7581 13.9574 12.7759 13.9556 12.7918L13.9493 12.8397L13.966 12.8626L14.0076 12.9168C14.0455 12.9652 14.0808 13.0317 14.0868 13.1147C14.0929 13.1998 14.067 13.2744 14.0306 13.3314L13.9972 13.3835L13.9618 13.4376L13.9576 13.4814L13.9535 13.5335C13.9462 13.6057 13.9192 13.6704 13.8868 13.7293L13.9035 13.7439C13.9711 13.811 14.0406 13.9201 14.0285 14.0626L14.0201 14.171C14.014 14.2405 13.9946 14.306 13.966 14.3668L13.916 14.4751C13.906 14.4963 13.8976 14.5156 13.8931 14.5335L13.8806 14.5855L13.866 14.6397L13.8764 14.6876L13.8847 14.7418C13.8859 14.7483 13.888 14.7591 13.8951 14.773L13.9243 14.8251L13.9514 14.8793C13.9791 14.9336 13.9991 14.9916 14.0118 15.0522L14.0243 15.1064L14.0347 15.1585C14.0423 15.1945 14.0503 15.2308 14.0576 15.2668L14.0681 15.321L14.0785 15.373C14.1073 15.514 14.0443 15.6214 13.9806 15.6918C14.0493 15.7671 14.116 15.8869 14.0681 16.0397L14.0347 16.148C14.0326 16.155 14.0325 16.1596 14.0326 16.1626L14.0347 16.2168L14.0368 16.2689C14.04 16.3437 14.0275 16.4162 14.0014 16.4835L13.9806 16.5376L13.9722 16.5564L13.9785 16.5751L13.9951 16.6272C14.0292 16.7372 14.0116 16.8471 13.9618 16.9397L13.9326 16.9918L13.9514 17.0376C13.9968 17.1546 13.9751 17.2655 13.9243 17.3543L14.0076 17.4501C14.0341 17.4937 14.0543 17.549 14.0535 17.6168C14.0519 17.7512 13.9697 17.8367 13.9222 17.8751L13.8639 17.9189L13.8847 17.9355L13.9535 17.9897C14.0275 18.047 14.1476 18.1749 14.1076 18.3626L14.0972 18.4168L14.0868 18.4689C14.0738 18.5297 14.0503 18.5873 14.0222 18.6418L13.9951 18.696L13.9931 18.698C14.0404 18.7104 14.0846 18.7291 14.1222 18.7543C14.1689 18.7146 14.2212 18.6807 14.2785 18.6543L14.3785 18.6085L14.4556 18.5814C14.482 18.5753 14.5085 18.5716 14.5347 18.571L14.6868 18.596L14.7431 18.6168L14.7889 18.6335L14.8222 18.6272L14.8514 18.621L14.8847 18.5897L14.9285 18.5501L15.0431 18.471C15.0854 18.4511 15.1324 18.4382 15.1826 18.4335L15.2368 18.4293L15.2889 18.423C15.3507 18.4173 15.4097 18.4273 15.4639 18.4418C15.5023 18.3435 15.5942 18.2086 15.7785 18.2001L15.8243 18.198L15.8556 18.1585L15.9347 18.0835C15.9654 18.0621 16.0004 18.0443 16.0389 18.0335C16.111 18.0133 16.1788 18.0186 16.2326 18.0314L16.2972 18.046L16.3097 18.0355C16.3335 18.0122 16.358 17.9886 16.3806 17.9647L16.4556 17.8855C16.4649 17.8757 16.4737 17.8617 16.4826 17.846L16.5118 17.796L16.5389 17.746C16.5848 17.6653 16.6605 17.6098 16.7493 17.5876C16.7906 17.5774 16.8302 17.5747 16.866 17.5772C16.8728 17.536 16.886 17.4901 16.9139 17.446C16.9727 17.3531 17.0661 17.3072 17.1535 17.296L17.1931 17.2897L17.2014 17.273C17.2551 17.1499 17.3555 17.0927 17.4493 17.071C17.4437 17.0281 17.4427 16.9779 17.4556 16.9251C17.4762 16.8403 17.5286 16.7631 17.6118 16.7147L17.6597 16.6855L17.7076 16.6585C17.7213 16.6505 17.7326 16.6418 17.741 16.6335L17.816 16.5585C17.8211 16.5534 17.8254 16.5478 17.8285 16.5418L17.8535 16.4939L17.8764 16.448L17.9285 16.3689C17.9877 16.3012 18.0647 16.2638 18.1326 16.2439L18.1368 16.2418C18.1344 16.1714 18.1426 16.0972 18.1743 16.0251L18.1951 15.9772L18.2181 15.9272L18.2597 15.8543C18.2949 15.806 18.3399 15.7716 18.3847 15.7439C18.3436 15.6459 18.3195 15.4952 18.4306 15.3626L18.466 15.3189L18.5035 15.2751C18.5275 15.2465 18.5514 15.217 18.5764 15.1876L18.5972 15.1605L18.5868 15.1168C18.5676 15.0454 18.5619 14.9673 18.5764 14.8876L18.5847 14.8355L18.5951 14.7835L18.6222 14.6939C18.6452 14.6437 18.6815 14.6063 18.716 14.573C18.6761 14.5239 18.6273 14.4456 18.6347 14.3397C18.6447 14.2033 18.7356 14.1221 18.791 14.0855L18.8431 14.0501L18.8243 14.0335L18.766 13.9793C18.7021 13.9188 18.6242 13.8165 18.6264 13.6751V13.571L18.641 13.4793C18.664 13.3946 18.7125 13.3278 18.7576 13.2814L18.7889 13.248C18.7644 13.1968 18.7445 13.1429 18.7347 13.0855L18.7243 13.0335L18.716 12.9814C18.7071 12.9291 18.7042 12.8761 18.7056 12.823V12.7668L18.7076 12.7126C18.7084 12.6841 18.7093 12.6556 18.7076 12.6272L18.7035 12.573L18.7014 12.5189C18.699 12.4784 18.6977 12.4372 18.6972 12.396L18.6951 12.3814L18.6347 12.3501C18.5381 12.2962 18.4316 12.1871 18.4347 12.0189V11.9835L18.3951 11.9543C18.3401 11.9116 18.2922 11.8493 18.2701 11.7689C18.2489 11.691 18.2592 11.6171 18.2764 11.5605L18.2951 11.4939V11.4918L18.2806 11.473C18.2504 11.4337 18.2231 11.3912 18.1993 11.348L18.1743 11.3022L18.1472 11.2543C18.1466 11.2534 18.1461 11.2506 18.1431 11.248L18.0556 11.1772C17.9976 11.1291 17.9503 11.0691 17.9181 10.998L17.8951 10.9501L17.8743 10.9001C17.861 10.8708 17.847 10.8417 17.8326 10.8126L17.8076 10.7647L17.7847 10.7168C17.773 10.6931 17.7591 10.6703 17.7451 10.648L17.7181 10.6022L17.6889 10.5564C17.6883 10.5555 17.6871 10.554 17.6847 10.5522L17.641 10.521L17.5972 10.4876C17.5698 10.4676 17.5414 10.4482 17.5139 10.4293L17.4701 10.398L17.4243 10.3689C17.3772 10.3364 17.3352 10.2976 17.2972 10.2543L17.2618 10.2147L17.2285 10.1751C17.2027 10.1457 17.176 10.1164 17.1514 10.0855L17.1181 10.0439L17.0868 10.0022C17.0278 9.92809 16.9985 9.84268 16.9868 9.76471L16.9764 9.69596L16.9743 9.68763L16.9556 9.67721L16.8951 9.6793H16.8285C16.7454 9.67978 16.652 9.66038 16.5681 9.6043L16.5243 9.57721L16.4826 9.54805C16.4156 9.50329 16.3639 9.44359 16.3264 9.3793L16.2951 9.32721L16.266 9.27513C16.2585 9.2622 16.2505 9.255 16.2451 9.25013L16.2056 9.21263L16.1639 9.17513C16.1456 9.15853 16.1254 9.14304 16.1056 9.1293L16.0618 9.09805L16.016 9.0668C15.9886 9.04789 15.9608 9.02877 15.9326 9.01055L15.841 8.95221H15.8431L15.7868 8.94388L15.7326 8.93555C15.6701 8.92573 15.6087 8.90748 15.5514 8.8793L15.5035 8.8543L15.4535 8.83138C15.4074 8.80867 15.3643 8.78031 15.3222 8.75013L15.3076 8.73971L15.2535 8.76471C15.1946 8.79127 15.1321 8.81181 15.0681 8.82305L14.9556 8.84388C14.8582 8.86096 14.7587 8.84357 14.6701 8.7918L14.5743 8.73763C14.5634 8.73123 14.5539 8.72735 14.5451 8.72513L14.4931 8.71055L14.4431 8.69805C14.4291 8.69455 14.4138 8.69402 14.3993 8.69388L14.3472 8.6918H14.2931C14.2541 8.69141 14.2151 8.68957 14.1764 8.68763L14.1243 8.68555L14.0701 8.68346C14.0395 8.68186 14.0122 8.67018 13.9847 8.66263C13.9841 8.67291 13.9842 8.68372 13.9847 8.69388ZM17.0243 17.6585L16.9764 17.8335L17.0681 17.8314L17.1139 17.6564L17.0243 17.6585ZM17.0681 17.8314L16.9764 17.8335L16.9993 17.746L17.091 17.7418L17.0681 17.8314ZM17.091 17.7418L16.9993 17.746L17.0243 17.6585L17.1139 17.6564L17.091 17.7418Z" fill="#B4B4B3"/>
<path fill-rule="evenodd" clip-rule="evenodd" d="M13.7076 0.339844C6.3436 0.339844 0.374268 6.30918 0.374268 13.6732C0.374268 21.0372 6.3436 27.0065 13.7076 27.0065C21.0716 27.0065 27.0409 21.0372 27.0409 13.6732C27.0409 6.30918 21.0716 0.339844 13.7076 0.339844ZM13.7076 3.00651V8.33984C12.2931 8.33984 10.9366 8.90175 9.93636 9.90194C8.93617 10.9021 8.37427 12.2587 8.37427 13.6732C8.37427 15.0877 8.93617 16.4442 9.93636 17.4444C10.9366 18.4446 12.2931 19.0065 13.7076 19.0065V24.3398C16.5366 24.3398 19.2497 23.216 21.2501 21.2156C23.2505 19.2153 24.3743 16.5022 24.3743 13.6732C24.3743 10.8442 23.2505 8.13109 21.2501 6.1307C19.2497 4.13032 16.5366 3.00651 13.7076 3.00651Z" fill="#B4B4B3"/>
<path d="M14.2784 3.27109C14.2419 3.30744 14.192 3.35081 14.1222 3.37109C14.1155 3.37302 14.108 3.3717 14.1013 3.37318C14.1153 3.45895 14.1015 3.54588 14.0555 3.62318L14.0243 3.67526L13.993 3.72943C13.99 3.73448 13.9875 3.73795 13.9868 3.73984L13.9784 3.79401L13.9909 3.81068L14.0305 3.86276C14.09 3.94481 14.1282 4.05587 14.1034 4.17943L14.093 4.23151L14.0826 4.28568C14.0685 4.35586 14.041 4.42118 14.0055 4.47943L13.9722 4.53151L13.9409 4.58568C13.9302 4.60328 13.925 4.61742 13.9222 4.62734L13.9055 4.67734L13.9118 4.68776L13.9409 4.74193C13.9604 4.77613 13.9812 4.80978 14.0014 4.84401L14.0326 4.89818L14.0639 4.95026C14.1092 5.02728 14.1264 5.12634 14.093 5.22526C14.064 5.311 14.0069 5.36829 13.9639 5.40234L13.8972 5.45651L13.8805 5.46693L13.8826 5.47526C13.8815 5.46798 13.881 5.46825 13.8868 5.47734L13.9201 5.53151L13.9534 5.58359C13.9827 5.62992 14.0093 5.67792 14.0305 5.72734L14.0534 5.78151L14.0764 5.83359C14.1145 5.92239 14.1122 6.02098 14.0722 6.10651C14.0376 6.18041 13.9815 6.22929 13.9389 6.26068L13.9118 6.27943C13.93 6.32206 13.9457 6.36952 13.9451 6.42318C13.9442 6.49628 13.9179 6.55794 13.8868 6.60859L13.8972 6.62109C13.936 6.6671 13.97 6.71605 13.9993 6.76693L14.0305 6.81901L14.0618 6.87318C14.1166 6.96853 14.1347 7.08474 14.0951 7.20026L14.0764 7.25234L14.0576 7.30651C14.0379 7.36394 14.0109 7.41806 13.9784 7.46901L13.9451 7.52318L13.9097 7.57734C13.904 7.58637 13.9045 7.58743 13.9055 7.58151L13.8972 7.63568L13.8889 7.68776V7.68984L13.9034 7.74401L13.9159 7.79609C13.9423 7.90414 13.9225 8.00893 13.8743 8.09609L13.8722 8.09818L13.8743 8.10026C13.9135 8.14809 13.9674 8.23725 13.9493 8.35443C13.9313 8.46906 13.855 8.53791 13.8076 8.57109L13.7555 8.60859L13.7034 8.64401C13.6267 8.69769 13.5278 8.73355 13.4159 8.72109L13.3639 8.71484L13.3118 8.71068C13.2699 8.70601 13.2269 8.69978 13.1847 8.69193L13.1305 8.68151L13.0784 8.67109L13.0305 8.68359L12.9805 8.69609C12.9754 8.69735 12.9668 8.69865 12.9576 8.70443L12.9097 8.73568L12.8618 8.76484C12.7487 8.83555 12.6226 8.83563 12.5159 8.79401L12.3993 8.74818C12.378 8.73989 12.3587 8.73575 12.343 8.73359L12.2847 8.72526L12.2305 8.71693L12.1909 8.72943L12.1784 8.76068L12.1472 8.83151C12.1232 8.88612 12.0794 8.95928 11.9972 9.00651C11.9088 9.05715 11.815 9.05717 11.7409 9.03776L11.6764 9.02109L11.6493 9.01276L11.6514 9.01484L11.6055 9.03984C11.5373 9.07751 11.4639 9.08995 11.393 9.09193L11.3889 9.11693C11.3651 9.22148 11.2877 9.3765 11.0993 9.40859L11.043 9.41901L10.9868 9.42734C10.9645 9.43112 10.9438 9.43717 10.9243 9.44401L10.9055 9.45026L10.893 9.51276C10.8719 9.60434 10.8184 9.71108 10.7055 9.77734L10.6618 9.80443L10.6159 9.83151C10.589 9.84732 10.5611 9.86245 10.5347 9.87943L10.4909 9.90859L10.4493 9.93568L10.4222 9.97734L10.393 10.0232C10.3262 10.1238 10.2248 10.1756 10.1264 10.194L10.0847 10.2003L10.0784 10.2232C10.0518 10.2913 10.0105 10.3535 9.95552 10.4065L9.91802 10.444L9.87843 10.4794C9.81258 10.5427 9.73483 10.579 9.65968 10.5982C9.65736 10.7121 9.6122 10.8315 9.49718 10.9086L9.44927 10.9398L9.40135 10.9732C9.36494 10.9975 9.32622 11.021 9.28677 11.044L9.23468 11.0753L9.21802 11.0836L9.21593 11.0919L9.19927 11.144C9.18353 11.1949 9.16376 11.2449 9.13885 11.2919L9.11177 11.3398L9.09302 11.3753V11.4273L9.0951 11.4857C9.09525 11.5057 9.09595 11.5294 9.10135 11.5544L9.11593 11.6169L9.12843 11.6794C9.14146 11.7403 9.14373 11.8124 9.11593 11.8857C9.08781 11.9594 9.03781 12.0134 8.98677 12.0503L8.93468 12.0878L8.88677 12.1232L8.8701 12.1586L8.8451 12.2065C8.82891 12.2398 8.81404 12.275 8.79718 12.3086L8.77218 12.3565L8.74718 12.4065C8.72346 12.4537 8.69567 12.4991 8.66385 12.5419L8.65343 12.5544L8.67218 12.5898C8.70888 12.6644 8.73251 12.7551 8.7201 12.8544L8.71385 12.9065L8.7076 12.9607C8.70608 12.9731 8.70583 12.9861 8.7076 13.0003L8.71385 13.0544L8.72218 13.1086C8.73956 13.247 8.67685 13.3581 8.60552 13.4315L8.5576 13.4815L8.5201 13.519L8.51802 13.5273L8.53468 13.544L8.58052 13.5982C8.62144 13.6447 8.66246 13.7118 8.67218 13.7982C8.6821 13.8873 8.65517 13.9661 8.61802 14.0253L8.59718 14.0565L8.6076 14.0753C8.66723 14.1836 8.66979 14.3047 8.62635 14.4128L8.60552 14.4628L8.62635 14.5023C8.62653 14.5027 8.6313 14.5098 8.6451 14.5211L8.69718 14.5648L8.75135 14.6065C8.83919 14.6782 8.90879 14.7952 8.89302 14.9419L8.88885 14.9961L8.88468 15.0253L8.89718 15.0503L8.92218 15.0982C8.9694 15.1881 8.97924 15.2855 8.96385 15.3753L8.95343 15.4253L8.9826 15.4565C9.08816 15.5745 9.08846 15.7191 9.05343 15.8273L9.03052 15.8961L9.02427 15.9086L9.03885 15.9107L9.12843 15.9232C9.18045 15.9304 9.25136 15.9483 9.31593 15.994C9.35261 16.0201 9.38392 16.0533 9.4076 16.0919L9.45343 16.2232L9.46177 16.2982L9.51177 16.3482C9.61555 16.4493 9.63251 16.5788 9.6201 16.6794C9.65156 16.6915 9.68402 16.7038 9.71385 16.7232L9.81593 16.8169L9.84927 16.8565L9.8826 16.8982C9.91421 16.9376 9.93602 16.9802 9.95135 17.0232L9.97843 17.1503L9.99093 17.2836H9.9951L10.0722 17.2815L10.1784 17.2898C10.2171 17.2985 10.2577 17.3147 10.2972 17.3419C10.3818 17.4004 10.4223 17.4846 10.4368 17.5586L10.4493 17.6253L10.4514 17.6419L10.493 17.669C10.5265 17.6899 10.5606 17.7116 10.593 17.7336L10.6368 17.7628L10.6826 17.794C10.6967 17.8034 10.7117 17.8121 10.7284 17.819L10.7784 17.8398L10.8305 17.8607C10.886 17.8835 10.9318 17.9157 10.968 17.9544L11.0514 18.0857V18.0878H11.0555C11.1037 18.0838 11.1516 18.0827 11.1972 18.0815L11.318 18.0773L11.4722 18.1023C11.4972 18.1116 11.5218 18.1231 11.5451 18.1378L11.6118 18.1898L11.6909 18.269C11.7351 18.3122 11.7732 18.3607 11.8055 18.4128L11.8264 18.4482H11.8472L12.0055 18.4711L12.1409 18.5565L12.1847 18.5961L12.218 18.6253L12.2555 18.6357L12.3076 18.6482C12.339 18.6551 12.3718 18.6614 12.4034 18.6669L12.4555 18.6753L12.4701 18.6773L12.5118 18.6565L12.5743 18.6232L12.6868 18.5753C12.728 18.5635 12.7732 18.5578 12.8201 18.5586H12.8722L12.9243 18.5607C12.9642 18.5613 13.0056 18.562 13.0451 18.5648L13.0951 18.569L13.1472 18.5732C13.2601 18.5812 13.3477 18.6362 13.4097 18.6961C13.472 18.6586 13.5483 18.6369 13.6326 18.6482C13.6758 18.654 13.7142 18.6669 13.7472 18.6836L13.8326 18.7398L13.9576 18.8482C14.0261 18.9068 14.1152 19.0112 14.1138 19.1607V19.2148L14.1118 19.2669C14.1103 19.3993 14.0346 19.4895 13.9701 19.5482C14.0278 19.6211 14.0742 19.727 14.0451 19.8565L14.0201 19.9648C14.0132 19.9955 14.0067 20.026 14.0014 20.0565L13.993 20.1107L13.9868 20.1378L14.0034 20.1711L14.0264 20.2232C14.0542 20.2862 14.0711 20.3558 14.0743 20.4273L14.0764 20.4794L14.0805 20.5336C14.0833 20.5958 14.0749 20.6571 14.0597 20.7169L14.0472 20.7711L14.0326 20.8253C14.0267 20.8486 14.0225 20.8716 14.0201 20.894L14.0139 20.9482L14.0097 21.0003C14.0066 21.0285 14.0041 21.0575 14.0034 21.0857L14.0014 21.1378V21.1815L14.0513 21.2815C14.087 21.3547 14.0977 21.4411 14.0722 21.5273C14.0488 21.6065 14.0004 21.6627 13.9597 21.7003L13.9055 21.7503L13.9076 21.7523C13.9272 21.8222 13.9323 21.896 13.9222 21.969L13.9159 22.0211L13.9076 22.0753C13.8995 22.1333 13.8854 22.1899 13.8638 22.244L13.8555 22.2607L13.8868 22.3003C13.9267 22.3515 13.9615 22.4081 13.9868 22.469L14.0076 22.5232L14.0305 22.5753C14.068 22.6655 14.0743 22.7659 14.0451 22.8628L14.0284 22.9148L14.0347 22.9253L14.0618 22.9794C14.1026 23.0559 14.1172 23.1494 14.0868 23.2419C14.0691 23.2956 14.0372 23.336 14.0076 23.369C14.0515 23.417 14.102 23.4887 14.0993 23.5919C14.0954 23.7293 14.0064 23.8143 13.9597 23.8503L13.8909 23.9023L13.868 23.919L13.8701 23.9357C13.8717 23.9529 13.875 23.9709 13.8805 23.9898L13.8951 24.044L13.9034 24.069L13.9368 24.0961C13.9434 24.1013 13.959 24.1124 13.9868 24.1273L14.0409 24.1565L14.0909 24.1836L14.1389 24.1857L14.1909 24.1878C14.1982 24.188 14.2069 24.1862 14.2159 24.1836L14.2701 24.1669L14.3222 24.1523C14.3272 24.1508 14.3362 24.1468 14.3493 24.1378L14.4014 24.1023L14.4514 24.0669L14.5284 24.0253C14.5826 24.0029 14.6411 23.9935 14.7014 23.9982L14.793 24.0148L14.8034 24.019L14.8326 23.9919C14.8935 23.9324 14.977 23.8867 15.0743 23.8794L15.1763 23.8857L15.2305 23.8961L15.2847 23.9086C15.3633 23.9245 15.4342 23.9579 15.4951 23.9982L15.5055 24.0044C15.5489 23.9682 15.6039 23.9383 15.6701 23.9253C15.7436 23.9108 15.8122 23.9205 15.8701 23.9419L15.9305 23.9648L15.9368 23.9669L15.9784 23.944C15.9778 23.9444 15.9838 23.9425 15.993 23.9315L16.0347 23.8815L16.0784 23.8294L16.1472 23.7648C16.199 23.727 16.2605 23.7021 16.3284 23.6961L16.4347 23.7023L16.4909 23.7107L16.5305 23.6815C16.6419 23.5964 16.7674 23.5971 16.868 23.6294C16.8925 23.5835 16.93 23.5316 16.9888 23.4919C17.0639 23.4414 17.1507 23.426 17.2305 23.4378L17.2889 23.4461L17.3493 23.4565L17.4014 23.4419L17.4139 23.4211L17.4472 23.3607L17.5264 23.2648C17.5611 23.2358 17.6051 23.2132 17.6576 23.2003C17.7066 23.1882 17.7526 23.1874 17.793 23.194L17.8951 23.2253L17.9097 23.2315C17.9422 23.189 17.9782 23.1485 18.0222 23.1148L18.0659 23.0815L18.1076 23.0482C18.1298 23.0312 18.1532 23.0135 18.1743 22.994L18.2139 22.9565L18.2555 22.919L18.3555 22.8523C18.4329 22.8199 18.5127 22.8219 18.5784 22.8357C18.5952 22.7882 18.6237 22.7333 18.6743 22.6878C18.753 22.6173 18.8495 22.599 18.9305 22.6065L18.9951 22.6128L19.043 22.6169L19.0743 22.6023L19.1222 22.5794C19.1367 22.572 19.1509 22.5629 19.1638 22.5523L19.2055 22.519L19.2472 22.4836C19.2736 22.4621 19.3003 22.4408 19.3263 22.419L19.368 22.3836L19.4097 22.3503C19.4584 22.3095 19.5117 22.2763 19.5701 22.2523L19.6222 22.2315L19.6388 22.2232L19.6555 22.1982L19.6868 22.1503L19.7409 22.0794C19.8031 22.0162 19.8834 21.9781 19.9701 21.9669L20.0201 21.9607L20.043 21.9253C20.1272 21.7811 20.2737 21.7411 20.3909 21.7482L20.4597 21.7503L20.4701 21.7378C20.5015 21.6931 20.5387 21.6523 20.5784 21.6148L20.618 21.5773L20.6514 21.544L20.668 21.494L20.6889 21.4357C20.7249 21.3369 20.7963 21.2525 20.8993 21.2044L20.9493 21.1815L21.0014 21.1586C21.0039 21.1574 21.005 21.1548 21.0055 21.1544H21.0076L21.043 21.1148L21.0805 21.0753C21.0968 21.0577 21.1121 21.0389 21.1264 21.019L21.1889 20.9315C21.2044 20.9098 21.219 20.8865 21.2326 20.8628L21.2868 20.7669C21.3595 20.6401 21.4837 20.5913 21.5868 20.5794L21.6347 20.5732L21.6388 20.5669C21.6397 20.5645 21.6429 20.5545 21.643 20.5336V20.4648L21.6451 20.3961C21.6455 20.3039 21.6693 20.1947 21.7514 20.1065L21.7888 20.069L21.8243 20.0294C21.8778 19.972 21.9427 19.9305 22.0097 19.9023L22.0513 19.8836L22.0597 19.8482C22.0766 19.7737 22.1178 19.7054 22.1805 19.6544C22.2391 19.607 22.3039 19.5853 22.3576 19.5753L22.4326 19.5607L22.4555 19.5565L22.4493 19.5253L22.4305 19.4503C22.4067 19.3526 22.4038 19.2054 22.518 19.0878L22.5555 19.0482L22.5868 19.0128L22.6013 18.9711L22.618 18.919L22.6868 18.7898C22.7159 18.7524 22.7501 18.72 22.7888 18.694L22.8888 18.6273C22.907 18.6152 22.9247 18.6021 22.943 18.5898L22.9284 18.5586C22.8893 18.4814 22.8311 18.3223 22.9284 18.169L22.9576 18.1253L22.9868 18.0794L23.0763 17.9773C23.11 17.9492 23.1465 17.9264 23.1826 17.9086C23.1657 17.8169 23.1725 17.7116 23.2326 17.6148L23.2618 17.569L23.2888 17.5253C23.2954 17.5147 23.3 17.503 23.3034 17.4919L23.3201 17.4398L23.3347 17.3898C23.3434 17.3609 23.3526 17.3318 23.3597 17.3023L23.3847 17.1982L23.4263 17.0961C23.4748 17.0174 23.5487 16.972 23.6097 16.944C23.5945 16.8895 23.5854 16.8237 23.6076 16.7523C23.638 16.6549 23.7066 16.5934 23.7638 16.5586V16.5565C23.7418 16.4858 23.7308 16.4062 23.7472 16.3232L23.768 16.219L23.8263 16.0753C23.8516 16.0365 23.8817 16.0029 23.9138 15.9753C23.8735 15.8897 23.8523 15.7794 23.8909 15.6648L23.9097 15.6148L23.9243 15.5732L23.918 15.519L23.9118 15.4628C23.909 15.4391 23.9037 15.415 23.8972 15.3898L23.8826 15.3336L23.868 15.2794C23.8443 15.1884 23.8612 15.0944 23.9097 15.0169C23.9482 14.9556 23.9995 14.9143 24.043 14.8878C24.0148 14.8303 23.9917 14.7648 23.993 14.6898V14.6378L23.9951 14.5836L24.0138 14.4586C24.0258 14.4193 24.0433 14.3825 24.0639 14.3482L24.0951 14.2961L24.0993 14.2878V14.2857L24.0868 14.2315C24.0838 14.2196 24.0774 14.2053 24.068 14.1878L24.0097 14.0794C23.9634 13.9933 23.9432 13.8892 23.9701 13.7815L23.9826 13.7294L23.9972 13.6773C24.0065 13.64 24.0159 13.6024 24.0264 13.5648L24.0409 13.5107L24.0555 13.4586C24.0663 13.42 24.0784 13.3808 24.0909 13.3419L24.1076 13.2878L24.1264 13.2336C24.1325 13.2146 24.135 13.1962 24.1368 13.1794L24.143 13.1253L24.1451 13.0982L24.1284 13.069L24.1013 13.0169C24.0742 12.9662 24.0518 12.9124 24.0368 12.8565L24.0243 12.8044L24.0097 12.7523C23.9983 12.7102 23.988 12.668 23.9805 12.6253L23.9639 12.5211C23.9599 12.4983 23.9523 12.4751 23.9451 12.4523L23.9305 12.4003L23.9138 12.3482C23.866 12.1959 23.9311 12.0687 23.9909 11.994C23.9627 11.962 23.9352 11.9232 23.918 11.8753C23.8917 11.8014 23.8929 11.7256 23.9118 11.6586L23.9284 11.6023L23.943 11.544C23.947 11.5297 23.9495 11.5197 23.9493 11.5128L23.9472 11.4586L23.9451 11.4211L23.9243 11.3898L23.893 11.3419C23.884 11.328 23.8721 11.3124 23.8555 11.2961L23.8118 11.2523L23.7659 11.2086C23.6929 11.1363 23.6424 11.0367 23.643 10.919V10.8232L23.6243 10.7898L23.5993 10.7419C23.5311 10.6175 23.5506 10.4898 23.5909 10.3961V10.3919C23.5471 10.3576 23.5056 10.3188 23.4701 10.2753L23.4347 10.2336L23.3993 10.1898C23.3192 10.0916 23.3009 9.97313 23.3222 9.86484L23.3305 9.81693L23.3097 9.79609C23.2561 9.74128 23.2208 9.66882 23.2118 9.58984C23.2035 9.51617 23.2192 9.45051 23.2388 9.40026L23.2659 9.33151L23.2826 9.28568L23.2805 9.28359L23.2555 9.27318L23.1909 9.24609C23.1022 9.20813 23.0056 9.13582 22.9618 9.01068L22.943 8.95859L22.9263 8.90859C22.9244 8.90297 22.9221 8.89708 22.918 8.89193L22.8513 8.80859C22.798 8.74067 22.7665 8.66134 22.7555 8.57943L22.7472 8.52109L22.7388 8.46484C22.7368 8.45018 22.7344 8.4386 22.7305 8.42943L22.7097 8.37943L22.6868 8.32943C22.6628 8.27336 22.6474 8.214 22.6388 8.15443L22.6305 8.09818L22.6222 8.03984L22.6013 8.00859L22.5618 8.00443L22.4826 7.99401C22.4264 7.98607 22.3495 7.96397 22.2826 7.90443C22.2084 7.83783 22.176 7.7487 22.1722 7.66693L22.168 7.60443L22.1659 7.54193C22.1655 7.53195 22.1643 7.52675 22.1638 7.52526L22.1409 7.47526L22.1222 7.43568L22.0889 7.40859L22.0451 7.37526C22.0403 7.37151 22.0302 7.36661 22.0138 7.36068L21.9555 7.33776L21.8972 7.31693C21.8059 7.28379 21.7204 7.22099 21.668 7.12109L21.618 7.02526C21.5853 6.96286 21.5654 6.89577 21.5555 6.82943L21.5472 6.77318L21.5138 6.75651C21.3952 6.69169 21.3339 6.58094 21.318 6.46901L21.3097 6.40234L21.3076 6.39401L21.2722 6.37109C21.2083 6.32977 21.1541 6.27518 21.1138 6.21068L21.1097 6.20443L21.0326 6.20859C20.9238 6.21551 20.7594 6.18538 20.6743 6.02109L20.6493 5.97109L20.6264 5.92734L20.5951 5.90651L20.5493 5.87734C20.5085 5.84952 20.4706 5.8174 20.4347 5.78359L20.3951 5.74818L20.3576 5.71068C20.2966 5.65329 20.2597 5.58419 20.2368 5.51484C20.1422 5.52485 20.0159 5.51235 19.9138 5.41693L19.8743 5.37943L19.843 5.35026L19.7951 5.33568L19.7409 5.31901C19.589 5.27257 19.5147 5.14826 19.4888 5.03984L19.4722 4.97109L19.4639 4.94193L19.4576 4.93776L19.4097 4.94401L19.343 4.95234C19.2531 4.96404 19.1429 4.95386 19.0451 4.88776L18.9576 4.82943C18.8429 4.75157 18.8022 4.62977 18.7868 4.54401L18.7722 4.46901L18.7555 4.47734L18.6784 4.50859C18.6293 4.52932 18.5612 4.54945 18.4826 4.54193C18.3947 4.53339 18.3149 4.49256 18.2576 4.42526L18.1826 4.33776C18.1514 4.30104 18.1267 4.26046 18.1055 4.21901C18.0474 4.24536 17.9549 4.27593 17.8493 4.23568C17.7178 4.18539 17.6689 4.06992 17.6514 4.00859L17.6409 3.97318C17.5228 3.97267 17.4185 3.92275 17.3472 3.83151L17.3076 3.78151L17.2826 3.75026L17.2638 3.74609L17.2305 3.73568L17.1805 3.75234L17.118 3.76901C17.0496 3.78867 16.9757 3.80017 16.8993 3.79193L16.7909 3.77943C16.7623 3.77634 16.7327 3.774 16.7034 3.77318L16.6493 3.77109H16.5951C16.5031 3.76849 16.4174 3.73793 16.3451 3.68568L16.2534 3.61901C16.2406 3.60971 16.2285 3.60218 16.218 3.59818L16.118 3.56068C16.0427 3.53187 15.98 3.48614 15.9284 3.43359L15.918 3.42318L15.9034 3.42943C15.8523 3.44978 15.7996 3.46554 15.7472 3.47734L15.6347 3.50234C15.5649 3.51801 15.4916 3.5226 15.418 3.50859L15.3139 3.48776C15.2239 3.47048 15.1501 3.42602 15.0909 3.37318L15.0889 3.37526C15.0387 3.40623 14.9716 3.4333 14.893 3.43359C14.8125 3.43382 14.7423 3.40629 14.6868 3.36693L14.6368 3.33151L14.5951 3.34401C14.4639 3.37843 14.3557 3.33262 14.2784 3.27109ZM0.720101 17.1836H0.724268L0.711768 17.1773C0.71513 17.1799 0.718369 17.1825 0.720101 17.1836ZM25.8826 7.89193L25.8513 7.95234L25.9305 7.95026L25.9597 7.88984L25.8826 7.89193ZM25.9305 7.95026L25.8513 7.95234L25.8826 7.89193L25.9597 7.88984L25.9305 7.95026ZM25.5034 7.33151L25.4888 7.39193L25.5805 7.36484L25.5951 7.30234L25.5034 7.33151ZM25.5805 7.36484L25.4888 7.39193L25.5034 7.33151L25.5951 7.30234L25.5805 7.36484ZM11.5159 0.483594L11.568 0.514844L11.5868 0.429427L11.5347 0.398177L11.5159 0.483594ZM11.5868 0.429427L11.568 0.514844L11.5159 0.483594L11.5347 0.398177L11.5868 0.429427ZM1.27427 8.26693L1.25552 8.19818L1.23468 8.13151C1.20321 8.02272 1.20842 7.88085 1.31385 7.76693L1.35343 7.72526L1.39093 7.68359C1.40524 7.66819 1.41687 7.65297 1.42635 7.63776L1.48468 7.54609C1.48764 7.54128 1.48907 7.5351 1.49093 7.52734L1.51593 7.41901C1.5321 7.3491 1.56296 7.28403 1.60552 7.22526L1.63677 7.18151L1.66802 7.13568C1.6893 7.10629 1.7112 7.07739 1.7326 7.04818L1.76385 7.00443L1.79718 6.96068C1.82427 6.92372 1.8536 6.88838 1.88468 6.85443L1.92218 6.81276L1.9576 6.77318C2.00051 6.72631 2.05021 6.6871 2.10343 6.65443L2.15552 6.62318L2.19927 6.59401L2.22218 6.55859L2.2326 6.53776L2.23052 6.49401L2.22427 6.42734C2.21827 6.34906 2.22815 6.26295 2.26385 6.18151L2.28468 6.13151L2.3076 6.08359L2.3576 5.99818C2.41624 5.92545 2.49616 5.88507 2.5701 5.86484L2.63677 5.84609L2.69927 5.82734L2.72218 5.80651L2.7576 5.76693C2.77781 5.74547 2.79758 5.72272 2.81593 5.70026L2.84927 5.66068L2.8826 5.61901C2.88913 5.61102 2.89618 5.60143 2.90135 5.58984L2.92427 5.53984L2.9451 5.48984C2.95986 5.45632 2.9739 5.42146 2.98885 5.38776L3.03468 5.28776C3.06192 5.22648 3.09997 5.16977 3.14718 5.12109L3.1826 5.08359L3.2201 5.04609C3.24987 5.01541 3.28164 4.98482 3.31385 4.95651L3.35343 4.92109L3.3951 4.88568C3.42248 4.86162 3.44887 4.83651 3.47635 4.81276L3.51802 4.77943L3.54927 4.75026L3.56802 4.70651L3.58885 4.65234C3.61379 4.59078 3.6497 4.53417 3.6951 4.48359L3.73052 4.44193L3.76593 4.40234C3.77898 4.38785 3.7923 4.37228 3.80343 4.35443L3.86177 4.26276L3.92427 4.18568C3.99504 4.12065 4.08336 4.09277 4.16177 4.08568L4.1826 4.08359C4.21178 3.97406 4.28524 3.87623 4.40135 3.82526L4.40343 3.82318L4.4076 3.76484L4.4201 3.67943C4.44198 3.59185 4.49599 3.49882 4.60343 3.44193L4.65135 3.41693L4.70135 3.39193C4.72813 3.37773 4.75362 3.36166 4.77843 3.34609L4.8701 3.28776C4.90512 3.26579 4.94202 3.24513 4.97843 3.22526L5.02427 3.20026L5.07218 3.17318C5.0872 3.16499 5.10216 3.15635 5.11385 3.14609L5.19302 3.07526C5.19544 3.07313 5.19999 3.06835 5.20552 3.05859L5.23468 3.00859L5.26177 2.95859L5.33885 2.86484C5.3699 2.83847 5.40668 2.81864 5.44718 2.80443C5.52114 2.77851 5.59159 2.78061 5.6451 2.78984L5.72218 2.80234L5.75343 2.80651L5.7576 2.78359L5.76593 2.70443C5.7756 2.61818 5.8066 2.51169 5.89093 2.42734L5.92843 2.38776L5.96802 2.35026L6.06802 2.27943C6.14156 2.24593 6.21752 2.24532 6.28052 2.25443C6.29253 2.19862 6.31817 2.12835 6.3826 2.07109C6.43306 2.02634 6.48742 2.00444 6.53885 1.99609L6.67635 2.00026L6.74927 2.01693L6.7826 2.02526L6.81385 2.00443L6.84302 1.95443L6.87218 1.90026C6.93133 1.79587 7.03352 1.72087 7.16385 1.70651L7.22218 1.70026L7.27843 1.69401C7.31225 1.69029 7.34581 1.68405 7.37843 1.67943L7.3951 1.62109L7.43677 1.51901C7.45871 1.48279 7.49107 1.44679 7.53468 1.41693C7.58165 1.38492 7.63016 1.36843 7.67635 1.36276L7.80135 1.37109L7.8701 1.38568L7.90343 1.39401L7.90968 1.39193L7.94093 1.37318L7.97218 1.32526L8.0076 1.27109L8.0826 1.18359C8.11403 1.15772 8.15239 1.13696 8.19718 1.12318C8.24032 1.11001 8.28226 1.10616 8.3201 1.10859L8.42218 1.12943L8.49093 1.15234L8.51385 1.15859L8.54927 1.13984C8.6032 1.10941 8.66184 1.08662 8.72218 1.07318L8.77427 1.06276L8.82635 1.05026C8.87166 1.04018 8.91771 1.03717 8.96385 1.03568L8.98468 0.966927L9.0326 0.860677C9.05842 0.821046 9.09663 0.781659 9.15135 0.752344C9.21324 0.71919 9.27329 0.711923 9.32635 0.716927L9.4576 0.75651L9.50552 0.78151C9.59684 0.707516 9.7042 0.691432 9.80343 0.708594L9.81177 0.691927C9.83357 0.63738 9.89228 0.523456 10.0305 0.485677C10.1675 0.448277 10.2755 0.514902 10.3222 0.55026L10.368 0.583594C10.4037 0.557296 10.4407 0.532672 10.4805 0.51276L10.5284 0.48776L10.5784 0.464844C10.6121 0.448009 10.6464 0.431326 10.6805 0.414844L10.7284 0.389844L10.7784 0.366927L10.8805 0.333594C10.947 0.323196 11.0107 0.332558 11.0659 0.352344L11.1409 0.389844L11.1722 0.408594C11.2574 0.346026 11.3631 0.320792 11.4701 0.33776L11.5034 0.283594C11.5333 0.233887 11.5929 0.156917 11.6972 0.123177C11.755 0.104588 11.8097 0.103069 11.8576 0.11276L11.9805 0.164844L12.0388 0.202344L12.0993 0.241927C12.1117 0.249947 12.1075 0.24358 12.0889 0.241927L12.143 0.246094L12.1576 0.248177L12.1805 0.233594L12.2305 0.20026L12.3389 0.14401C12.3779 0.130087 12.4199 0.121795 12.4639 0.11901L12.518 0.114844L12.5701 0.11276C12.6137 0.110071 12.657 0.11246 12.6972 0.121094L12.8118 0.160677L12.8659 0.18776L12.8764 0.19401L12.9284 0.17526C12.9325 0.173769 12.9421 0.168423 12.9576 0.15651L13.0097 0.116927L13.0618 0.0752604L13.1555 0.0231771C13.1915 0.00931874 13.2318 0.000433087 13.2764 0.000260442C13.3205 0.000197858 13.3617 0.00789714 13.3972 0.0210938L13.4889 0.0710938L13.543 0.110677V0.11276L13.5597 0.10651C13.5628 0.104376 13.5654 0.101897 13.568 0.10026C13.6049 0.077604 13.6392 0.0696483 13.6514 0.0669271C13.6783 0.0609338 13.7019 0.0608882 13.7097 0.0606771C13.7291 0.0601549 13.7493 0.0596545 13.7639 0.0606771L13.8034 0.0648438L13.8409 0.0669271C13.8958 0.0708252 13.9496 0.0845088 13.9972 0.10026L14.0513 0.116927L14.1034 0.135677C14.1498 0.151051 14.1965 0.168527 14.2409 0.189844L14.293 0.214844L14.3243 0.23151L14.3555 0.227344L14.4076 0.221094C14.4461 0.216416 14.4856 0.213876 14.5243 0.210677L14.5784 0.204427L14.6326 0.20026C14.6237 0.200996 14.6227 0.203612 14.6326 0.198177L14.7451 0.135677C14.8125 0.0980035 14.8908 0.0720704 14.9763 0.0690104L15.0847 0.0648438L15.168 0.0710938C15.1942 0.07579 15.2193 0.0826557 15.243 0.0919271L15.3701 0.16901L15.418 0.210677L15.4284 0.221094L15.4826 0.216927C15.4982 0.215434 15.516 0.210898 15.5368 0.204427L15.5951 0.18776L15.6514 0.16901L15.7722 0.154427C15.8133 0.156605 15.8547 0.166987 15.8951 0.185677C15.9543 0.213199 15.9955 0.25558 16.0264 0.29401C16.0664 0.270198 16.1152 0.246933 16.1743 0.239844C16.2154 0.235012 16.2568 0.236895 16.2951 0.246094L16.4034 0.29401L16.4451 0.321094L16.5034 0.304427L16.6222 0.291927C16.6632 0.294389 16.7061 0.303643 16.7472 0.323177C16.7849 0.34115 16.8155 0.365156 16.8409 0.389844L16.9014 0.466927L16.9097 0.479427C16.9687 0.461065 17.0307 0.44942 17.0951 0.45026H17.1514L17.2055 0.452344C17.265 0.45312 17.3195 0.466879 17.368 0.489844L17.4951 0.583594L17.5389 0.629427L17.5805 0.67526C17.5991 0.695172 17.6167 0.711284 17.6326 0.723177L17.6784 0.75651L17.693 0.766927H17.7118L17.768 0.764844C17.7663 0.764945 17.7749 0.76523 17.7951 0.75651L17.8618 0.727344L17.9263 0.698177C17.9842 0.673206 18.0675 0.652993 18.1597 0.677344C18.2548 0.702569 18.3188 0.764725 18.3576 0.823177L18.3909 0.873177L18.4222 0.87526C18.5371 0.877357 18.6252 0.929426 18.6868 0.998177L18.7388 1.07109L18.7701 1.12526L18.7951 1.12734C18.8629 1.13229 18.9302 1.14802 18.993 1.17734L19.0409 1.20026L19.0805 1.18984L19.1493 1.16693L19.3076 1.14609C19.3652 1.14909 19.4261 1.16424 19.4847 1.20026L19.5763 1.25859C19.6902 1.32889 19.7398 1.44135 19.7618 1.52734L19.7826 1.60859L19.7951 1.65859L19.7972 1.66068L19.8347 1.65443L19.8993 1.64193C19.9571 1.63178 20.0288 1.63228 20.1013 1.66068C20.1387 1.67533 20.1715 1.69546 20.1993 1.71901L20.268 1.79818L20.318 1.87318L20.3347 1.87943L20.3868 1.89818C20.4459 1.91919 20.5011 1.94979 20.5513 1.98776L20.593 2.01901L20.6368 2.05234H20.6409L20.7493 2.08151C20.8005 2.09545 20.8468 2.11834 20.8868 2.14818L20.9888 2.25859L21.0201 2.30651L21.0264 2.31484L21.0826 2.32734C21.0982 2.33074 21.1188 2.33155 21.1451 2.33151H21.2743C21.3526 2.33136 21.4453 2.35689 21.518 2.43151C21.5514 2.46577 21.5738 2.5036 21.5889 2.53984L21.6159 2.63984L21.618 2.66484C21.6478 2.66767 21.6787 2.67106 21.7097 2.67318L21.7722 2.67734L21.8368 2.68151C21.9222 2.68735 22.0155 2.72533 22.0805 2.81276C22.109 2.85118 22.1266 2.89176 22.1368 2.92943L22.1514 3.02943L22.1534 3.11484V3.17734H22.1597L22.2326 3.17109L22.3847 3.18568C22.4112 3.19283 22.4377 3.20329 22.4639 3.21693L22.5388 3.26901L22.5784 3.30443L22.6201 3.33984C22.6645 3.37918 22.6963 3.42424 22.718 3.47109L22.7576 3.61068V3.61276C22.8529 3.62619 22.9524 3.67098 23.0243 3.76484L23.0555 3.80651L23.0805 3.81068L23.1451 3.82109C23.2145 3.83114 23.288 3.85568 23.3513 3.90443L23.4118 3.96068L23.4451 4.00234L23.4805 4.04401C23.5125 4.08132 23.5417 4.12108 23.568 4.16276L23.6264 4.25443C23.6336 4.26592 23.6426 4.27541 23.6514 4.28359L23.7305 4.35859C23.7684 4.39378 23.8037 4.43175 23.8347 4.47318L23.8659 4.51693L23.8993 4.55859C23.9655 4.64716 23.9834 4.74873 23.9826 4.83568V4.83984C24.0458 4.85652 24.1088 4.88075 24.1659 4.91901L24.2576 4.98151C24.3037 5.01239 24.3416 5.05093 24.3701 5.09401L24.4305 5.23776L24.4555 5.35443C24.4623 5.38588 24.4651 5.41816 24.4701 5.45026L24.5034 5.45234C24.5613 5.454 24.6699 5.46901 24.7534 5.56068C24.838 5.65412 24.839 5.76417 24.8284 5.83359C24.894 5.85648 24.9614 5.89623 25.0118 5.96068L25.0618 6.04818L25.0826 6.09818L25.0889 6.11693L25.118 6.13359L25.168 6.16276C25.2906 6.23555 25.3507 6.36003 25.3493 6.48984V6.55443L25.3472 6.61901L25.3534 6.76276L25.3951 6.79193C25.4692 6.84085 25.5241 6.90946 25.5513 6.99193L25.5701 7.07943L25.5743 7.13776L25.5805 7.19609C25.5825 7.21685 25.5864 7.23387 25.5909 7.24818L25.593 7.25443L25.6055 7.25859L25.6868 7.27734C25.7384 7.28887 25.8034 7.31195 25.8618 7.36068C25.8942 7.38771 25.9206 7.42017 25.9409 7.45651L25.9805 7.57526L25.9972 7.68776C26.0038 7.73517 26.0085 7.7831 26.0097 7.83151V7.84609L26.0493 7.86693C26.1131 7.89835 26.1783 7.9463 26.2243 8.01693L26.2618 8.09401L26.2826 8.14401L26.3013 8.19401C26.3289 8.26787 26.3361 8.34499 26.3305 8.41901L26.3222 8.53984C26.3195 8.57531 26.3139 8.61057 26.3097 8.64609L26.3389 8.65651C26.3895 8.67579 26.4525 8.71032 26.5034 8.77109C26.5595 8.83815 26.5861 8.92103 26.5826 9.00443L26.5784 9.12109C26.5774 9.14546 26.5781 9.16758 26.5805 9.18776L26.593 9.29609C26.5991 9.34522 26.6023 9.39622 26.6013 9.44609V9.50234L26.5993 9.55859C26.5987 9.58853 26.5981 9.61839 26.5972 9.64818L26.6701 9.67318C26.7323 9.6954 26.8225 9.73883 26.8847 9.82318L26.9347 9.92318L26.9513 9.97526L26.968 10.0253C26.9972 10.114 26.9972 10.2037 26.9763 10.2857L26.9618 10.3461L26.9451 10.4044C26.9376 10.434 26.9338 10.4621 26.9305 10.4878L26.9222 10.544L26.9201 10.5544L26.9284 10.5669L26.9618 10.6148C26.9923 10.659 27.019 10.7056 27.0409 10.7544L27.0618 10.8044L27.0847 10.8544C27.1268 10.9483 27.1302 11.0476 27.1055 11.1398L27.0909 11.1982L27.0784 11.2398L27.0889 11.2711L27.1034 11.3211C27.1322 11.4178 27.1157 11.509 27.0847 11.5878L27.0951 11.5961C27.1487 11.6327 27.2305 11.7079 27.2451 11.8336C27.2576 11.9419 27.2092 12.0223 27.1701 12.0732C27.2344 12.137 27.2985 12.2274 27.2951 12.3523L27.293 12.4044L27.2909 12.4586C27.2886 12.5474 27.2618 12.628 27.2222 12.6961L27.2201 12.6982L27.2263 12.7065C27.2545 12.7393 27.2795 12.7785 27.2993 12.8211L27.3389 12.9628L27.343 13.0148L27.3472 13.069C27.3553 13.1624 27.3281 13.2452 27.2888 13.3169L27.3034 13.3315C27.3796 13.4068 27.4553 13.5337 27.4159 13.6919L27.4014 13.7461L27.3888 13.8003C27.3837 13.8211 27.3797 13.8415 27.3784 13.8607L27.3763 13.9128L27.3722 13.9669C27.3682 14.0277 27.3546 14.087 27.3347 14.144L27.3159 14.1982L27.3097 14.2128L27.318 14.2357L27.3368 14.2898C27.368 14.3787 27.371 14.4739 27.3409 14.5669L27.3243 14.619L27.3076 14.6732C27.2884 14.7324 27.2554 14.7813 27.2201 14.8253C27.2614 14.8627 27.3242 14.9311 27.3409 15.0336C27.362 15.1634 27.2999 15.2656 27.2388 15.3232L27.1868 15.3711L27.1368 15.419C27.1259 15.4293 27.1326 15.4256 27.1388 15.4065L27.1222 15.4565L27.1097 15.4878L27.1222 15.5294L27.1347 15.5857C27.1528 15.6652 27.1511 15.7483 27.1263 15.8294L27.1097 15.8815L27.0951 15.9336C27.0946 15.9351 27.0928 15.9366 27.093 15.9398L27.0972 15.9961L27.1013 16.0503C27.1048 16.0947 27.1061 16.1394 27.1055 16.1836V16.2919C27.1051 16.3285 27.1042 16.3654 27.1034 16.4023L27.1013 16.4586V16.5128C27.0984 16.6553 27.0182 16.7577 26.9347 16.819L26.8326 16.8919L26.8284 16.9086L26.8243 16.9169L26.8409 16.9523L26.8659 17.0148C26.8944 17.0828 26.9147 17.1577 26.9138 17.2378L26.9118 17.294V17.3503C26.9111 17.4014 26.9062 17.4522 26.8972 17.5023L26.8868 17.5565L26.8784 17.6086C26.8482 17.7754 26.7159 17.8583 26.6284 17.894L26.5513 17.9253L26.4993 17.9461L26.4826 17.9898C26.4814 17.9927 26.4788 17.9973 26.4784 18.0044L26.4763 18.0607L26.4743 18.1148C26.474 18.1204 26.475 18.1338 26.4805 18.1544L26.5138 18.2794C26.5295 18.3382 26.5353 18.4108 26.5118 18.4857C26.4879 18.5615 26.4398 18.6183 26.3888 18.6586L26.3409 18.6982L26.293 18.7357C26.2783 18.7473 26.2697 18.7573 26.2659 18.7628L26.2388 18.7982L26.243 18.8128L26.2597 18.8753C26.2758 18.9441 26.2748 19.0332 26.2284 19.119C26.1953 19.1801 26.1464 19.2185 26.1013 19.2461C26.1372 19.3302 26.1684 19.4557 26.1055 19.5836L26.0805 19.6315L26.0576 19.6794C26.0183 19.7592 25.9581 19.8197 25.8909 19.8648L25.8409 19.9003L25.7888 19.9336V19.9315L25.7618 19.9773L25.7326 20.0232C25.7144 20.0529 25.6963 20.083 25.6784 20.1128L25.6243 20.2044C25.5757 20.2852 25.5061 20.3418 25.4326 20.3794L25.4243 20.3815L25.4263 20.3982C25.4366 20.5043 25.4099 20.6239 25.3159 20.7169L25.2909 20.7398L25.293 20.7461L25.3034 20.8148C25.3114 20.8754 25.3072 20.953 25.268 21.0294C25.2273 21.1082 25.1625 21.1592 25.0993 21.1878L25.0409 21.2148L24.9826 21.2398C24.9624 21.2489 24.9488 21.2584 24.9409 21.2648L24.9284 21.2732L24.9388 21.344C24.9482 21.4106 24.9437 21.5074 24.8784 21.5961C24.8134 21.6842 24.722 21.718 24.6576 21.7294L24.5847 21.7419L24.5409 21.7482L24.5264 21.769V21.8169L24.5243 21.8836C24.5193 21.9886 24.4755 22.1002 24.3743 22.1794L24.3326 22.2128L24.2888 22.2482C24.2442 22.2831 24.1935 22.3051 24.143 22.3253L24.1493 22.3503C24.159 22.4041 24.164 22.4821 24.1326 22.5628C24.0968 22.6543 24.0252 22.7177 23.943 22.7503L23.8305 22.7961C23.7907 22.8118 23.7501 22.8255 23.7097 22.8398L23.6534 22.8607L23.5951 22.8815C23.5718 22.8898 23.5528 22.8993 23.5368 22.9086L23.518 22.9169V22.9857C23.5148 23.0708 23.4918 23.1678 23.4263 23.2523L23.393 23.2961L23.3597 23.3378C23.3364 23.3676 23.3128 23.398 23.2888 23.4273L23.2534 23.469L23.2201 23.5107C23.19 23.5476 23.1569 23.5823 23.1222 23.6148L23.043 23.6898C22.9693 23.7586 22.8806 23.7924 22.7951 23.8044L22.7305 23.8128L22.7159 23.8148L22.6889 23.8544C22.6554 23.9017 22.6164 23.9458 22.5722 23.9836L22.5326 24.0169L22.4909 24.0523C22.4743 24.0666 22.458 24.083 22.443 24.1003L22.4076 24.1398L22.3722 24.1815C22.3238 24.2374 22.2657 24.2817 22.1993 24.3128L22.0993 24.3586C22.0696 24.3724 22.0402 24.3876 22.0118 24.4023L21.9159 24.4523C21.9057 24.4576 21.8966 24.4639 21.8888 24.4711L21.8493 24.5086L21.8097 24.544C21.7606 24.59 21.7044 24.626 21.643 24.6523L21.593 24.6753L21.543 24.6961C21.5171 24.7072 21.4919 24.7187 21.468 24.7315L21.4284 24.7523L21.4243 24.7773L21.4055 24.8461C21.3804 24.9448 21.3175 25.0596 21.1868 25.1169L21.1388 25.1378L21.0889 25.1586C21.0195 25.189 20.9456 25.2029 20.8743 25.2044L20.8139 25.2065L20.7514 25.2086C20.7288 25.2091 20.7115 25.2116 20.6993 25.2148L20.6701 25.2232L20.6451 25.2857C20.6173 25.357 20.5747 25.4278 20.5118 25.4857L20.4701 25.5232L20.4305 25.5607C20.3899 25.598 20.3449 25.6308 20.2972 25.6586L20.2055 25.7128C20.193 25.7201 20.1787 25.7278 20.1659 25.7398L20.1264 25.7794L20.0847 25.8169C19.9611 25.9335 19.8083 25.9261 19.7055 25.8919L19.6347 25.8669L19.6013 25.8565L19.568 25.8773C19.5035 25.9143 19.4337 25.9364 19.3618 25.944L19.3055 25.9482L19.2514 25.9544C19.2356 25.9561 19.2224 25.9609 19.2118 25.9648L19.1951 25.969L19.1889 26.0065L19.168 26.094C19.1558 26.1473 19.1245 26.2439 19.0347 26.3107C18.9352 26.3843 18.8263 26.3772 18.7493 26.3544C18.7141 26.4179 18.6511 26.4947 18.5409 26.5211C18.4327 26.5468 18.3412 26.5103 18.2889 26.4815L18.2159 26.4419L18.2097 26.4378L18.2076 26.4419C18.1472 26.4805 18.0808 26.5071 18.0097 26.519L17.9555 26.5273H17.9472L17.9326 26.5482L17.893 26.5982C17.849 26.6525 17.7823 26.7048 17.693 26.7232C17.607 26.7409 17.5304 26.7208 17.4743 26.6961L17.4097 26.669L17.3659 26.6482L17.3618 26.6628L17.3305 26.7482C17.3116 26.7984 17.274 26.8742 17.1993 26.9294C17.1098 26.9954 17.0039 27.0051 16.9118 26.9773L16.8514 26.9607L16.818 26.9503L16.8034 26.9565L16.7534 26.9753C16.7177 26.9889 16.6813 27.0021 16.6451 27.0148L16.593 27.0336L16.543 27.0503C16.4105 27.0967 16.2938 27.0546 16.2139 27.0044C16.1535 27.0788 16.0593 27.1553 15.9201 27.1523H15.8638L15.8097 27.1503C15.7287 27.1483 15.6562 27.1233 15.593 27.0898C15.552 27.1404 15.4826 27.2046 15.3764 27.219C15.2715 27.2331 15.1884 27.1907 15.1347 27.1523C15.0568 27.2258 14.943 27.2868 14.8013 27.2544L14.7451 27.2419L14.718 27.2357L14.6972 27.2461L14.6451 27.269C14.5169 27.3239 14.3892 27.2978 14.2909 27.2357L14.268 27.2211L14.2534 27.2315C14.1649 27.2869 14.055 27.312 13.9409 27.2836L13.8889 27.269L13.8347 27.2565C13.7968 27.2471 13.7578 27.2377 13.7201 27.2273L13.668 27.2128L13.6139 27.1982C13.5789 27.1886 13.5443 27.1783 13.5097 27.169L13.4639 27.1565L13.4555 27.1628L13.4014 27.1982C13.3437 27.2353 13.2798 27.2653 13.2097 27.2815L13.1013 27.3065C12.9679 27.3372 12.8497 27.2908 12.7659 27.2211L12.7159 27.1794L12.7076 27.1732L12.668 27.1794C12.6419 27.1842 12.6145 27.1922 12.5868 27.2003L12.5326 27.2148L12.4784 27.2315C12.4453 27.2412 12.4106 27.2513 12.3764 27.2628L12.3201 27.2836L12.2639 27.3023C12.1594 27.3373 12.0478 27.3288 11.9472 27.2753L11.8951 27.2482L11.8576 27.2273L11.818 27.2294L11.7639 27.2315C11.7296 27.2325 11.6945 27.2319 11.6597 27.2336L11.6055 27.2378L11.5493 27.2398C11.4407 27.2449 11.3444 27.207 11.268 27.1461L11.1722 27.0711C11.1514 27.0545 11.1316 27.0412 11.1139 27.0315L11.0639 27.0044L11.0159 26.9773C10.9839 26.9599 10.9519 26.9422 10.9201 26.9253L10.8784 26.9044L10.8743 26.9065L10.8139 26.9294C10.7545 26.952 10.6805 26.965 10.6013 26.9461C10.5224 26.9271 10.4627 26.8823 10.4201 26.8357L10.3764 26.7878L10.3659 26.7773H10.318C10.2202 26.7754 10.1307 26.7413 10.0576 26.6836L10.0139 26.6482L10.0055 26.6398L9.99927 26.6419L9.94302 26.6482C9.83389 26.6582 9.73039 26.6241 9.64718 26.5544L9.60135 26.5169L9.56593 26.4878L9.5326 26.4836L9.48052 26.4732C9.47908 26.4732 9.47463 26.4739 9.46802 26.4753L9.4076 26.4878L9.34718 26.4982C9.29009 26.5098 9.23245 26.5177 9.17427 26.5169L9.11593 26.5148H9.05968C8.99568 26.5139 8.9317 26.5025 8.8701 26.4815L8.8201 26.4648L8.76802 26.4482C8.74154 26.4392 8.71437 26.43 8.68677 26.4232L8.5826 26.3982C8.50393 26.3788 8.43337 26.3399 8.37427 26.2878L8.33052 26.2503L8.28885 26.2128C8.27067 26.1968 8.25275 26.1827 8.23468 26.1711L8.18885 26.1419L8.1576 26.1211H8.11385L8.05552 26.119C7.9936 26.1162 7.93172 26.1038 7.87218 26.0836L7.8201 26.0669L7.7701 26.0503C7.59574 25.9911 7.54265 25.8291 7.52635 25.7398L7.50968 25.6523L7.50343 25.6294C7.50048 25.6285 7.49269 25.6273 7.47843 25.6273H7.3576C7.2806 25.6275 7.2025 25.6111 7.12843 25.5732L7.08052 25.5503L7.04093 25.5294H6.9201C6.80103 25.5292 6.68658 25.4794 6.60968 25.3753L6.57635 25.3273L6.54093 25.2815C6.51168 25.2419 6.48815 25.1987 6.46593 25.1544L6.44927 25.1607C6.36165 25.1817 6.24422 25.1875 6.1326 25.1232L6.08468 25.0961L6.03885 25.069C5.90427 24.9912 5.86243 24.8567 5.85135 24.7628L5.84093 24.6815L5.8326 24.6023L5.81385 24.5836L5.77843 24.5419C5.77536 24.5385 5.7727 24.5371 5.7701 24.5357L5.72427 24.5086L5.6951 24.494L5.63052 24.4961L5.56177 24.5003C5.49241 24.5033 5.39949 24.4882 5.3201 24.419C5.25109 24.3585 5.22345 24.2815 5.21177 24.2211C5.11944 24.2218 5.00986 24.2008 4.92218 24.1107L4.88468 24.0732L4.84718 24.0336C4.831 24.017 4.81331 24.0018 4.7951 23.9878L4.75343 23.9565L4.70968 23.9232C4.62686 23.8593 4.57859 23.7724 4.55552 23.6857L4.54093 23.6253L4.52427 23.5628C4.51876 23.5423 4.51214 23.5288 4.5076 23.5211L4.47843 23.4753L4.47218 23.4648L4.4576 23.4607L4.40135 23.4419C4.34199 23.4221 4.28485 23.3931 4.2326 23.3565L4.18885 23.3273L4.1451 23.2961C4.10236 23.2661 4.06278 23.2314 4.02635 23.194L3.98885 23.1565L3.95135 23.1169C3.94377 23.1092 3.93441 23.1013 3.92218 23.094L3.87427 23.0669L3.82635 23.0378C3.7235 22.9769 3.66361 22.8809 3.64093 22.7773L3.62843 22.7315L3.5951 22.719C3.46083 22.6635 3.3853 22.5456 3.3701 22.4169L3.36385 22.3523L3.3576 22.3065L3.34093 22.2857L3.32218 22.2628L3.27218 22.2461L3.21177 22.2253C3.16313 22.2089 3.11575 22.1903 3.0701 22.169L2.96177 22.119C2.88179 22.0817 2.8103 22.0212 2.76177 21.9378L2.73468 21.8919L2.7076 21.844C2.70169 21.8339 2.69344 21.8255 2.68468 21.8169L2.6076 21.7398C2.51957 21.6537 2.48829 21.544 2.48885 21.444L2.48052 21.4419C2.36744 21.4066 2.25683 21.3195 2.22218 21.1711L2.19718 21.0586C2.19396 21.0448 2.18884 21.0347 2.18468 21.0273L2.1576 20.9815L2.1326 20.9336C2.09896 20.8743 2.0753 20.8116 2.06385 20.7461L2.05552 20.6878L2.04718 20.6523L2.02635 20.6273L1.99093 20.5857C1.96102 20.5523 1.93192 20.5175 1.90552 20.4815L1.87427 20.4378L1.84302 20.3961C1.80828 20.3487 1.77907 20.2966 1.7576 20.2419L1.73677 20.1898L1.72843 20.1711L1.70135 20.1544L1.64718 20.1232C1.59359 20.0902 1.54307 20.04 1.50968 19.9711C1.47647 19.9025 1.4701 19.8318 1.47635 19.7711L1.48885 19.6461C1.49254 19.6103 1.49433 19.5744 1.4951 19.5419L1.49718 19.4836L1.49927 19.4232C1.4997 19.4047 1.49735 19.3903 1.4951 19.3794L1.48677 19.3773L1.40135 19.3565C1.31565 19.3358 1.19429 19.2883 1.12218 19.1669L1.0951 19.119L1.06593 19.0732C0.992813 18.9497 1.01606 18.8261 1.05135 18.7398C1.00591 18.717 0.954539 18.6833 0.915934 18.6253C0.851575 18.5283 0.852812 18.4237 0.876351 18.3461L0.893018 18.2919L0.876351 18.2753C0.795899 18.1823 0.769699 18.0654 0.788851 17.9523L0.799268 17.8919V17.8773L0.768018 17.8315C0.710737 17.7493 0.685318 17.6544 0.693018 17.5565L0.697184 17.5003L0.701351 17.4419V17.4398L0.668018 17.3398C0.646968 17.2761 0.63867 17.2097 0.640934 17.144L0.576351 17.1107C0.520492 17.0827 0.426252 17.0182 0.395101 16.8919C0.363904 16.7649 0.418559 16.6635 0.455518 16.6128L0.503434 16.5482L0.507601 16.5398L0.505518 16.5315C0.490677 16.4978 0.476281 16.4633 0.461768 16.4294L0.438851 16.3794L0.418018 16.3294C0.413336 16.3186 0.405106 16.3057 0.393018 16.2898L0.357601 16.2419L0.320101 16.194C0.280565 16.1422 0.24841 16.0843 0.226351 16.0211L0.209684 15.969L0.190934 15.9169C0.166082 15.8454 0.158352 15.7709 0.165934 15.6961L0.170101 15.6419L0.176351 15.5857C0.182057 15.5296 0.194592 15.4748 0.211768 15.4211L0.228434 15.3648L0.247184 15.3086C0.250747 15.2975 0.251389 15.2904 0.251351 15.2878V15.2482L0.226351 15.2315L0.168018 15.1836C0.122903 15.1469 0.0685762 15.0873 0.0430176 15.0023C0.0157695 14.9111 0.0320366 14.8236 0.0659343 14.7544L0.120101 14.6419C0.124458 14.633 0.122428 14.6343 0.122184 14.6419L0.126351 14.5336L0.147184 14.4107C0.158969 14.372 0.175853 14.3361 0.195101 14.3023L0.197184 14.3003L0.184684 14.2878C0.121762 14.2136 0.0731972 14.1097 0.0846843 13.9857L0.0888509 13.9315L0.0951009 13.8773C0.100456 13.8211 0.112857 13.7663 0.130518 13.7128L0.134684 13.6982L0.0909343 13.6523C0.0400384 13.597 -0.0183865 13.4972 0.0055176 13.369C0.0270253 13.2557 0.101323 13.1864 0.147184 13.1523L0.151351 13.1482C0.110549 13.0728 0.0811402 12.983 0.105518 12.8794L0.118018 12.8253L0.126351 12.7898L0.113851 12.7503L0.0971843 12.6961C0.0688386 12.6049 0.0704524 12.5073 0.105518 12.4148L0.124268 12.3628L0.130518 12.3461L0.122184 12.3232L0.105518 12.2669C0.0793398 12.1847 0.0833298 12.0943 0.124268 12.0128C0.161126 11.9396 0.218608 11.8926 0.263851 11.8628L0.332601 11.8169L0.359684 11.7982V11.7753C0.36212 11.7313 0.365265 11.6875 0.372184 11.644L0.380518 11.5919L0.386768 11.544L0.372184 11.4919L0.355518 11.4357C0.345964 11.404 0.332773 11.3713 0.320101 11.3378L0.299268 11.2773L0.276351 11.219C0.248629 11.1453 0.235328 11.0633 0.247184 10.9773L0.255518 10.9232L0.261768 10.869L0.299268 10.7544C0.338635 10.681 0.403556 10.638 0.457601 10.6065C0.437829 10.5702 0.419939 10.5264 0.413851 10.4753C0.402366 10.3772 0.433955 10.2869 0.493018 10.219L0.572184 10.1273C0.579468 10.1189 0.582019 10.1142 0.582601 10.1128L0.601351 10.0628L0.622184 10.0128C0.630603 9.99085 0.6377 9.96858 0.643018 9.94609L0.653434 9.89401L0.665934 9.84193C0.678388 9.7889 0.696755 9.73694 0.720101 9.68776L0.743018 9.63776L0.747184 9.62734L0.740934 9.60026L0.724268 9.53984C0.707226 9.47526 0.705212 9.39623 0.736768 9.31693C0.767853 9.23925 0.820691 9.18484 0.872184 9.15026L0.928434 9.11276L0.961768 9.08984L0.968018 9.07734L0.984684 9.02526C0.993752 8.99741 1.00228 8.9686 1.00968 8.93984L1.02218 8.88776L1.03677 8.83568C1.05031 8.78336 1.06887 8.73196 1.09302 8.68359L1.11593 8.63568L1.14093 8.58984C1.16752 8.5366 1.19991 8.48631 1.23885 8.44193L1.27635 8.40026L1.2826 8.39193V8.31901C1.2826 8.31019 1.28182 8.29307 1.27427 8.26693ZM1.81593 8.43359C1.81598 8.53435 1.78282 8.63207 1.71385 8.71068L1.67635 8.75234L1.64093 8.79401C1.63077 8.8056 1.6232 8.81696 1.61802 8.82734L1.59302 8.87526L1.5701 8.92318C1.56276 8.93794 1.55555 8.95278 1.55135 8.96901L1.52635 9.07318C1.51605 9.11318 1.50369 9.15286 1.49093 9.19193L1.4576 9.29193C1.42374 9.39561 1.35384 9.46976 1.28052 9.51901L1.2701 9.52318L1.27218 9.52734C1.29574 9.61721 1.29617 9.72004 1.24927 9.81901L1.22427 9.86693L1.20135 9.91693C1.19426 9.93198 1.18837 9.94714 1.18468 9.96276L1.17427 10.0148L1.16177 10.0669C1.15085 10.1134 1.13724 10.1598 1.1201 10.2044L1.09927 10.2544L1.08052 10.3044C1.06045 10.3565 1.02979 10.4013 0.997184 10.444L1.02218 10.4753C1.06112 10.5248 1.12946 10.636 1.08885 10.7753C1.05035 10.9072 0.9412 10.9649 0.888851 10.9878L0.807601 11.0253L0.778434 11.0357L0.797184 11.0898L0.820101 11.1482C0.836904 11.1926 0.852646 11.2375 0.865934 11.2815L0.899268 11.394C0.920911 11.4657 0.928603 11.5439 0.915934 11.6232L0.899268 11.7273C0.895194 11.7528 0.892373 11.7786 0.890934 11.8044L0.888851 11.8586L0.884684 11.9107C0.876031 12.0684 0.771278 12.1665 0.695101 12.2169L0.651351 12.244C0.672811 12.3275 0.675324 12.4148 0.643018 12.5003L0.622184 12.5523L0.613851 12.569L0.622184 12.5919L0.640934 12.6482C0.665366 12.7274 0.669198 12.812 0.649268 12.8961L0.638851 12.9336L0.647184 12.944L0.688851 12.9982C0.738289 13.0648 0.776398 13.1663 0.745101 13.2815C0.722085 13.366 0.66717 13.4203 0.624268 13.4565C0.677981 13.5379 0.713455 13.6484 0.672184 13.7732L0.653434 13.8253L0.636768 13.8794C0.631027 13.8968 0.627789 13.9127 0.626351 13.9273L0.620101 13.9753L0.634684 13.994L0.678434 14.0461C0.718157 14.0929 0.756334 14.1577 0.765934 14.2398C0.775574 14.3235 0.753438 14.3981 0.720101 14.4565L0.688851 14.5107L0.657601 14.5628V14.6044L0.655518 14.6586C0.653252 14.7285 0.633758 14.7927 0.607601 14.8523L0.622184 14.8648C0.695409 14.9244 0.776314 15.0237 0.780518 15.1648L0.782601 15.219L0.784684 15.2711C0.786675 15.3399 0.775788 15.4078 0.755518 15.4711L0.718018 15.5836C0.711481 15.6042 0.709302 15.6231 0.707601 15.6398L0.701351 15.694L0.695101 15.7419L0.711768 15.794L0.730518 15.8461C0.732429 15.8513 0.736806 15.8602 0.745101 15.8711L0.780518 15.9169L0.818018 15.9648C0.854034 16.012 0.883898 16.0639 0.907601 16.119L0.930518 16.169L0.951351 16.219C0.965226 16.2514 0.978829 16.2847 0.993018 16.3169L1.01593 16.3648L1.03677 16.4148C1.09282 16.5422 1.05828 16.658 1.01385 16.7398C1.09686 16.7963 1.18565 16.895 1.17843 17.0503L1.17635 17.1065L1.17427 17.1607C1.17403 17.1657 1.17386 17.1696 1.17427 17.1711L1.19093 17.2211L1.2076 17.2732C1.23047 17.3425 1.23806 17.4133 1.2326 17.4836L1.22843 17.5419L1.22635 17.5565L1.23677 17.5732L1.26802 17.619C1.33283 17.7119 1.35189 17.8189 1.33468 17.9211L1.32427 17.9753L1.35552 18.0128C1.43521 18.1053 1.45199 18.2141 1.43677 18.3128C1.49705 18.3327 1.60332 18.3847 1.65135 18.5086C1.69895 18.6323 1.65403 18.742 1.62427 18.7961L1.59093 18.8523L1.61177 18.8586L1.6951 18.8794C1.76212 18.8956 1.87108 18.9361 1.93885 19.0336L1.99093 19.1523L2.00135 19.2044L2.01385 19.2565C2.02737 19.3154 2.03193 19.376 2.03052 19.4357V19.4961L2.02843 19.5544C2.02731 19.6018 2.02514 19.6514 2.0201 19.7003L2.01593 19.7232L2.0326 19.7336C2.10932 19.7807 2.17639 19.8507 2.21385 19.9461L2.23468 19.9961L2.25343 20.0461C2.25809 20.058 2.26475 20.0692 2.27218 20.0794L2.30343 20.1232L2.33677 20.1669C2.35245 20.1883 2.3688 20.2093 2.38677 20.2294L2.42427 20.2711L2.45968 20.3107C2.51897 20.3769 2.55543 20.4561 2.5701 20.5398L2.58052 20.5982L2.58885 20.6544C2.59048 20.6637 2.59365 20.6685 2.5951 20.6711L2.62218 20.7169L2.64927 20.7648C2.68016 20.8194 2.70191 20.8777 2.71593 20.9378L2.7201 20.9565L2.7701 20.9732C2.83082 20.9921 2.901 21.0285 2.95343 21.0982C3.00645 21.1687 3.02256 21.2478 3.02218 21.3148V21.4003L3.0576 21.4357C3.10052 21.4777 3.13778 21.5253 3.16802 21.5773L3.1951 21.6232L3.2076 21.644L3.24093 21.6607L3.2951 21.6857C3.3221 21.6983 3.35175 21.7107 3.3826 21.7211L3.44302 21.7398L3.50135 21.7607C3.53981 21.7736 3.57789 21.7917 3.61385 21.8148L3.71385 21.9023L3.74927 21.9419L3.7826 21.9815C3.81422 22.019 3.83686 22.0607 3.85343 22.1023L3.88468 22.2273L3.88885 22.2628L3.9076 22.2711C3.99859 22.3086 4.06645 22.3744 4.10552 22.4565L4.13468 22.544L4.14927 22.6023V22.6086L4.19302 22.6357C4.24422 22.666 4.29075 22.7031 4.3326 22.7461L4.4076 22.8211C4.42062 22.8345 4.43533 22.8474 4.45135 22.8586L4.53885 22.9211C4.54535 22.9257 4.55551 22.9308 4.5701 22.9357L4.62635 22.9544L4.68052 22.9732C4.72767 22.9888 4.77281 23.0112 4.81177 23.0419L4.90968 23.1565L4.93885 23.2023L4.96593 23.2503C4.99871 23.3057 5.02263 23.3664 5.03885 23.4273L5.05552 23.4878L5.06385 23.5232L5.07843 23.5336L5.1201 23.5669C5.15837 23.5964 5.1947 23.6281 5.22843 23.6628L5.25343 23.6878H5.27843L5.35135 23.6836L5.46593 23.694C5.50837 23.7048 5.55365 23.7244 5.5951 23.7586C5.66894 23.8197 5.69565 23.8998 5.7076 23.9628C5.77976 23.9633 5.85837 23.9744 5.9326 24.0148L5.98052 24.0419L6.02635 24.0669C6.08578 24.0994 6.13857 24.1412 6.1826 24.1919L6.25343 24.2753C6.32531 24.3583 6.35215 24.4577 6.36177 24.5398L6.3701 24.6211V24.6294L6.39927 24.6232L6.47635 24.6065L6.57635 24.594C6.61383 24.5945 6.65524 24.6008 6.69718 24.6169C6.74277 24.6345 6.78123 24.6596 6.81177 24.6898L6.8826 24.7919L6.9076 24.8482L6.93468 24.9065C6.94581 24.9302 6.95848 24.9491 6.9701 24.9648L6.99302 24.9961H7.0451C7.08358 24.9961 7.12291 24.9999 7.16177 25.0086L7.27635 25.0503L7.32427 25.0753L7.3576 25.094H7.47635C7.54204 25.0938 7.60951 25.1034 7.67427 25.1253L7.77427 25.1586C7.90616 25.2031 7.96973 25.3064 7.99927 25.3919L8.01802 25.469L8.03468 25.5565L8.03677 25.5773L8.04302 25.5794C8.05177 25.5824 8.06364 25.585 8.07843 25.5857L8.1951 25.5898C8.23599 25.5917 8.27661 25.5986 8.31593 25.6107L8.43052 25.6628L8.47427 25.694L8.5201 25.7232C8.56228 25.7501 8.60304 25.7794 8.64093 25.8128L8.68468 25.8503L8.71802 25.8815L8.76177 25.8919L8.81385 25.9065C8.85636 25.917 8.89966 25.9279 8.94093 25.9419L8.99093 25.9607L9.04302 25.9773C9.04904 25.9793 9.05707 25.9814 9.06802 25.9815H9.12427L9.18052 25.9836C9.19744 25.9838 9.21796 25.982 9.24093 25.9773L9.36177 25.9523C9.43025 25.9384 9.50307 25.9347 9.57635 25.9482L9.62843 25.9586L9.6826 25.9669C9.72409 25.9747 9.76289 25.989 9.79927 26.0065L9.90135 26.0732L9.9451 26.1086L9.94718 26.1107H9.95135L10.0076 26.1065L10.1618 26.1211L10.2993 26.194L10.343 26.2294L10.3618 26.244H10.3826L10.4368 26.2461C10.4982 26.2473 10.5548 26.2614 10.6034 26.2857L10.7263 26.3815L10.7326 26.3878L10.743 26.3857C10.8423 26.3478 10.9609 26.3433 11.0722 26.4023L11.1222 26.4294L11.1701 26.4544L11.3201 26.5357L11.368 26.5628C11.4156 26.5887 11.4626 26.6181 11.5055 26.6523L11.5534 26.6919L11.568 26.7044H11.5784L11.6347 26.7023C11.673 26.7005 11.7114 26.6993 11.7493 26.6982L11.8576 26.694L11.9805 26.7065C12.0205 26.7161 12.0589 26.7311 12.0951 26.7503L12.1472 26.7773H12.1514L12.2076 26.7586C12.2481 26.745 12.2885 26.7307 12.3284 26.719L12.3826 26.7044L12.4389 26.6878C12.4838 26.6747 12.529 26.6647 12.5743 26.6565L12.6826 26.6357L12.7764 26.6315C12.8063 26.6336 12.8347 26.6397 12.8618 26.6482L13.0055 26.7253L13.0534 26.7669L13.0889 26.7607C13.0902 26.7604 13.0982 26.7589 13.1118 26.7503L13.2201 26.6794C13.3071 26.6232 13.4202 26.5931 13.5409 26.6253L13.5951 26.6398L13.6472 26.6544L13.8097 26.6982L13.8618 26.7128C13.8953 26.722 13.9302 26.7294 13.9639 26.7378L14.0118 26.7503L14.0222 26.7461L14.0743 26.7128L14.1659 26.6711C14.1993 26.6611 14.2359 26.6557 14.2743 26.6565C14.3119 26.6573 14.3467 26.6648 14.3784 26.6753L14.4659 26.7169L14.5118 26.744L14.5388 26.7336C14.5816 26.7152 14.6268 26.7045 14.6722 26.7003L14.8118 26.7086L14.8243 26.7107L14.8638 26.669C14.9111 26.6182 14.9895 26.5631 15.0951 26.5565C15.178 26.5516 15.2449 26.5816 15.2951 26.6128C15.3343 26.5704 15.3907 26.5251 15.4701 26.5065C15.5713 26.483 15.6602 26.5113 15.7222 26.5482L15.7805 26.5836L15.8389 26.6169L15.843 26.6128L15.8847 26.5482L15.968 26.4565C16.0053 26.4278 16.0528 26.4038 16.1118 26.394C16.17 26.3844 16.2219 26.3919 16.2659 26.4065L16.3722 26.4628L16.4368 26.5086L16.4493 26.5169L16.468 26.5128C16.4998 26.5016 16.5324 26.4893 16.5639 26.4773L16.6138 26.4586L16.6639 26.4378C16.7381 26.4095 16.8125 26.4099 16.8826 26.4211L16.8951 26.3878C16.9253 26.3076 17.007 26.1508 17.1951 26.1253L17.2493 26.1169L17.3013 26.1107L17.4389 26.1148L17.5618 26.1523L17.568 26.1544C17.6273 26.0853 17.7096 26.0283 17.8159 26.0107L17.868 26.0003L17.9201 25.9919L18.0118 25.9336C18.1502 25.8452 18.2919 25.882 18.3805 25.9253C18.4128 25.88 18.4586 25.8343 18.5264 25.8065C18.5856 25.7822 18.6426 25.7797 18.693 25.7857C18.7148 25.7001 18.7701 25.5605 18.9243 25.5023L19.0243 25.4648C19.0795 25.4442 19.137 25.4314 19.1951 25.4253L19.2493 25.419L19.3055 25.4128L19.3493 25.3878L19.3951 25.3607L19.4868 25.3232C19.5164 25.3156 19.5459 25.3133 19.5743 25.3128L19.7305 25.3378L19.793 25.3565L19.8013 25.3523C19.8425 25.3136 19.8878 25.2788 19.9368 25.2503L20.0284 25.1961C20.0423 25.188 20.0569 25.179 20.0701 25.1669L20.1097 25.1294L20.143 25.1003C20.143 25.1003 20.1449 25.0976 20.1472 25.0919L20.1972 24.9669L20.2347 24.8919C20.2806 24.8193 20.3513 24.7549 20.4534 24.7273L20.5076 24.7128L20.5597 24.7003C20.6183 24.6845 20.6787 24.6766 20.7388 24.6753L20.8638 24.6711C20.8746 24.6708 20.8769 24.67 20.8743 24.6711L20.9034 24.6586L20.9076 24.6461L20.9243 24.5773L20.9868 24.4336C21.0183 24.3871 21.0635 24.3443 21.1222 24.3128L21.168 24.2878L21.2159 24.2628C21.2538 24.2424 21.2927 24.2236 21.3326 24.2065L21.3826 24.1836L21.4326 24.1628C21.4376 24.1606 21.4422 24.1591 21.4451 24.1565L21.4847 24.119L21.5222 24.0815C21.5662 24.0402 21.6166 24.0071 21.6701 23.9794L21.7659 23.9294C21.8014 23.9111 21.8376 23.8923 21.8743 23.8753L21.9743 23.8294L22.0055 23.7919L22.0409 23.7503C22.0729 23.7134 22.1081 23.6798 22.1451 23.6482L22.1847 23.6128L22.2263 23.5773C22.2358 23.5692 22.2451 23.5599 22.2534 23.5482L22.2847 23.5023L22.318 23.4586L22.3764 23.3919C22.4403 23.3352 22.5173 23.3047 22.593 23.294L22.6576 23.2857L22.6993 23.2794L22.718 23.2628L22.7576 23.2273C22.775 23.211 22.7902 23.1919 22.8055 23.1732L22.8409 23.1315L22.8743 23.0898C22.8958 23.0635 22.918 23.0375 22.9389 23.0107L22.9722 22.9669L22.9847 22.9503L22.9868 22.894L22.9888 22.8232L23.0014 22.7378C23.0219 22.6508 23.0717 22.5608 23.1722 22.5023L23.268 22.4482C23.3154 22.4206 23.3659 22.3979 23.418 22.3794L23.5305 22.3378C23.5534 22.3297 23.5766 22.3214 23.5993 22.3128L23.593 22.2794C23.5831 22.2246 23.5792 22.1429 23.6159 22.0586C23.658 21.9627 23.7361 21.902 23.818 21.8753L23.9389 21.8378C23.9534 21.8331 23.9588 21.828 23.9597 21.8273L23.9909 21.8003L23.993 21.794L23.9972 21.7273L24.0201 21.6003C24.0338 21.5575 24.0534 21.515 24.0826 21.4753L24.1138 21.4315L24.1472 21.3898L24.2076 21.3232C24.2643 21.2758 24.3297 21.2518 24.3888 21.2378C24.3826 21.1361 24.4083 21.0134 24.518 20.9232L24.5597 20.8878L24.6034 20.8523C24.6504 20.8138 24.7013 20.7816 24.7555 20.7565V20.7461C24.742 20.642 24.7615 20.5142 24.8618 20.4148L24.8888 20.3878V20.3836L24.8826 20.319C24.8767 20.2572 24.8843 20.184 24.9222 20.1128C24.9606 20.0409 25.0189 19.9923 25.0763 19.9628L25.1347 19.9336L25.1784 19.9086L25.1951 19.8836L25.2222 19.8378C25.2406 19.8071 25.2597 19.7767 25.2784 19.7461L25.3055 19.7003L25.3347 19.6544C25.3761 19.5866 25.4319 19.533 25.493 19.4919L25.543 19.4565L25.5847 19.4273L25.593 19.4128L25.5784 19.3794L25.543 19.3044C25.5179 19.25 25.4886 19.1572 25.5201 19.0523C25.5543 18.9386 25.6393 18.8745 25.7076 18.844C25.691 18.7504 25.6994 18.6443 25.7659 18.5482L25.7972 18.5023L25.8284 18.4586C25.866 18.4044 25.9116 18.3566 25.9618 18.3169L25.968 18.3107L25.9639 18.2898C25.9471 18.2266 25.938 18.1597 25.9409 18.0919L25.943 18.0378L25.9472 17.9815C25.9501 17.9153 25.9632 17.8501 25.9888 17.7878L26.0097 17.7378L26.0284 17.6898L26.0784 17.6044C26.1354 17.5307 26.2118 17.4874 26.2722 17.4628L26.3493 17.4315L26.368 17.4232L26.3722 17.4086C26.3758 17.3884 26.3781 17.3663 26.3784 17.344V17.2878L26.3805 17.2315C26.3804 17.2375 26.3802 17.2354 26.3743 17.2211L26.3493 17.1586L26.3222 17.0961C26.2875 17.0131 26.2702 16.91 26.3034 16.8023L26.3201 16.7523L26.3347 16.7003C26.3669 16.5965 26.4368 16.5236 26.5055 16.4732L26.5618 16.4315L26.568 16.4253L26.5701 16.3919C26.5708 16.3563 26.5717 16.3209 26.5722 16.2857V16.1773C26.5725 16.1493 26.5723 16.1206 26.5701 16.0919L26.5659 16.0357L26.5618 15.9815C26.5565 15.9126 26.5643 15.8441 26.5847 15.7773L26.5993 15.7253L26.6097 15.6878L26.6013 15.6482L26.5889 15.594C26.5703 15.513 26.5729 15.4284 26.5993 15.3461L26.6159 15.294L26.6305 15.2419C26.6493 15.1837 26.6815 15.1349 26.7159 15.0919C26.6744 15.0537 26.6156 14.9859 26.5993 14.8857C26.5786 14.7568 26.6391 14.6558 26.6993 14.5982L26.7493 14.5482L26.8013 14.5003L26.818 14.4565L26.8243 14.4357L26.8159 14.4128L26.7951 14.3586C26.7628 14.267 26.762 14.1676 26.7951 14.0732L26.8326 13.969C26.8371 13.9562 26.8381 13.944 26.8389 13.9336L26.8472 13.8253C26.8506 13.7733 26.8575 13.7217 26.8701 13.6711L26.8743 13.6544L26.8222 13.6044C26.7803 13.5629 26.7328 13.4995 26.7159 13.4128C26.6979 13.3204 26.721 13.2359 26.7597 13.1711L26.793 13.1169L26.8118 13.0836V13.0628L26.8097 13.0398L26.7784 13.0044L26.7347 12.9544C26.6936 12.9066 26.6558 12.8383 26.6472 12.7544C26.6387 12.6704 26.6622 12.5967 26.6951 12.5398L26.7284 12.4836L26.7597 12.4294V12.4128L26.7451 12.4023L26.6868 12.3544C26.6325 12.3098 26.5651 12.2294 26.5597 12.1107C26.5559 12.0261 26.5879 11.9593 26.6201 11.9107C26.583 11.8771 26.5446 11.8318 26.5222 11.769C26.4874 11.6715 26.5044 11.5771 26.5388 11.5065L26.568 11.4482L26.5784 11.4232L26.5618 11.3711C26.5361 11.2847 26.5381 11.1975 26.5597 11.1169L26.5763 11.0586L26.5805 11.0357L26.5763 11.0232L26.5534 10.9732C26.5455 10.9555 26.535 10.9376 26.5222 10.919L26.4888 10.8711L26.4576 10.8232C26.3991 10.7385 26.374 10.6388 26.3868 10.5357L26.393 10.4773L26.4014 10.4211C26.4076 10.3719 26.4159 10.3224 26.4284 10.2732L26.443 10.2128L26.4534 10.1711L26.4513 10.1607L26.4055 10.1461L26.3201 10.1148C26.2324 10.0836 26.0525 9.98789 26.0597 9.76901L26.0638 9.65651C26.0651 9.62055 26.0652 9.58442 26.0659 9.54818L26.068 9.49193V9.43568C26.0685 9.41034 26.0667 9.38587 26.0638 9.36276L26.0513 9.25443C26.0456 9.20831 26.0439 9.16166 26.0451 9.11484L25.9993 9.09818C25.9469 9.07817 25.878 9.04193 25.8263 8.97318C25.7694 8.89713 25.7532 8.80708 25.7638 8.72526L25.7722 8.66484L25.7784 8.60443C25.783 8.56904 25.7883 8.53319 25.7909 8.49818L25.7951 8.43776L25.7993 8.37943L25.7826 8.33151L25.7805 8.32734L25.7534 8.31484L25.6909 8.28359C25.5799 8.22889 25.4824 8.12042 25.4784 7.96276L25.4763 7.90443V7.84609C25.4757 7.82183 25.4708 7.79806 25.468 7.77526L25.4097 7.76276C25.3167 7.74213 25.1692 7.67976 25.1159 7.51276L25.0993 7.46276L25.0826 7.41068C25.0655 7.35705 25.0545 7.30202 25.0493 7.24609L25.043 7.19818L25.0034 7.17109C24.9024 7.10439 24.8409 6.99989 24.8305 6.87943L24.8243 6.81901L24.8201 6.76068C24.816 6.71199 24.8132 6.6613 24.8139 6.61068V6.57318L24.793 6.56068C24.7142 6.51384 24.6478 6.44432 24.6097 6.35234L24.5972 6.32109H24.5909L24.5222 6.30234C24.4518 6.28358 24.3654 6.23884 24.3118 6.14401C24.2784 6.08478 24.2697 6.02444 24.2701 5.97318C24.2215 5.96693 24.1626 5.95616 24.1076 5.91901C24.0229 5.86179 23.9775 5.77441 23.9659 5.68568L23.9576 5.62318L23.9493 5.56276C23.945 5.52946 23.9393 5.49614 23.9326 5.46484L23.9201 5.40651L23.9159 5.39401L23.868 5.36276C23.8665 5.3618 23.8592 5.35834 23.843 5.35443L23.7805 5.33776L23.7159 5.32318C23.6475 5.30656 23.5715 5.26624 23.5159 5.18984C23.4624 5.11599 23.4486 5.03543 23.4493 4.97318V4.84818L23.4389 4.83568L23.4076 4.79193C23.3958 4.77621 23.3824 4.76146 23.368 4.74818L23.3284 4.71276L23.2888 4.67526C23.2454 4.635 23.2079 4.58972 23.1763 4.53984L23.1472 4.49401L23.118 4.44609C23.1053 4.42593 23.0912 4.4072 23.0763 4.38984L23.0409 4.35026L23.0347 4.34193L23.0034 4.33984L22.9389 4.32943C22.8426 4.3155 22.7392 4.2713 22.6659 4.17526L22.6347 4.13359H22.6201L22.5555 4.12734C22.4862 4.11943 22.4053 4.09035 22.3409 4.02318C22.2787 3.95809 22.2553 3.88087 22.2472 3.81901L22.2368 3.74818L22.2305 3.70859L22.2284 3.70651L22.1951 3.70859L22.1222 3.71276C22.0226 3.71938 21.8894 3.69735 21.793 3.58568L21.7597 3.54609L21.7243 3.50443C21.643 3.41024 21.6242 3.29534 21.6222 3.21068L21.6201 3.20026C21.5928 3.19804 21.5656 3.19676 21.5388 3.19401L21.4784 3.18776L21.4159 3.18151C21.3361 3.17318 21.2544 3.13649 21.193 3.06484C21.1367 2.99897 21.1153 2.92315 21.1076 2.86693L21.1055 2.86068C21.0594 2.85871 21.013 2.85804 20.968 2.84818L20.9138 2.83568L20.8576 2.82318C20.7496 2.79952 20.6615 2.7359 20.6034 2.64609L20.5722 2.59609L20.5639 2.58568L20.5555 2.58359L20.5014 2.56901C20.4345 2.55089 20.3722 2.5197 20.3159 2.47734L20.2722 2.44401L20.2305 2.41276C20.2241 2.40793 20.2159 2.40322 20.2076 2.40026L20.1576 2.38359L20.1055 2.36484C20.0108 2.3311 19.9387 2.26773 19.8888 2.19193L19.8847 2.18568L19.8597 2.19193C19.7709 2.20739 19.6659 2.20069 19.568 2.14401L19.5222 2.11693L19.4763 2.09193C19.3565 2.0224 19.3083 1.90374 19.2868 1.81901L19.2659 1.73984L19.2534 1.69401L19.243 1.69818L19.1743 1.71901C19.0875 1.7468 18.9755 1.7587 18.8638 1.70651L18.768 1.66068C18.7668 1.66009 18.7633 1.65907 18.7576 1.65859L18.6451 1.65026C18.4986 1.63928 18.3979 1.54894 18.343 1.45234L18.3159 1.40651H18.2993C18.1656 1.40423 18.0655 1.33323 18.0014 1.24609C17.9361 1.2738 17.8635 1.29543 17.7868 1.29818L17.6743 1.30234C17.5763 1.30571 17.4821 1.27557 17.4034 1.21693L17.3597 1.18359L17.3139 1.15026C17.2696 1.1173 17.2291 1.07865 17.1909 1.03776L17.1472 0.991927L17.1388 0.983594H17.0889C17.0869 0.983568 17.0787 0.98472 17.0639 0.989844L16.943 1.03151C16.8716 1.05598 16.7842 1.06037 16.6972 1.02318C16.6152 0.987932 16.5619 0.927251 16.5305 0.877344L16.5159 0.854427C16.4155 0.878528 16.3114 0.864503 16.218 0.80651L16.1784 0.835677C16.1241 0.874592 16.0322 0.919145 15.918 0.898177C15.8044 0.876979 15.7338 0.802226 15.6972 0.748177L15.6763 0.716927C15.6285 0.73068 15.5802 0.743597 15.5305 0.748177L15.4763 0.752344L15.4222 0.758594C15.3011 0.769706 15.1966 0.724134 15.1201 0.658594L15.0722 0.614844L15.0534 0.598177L15.0493 0.60026H15.0014L14.9493 0.63151L14.893 0.66276C14.829 0.698564 14.7565 0.724824 14.6763 0.73151L14.6222 0.73776L14.568 0.741927C14.5362 0.744563 14.5039 0.746412 14.4722 0.75026L14.4201 0.75651L14.3659 0.764844C14.2764 0.775632 14.1906 0.757844 14.1138 0.721094L14.0097 0.671094C13.9852 0.659349 13.9608 0.649922 13.9368 0.641927L13.8826 0.623177L13.8305 0.60651C13.8204 0.60314 13.8125 0.601385 13.8076 0.60026C13.8029 0.59922 13.8013 0.598005 13.8034 0.598177L13.7743 0.596094C13.7614 0.600623 13.7481 0.606474 13.7347 0.610677L13.6264 0.64401C13.4931 0.685319 13.371 0.646261 13.2826 0.58151L13.2805 0.579427C13.2287 0.619072 13.1716 0.654443 13.1076 0.677344L13.0034 0.714844C12.8944 0.753806 12.7844 0.740866 12.6909 0.696094L12.6347 0.66901L12.5868 0.64401L12.5514 0.648177L12.5159 0.65026L12.4763 0.677344L12.4264 0.710677C12.3486 0.762566 12.2541 0.792316 12.1514 0.783594L12.0972 0.779427L12.043 0.773177C11.9752 0.767332 11.9157 0.742816 11.8618 0.714844C11.8344 0.756779 11.7972 0.806373 11.7389 0.841927C11.6656 0.886338 11.5787 0.901408 11.493 0.883594L11.4409 0.873177L11.3951 0.908594C11.3366 0.951326 11.2632 0.978474 11.1826 0.977344C11.106 0.976168 11.0413 0.949599 10.993 0.921094L10.9326 0.883594L10.8159 0.941927L10.768 0.964844L10.7201 0.989844C10.7056 0.997077 10.6885 1.00591 10.6722 1.01901L10.6284 1.05651L10.5826 1.09401C10.5102 1.15216 10.4187 1.17589 10.3264 1.16276C10.2798 1.1561 10.2398 1.13917 10.2055 1.12109C10.1818 1.15902 10.1496 1.20004 10.1014 1.23151C10.0077 1.29235 9.90355 1.29371 9.8201 1.26693L9.77427 1.25026L9.75343 1.26901C9.69249 1.319 9.61734 1.34753 9.53677 1.34818C9.4976 1.3484 9.46082 1.34105 9.42843 1.33151C9.41192 1.37371 9.38963 1.42273 9.34927 1.46484C9.28764 1.52907 9.20136 1.56749 9.10552 1.56693H8.99093C8.97271 1.5668 8.9569 1.56807 8.94302 1.57109L8.88885 1.58359L8.83677 1.59401C8.82753 1.5961 8.81958 1.60005 8.81177 1.60443L8.76593 1.63151L8.71802 1.65651C8.59982 1.72331 8.47775 1.71041 8.38677 1.67943L8.37843 1.67526C8.33735 1.7369 8.28509 1.79571 8.21177 1.83568L8.16385 1.86068L8.11802 1.88776C8.03109 1.93489 7.94081 1.9363 7.86177 1.92526C7.83043 2.02855 7.74966 2.16606 7.57218 2.19193L7.45968 2.20859C7.41948 2.21436 7.378 2.21863 7.33677 2.22318L7.29927 2.22526L7.27635 2.27109C7.23878 2.33741 7.18569 2.39972 7.11593 2.44609L7.02843 2.50443C6.94497 2.55991 6.85566 2.56448 6.77843 2.55859C6.76905 2.62113 6.74624 2.71642 6.65552 2.78359C6.5427 2.86685 6.41963 2.84613 6.3576 2.82734L6.28885 2.80651L6.28677 2.84401L6.27843 2.92318C6.26834 3.01272 6.23179 3.13876 6.11385 3.22109L6.0701 3.25234L6.02635 3.28151C5.91727 3.35717 5.79505 3.35713 5.7076 3.34193L5.65968 3.33359C5.62842 3.38583 5.59223 3.43604 5.5451 3.47734L5.50552 3.51068L5.46385 3.54609C5.42209 3.58269 5.37711 3.61537 5.32843 3.64193L5.28052 3.66693L5.2326 3.69401C5.20572 3.70869 5.17917 3.7237 5.15343 3.73984L5.06177 3.79818C5.02556 3.8209 4.98748 3.84253 4.94927 3.86276L4.93468 3.86901L4.9326 3.94193C4.92663 4.05429 4.87493 4.20012 4.71802 4.26901L4.68052 4.28359L4.66593 4.33984C4.64813 4.40765 4.61013 4.47728 4.54302 4.52943C4.47839 4.57952 4.4063 4.59908 4.34718 4.60443L4.27843 4.61068H4.2701L4.25552 4.63776C4.22834 4.68127 4.19811 4.72263 4.16385 4.76068L4.12635 4.80026L4.09093 4.83984C4.08925 4.84181 4.08744 4.84571 4.08468 4.85234L4.06177 4.90443L4.04093 4.95859C4.01196 5.02988 3.96773 5.0939 3.9076 5.14609L3.86593 5.18151L3.82635 5.21693C3.80008 5.23962 3.77336 5.26267 3.74718 5.28568L3.70552 5.32109L3.66593 5.35651C3.64427 5.37555 3.6233 5.39645 3.60343 5.41693L3.56593 5.45443L3.52843 5.49401C3.52631 5.49633 3.5244 5.49942 3.52218 5.50443L3.47635 5.60443C3.46163 5.6376 3.44712 5.67144 3.4326 5.70443L3.41177 5.75443L3.38885 5.80443C3.36486 5.85877 3.335 5.91021 3.29718 5.95651L3.26385 5.99818L3.22843 6.03776C3.20231 6.06972 3.17562 6.10129 3.14718 6.13151L3.10968 6.17109L3.07427 6.21068C3.00729 6.28181 2.92321 6.32062 2.8451 6.34193L2.77843 6.36068L2.76593 6.36276L2.75552 6.38568L2.76177 6.45234L2.76593 6.51901C2.77247 6.60427 2.7613 6.70092 2.7076 6.78984L2.67843 6.83568L2.65135 6.87943C2.60833 6.95066 2.55024 7.00586 2.48468 7.04609L2.4326 7.07734L2.3826 7.10859C2.36775 7.11771 2.35774 7.12662 2.35135 7.13359L2.31385 7.17318L2.27843 7.21484C2.26025 7.2347 2.24186 7.2541 2.22635 7.27526L2.16385 7.36276C2.14282 7.39147 2.12019 7.42138 2.09927 7.45026L2.03677 7.53776V7.53984L2.02427 7.59193L2.01177 7.64609C1.99703 7.70982 1.97161 7.77125 1.93677 7.82734L1.9076 7.87318L1.88052 7.91901C1.85227 7.96449 1.81906 8.00676 1.7826 8.04609L1.76802 8.05859L1.78677 8.11901C1.80527 8.1831 1.81591 8.25074 1.81593 8.31901V8.43359ZM13.8576 2.73776C13.9094 2.74814 13.9567 2.77053 13.9951 2.79193L14.0159 2.76901L14.1013 2.69401C14.1399 2.66957 14.1885 2.64924 14.2472 2.64401C14.3123 2.63821 14.3682 2.6528 14.4138 2.67526L14.5201 2.75651L14.5618 2.80026H14.568L14.6576 2.78776C14.7446 2.78536 14.8265 2.8121 14.8951 2.86068L14.8993 2.86276L14.9243 2.85026L15.018 2.80859C15.0542 2.79803 15.0948 2.79289 15.1389 2.79609C15.1837 2.79942 15.2245 2.81061 15.2597 2.82734L15.3493 2.88984L15.3972 2.93151L15.4368 2.96693L15.4659 2.97318L15.518 2.98359L15.6305 2.95859C15.6529 2.95355 15.6794 2.94482 15.7076 2.93359L15.7659 2.91068L15.8264 2.88568L15.9222 2.86068C15.9575 2.85651 15.9953 2.85874 16.0347 2.86693C16.0742 2.87518 16.1101 2.88844 16.1409 2.90651L16.2201 2.96901L16.2639 3.01484L16.3097 3.06068C16.3167 3.06769 16.317 3.06573 16.3097 3.06276L16.4097 3.10026C16.4657 3.12173 16.5178 3.15086 16.5659 3.18568L16.6118 3.21901L16.6368 3.23776H16.6639L16.7201 3.23984C16.7632 3.24109 16.8066 3.24356 16.8493 3.24818L16.9576 3.26068C16.9601 3.26034 16.964 3.25826 16.9701 3.25651L17.0326 3.23984L17.0951 3.22109C17.1745 3.19827 17.2645 3.19167 17.3555 3.21693L17.4597 3.24609C17.5086 3.25976 17.5528 3.28172 17.5909 3.30859L17.6909 3.40443L17.7139 3.43568L17.7493 3.43359L17.8826 3.44609C17.9262 3.4594 17.9683 3.48154 18.0055 3.51484C18.0459 3.55113 18.0706 3.59468 18.0889 3.63359C18.141 3.61338 18.212 3.59485 18.293 3.61484C18.3582 3.63095 18.4068 3.66463 18.443 3.70234L18.5159 3.81901L18.543 3.88776L18.5701 3.95443C18.5726 3.96075 18.5763 3.96659 18.5784 3.97109L18.6264 3.95234L18.7764 3.91276C18.8056 3.91014 18.8365 3.9103 18.868 3.91484L18.9639 3.94401L19.0138 3.96484L19.0639 3.98776C19.1387 4.02093 19.1884 4.0725 19.2222 4.12734L19.2826 4.28776L19.2972 4.36901L19.3055 4.41901L19.3409 4.41484L19.4097 4.40651H19.5493L19.693 4.45651L19.7847 4.51068C19.8415 4.54336 19.8835 4.58709 19.9138 4.63359L19.9743 4.77734L19.9868 4.83568L20.0034 4.84193C20.0397 4.85295 20.0747 4.86696 20.1076 4.88568L20.2013 4.95443L20.2284 4.97943L20.2555 4.97734L20.3284 4.96901C20.389 4.9625 20.4739 4.96725 20.5555 5.01693C20.6414 5.06924 20.686 5.14836 20.7055 5.21901L20.7222 5.28359L20.7368 5.33568L20.7618 5.35859L20.7993 5.39609C20.8149 5.41078 20.8333 5.42337 20.8513 5.43568L20.8951 5.46693L20.9389 5.49609C21.0056 5.54152 21.0566 5.60236 21.093 5.67109L21.1555 5.66693C21.2592 5.66027 21.4153 5.68604 21.5076 5.83359L21.5368 5.88151L21.5639 5.92318L21.6076 5.95234L21.6534 5.98151C21.7075 6.01648 21.748 6.06194 21.7764 6.11068L21.8284 6.26484L21.8368 6.32526L21.868 6.34193C21.9549 6.38906 22.0127 6.46252 22.043 6.54401L22.0659 6.62734L22.0826 6.75234C22.0851 6.76913 22.0902 6.77593 22.0909 6.77734L22.1159 6.82526L22.118 6.82943L22.1368 6.83776L22.1972 6.85859C22.2589 6.88107 22.3187 6.913 22.3722 6.95443L22.4597 7.02109C22.4915 7.04577 22.5185 7.07527 22.543 7.10651L22.6055 7.20859L22.6284 7.25859L22.6493 7.30859C22.6746 7.3655 22.6871 7.42456 22.693 7.48359L22.7159 7.48776C22.7848 7.49745 22.8724 7.52271 22.9451 7.58568L23.0118 7.66068L23.0409 7.70651L23.0701 7.75026C23.1133 7.81569 23.1385 7.88864 23.1493 7.96276L23.1659 8.07943C23.1685 8.09676 23.1742 8.10923 23.1784 8.11901L23.2201 8.21901C23.2442 8.27534 23.2599 8.33398 23.268 8.39401L23.2764 8.45234L23.2805 8.48984L23.3034 8.52109L23.3368 8.56276C23.3772 8.61419 23.409 8.67165 23.4305 8.73359L23.443 8.77318L23.4659 8.78359L23.5305 8.81068C23.5966 8.83894 23.6679 8.88625 23.718 8.95859L23.7597 9.04193L23.7805 9.09193L23.7993 9.14193C23.843 9.25783 23.8217 9.37029 23.7888 9.45443L23.7701 9.50443L23.8284 9.58151C23.875 9.66306 23.8873 9.75585 23.8701 9.84401L23.8576 9.90651L23.8847 9.93984C23.8928 9.94962 23.905 9.96285 23.9243 9.97734L23.9763 10.0148L24.0284 10.0544C24.0846 10.0968 24.139 10.1634 24.1597 10.2544C24.1794 10.3422 24.1612 10.4209 24.1368 10.4773L24.1076 10.5419L24.1013 10.5503L24.118 10.5794C24.1574 10.6514 24.1789 10.7316 24.1784 10.8128L24.1763 10.8648L24.1847 10.8732L24.2305 10.9169C24.2721 10.958 24.3092 11.0032 24.3409 11.0523L24.4034 11.1482C24.4264 11.1838 24.4449 11.2225 24.4576 11.2628L24.4784 11.3878L24.4805 11.4419V11.4982C24.4823 11.5635 24.4749 11.6283 24.4576 11.6898L24.4534 11.6961L24.4847 11.7232C24.5423 11.7728 24.6035 11.858 24.6034 11.9753C24.6031 12.0814 24.552 12.1596 24.5138 12.2044L24.4597 12.2669L24.4493 12.2753L24.4555 12.2898C24.4698 12.3352 24.4807 12.3827 24.4888 12.4294L24.5055 12.5336C24.5102 12.5603 24.517 12.5879 24.5243 12.6148L24.5388 12.6669L24.5534 12.7169C24.5571 12.7304 24.5625 12.7468 24.5722 12.7648L24.6264 12.869C24.6678 12.9464 24.6882 13.0341 24.6784 13.1273L24.6743 13.1815L24.668 13.2357C24.6623 13.2904 24.6494 13.3437 24.6326 13.3961L24.5993 13.5044C24.5888 13.5371 24.579 13.5703 24.5701 13.6023L24.5555 13.6544L24.5409 13.7086C24.5317 13.7415 24.5219 13.7741 24.5138 13.8065L24.5014 13.8586L24.4993 13.8628L24.5097 13.8815L24.5368 13.9336C24.5656 13.9871 24.5887 14.0448 24.6034 14.1044L24.618 14.1586L24.6305 14.2128C24.6573 14.3221 24.6362 14.4294 24.5826 14.519L24.5513 14.5711L24.5264 14.6107V14.6648L24.5576 14.7128L24.5993 14.7711C24.6446 14.8372 24.6841 14.9458 24.6409 15.0669C24.6035 15.1714 24.5227 15.2289 24.4743 15.2565L24.418 15.2857C24.427 15.3245 24.4364 15.363 24.4409 15.4023L24.4472 15.4586L24.4534 15.5128C24.462 15.587 24.4548 15.6614 24.4305 15.7336L24.4138 15.7815L24.4263 15.8086L24.4555 15.869C24.4838 15.9274 24.5053 16.007 24.4868 16.0961C24.4679 16.186 24.4148 16.2515 24.3638 16.294L24.3139 16.3378L24.2826 16.3607L24.2805 16.3753L24.2743 16.4044L24.293 16.4607L24.3159 16.5232C24.3398 16.5901 24.3493 16.6773 24.3139 16.7669C24.2825 16.8457 24.2259 16.8965 24.1763 16.9294C24.2027 16.9965 24.2207 17.0929 24.1722 17.194C24.1239 17.2946 24.038 17.3424 23.9826 17.3648L23.9055 17.3961L23.8805 17.4044L23.8764 17.4273C23.8669 17.4665 23.8568 17.5055 23.8451 17.544L23.8305 17.594L23.8139 17.6461C23.7968 17.7024 23.774 17.7567 23.743 17.8065L23.7139 17.8523L23.718 17.8753L23.7326 17.9378C23.7465 18.004 23.7447 18.0875 23.7034 18.169C23.6627 18.2492 23.5977 18.2993 23.5409 18.3273L23.4805 18.3565L23.4347 18.3773L23.4451 18.3982L23.4868 18.4794C23.5111 18.5273 23.5402 18.6025 23.5326 18.6919C23.5235 18.7978 23.4667 18.8848 23.3868 18.9378L23.3368 18.9711L23.2847 19.0044C23.2512 19.0266 23.2173 19.0493 23.1847 19.0711L23.1368 19.1044L23.1138 19.119L23.1097 19.1336L23.093 19.1857C23.0695 19.2588 23.0297 19.3242 22.9763 19.3794L22.9639 19.3898L22.9659 19.4003L22.9847 19.4753C23.0066 19.5649 23.0135 19.6882 22.9409 19.8023L22.8826 19.894C22.8101 20.0074 22.6962 20.0538 22.6034 20.0711L22.5534 20.0794C22.5246 20.2064 22.44 20.2991 22.3284 20.3461L22.2722 20.3711L22.2159 20.394C22.2076 20.3975 22.2084 20.3978 22.2139 20.3919L22.1784 20.4315L22.1763 20.4669V20.5357C22.176 20.6063 22.1662 20.6784 22.1409 20.7482L22.1222 20.8023L22.1013 20.8565C22.0449 21.0127 21.9095 21.0803 21.7909 21.094L21.718 21.1023H21.7097L21.6972 21.1273C21.6746 21.1669 21.6486 21.2051 21.6222 21.2419L21.5597 21.3294C21.5321 21.3679 21.5023 21.4053 21.4701 21.4398L21.4326 21.4794L21.3972 21.519C21.3484 21.5713 21.2897 21.6124 21.2263 21.6419L21.1763 21.6648H21.1722L21.1701 21.6753L21.1493 21.7315C21.123 21.8037 21.0822 21.8729 21.0222 21.9294L20.9826 21.9669L20.943 22.0023C20.9306 22.014 20.9189 22.028 20.9076 22.044L20.8743 22.0898L20.843 22.1357C20.7522 22.2647 20.6126 22.2966 20.5034 22.2898L20.4493 22.2857L20.4451 22.294C20.3811 22.4033 20.2761 22.4666 20.1597 22.4815L20.1034 22.4878L20.0805 22.5273C20.0328 22.6051 19.9632 22.6679 19.8743 22.7044L19.8222 22.7253L19.7722 22.7461C19.7638 22.7496 19.7572 22.7537 19.7514 22.7586L19.7097 22.7919L19.668 22.8273C19.6398 22.8509 19.6112 22.8749 19.5826 22.8982L19.5409 22.9315L19.4993 22.9669C19.4569 23.0013 19.4105 23.0298 19.3618 23.0544L19.2659 23.1044C19.1953 23.1399 19.1214 23.1471 19.0513 23.1461L19.0493 23.1607C19.0362 23.2209 18.9991 23.3249 18.8909 23.3878C18.7801 23.4521 18.6694 23.4307 18.6076 23.4086L18.5368 23.3815L18.5347 23.3857C18.5019 23.4159 18.4678 23.4442 18.4326 23.4711L18.3888 23.5044L18.3472 23.5378C18.3441 23.5401 18.3361 23.5466 18.3263 23.5607L18.2909 23.6128L18.2534 23.6648C18.208 23.7312 18.1361 23.7909 18.0368 23.8086C17.9465 23.8247 17.8681 23.8012 17.8159 23.7773L17.8139 23.7753C17.765 23.8457 17.6974 23.9137 17.5951 23.9419L17.543 23.9565L17.493 23.9711C17.4247 23.99 17.3554 23.9913 17.2889 23.9836L17.2743 24.019C17.2482 24.0751 17.1953 24.1558 17.0951 24.1982C16.9892 24.2427 16.8893 24.2193 16.8243 24.1898L16.7722 24.1669L16.7638 24.1753C16.6704 24.2466 16.5577 24.27 16.4472 24.2482L16.4263 24.2419L16.3993 24.2753C16.3528 24.3302 16.2963 24.3789 16.2284 24.4148L16.1784 24.4419L16.1305 24.4669C16.0212 24.5248 15.9038 24.523 15.8034 24.4857L15.7784 24.4753L15.7576 24.4961C15.7037 24.5453 15.6277 24.5852 15.5347 24.5878C15.4458 24.5899 15.3722 24.5563 15.3222 24.5232L15.2014 24.444C15.1912 24.4373 15.184 24.433 15.1805 24.4315L15.1514 24.4253L15.1097 24.4669C15.0695 24.5062 15.0151 24.5454 14.9451 24.5648C14.873 24.5848 14.8005 24.5794 14.7368 24.5586L14.6972 24.544L14.6534 24.5753C14.5992 24.6129 14.5396 24.6433 14.4743 24.6628L14.4201 24.6794L14.368 24.694C14.3066 24.7122 14.2429 24.7227 14.1784 24.7211L14.0701 24.7169C13.9867 24.7147 13.9087 24.6911 13.8409 24.6544L13.7326 24.5961C13.6886 24.5723 13.6458 24.545 13.6076 24.5148L13.5722 24.4878L13.5388 24.4607C13.462 24.3998 13.4206 24.3196 13.3993 24.2461L13.3826 24.1919L13.368 24.1398C13.3531 24.0884 13.3436 24.0349 13.3389 23.9815L13.3326 23.9294L13.3284 23.8753C13.3162 23.7378 13.3892 23.6423 13.4534 23.5794C13.4138 23.5336 13.3706 23.4699 13.368 23.3794C13.3645 23.2445 13.4444 23.1558 13.493 23.1148L13.5222 23.0878C13.4865 23.0038 13.4745 22.9106 13.5034 22.8148L13.518 22.7607L13.5222 22.744L13.5159 22.7273L13.493 22.6732C13.4887 22.6631 13.4808 22.6485 13.4659 22.6294L13.4243 22.5753L13.3826 22.5232C13.309 22.4286 13.2683 22.2929 13.3243 22.1523L13.3472 22.1003L13.368 22.0461C13.3746 22.0295 13.3787 22.0151 13.3805 22.0023L13.3868 21.9482L13.3951 21.8961L13.3805 21.844L13.3639 21.7898C13.3164 21.6195 13.4057 21.4859 13.4826 21.4148L13.5118 21.3878C13.4835 21.3234 13.4661 21.2525 13.468 21.1773V21.1253L13.4701 21.0711C13.4712 21.0287 13.4739 20.9863 13.4784 20.944L13.4909 20.8357C13.4962 20.7874 13.5038 20.7392 13.5159 20.6919L13.5305 20.6398L13.543 20.5857C13.5458 20.5748 13.5476 20.565 13.5472 20.5565L13.5451 20.5044L13.543 20.4503L13.5409 20.4482C13.5406 20.4467 13.5406 20.4438 13.5388 20.4398L13.5159 20.3857L13.4909 20.3336C13.4557 20.2539 13.4419 20.1645 13.4576 20.0732L13.468 20.019L13.4763 19.9669C13.4833 19.9268 13.4923 19.886 13.5014 19.8461L13.5034 19.8357L13.5014 19.8336L13.443 19.7794C13.392 19.7315 13.3198 19.6364 13.3347 19.5023C13.3478 19.386 13.4194 19.3109 13.4659 19.2732C13.43 19.2823 13.3902 19.2906 13.3472 19.2857C13.2516 19.2746 13.1811 19.2247 13.1368 19.1794L13.0889 19.1294L13.0597 19.1003H13.0576L13.0055 19.0961C12.976 19.094 12.9461 19.0924 12.9159 19.0919H12.8284L12.768 19.1253L12.7055 19.1586C12.6271 19.2011 12.5274 19.2296 12.418 19.2107L12.3659 19.2003L12.3118 19.1919C12.2722 19.1851 12.2323 19.1777 12.193 19.169L12.1389 19.1565L12.0868 19.144C12.0012 19.125 11.9265 19.0834 11.8659 19.0273L11.8222 18.9878L11.8139 18.9794L11.8097 18.9815L11.7514 18.9857C11.6039 18.9914 11.4886 18.9128 11.4222 18.8065L11.3513 18.694C11.3378 18.6723 11.3265 18.6585 11.318 18.6503L11.2784 18.6107L11.2722 18.6128L11.2118 18.6148C11.1773 18.6157 11.1401 18.6179 11.1013 18.6211L11.0347 18.6253L10.9701 18.6315C10.9054 18.6369 10.827 18.6263 10.7534 18.5815C10.6801 18.5368 10.6347 18.4722 10.6097 18.4128L10.5847 18.3523L10.5764 18.3336L10.5264 18.3128C10.476 18.2921 10.4277 18.2662 10.3826 18.2357L10.3389 18.2044L10.293 18.1753C10.2662 18.1571 10.2395 18.1385 10.2118 18.1211L10.1639 18.0919L10.118 18.0628C10.0205 18.0015 9.97226 17.9087 9.94927 17.819L9.94302 17.8211C9.83906 17.826 9.69091 17.7973 9.59927 17.6586L9.56802 17.6128L9.53885 17.5669C9.48943 17.4921 9.46655 17.409 9.45968 17.3294L9.45343 17.2628L9.44718 17.2086L9.4326 17.1898L9.41593 17.169L9.36802 17.1544L9.3076 17.1336C9.23992 17.1112 9.16445 17.0654 9.11593 16.9815C9.06949 16.9009 9.0667 16.8174 9.07427 16.7565L9.0826 16.6857V16.6732L9.06385 16.6544C9.00101 16.5932 8.96385 16.517 8.94718 16.4357L8.87427 16.4273C8.7846 16.4148 8.62753 16.3697 8.55552 16.2086L8.5326 16.1586L8.51177 16.1086C8.46266 15.9985 8.47272 15.8884 8.50135 15.8003L8.5201 15.7398L8.50968 15.7273C8.42644 15.6343 8.39846 15.5164 8.41802 15.4023L8.42843 15.344L8.43052 15.3128L8.42427 15.2982L8.39927 15.2523C8.35695 15.1719 8.3421 15.0833 8.35135 14.9961L8.35343 14.9711L8.3076 14.9357C8.25153 14.8899 8.20177 14.8334 8.16385 14.7669L8.13468 14.7169L8.1076 14.6669C8.04492 14.557 8.04147 14.4348 8.08468 14.3273L8.10552 14.2711L8.0826 14.2294C8.01154 14.1006 8.02875 13.962 8.0951 13.8544L8.08677 13.844C8.02087 13.769 7.9655 13.6585 7.9826 13.5253L7.98885 13.4711L7.99718 13.4169L8.04302 13.2732C8.06599 13.2301 8.09537 13.1925 8.12635 13.1607L8.17427 13.1107L8.18052 13.1023L8.17843 13.0669C8.17121 13.0095 8.17121 12.9517 8.17843 12.894L8.18468 12.8419L8.18677 12.8128L8.16385 12.7648L8.1326 12.7044C8.10752 12.6535 8.08937 12.5881 8.09302 12.5148C8.09689 12.4396 8.12384 12.373 8.16385 12.319L8.23468 12.2232C8.24958 12.2031 8.26129 12.1844 8.2701 12.1669L8.2951 12.1169L8.3201 12.069C8.33582 12.0377 8.35086 12.0063 8.36593 11.9753L8.38885 11.9253L8.41385 11.8773L8.4826 11.7732C8.50962 11.7423 8.54023 11.715 8.57218 11.6919L8.5826 11.6815L8.58052 11.6669C8.56801 11.6089 8.56222 11.5489 8.56177 11.4898L8.55968 11.4315V11.3711C8.55921 11.2919 8.57653 11.2121 8.61593 11.1378L8.64093 11.0898L8.66802 11.0419C8.6767 11.0255 8.6828 11.0072 8.68885 10.9878L8.70552 10.9336L8.72218 10.8815L8.79718 10.7419C8.82947 10.7029 8.86884 10.6713 8.91177 10.6461L8.96593 10.6148L9.01802 10.5836C9.04893 10.5655 9.07856 10.5475 9.10552 10.5294L9.12843 10.5128V10.4565C9.12815 10.3903 9.14439 10.308 9.20135 10.2357C9.25779 10.1643 9.33253 10.1305 9.3951 10.1148L9.46177 10.0982L9.52218 10.0815L9.54718 10.0586L9.58052 10.0273L9.60135 9.97526L9.62218 9.92318L9.6701 9.83359C9.72861 9.75571 9.81394 9.70882 9.90343 9.69193L9.96593 9.68151L9.98052 9.67734L10.0076 9.63776L10.0743 9.55651C10.0999 9.53106 10.1287 9.50763 10.1597 9.48776L10.2034 9.46068L10.2472 9.43151C10.2796 9.41069 10.314 9.39054 10.3472 9.37109L10.3826 9.34818L10.3889 9.32526L10.4034 9.25651L10.4305 9.17526C10.4671 9.09369 10.534 9.01571 10.643 8.97734L10.6951 8.95859L10.7472 8.94193C10.7934 8.92569 10.8405 8.9131 10.8889 8.90443L10.9034 8.84193L10.9368 8.74818C10.9533 8.71469 10.9771 8.67924 11.0097 8.64818C11.0821 8.57963 11.1725 8.55485 11.2555 8.55859L11.318 8.56068H11.3659L11.3951 8.54818L11.4409 8.52109C11.5334 8.47005 11.6303 8.46722 11.7159 8.48359L11.7222 8.47526L11.8076 8.34193C11.8478 8.29914 11.9002 8.26131 11.968 8.23984L12.0201 8.22526L12.0722 8.20859L12.1847 8.18568L12.2972 8.18984L12.3555 8.19609L12.4138 8.20443C12.4752 8.21269 12.5356 8.22993 12.593 8.25234L12.643 8.27109L12.6743 8.25234C12.7289 8.21809 12.7896 8.19294 12.8534 8.17734L12.9576 8.15234L13.0659 8.13776C13.1022 8.1369 13.1385 8.13945 13.1743 8.14609L13.2826 8.16693C13.2909 8.16846 13.2995 8.16766 13.3076 8.16901C13.3067 8.16276 13.304 8.1567 13.3034 8.15026C13.2959 8.07007 13.3168 7.99894 13.3472 7.94401L13.3784 7.88984L13.3847 7.87526V7.86901L13.3722 7.81693C13.3553 7.74768 13.3506 7.67543 13.3618 7.60443L13.3701 7.55234L13.3805 7.49818C13.3927 7.42098 13.4208 7.3509 13.4597 7.28984L13.4951 7.23568L13.5284 7.18359C13.541 7.16386 13.5489 7.14684 13.5534 7.13359L13.568 7.08776V7.08568L13.5368 7.03359C13.5252 7.01348 13.51 6.98985 13.4889 6.96484L13.443 6.91276L13.3993 6.85859C13.3601 6.81215 13.3205 6.74571 13.3118 6.66068C13.303 6.57241 13.3302 6.49443 13.368 6.43568L13.3784 6.41484L13.3701 6.40026C13.3207 6.32077 13.3003 6.21665 13.3389 6.11276C13.3715 6.02558 13.4348 5.96972 13.4784 5.93776L13.5222 5.90443C13.5162 5.89325 13.5109 5.88091 13.5034 5.86901L13.4701 5.81484L13.4347 5.76276C13.3955 5.70083 13.3668 5.62882 13.3555 5.55026L13.3472 5.49818L13.3409 5.44401C13.3158 5.26764 13.4268 5.14724 13.4993 5.08984L13.518 5.07318C13.5048 5.0504 13.4914 5.02721 13.4784 5.00443L13.4472 4.95234L13.418 4.89818C13.3665 4.80758 13.3463 4.69782 13.3784 4.58568L13.393 4.53359L13.4076 4.47943C13.425 4.41854 13.4524 4.36182 13.4847 4.30859L13.518 4.25443L13.5493 4.20026C13.5559 4.18921 13.5592 4.18348 13.5597 4.18151L13.568 4.13359L13.5597 4.12318L13.5201 4.06901C13.4631 3.98993 13.4245 3.88422 13.443 3.76484L13.4514 3.71276L13.4597 3.65859C13.4712 3.58478 13.4987 3.51695 13.5347 3.45651L13.5514 3.42734L13.5368 3.40026C13.5053 3.34198 13.4814 3.27849 13.4701 3.21068L13.4618 3.15651L13.4534 3.10443C13.4504 3.08609 13.4469 3.06885 13.4451 3.05651C13.4443 3.05165 13.441 3.02472 13.4409 3.00026V2.98568C13.4411 2.92604 13.4613 2.86611 13.5014 2.81693C13.5383 2.77187 13.5824 2.74891 13.6097 2.73776C13.6592 2.71766 13.7031 2.71696 13.7159 2.71693L13.793 2.72526L13.8264 2.73151L13.8576 2.73776Z" fill="#B4B4B3"/>
</svg>
