<svg width="200" height="240" viewBox="0 0 200 240" fill="none" xmlns="http://www.w3.org/2000/svg">
<g clip-path="url(#clip0_1168_14763)">
<path d="M90.687 116.614L103.511 140.431L110.84 125.775L151.208 131.522L199.695 105.746V34.0021L135.225 6.56074L42.6491 0.278564L2.51755 23.0917L0 84.2565L37.0285 103.103L90.687 116.614Z" fill="#81E5CF"/>
<path d="M109.326 222.081L122.561 229.157L135.011 228.109C135.011 228.109 138.155 236.235 144.446 235.316C150.737 234.397 151.917 228.893 150.869 220.378C149.821 211.862 141.302 203.08 141.302 203.08L109.326 222.081Z" fill="#ADFDEC"/>
<path d="M29.1655 189.748L24.1275 187.558L10.7083 175.708L5.5415 159.567L5.86937 154.145L11.2001 134.816V104.974L12.8424 102.345L14.8155 101.47L39.1362 118.487L48.3399 117.392L61.9962 94.3855L63.9692 93.8L66.6712 95.4072L82.7396 123.089L94.133 134.116L97.0897 158.77L102.254 158.261L117.456 155.793L131.434 156.317L139.909 161.209L149.78 157.365L169.262 138.932C169.262 138.932 189.267 125.129 198.006 133.516C206.741 141.903 178.784 150.29 178.784 150.29L156.68 166.279L147.944 170.474L153.711 179.909L156.595 193.887L159.042 194.411L163.149 193.012L175.031 211.358C175.031 211.358 178.047 224.268 172.148 226.232C166.249 228.199 159.961 216.601 159.961 216.601L155.242 220.729L142.66 223.088L128.31 216.993L105.509 226.458L80.348 228.199L54.4172 237.265C54.4172 237.265 30.9483 245.005 30.1228 233.03C29.6193 225.755 39.9529 224.97 39.9529 224.97L53.4423 212.91L39.8798 227.391C39.8798 227.391 16.9437 236.106 16.7271 225.295C16.5514 216.581 24.4817 212.781 24.4817 212.781L30.2399 190.105L29.1743 189.754L29.1655 189.748Z" fill="#E8FFFA"/>
<path d="M18.5007 128.619L26.352 124.588C27.2829 124.111 27.3561 122.808 26.4866 122.228L18.9398 117.193C18.047 116.596 16.8438 117.214 16.8087 118.288L16.5042 127.354C16.4691 128.399 17.5698 129.096 18.5007 128.619Z" fill="#3EDFBC"/>
<path d="M61.0764 111.549L56.5009 118.671C55.9915 119.468 56.3926 120.53 57.3 120.788L65.5875 123.144C66.7087 123.464 67.7098 122.36 67.2854 121.277L63.5705 111.798C63.1519 110.726 61.6941 110.583 61.0734 111.552L61.0764 111.549Z" fill="#3EDFBC"/>
<path d="M21.4107 166.405L23.6326 161.473C23.8902 160.902 24.6601 160.802 25.0524 161.294L28.3808 165.448C28.7877 165.954 28.4862 166.713 27.8422 166.803L22.2918 167.582C21.639 167.673 21.1385 167.008 21.4107 166.408V166.405Z" fill="#97CDCE"/>
<path d="M13.6126 177.079C15.8854 176.56 16.9712 172.827 16.0378 168.742C15.1044 164.656 12.5052 161.766 10.2324 162.285C7.95965 162.804 6.87387 166.537 7.80729 170.622C8.74071 174.708 11.3399 177.598 13.6126 177.079Z" fill="#81E5CF"/>
<path d="M46.8318 172.573C51.122 171.593 53.7764 167.194 52.7605 162.747C51.7446 158.301 47.4432 155.491 43.1529 156.471C38.8627 157.452 36.2083 161.851 37.2242 166.297C38.2401 170.743 42.5415 173.553 46.8318 172.573Z" fill="#81E5CF"/>
<path d="M2.51709 162.102L9.2413 166.268" stroke="#145D4D" stroke-width="1.19145" stroke-miterlimit="10"/>
<path d="M4.96777 177.872L9.82431 171.625" stroke="#145D4D" stroke-width="1.19145" stroke-miterlimit="10"/>
<path d="M46.9141 159.353L54.0481 152.336" stroke="#145D4D" stroke-width="1.19145" stroke-miterlimit="10"/>
<path d="M49.6509 167.354L57.022 170.228" stroke="#145D4D" stroke-width="1.19145" stroke-miterlimit="10"/>
<path d="M17.3623 150.508C17.6345 153.872 16.0129 156.921 13.7402 157.34C15.9537 156.956 17.96 159.21 18.327 162.416C18.327 162.416 18.3329 162.416 18.3388 162.416C18.3447 162.416 18.3447 162.416 18.3506 162.416C18.1908 159.166 19.777 156.274 21.9845 155.872C19.7059 156.265 17.6404 153.872 17.3682 150.508H17.3623Z" fill="#145D4D"/>
<path d="M32.4215 148.676C32.724 152.039 30.9221 155.089 28.397 155.508C30.8564 155.124 33.0856 157.378 33.4933 160.584C33.4933 160.584 33.4999 160.584 33.5065 160.584C33.5131 160.584 33.5131 160.584 33.5196 160.584C33.3421 157.334 35.1044 154.442 37.5573 154.04C35.0255 154.433 32.7305 152.039 32.428 148.676H32.4215Z" fill="#145D4D"/>
<path d="M114.859 27.231L81.7121 49.1015L80.1635 51.2619L80.0552 52.506L100.181 103.366L100.769 104.851L102.66 106.162L105.052 106.13L109.309 104.447L142.894 79.7102L122.757 28.8235L119.929 30.2872L116.194 29.2772L114.859 27.231Z" fill="#18C49E"/>
<path d="M116.194 29.2769L83.6034 50.4126L83.4072 51.8646L84.3498 52.9506L87.3943 51.7475L89.3967 50.9542L119.929 30.2868L116.194 29.2769Z" fill="#EDE9D6"/>
<path d="M98.1756 58.5047C99.9994 59.1517 101.735 59.6639 103.34 60.0621C102.821 58.3671 102.066 56.2448 101.522 54.4795C101.293 53.7418 102.514 53.171 102.734 54.0141C103.255 55.9667 103.919 57.8138 104.619 59.9918C104.73 60.3255 104.291 61.3531 103.77 61.2447C102.655 61.0223 100.529 60.51 99.1973 60.0504C99.6159 60.6768 100.193 61.5521 101.238 63.1505C101.609 63.8618 100.594 64.7049 100.169 64.0228C99.0626 62.1727 97.8975 60.4426 96.6856 58.7506C96.4807 58.4842 95.9127 57.8343 96.6943 57.3835C97.0017 57.2108 97.4291 57.3835 97.7306 57.8402C97.9004 58.1037 98.0409 58.3115 98.1727 58.5047H98.1756Z" fill="#CAFFF3"/>
<path d="M109.504 50.2493C108.348 51.0221 107.716 51.5812 106.644 52.4741C106.858 52.7668 107.274 53.5016 107.411 53.7943C107.526 54.0402 107.64 54.2832 107.754 54.4823C107.932 54.2744 108.102 54.0988 108.345 53.8705C109.039 53.2352 109.595 52.7551 110.506 52.1228C111.223 51.6222 111.539 52.5004 110.831 52.96C109.911 53.5631 109.42 54.0256 108.661 54.6667C108.451 54.8541 108.284 55.0297 108.105 55.2376C108.43 55.8816 108.702 56.47 109.071 57.2135C110.09 56.2446 111.252 55.179 112.306 54.4589C113.029 53.9729 113.36 54.7838 112.66 55.261C111.358 56.148 110.754 56.8037 109.39 58.0039C108.937 58.4108 108.328 58.3874 108.193 58.1035C107.49 56.6105 107.212 55.864 106.422 54.4032C105.778 53.203 104.996 52.7054 105.752 52.0438C107.005 50.9577 107.851 50.2434 109.106 49.3535C109.976 48.7329 110.415 49.6287 109.502 50.2405L109.504 50.2493Z" fill="#CAFFF3"/>
<path d="M111.888 48.8672C111.566 48.4339 112.221 47.5791 112.675 48.068C113.553 49.0428 114.71 50.8607 115.535 52.3127C115.509 50.808 115.438 48.8321 115.359 47.8104C115.321 47.3566 115.851 46.4287 116.478 47.0493C117.227 47.7899 117.938 48.554 118.623 49.1219C118.354 47.4737 118.02 45.5007 117.906 43.876C117.859 43.2378 118.664 42.7665 118.793 43.715C118.978 45.4714 119.2 47.2659 119.496 48.9345C119.686 49.9767 119.244 50.9017 118.427 50.1991C117.742 49.5961 116.975 48.8584 116.29 48.2407C116.252 49.6868 116.378 51.3291 116.34 52.4122C116.299 53.4368 115.474 54.3238 114.947 53.3812C113.644 51.0891 112.95 50.1377 111.888 48.8701V48.8672Z" fill="#CAFFF3"/>
<path d="M66.4793 24.4994L30.4841 24.0955L28.2242 24.9298L27.5099 25.808L16.8015 74.2182L16.4883 75.6321L17.2435 77.5759L19.0556 78.7673L23.1042 79.6631L60.885 78.1409L71.5993 29.7073L68.7334 29.3706L66.4412 26.7155L66.4793 24.4994Z" fill="#0C9174"/>
<path d="M66.4409 26.7153L31.2391 26.0391L30.3521 27.0285L30.5101 28.3254L33.4082 28.9635L35.314 29.388L68.733 29.3704L66.4409 26.7153Z" fill="#EDE9D6"/>
<path d="M38.0713 39.5138C39.1134 40.9248 40.1556 42.1923 41.1597 43.3047C41.631 41.7678 42.1404 39.7889 42.6292 38.1906C42.8341 37.5202 44.0373 37.7105 43.7768 38.457C43.1767 40.19 42.7375 41.9142 42.1579 43.9048C42.073 44.2122 41.2212 44.7596 40.8845 44.4142C40.1614 43.6794 38.8236 42.2157 38.0596 41.197C38.0567 41.882 38.0449 42.8305 38.0157 44.5606C37.9337 45.2836 36.7423 45.4007 36.7715 44.6718C36.8798 42.7222 36.8828 40.8282 36.833 38.9458C36.8154 38.6414 36.7188 37.8656 37.5356 37.9242C37.8547 37.9505 38.0889 38.296 38.083 38.7907C38.0771 39.0717 38.0742 39.303 38.0771 39.5138H38.0713Z" fill="#CAFFF3"/>
<path d="M50.7702 39.0654C49.5114 39.0567 48.7503 39.1591 47.4915 39.2821C47.5032 39.6099 47.4418 40.374 47.3949 40.6638C47.3569 40.9038 47.3159 41.1468 47.3042 41.3547C47.5442 41.2903 47.7579 41.2434 48.0565 41.1966C48.8996 41.0707 49.5612 40.9946 50.5653 40.9829C51.3586 40.9712 51.1478 41.7908 50.3838 41.7791C49.3885 41.7674 48.7854 41.8611 47.8896 41.9606C47.6379 41.9928 47.4213 42.0426 47.1841 42.107C47.0992 42.754 47.0056 43.3365 46.906 44.083C48.1619 43.8722 49.5758 43.6644 50.7321 43.6585C51.5225 43.6585 51.3586 44.4372 50.5887 44.4401C49.1601 44.446 48.3756 44.6304 46.7421 44.8412C46.1947 44.9173 45.7497 44.5894 45.7907 44.3084C46.022 42.8301 46.1918 42.1275 46.3411 40.6316C46.4669 39.405 46.1332 38.6322 47.0348 38.521C48.5278 38.3395 49.5231 38.2341 50.9195 38.2048C51.8885 38.1814 51.7626 39.0742 50.7643 39.0713L50.7702 39.0654Z" fill="#CAFFF3"/>
<path d="M53.2617 39.2385C53.2383 38.7496 54.1663 38.4393 54.26 39.0365C54.4239 40.2162 54.3712 42.1659 54.2512 43.6764C54.9947 42.5347 55.9461 41.0154 56.4057 40.2045C56.6077 39.8444 57.4772 39.417 57.6323 40.2045C57.8197 41.1413 57.966 42.0751 58.1914 42.8509C58.8267 41.4779 59.5761 39.8269 60.3167 38.5476C60.6036 38.0441 61.4496 38.0997 61.0632 38.8784C60.3109 40.2923 59.5673 41.7502 58.9438 43.1553C58.5574 44.0365 57.7553 44.5019 57.4976 43.5622C57.2898 42.763 57.0878 41.8175 56.8858 41.0066C56.1218 42.0722 55.3841 43.369 54.8044 44.1623C54.2541 44.9117 53.1827 45.1606 53.2646 44.1828C53.452 41.7999 53.411 40.7344 53.2588 39.2414L53.2617 39.2385Z" fill="#CAFFF3"/>
<path d="M168.86 35.5247L130.795 46.8536L128.688 48.4696L128.225 49.6288L132.748 104.14L132.88 105.732L134.311 107.535L136.606 108.197L141.167 107.819L180.482 93.8792L175.956 39.342L172.83 39.9216L169.545 37.8724L168.86 35.5247Z" fill="#0C9174"/>
<path d="M169.545 37.8721L132.227 48.6566L131.618 49.9885L132.207 51.3L135.468 51.0307L137.616 50.8521L172.83 39.9212L169.545 37.8721Z" fill="#EDE9D6"/>
<path d="M143.828 60.621C145.386 61.7685 146.899 62.7639 148.322 63.6069C148.316 61.8329 148.208 59.5818 148.199 57.7375C148.196 56.9647 149.528 56.7715 149.496 57.6439C149.428 59.6637 149.531 61.6251 149.566 63.9114C149.575 64.2627 148.858 65.1175 148.389 64.8657C147.385 64.33 145.5 63.2235 144.361 62.3979C144.581 63.121 144.879 64.1222 145.415 65.9576C145.564 66.748 144.346 67.2574 144.142 66.4816C143.62 64.3915 143.006 62.395 142.335 60.4278C142.215 60.1146 141.861 59.3271 142.742 59.1222C143.088 59.0461 143.445 59.333 143.6 59.857C143.685 60.1555 143.758 60.3985 143.828 60.621Z" fill="#CAFFF3"/>
<path d="M157.066 56.004C155.737 56.408 154.967 56.7622 153.682 57.3038C153.799 57.6463 153.986 58.4689 154.033 58.7909C154.071 59.0573 154.109 59.3237 154.162 59.5491C154.393 59.4027 154.604 59.2827 154.903 59.1363C155.749 58.7294 156.422 58.4308 157.476 58.0913C158.307 57.819 158.354 58.7529 157.543 58.987C156.489 59.3003 155.886 59.5959 154.973 59.9941C154.718 60.1112 154.507 60.2312 154.276 60.3776C154.399 61.086 154.49 61.73 154.63 62.5497C155.886 61.9174 157.309 61.2353 158.524 60.8518C159.355 60.5942 159.437 61.4695 158.629 61.7241C157.127 62.1955 156.357 62.6492 154.706 63.4015C154.156 63.6592 153.576 63.4601 153.532 63.1498C153.292 61.5163 153.246 60.723 152.912 59.0954C152.643 57.7605 152.04 57.0579 152.953 56.6422C154.466 55.966 155.482 55.5269 156.943 55.0409C157.956 54.7013 158.117 55.682 157.063 56.007L157.066 56.004Z" fill="#CAFFF3"/>
<path d="M159.747 55.372C159.563 54.8656 160.441 54.2362 160.734 54.8334C161.293 56.0219 161.873 58.0974 162.239 59.7251C162.648 58.2789 163.155 56.3673 163.374 55.3632C163.471 54.9183 164.247 54.1835 164.665 54.9593C165.169 55.8843 165.626 56.8211 166.12 57.5646C166.34 55.9107 166.595 53.9259 166.955 52.3363C167.095 51.7128 168.003 51.4932 167.85 52.4388C167.52 54.1747 167.212 55.9546 167.013 57.6378C166.893 58.6917 166.202 59.447 165.623 58.5395C165.143 57.7637 164.621 56.8357 164.144 56.0453C163.688 57.4183 163.333 59.0254 162.982 60.05C162.645 61.019 161.6 61.6308 161.366 60.574C160.784 58.0008 160.394 56.8913 159.747 55.3691V55.372Z" fill="#CAFFF3"/>
</g>
<defs>
<clipPath id="clip0_1168_14763">
<rect width="199.695" height="239.443" fill="white" transform="translate(0 0.278564)"/>
</clipPath>
</defs>
</svg>
